%TF.GenerationSoftware,KiCad,Pcbnew,7.0.11-7.0.11~ubuntu22.04.1*%
%TF.CreationDate,2024-03-20T16:02:33+01:00*%
%TF.ProjectId,sdrac_board,73647261-635f-4626-9f61-72642e6b6963,2.0*%
%TF.SameCoordinates,Original*%
%TF.FileFunction,Copper,L4,Bot*%
%TF.FilePolarity,Positive*%
%FSLAX46Y46*%
G04 Gerber Fmt 4.6, Leading zero omitted, Abs format (unit mm)*
G04 Created by KiCad (PCBNEW 7.0.11-7.0.11~ubuntu22.04.1) date 2024-03-20 16:02:33*
%MOMM*%
%LPD*%
G01*
G04 APERTURE LIST*
G04 Aperture macros list*
%AMRoundRect*
0 Rectangle with rounded corners*
0 $1 Rounding radius*
0 $2 $3 $4 $5 $6 $7 $8 $9 X,Y pos of 4 corners*
0 Add a 4 corners polygon primitive as box body*
4,1,4,$2,$3,$4,$5,$6,$7,$8,$9,$2,$3,0*
0 Add four circle primitives for the rounded corners*
1,1,$1+$1,$2,$3*
1,1,$1+$1,$4,$5*
1,1,$1+$1,$6,$7*
1,1,$1+$1,$8,$9*
0 Add four rect primitives between the rounded corners*
20,1,$1+$1,$2,$3,$4,$5,0*
20,1,$1+$1,$4,$5,$6,$7,0*
20,1,$1+$1,$6,$7,$8,$9,0*
20,1,$1+$1,$8,$9,$2,$3,0*%
%AMRotRect*
0 Rectangle, with rotation*
0 The origin of the aperture is its center*
0 $1 length*
0 $2 width*
0 $3 Rotation angle, in degrees counterclockwise*
0 Add horizontal line*
21,1,$1,$2,0,0,$3*%
G04 Aperture macros list end*
%TA.AperFunction,ComponentPad*%
%ADD10RoundRect,0.250001X-0.499999X-0.499999X0.499999X-0.499999X0.499999X0.499999X-0.499999X0.499999X0*%
%TD*%
%TA.AperFunction,ComponentPad*%
%ADD11C,1.500000*%
%TD*%
%TA.AperFunction,ComponentPad*%
%ADD12C,1.400000*%
%TD*%
%TA.AperFunction,ComponentPad*%
%ADD13R,3.500000X3.500000*%
%TD*%
%TA.AperFunction,ComponentPad*%
%ADD14C,3.500000*%
%TD*%
%TA.AperFunction,ComponentPad*%
%ADD15RoundRect,0.250001X0.499999X0.499999X-0.499999X0.499999X-0.499999X-0.499999X0.499999X-0.499999X0*%
%TD*%
%TA.AperFunction,ComponentPad*%
%ADD16R,1.700000X1.700000*%
%TD*%
%TA.AperFunction,ComponentPad*%
%ADD17O,1.700000X1.700000*%
%TD*%
%TA.AperFunction,ComponentPad*%
%ADD18O,1.000000X2.100000*%
%TD*%
%TA.AperFunction,ComponentPad*%
%ADD19O,1.000000X1.800000*%
%TD*%
%TA.AperFunction,ComponentPad*%
%ADD20RoundRect,0.250000X0.725000X-0.600000X0.725000X0.600000X-0.725000X0.600000X-0.725000X-0.600000X0*%
%TD*%
%TA.AperFunction,ComponentPad*%
%ADD21O,1.950000X1.700000*%
%TD*%
%TA.AperFunction,ComponentPad*%
%ADD22R,1.600000X1.600000*%
%TD*%
%TA.AperFunction,ComponentPad*%
%ADD23O,1.600000X1.600000*%
%TD*%
%TA.AperFunction,ComponentPad*%
%ADD24RoundRect,0.250000X0.600000X0.750000X-0.600000X0.750000X-0.600000X-0.750000X0.600000X-0.750000X0*%
%TD*%
%TA.AperFunction,ComponentPad*%
%ADD25O,1.700000X2.000000*%
%TD*%
%TA.AperFunction,SMDPad,CuDef*%
%ADD26RoundRect,0.150000X-0.150000X0.825000X-0.150000X-0.825000X0.150000X-0.825000X0.150000X0.825000X0*%
%TD*%
%TA.AperFunction,SMDPad,CuDef*%
%ADD27RoundRect,0.135000X0.035355X-0.226274X0.226274X-0.035355X-0.035355X0.226274X-0.226274X0.035355X0*%
%TD*%
%TA.AperFunction,SMDPad,CuDef*%
%ADD28RoundRect,0.135000X0.135000X0.185000X-0.135000X0.185000X-0.135000X-0.185000X0.135000X-0.185000X0*%
%TD*%
%TA.AperFunction,SMDPad,CuDef*%
%ADD29RoundRect,0.155000X-0.155000X0.212500X-0.155000X-0.212500X0.155000X-0.212500X0.155000X0.212500X0*%
%TD*%
%TA.AperFunction,SMDPad,CuDef*%
%ADD30RoundRect,0.150000X0.150000X-0.512500X0.150000X0.512500X-0.150000X0.512500X-0.150000X-0.512500X0*%
%TD*%
%TA.AperFunction,SMDPad,CuDef*%
%ADD31RoundRect,0.150000X0.521491X-0.309359X-0.309359X0.521491X-0.521491X0.309359X0.309359X-0.521491X0*%
%TD*%
%TA.AperFunction,SMDPad,CuDef*%
%ADD32RoundRect,0.135000X-0.135000X-0.185000X0.135000X-0.185000X0.135000X0.185000X-0.135000X0.185000X0*%
%TD*%
%TA.AperFunction,SMDPad,CuDef*%
%ADD33RoundRect,0.135000X-0.185000X0.135000X-0.185000X-0.135000X0.185000X-0.135000X0.185000X0.135000X0*%
%TD*%
%TA.AperFunction,SMDPad,CuDef*%
%ADD34RoundRect,0.200000X0.200000X0.275000X-0.200000X0.275000X-0.200000X-0.275000X0.200000X-0.275000X0*%
%TD*%
%TA.AperFunction,SMDPad,CuDef*%
%ADD35RoundRect,0.135000X0.185000X-0.135000X0.185000X0.135000X-0.185000X0.135000X-0.185000X-0.135000X0*%
%TD*%
%TA.AperFunction,SMDPad,CuDef*%
%ADD36RoundRect,0.075000X-0.548008X0.441942X0.441942X-0.548008X0.548008X-0.441942X-0.441942X0.548008X0*%
%TD*%
%TA.AperFunction,SMDPad,CuDef*%
%ADD37RoundRect,0.075000X-0.548008X-0.441942X-0.441942X-0.548008X0.548008X0.441942X0.441942X0.548008X0*%
%TD*%
%TA.AperFunction,SMDPad,CuDef*%
%ADD38RoundRect,0.250000X0.512652X0.159099X0.159099X0.512652X-0.512652X-0.159099X-0.159099X-0.512652X0*%
%TD*%
%TA.AperFunction,SMDPad,CuDef*%
%ADD39RoundRect,0.140000X0.021213X-0.219203X0.219203X-0.021213X-0.021213X0.219203X-0.219203X0.021213X0*%
%TD*%
%TA.AperFunction,SMDPad,CuDef*%
%ADD40RoundRect,0.250000X-0.650000X1.000000X-0.650000X-1.000000X0.650000X-1.000000X0.650000X1.000000X0*%
%TD*%
%TA.AperFunction,SMDPad,CuDef*%
%ADD41RoundRect,0.140000X0.140000X0.170000X-0.140000X0.170000X-0.140000X-0.170000X0.140000X-0.170000X0*%
%TD*%
%TA.AperFunction,SMDPad,CuDef*%
%ADD42RoundRect,0.140000X0.170000X-0.140000X0.170000X0.140000X-0.170000X0.140000X-0.170000X-0.140000X0*%
%TD*%
%TA.AperFunction,SMDPad,CuDef*%
%ADD43RoundRect,0.200000X0.275000X-0.200000X0.275000X0.200000X-0.275000X0.200000X-0.275000X-0.200000X0*%
%TD*%
%TA.AperFunction,SMDPad,CuDef*%
%ADD44RoundRect,0.140000X-0.021213X0.219203X-0.219203X0.021213X0.021213X-0.219203X0.219203X-0.021213X0*%
%TD*%
%TA.AperFunction,SMDPad,CuDef*%
%ADD45RoundRect,0.225000X0.335876X0.017678X0.017678X0.335876X-0.335876X-0.017678X-0.017678X-0.335876X0*%
%TD*%
%TA.AperFunction,SMDPad,CuDef*%
%ADD46RoundRect,0.250000X0.475000X-0.250000X0.475000X0.250000X-0.475000X0.250000X-0.475000X-0.250000X0*%
%TD*%
%TA.AperFunction,SMDPad,CuDef*%
%ADD47RoundRect,0.200000X-0.053033X0.335876X-0.335876X0.053033X0.053033X-0.335876X0.335876X-0.053033X0*%
%TD*%
%TA.AperFunction,SMDPad,CuDef*%
%ADD48RoundRect,0.200000X0.053033X-0.335876X0.335876X-0.053033X-0.053033X0.335876X-0.335876X0.053033X0*%
%TD*%
%TA.AperFunction,SMDPad,CuDef*%
%ADD49RoundRect,0.140000X-0.219203X-0.021213X-0.021213X-0.219203X0.219203X0.021213X0.021213X0.219203X0*%
%TD*%
%TA.AperFunction,SMDPad,CuDef*%
%ADD50RoundRect,0.140000X-0.170000X0.140000X-0.170000X-0.140000X0.170000X-0.140000X0.170000X0.140000X0*%
%TD*%
%TA.AperFunction,SMDPad,CuDef*%
%ADD51RoundRect,0.150000X-0.150000X0.512500X-0.150000X-0.512500X0.150000X-0.512500X0.150000X0.512500X0*%
%TD*%
%TA.AperFunction,SMDPad,CuDef*%
%ADD52RoundRect,0.140000X-0.140000X-0.170000X0.140000X-0.170000X0.140000X0.170000X-0.140000X0.170000X0*%
%TD*%
%TA.AperFunction,SMDPad,CuDef*%
%ADD53RoundRect,0.225000X-0.250000X0.225000X-0.250000X-0.225000X0.250000X-0.225000X0.250000X0.225000X0*%
%TD*%
%TA.AperFunction,SMDPad,CuDef*%
%ADD54RotRect,1.400000X1.200000X225.000000*%
%TD*%
%TA.AperFunction,SMDPad,CuDef*%
%ADD55RoundRect,0.150000X0.150000X-0.825000X0.150000X0.825000X-0.150000X0.825000X-0.150000X-0.825000X0*%
%TD*%
%TA.AperFunction,SMDPad,CuDef*%
%ADD56RoundRect,0.218750X0.424264X0.114905X0.114905X0.424264X-0.424264X-0.114905X-0.114905X-0.424264X0*%
%TD*%
%TA.AperFunction,ViaPad*%
%ADD57C,0.550000*%
%TD*%
%TA.AperFunction,ViaPad*%
%ADD58C,0.800000*%
%TD*%
%TA.AperFunction,Conductor*%
%ADD59C,0.254000*%
%TD*%
%TA.AperFunction,Conductor*%
%ADD60C,0.250000*%
%TD*%
%TA.AperFunction,Conductor*%
%ADD61C,0.750000*%
%TD*%
%TA.AperFunction,Conductor*%
%ADD62C,1.000000*%
%TD*%
%TA.AperFunction,Conductor*%
%ADD63C,0.508000*%
%TD*%
%TA.AperFunction,Conductor*%
%ADD64C,1.270000*%
%TD*%
%TA.AperFunction,Conductor*%
%ADD65C,0.200000*%
%TD*%
G04 APERTURE END LIST*
D10*
%TO.P,U4,1,Pin_1*%
%TO.N,GND*%
X9900000Y-37050000D03*
D11*
%TO.P,U4,2,Pin_2*%
%TO.N,/CAN/CAN_5V*%
X12900000Y-37050000D03*
%TO.P,U4,3,Pin_3*%
%TO.N,/CAN/CANH*%
X9900000Y-40050000D03*
%TO.P,U4,4,Pin_4*%
%TO.N,/CAN/CANL*%
X12900000Y-40050000D03*
%TD*%
D12*
%TO.P,J3,*%
%TO.N,*%
X1850000Y-14700000D03*
X1850000Y-3700000D03*
D13*
%TO.P,J3,1,Pin_1*%
%TO.N,GND*%
X6850000Y-11700000D03*
D14*
%TO.P,J3,2,Pin_2*%
%TO.N,VCC*%
X6850000Y-6700000D03*
%TD*%
D15*
%TO.P,J5,1,Pin_1*%
%TO.N,/SteperMotor/STEPER_B2*%
X45200000Y1880000D03*
D11*
%TO.P,J5,2,Pin_2*%
%TO.N,/SteperMotor/STEPER_A2*%
X42200000Y1880000D03*
%TO.P,J5,3,Pin_3*%
%TO.N,/SteperMotor/STEPER_A1*%
X45200000Y4880000D03*
%TO.P,J5,4,Pin_4*%
%TO.N,/SteperMotor/STEPER_B1*%
X42200000Y4880000D03*
%TD*%
D12*
%TO.P,J2,*%
%TO.N,*%
X1875000Y-29200000D03*
X1875000Y-18200000D03*
D13*
%TO.P,J2,1,Pin_1*%
%TO.N,GND*%
X11875000Y-21200000D03*
D14*
%TO.P,J2,2,Pin_2*%
%TO.N,VCC*%
X11875000Y-26200000D03*
%TD*%
D10*
%TO.P,J10,1,Pin_1*%
%TO.N,+5V*%
X33200000Y-37000000D03*
D11*
%TO.P,J10,2,Pin_2*%
%TO.N,+3V3*%
X36200000Y-37000000D03*
%TO.P,J10,3,Pin_3*%
%TO.N,GND*%
X39200000Y-37000000D03*
%TO.P,J10,4,Pin_4*%
%TO.N,/MCU/Poz_zero_sens*%
X33200000Y-40000000D03*
%TO.P,J10,5,Pin_5*%
%TO.N,/MCU/SCL*%
X36200000Y-40000000D03*
%TO.P,J10,6,Pin_6*%
%TO.N,/MCU/SDA*%
X39200000Y-40000000D03*
%TD*%
D10*
%TO.P,J9,1,Pin_1*%
%TO.N,+5V*%
X47600000Y-37000000D03*
D11*
%TO.P,J9,2,Pin_2*%
%TO.N,+3V3*%
X50600000Y-37000000D03*
%TO.P,J9,3,Pin_3*%
%TO.N,GND*%
X53600000Y-37000000D03*
%TO.P,J9,4,Pin_4*%
%TO.N,/MCU/Mag_enc_analog*%
X47600000Y-40000000D03*
%TO.P,J9,5,Pin_5*%
%TO.N,/MCU/SCL*%
X50600000Y-40000000D03*
%TO.P,J9,6,Pin_6*%
%TO.N,/MCU/SDA*%
X53600000Y-40000000D03*
%TD*%
D10*
%TO.P,U5,1,Pin_1*%
%TO.N,GND*%
X21700000Y-37040000D03*
D11*
%TO.P,U5,2,Pin_2*%
%TO.N,/CAN/CAN_5V*%
X24700000Y-37040000D03*
%TO.P,U5,3,Pin_3*%
%TO.N,/CAN/CANH*%
X21700000Y-40040000D03*
%TO.P,U5,4,Pin_4*%
%TO.N,/CAN/CANL*%
X24700000Y-40040000D03*
%TD*%
D16*
%TO.P,J12,1,Pin_1*%
%TO.N,GND*%
X51300000Y-31800000D03*
D17*
%TO.P,J12,2,Pin_2*%
%TO.N,/MCU/SWCLK*%
X53840000Y-31800000D03*
%TO.P,J12,3,Pin_3*%
%TO.N,/MCU/SWDIO*%
X56380000Y-31800000D03*
%TO.P,J12,4,Pin_4*%
%TO.N,/MCU/NRST*%
X58920000Y-31800000D03*
%TD*%
D18*
%TO.P,J6,S1,SHIELD*%
%TO.N,Net-(J6-SHIELD)*%
X61930000Y-37400000D03*
D19*
X61930000Y-41600000D03*
D18*
X70570000Y-37400000D03*
D19*
X70570000Y-41600000D03*
%TD*%
D15*
%TO.P,J4,1,Pin_1*%
%TO.N,/SteperMotor/STEPER_ENABLE*%
X33500000Y1880000D03*
D11*
%TO.P,J4,2,Pin_2*%
%TO.N,/SteperMotor/STEPER_STEP*%
X30500000Y1880000D03*
%TO.P,J4,3,Pin_3*%
%TO.N,/SteperMotor/STEPER_DIRECTION*%
X33500000Y4880000D03*
%TO.P,J4,4,Pin_4*%
%TO.N,+5V*%
X30500000Y4880000D03*
%TD*%
D20*
%TO.P,J1,1,Pin_1*%
%TO.N,GND*%
X75700000Y-21700000D03*
D21*
%TO.P,J1,2,Pin_2*%
%TO.N,/MCU/C_TX*%
X75700000Y-19200000D03*
%TO.P,J1,3,Pin_3*%
%TO.N,/MCU/C_RX*%
X75700000Y-16700000D03*
%TO.P,J1,4,Pin_4*%
%TO.N,/MCU/C_A2*%
X75700000Y-14200000D03*
%TO.P,J1,5,Pin_5*%
%TO.N,/MCU/C_A1*%
X75700000Y-11700000D03*
%TO.P,J1,6,Pin_6*%
%TO.N,+5V*%
X75700000Y-9200000D03*
%TD*%
D22*
%TO.P,A1,1,GND*%
%TO.N,GND*%
X52680000Y-6500000D03*
D23*
%TO.P,A1,2,VDD*%
%TO.N,+5V*%
X55220000Y-6500000D03*
%TO.P,A1,3,1B*%
%TO.N,/SteperMotor/STEPER_B1*%
X57760000Y-6500000D03*
%TO.P,A1,4,1A*%
%TO.N,/SteperMotor/STEPER_A1*%
X60300000Y-6500000D03*
%TO.P,A1,5,2A*%
%TO.N,/SteperMotor/STEPER_A2*%
X62840000Y-6500000D03*
%TO.P,A1,6,2B*%
%TO.N,/SteperMotor/STEPER_B2*%
X65380000Y-6500000D03*
%TO.P,A1,7,GND*%
%TO.N,GND*%
X67920000Y-6500000D03*
%TO.P,A1,8,VMOT*%
%TO.N,VCC*%
X70460000Y-6500000D03*
%TO.P,A1,9,~{ENABLE}*%
%TO.N,/SteperMotor/STEPER_ENABLE*%
X70460000Y6200000D03*
%TO.P,A1,10,MS1*%
%TO.N,unconnected-(A1-MS1-Pad10)*%
X67920000Y6200000D03*
%TO.P,A1,11,MS2*%
%TO.N,unconnected-(A1-MS2-Pad11)*%
X65380000Y6200000D03*
%TO.P,A1,12,MS3*%
%TO.N,unconnected-(A1-MS3-Pad12)*%
X62840000Y6200000D03*
%TO.P,A1,13,~{RESET}*%
%TO.N,+5V*%
X60300000Y6200000D03*
%TO.P,A1,14,~{SLEEP}*%
X57760000Y6200000D03*
%TO.P,A1,15,STEP*%
%TO.N,/SteperMotor/STEPER_STEP*%
X55220000Y6200000D03*
%TO.P,A1,16,DIR*%
%TO.N,/SteperMotor/STEPER_DIRECTION*%
X52680000Y6200000D03*
%TD*%
D15*
%TO.P,J7,1,Pin_1*%
%TO.N,/MCU/Temp_Eng*%
X22100000Y1880000D03*
D11*
%TO.P,J7,2,Pin_2*%
%TO.N,GND*%
X22100000Y4880000D03*
%TD*%
D15*
%TO.P,J8,1,Pin_1*%
%TO.N,/MCU/Temp_Step*%
X13700000Y1880000D03*
D11*
%TO.P,J8,2,Pin_2*%
%TO.N,GND*%
X13700000Y4880000D03*
%TD*%
D24*
%TO.P,J11,1,Pin_1*%
%TO.N,/MCU/PUL_SYNC*%
X69350000Y-26625000D03*
D25*
%TO.P,J11,2,Pin_2*%
%TO.N,/MCU/DIR_SYNC*%
X66850000Y-26625000D03*
%TD*%
D26*
%TO.P,U3,1,D*%
%TO.N,/CAN/TXD*%
X21595000Y-26325000D03*
%TO.P,U3,2,GND*%
%TO.N,GND*%
X22865000Y-26325000D03*
%TO.P,U3,3,VCC*%
%TO.N,+3V3*%
X24135000Y-26325000D03*
%TO.P,U3,4,R*%
%TO.N,/CAN/RXD*%
X25405000Y-26325000D03*
%TO.P,U3,5,NC*%
%TO.N,unconnected-(U3-NC-Pad5)*%
X25405000Y-31275000D03*
%TO.P,U3,6,CANL*%
%TO.N,/CAN/CANL*%
X24135000Y-31275000D03*
%TO.P,U3,7,CANH*%
%TO.N,/CAN/CANH*%
X22865000Y-31275000D03*
%TO.P,U3,8,NC*%
%TO.N,unconnected-(U3-NC-Pad8)*%
X21595000Y-31275000D03*
%TD*%
D27*
%TO.P,R33,1*%
%TO.N,/MCU/Temp_Board*%
X25139376Y-1660624D03*
%TO.P,R33,2*%
%TO.N,GND*%
X25860624Y-939376D03*
%TD*%
D28*
%TO.P,R9,1*%
%TO.N,+3V3*%
X31010000Y-35400000D03*
%TO.P,R9,2*%
%TO.N,/MCU/SCL*%
X29990000Y-35400000D03*
%TD*%
D29*
%TO.P,C30,1*%
%TO.N,+5V*%
X49400000Y-2812500D03*
%TO.P,C30,2*%
%TO.N,GND*%
X49400000Y-3947500D03*
%TD*%
D30*
%TO.P,U8,1,NC*%
%TO.N,unconnected-(U8-NC-Pad1)*%
X64300000Y-15112501D03*
%TO.P,U8,2,A*%
%TO.N,/MCU/MCU_STEPER_ENABLE*%
X63350000Y-15112501D03*
%TO.P,U8,3,GND*%
%TO.N,GND*%
X62400000Y-15112501D03*
%TO.P,U8,4,Y*%
%TO.N,/SteperMotor/STEPER_ENABLE*%
X62400000Y-12837501D03*
%TO.P,U8,5,VCC*%
%TO.N,+5V*%
X64300000Y-12837501D03*
%TD*%
D31*
%TO.P,U11,1,Vdd*%
%TO.N,+3V3*%
X29934664Y-2291161D03*
%TO.P,U11,2,Vout*%
%TO.N,/MCU/Temp_Board*%
X28591161Y-3634664D03*
%TO.P,U11,3,GND*%
%TO.N,GND*%
X27937087Y-1637087D03*
%TD*%
D32*
%TO.P,R35,1*%
%TO.N,/MCU/BOOT_EN*%
X74690000Y-26600000D03*
%TO.P,R35,2*%
%TO.N,/MCU/BOOT0*%
X75710000Y-26600000D03*
%TD*%
%TO.P,R12,1*%
%TO.N,/CAN/RXD_LED*%
X64590000Y-18400000D03*
%TO.P,R12,2*%
%TO.N,Net-(D5-A)*%
X65610000Y-18400000D03*
%TD*%
D33*
%TO.P,R10,1*%
%TO.N,+3V3*%
X20575000Y-2875000D03*
%TO.P,R10,2*%
%TO.N,/MCU/NRST*%
X20575000Y-3895000D03*
%TD*%
D28*
%TO.P,R30,1*%
%TO.N,Net-(R30-Pad1)*%
X59510000Y-29700000D03*
%TO.P,R30,2*%
%TO.N,/MCU/USB_D+*%
X58490000Y-29700000D03*
%TD*%
%TO.P,R4,1*%
%TO.N,/MCU/BOOT0*%
X75710000Y-27700000D03*
%TO.P,R4,2*%
%TO.N,GND*%
X74690000Y-27700000D03*
%TD*%
D33*
%TO.P,R11,1*%
%TO.N,+3V3*%
X72900000Y-26590000D03*
%TO.P,R11,2*%
%TO.N,/MCU/USR_BTN*%
X72900000Y-27610000D03*
%TD*%
D34*
%TO.P,R14,1*%
%TO.N,/CAN/CANH*%
X19225000Y-29300000D03*
%TO.P,R14,2*%
%TO.N,Net-(R14-Pad2)*%
X17575000Y-29300000D03*
%TD*%
D35*
%TO.P,R31,1*%
%TO.N,+3V3*%
X24600000Y990000D03*
%TO.P,R31,2*%
%TO.N,/MCU/Temp_Eng*%
X24600000Y2010000D03*
%TD*%
D36*
%TO.P,U2,1,VBAT*%
%TO.N,/MCU/3V3_MCU*%
X28335519Y-12738819D03*
%TO.P,U2,2,PC13*%
%TO.N,unconnected-(U2-PC13-Pad2)*%
X28689072Y-12385266D03*
%TO.P,U2,3,PC14*%
%TO.N,unconnected-(U2-PC14-Pad3)*%
X29042625Y-12031713D03*
%TO.P,U2,4,PC15*%
%TO.N,unconnected-(U2-PC15-Pad4)*%
X29396179Y-11678159D03*
%TO.P,U2,5,PH0*%
%TO.N,/MCU/OSC_IN*%
X29749732Y-11324606D03*
%TO.P,U2,6,PH1*%
%TO.N,/MCU/OSC_OUT*%
X30103286Y-10971052D03*
%TO.P,U2,7,NRST*%
%TO.N,/MCU/NRST*%
X30456839Y-10617499D03*
%TO.P,U2,8,PC0*%
%TO.N,unconnected-(U2-PC0-Pad8)*%
X30810392Y-10263946D03*
%TO.P,U2,9,PC1*%
%TO.N,unconnected-(U2-PC1-Pad9)*%
X31163946Y-9910392D03*
%TO.P,U2,10,PC2*%
%TO.N,unconnected-(U2-PC2-Pad10)*%
X31517499Y-9556839D03*
%TO.P,U2,11,PC3*%
%TO.N,unconnected-(U2-PC3-Pad11)*%
X31871052Y-9203286D03*
%TO.P,U2,12,VSSA*%
%TO.N,GND*%
X32224606Y-8849732D03*
%TO.P,U2,13,VDDA*%
%TO.N,/MCU/3V3_MCU*%
X32578159Y-8496179D03*
%TO.P,U2,14,PA0*%
%TO.N,/MCU/Temp_Step*%
X32931713Y-8142625D03*
%TO.P,U2,15,PA1*%
%TO.N,/MCU/Temp_Board*%
X33285266Y-7789072D03*
%TO.P,U2,16,PA2*%
%TO.N,/MCU/Temp_Eng*%
X33638819Y-7435519D03*
D37*
%TO.P,U2,17,PA3*%
%TO.N,/MCU/V_SENSE*%
X36361181Y-7435519D03*
%TO.P,U2,18,VSS*%
%TO.N,GND*%
X36714734Y-7789072D03*
%TO.P,U2,19,VDD*%
%TO.N,/MCU/3V3_MCU*%
X37068287Y-8142625D03*
%TO.P,U2,20,PA4*%
%TO.N,/MCU/Poz_zero_sens*%
X37421841Y-8496179D03*
%TO.P,U2,21,PA5*%
%TO.N,/MCU/C_A1*%
X37775394Y-8849732D03*
%TO.P,U2,22,PA6*%
%TO.N,/MCU/MCU_STEPER_STEP*%
X38128948Y-9203286D03*
%TO.P,U2,23,PA7*%
%TO.N,/MCU/C_A2*%
X38482501Y-9556839D03*
%TO.P,U2,24,PC4*%
%TO.N,/MCU/C_RX*%
X38836054Y-9910392D03*
%TO.P,U2,25,PC5*%
%TO.N,unconnected-(U2-PC5-Pad25)*%
X39189608Y-10263946D03*
%TO.P,U2,26,PB0*%
%TO.N,/MCU/MCU_STEPER_DIRECTION*%
X39543161Y-10617499D03*
%TO.P,U2,27,PB1*%
%TO.N,/MCU/MCU_STEPER_ENABLE*%
X39896714Y-10971052D03*
%TO.P,U2,28,PB2*%
%TO.N,unconnected-(U2-PB2-Pad28)*%
X40250268Y-11324606D03*
%TO.P,U2,29,PB10*%
%TO.N,/MCU/C_TX*%
X40603821Y-11678159D03*
%TO.P,U2,30,VCAP_1*%
%TO.N,Net-(U2-VCAP_1)*%
X40957375Y-12031713D03*
%TO.P,U2,31,VSS*%
%TO.N,GND*%
X41310928Y-12385266D03*
%TO.P,U2,32,VDD*%
%TO.N,/MCU/3V3_MCU*%
X41664481Y-12738819D03*
D36*
%TO.P,U2,33,PB12*%
%TO.N,/CAN/TXD_LED*%
X41664481Y-15461181D03*
%TO.P,U2,34,PB13*%
%TO.N,/CAN/RXD_LED*%
X41310928Y-15814734D03*
%TO.P,U2,35,PB14*%
%TO.N,unconnected-(U2-PB14-Pad35)*%
X40957375Y-16168287D03*
%TO.P,U2,36,PB15*%
%TO.N,unconnected-(U2-PB15-Pad36)*%
X40603821Y-16521841D03*
%TO.P,U2,37,PC6*%
%TO.N,/MCU/USR_LED1*%
X40250268Y-16875394D03*
%TO.P,U2,38,PC7*%
%TO.N,/MCU/USR_LED2*%
X39896714Y-17228948D03*
%TO.P,U2,39,PC8*%
%TO.N,/MCU/BOOT_EN*%
X39543161Y-17582501D03*
%TO.P,U2,40,PC9*%
%TO.N,/MCU/USR_BTN*%
X39189608Y-17936054D03*
%TO.P,U2,41,PA8*%
%TO.N,/MCU/PUL_SYNC*%
X38836054Y-18289608D03*
%TO.P,U2,42,PA9*%
%TO.N,/MCU/DIR_SYNC*%
X38482501Y-18643161D03*
%TO.P,U2,43,PA10*%
%TO.N,unconnected-(U2-PA10-Pad43)*%
X38128948Y-18996714D03*
%TO.P,U2,44,PA11*%
%TO.N,/MCU/USB_D-*%
X37775394Y-19350268D03*
%TO.P,U2,45,PA12*%
%TO.N,/MCU/USB_D+*%
X37421841Y-19703821D03*
%TO.P,U2,46,PA13*%
%TO.N,/MCU/SWDIO*%
X37068287Y-20057375D03*
%TO.P,U2,47,VSS*%
%TO.N,GND*%
X36714734Y-20410928D03*
%TO.P,U2,48,VDD*%
%TO.N,/MCU/3V3_MCU*%
X36361181Y-20764481D03*
D37*
%TO.P,U2,49,PA14*%
%TO.N,/MCU/SWCLK*%
X33638819Y-20764481D03*
%TO.P,U2,50,PA15*%
%TO.N,unconnected-(U2-PA15-Pad50)*%
X33285266Y-20410928D03*
%TO.P,U2,51,PC10*%
%TO.N,unconnected-(U2-PC10-Pad51)*%
X32931713Y-20057375D03*
%TO.P,U2,52,PC11*%
%TO.N,unconnected-(U2-PC11-Pad52)*%
X32578159Y-19703821D03*
%TO.P,U2,53,PC12*%
%TO.N,unconnected-(U2-PC12-Pad53)*%
X32224606Y-19350268D03*
%TO.P,U2,54,PD2*%
%TO.N,unconnected-(U2-PD2-Pad54)*%
X31871052Y-18996714D03*
%TO.P,U2,55,PB3*%
%TO.N,/MCU/Mag_enc_analog*%
X31517499Y-18643161D03*
%TO.P,U2,56,PB4*%
%TO.N,unconnected-(U2-PB4-Pad56)*%
X31163946Y-18289608D03*
%TO.P,U2,57,PB5*%
%TO.N,unconnected-(U2-PB5-Pad57)*%
X30810392Y-17936054D03*
%TO.P,U2,58,PB6*%
%TO.N,/MCU/SCL*%
X30456839Y-17582501D03*
%TO.P,U2,59,PB7*%
%TO.N,/MCU/SDA*%
X30103286Y-17228948D03*
%TO.P,U2,60,BOOT0*%
%TO.N,/MCU/BOOT0*%
X29749732Y-16875394D03*
%TO.P,U2,61,PB8*%
%TO.N,/CAN/RXD*%
X29396179Y-16521841D03*
%TO.P,U2,62,PB9*%
%TO.N,/CAN/TXD*%
X29042625Y-16168287D03*
%TO.P,U2,63,VSS*%
%TO.N,GND*%
X28689072Y-15814734D03*
%TO.P,U2,64,VDD*%
%TO.N,/MCU/3V3_MCU*%
X28335519Y-15461181D03*
%TD*%
D28*
%TO.P,R29,1*%
%TO.N,Net-(R29-Pad1)*%
X59510000Y-28700000D03*
%TO.P,R29,2*%
%TO.N,/MCU/USB_D-*%
X58490000Y-28700000D03*
%TD*%
D38*
%TO.P,C10,1*%
%TO.N,/MCU/3V3_MCU*%
X21871751Y-14771751D03*
%TO.P,C10,2*%
%TO.N,GND*%
X20528249Y-13428249D03*
%TD*%
D28*
%TO.P,R28,1*%
%TO.N,GND*%
X66005000Y-39100000D03*
%TO.P,R28,2*%
%TO.N,Net-(J6-CC1)*%
X64985000Y-39100000D03*
%TD*%
D39*
%TO.P,C4,1*%
%TO.N,/MCU/3V3_MCU*%
X37460589Y-23039411D03*
%TO.P,C4,2*%
%TO.N,GND*%
X38139411Y-22360589D03*
%TD*%
D40*
%TO.P,D1,1,K*%
%TO.N,+5V*%
X70000000Y-29500000D03*
%TO.P,D1,2,A*%
%TO.N,/USB/V_BUS*%
X70000000Y-33500000D03*
%TD*%
D41*
%TO.P,C40,1*%
%TO.N,+5V*%
X60230000Y-11337500D03*
%TO.P,C40,2*%
%TO.N,GND*%
X59270000Y-11337500D03*
%TD*%
D32*
%TO.P,R18,1*%
%TO.N,+3V3*%
X74690000Y-1500000D03*
%TO.P,R18,2*%
%TO.N,Net-(D8-A)*%
X75710000Y-1500000D03*
%TD*%
D42*
%TO.P,C1,1*%
%TO.N,/MCU/NRST*%
X19275000Y-3865000D03*
%TO.P,C1,2*%
%TO.N,GND*%
X19275000Y-2905000D03*
%TD*%
D41*
%TO.P,C36,1*%
%TO.N,/MCU/3V3_MCU*%
X39680000Y-5100000D03*
%TO.P,C36,2*%
%TO.N,GND*%
X38720000Y-5100000D03*
%TD*%
D30*
%TO.P,U7,1,NC*%
%TO.N,unconnected-(U7-NC-Pad1)*%
X60100000Y-15075001D03*
%TO.P,U7,2,A*%
%TO.N,/MCU/MCU_STEPER_DIRECTION*%
X59150000Y-15075001D03*
%TO.P,U7,3,GND*%
%TO.N,GND*%
X58200000Y-15075001D03*
%TO.P,U7,4,Y*%
%TO.N,/SteperMotor/STEPER_DIRECTION*%
X58200000Y-12800001D03*
%TO.P,U7,5,VCC*%
%TO.N,+5V*%
X60100000Y-12800001D03*
%TD*%
D43*
%TO.P,R26,1*%
%TO.N,Net-(J6-SHIELD)*%
X72800000Y-33825000D03*
%TO.P,R26,2*%
%TO.N,GND*%
X72800000Y-32175000D03*
%TD*%
D33*
%TO.P,R2,1*%
%TO.N,GND*%
X37165001Y-30754999D03*
%TO.P,R2,2*%
%TO.N,Net-(R2-Pad2)*%
X37165001Y-31774999D03*
%TD*%
D39*
%TO.P,C2,1*%
%TO.N,GND*%
X25260589Y-10439411D03*
%TO.P,C2,2*%
%TO.N,/MCU/OSC_IN*%
X25939411Y-9760589D03*
%TD*%
D28*
%TO.P,R34,1*%
%TO.N,Net-(R34-Pad1)*%
X77910000Y-26600000D03*
%TO.P,R34,2*%
%TO.N,/MCU/BOOT0*%
X76890000Y-26600000D03*
%TD*%
D44*
%TO.P,C43,1*%
%TO.N,+3V3*%
X31060731Y-3516224D03*
%TO.P,C43,2*%
%TO.N,GND*%
X30381909Y-4195046D03*
%TD*%
D32*
%TO.P,R3,1*%
%TO.N,/MCU/USR_LED1*%
X64590000Y-20000000D03*
%TO.P,R3,2*%
%TO.N,Net-(D3-A)*%
X65610000Y-20000000D03*
%TD*%
D45*
%TO.P,C8,1*%
%TO.N,/MCU/3V3_MCU*%
X20545926Y-16132932D03*
%TO.P,C8,2*%
%TO.N,GND*%
X19449910Y-15036916D03*
%TD*%
D46*
%TO.P,C42,1*%
%TO.N,Net-(J6-SHIELD)*%
X74600000Y-33950000D03*
%TO.P,C42,2*%
%TO.N,GND*%
X74600000Y-32050000D03*
%TD*%
D47*
%TO.P,R16,1*%
%TO.N,/MCU/V_SENSE*%
X36544023Y-4277297D03*
%TO.P,R16,2*%
%TO.N,GND*%
X35377297Y-5444023D03*
%TD*%
D33*
%TO.P,R5,1*%
%TO.N,GND*%
X38465000Y-30755001D03*
%TO.P,R5,2*%
%TO.N,Net-(R5-Pad2)*%
X38465000Y-31775001D03*
%TD*%
D48*
%TO.P,R15,1*%
%TO.N,VCC*%
X34316637Y-4383363D03*
%TO.P,R15,2*%
%TO.N,/MCU/V_SENSE*%
X35483363Y-3216637D03*
%TD*%
D32*
%TO.P,R13,1*%
%TO.N,/CAN/TXD_LED*%
X64590000Y-17400000D03*
%TO.P,R13,2*%
%TO.N,Net-(D6-A)*%
X65610000Y-17400000D03*
%TD*%
D49*
%TO.P,C6,1*%
%TO.N,/MCU/3V3_MCU*%
X26260589Y-16760589D03*
%TO.P,C6,2*%
%TO.N,GND*%
X26939411Y-17439411D03*
%TD*%
D28*
%TO.P,R7,1*%
%TO.N,GND*%
X34375000Y-25875000D03*
%TO.P,R7,2*%
%TO.N,Net-(U1-WP)*%
X33355000Y-25875000D03*
%TD*%
D50*
%TO.P,C11,1*%
%TO.N,+3V3*%
X27000000Y-27620000D03*
%TO.P,C11,2*%
%TO.N,GND*%
X27000000Y-28580000D03*
%TD*%
%TO.P,C32,1*%
%TO.N,+5V*%
X48300000Y-2820000D03*
%TO.P,C32,2*%
%TO.N,GND*%
X48300000Y-3780000D03*
%TD*%
D45*
%TO.P,C9,1*%
%TO.N,/MCU/3V3_MCU*%
X19362221Y-17233794D03*
%TO.P,C9,2*%
%TO.N,GND*%
X18266205Y-16137778D03*
%TD*%
D32*
%TO.P,R27,1*%
%TO.N,GND*%
X66985000Y-39100000D03*
%TO.P,R27,2*%
%TO.N,Net-(J6-CC2)*%
X68005000Y-39100000D03*
%TD*%
D29*
%TO.P,C31,1*%
%TO.N,+5V*%
X50600000Y-2812500D03*
%TO.P,C31,2*%
%TO.N,GND*%
X50600000Y-3947500D03*
%TD*%
D32*
%TO.P,R17,1*%
%TO.N,VCC*%
X74690000Y-300000D03*
%TO.P,R17,2*%
%TO.N,Net-(D7-A)*%
X75710000Y-300000D03*
%TD*%
D41*
%TO.P,C39,1*%
%TO.N,+5V*%
X64329999Y-11175000D03*
%TO.P,C39,2*%
%TO.N,GND*%
X63369999Y-11175000D03*
%TD*%
D32*
%TO.P,R8,1*%
%TO.N,/MCU/USR_LED2*%
X64590000Y-21700000D03*
%TO.P,R8,2*%
%TO.N,Net-(D4-A)*%
X65610000Y-21700000D03*
%TD*%
D51*
%TO.P,U10,1,I/O1*%
%TO.N,Net-(R29-Pad1)*%
X65250000Y-31062500D03*
%TO.P,U10,2,GND*%
%TO.N,GND*%
X66200000Y-31062500D03*
%TO.P,U10,3,I/O2*%
%TO.N,Net-(R30-Pad1)*%
X67150000Y-31062500D03*
%TO.P,U10,4,I/O2*%
%TO.N,/USB/USB_CONN_D+*%
X67150000Y-33337500D03*
%TO.P,U10,5,VBUS*%
%TO.N,/USB/V_BUS*%
X66200000Y-33337500D03*
%TO.P,U10,6,I/O1*%
%TO.N,/USB/USB_CONN_D-*%
X65250000Y-33337500D03*
%TD*%
D52*
%TO.P,C47,1*%
%TO.N,/MCU/BOOT0*%
X76920000Y-27700000D03*
%TO.P,C47,2*%
%TO.N,GND*%
X77880000Y-27700000D03*
%TD*%
D53*
%TO.P,C14,1*%
%TO.N,Net-(U2-VCAP_1)*%
X43900000Y-11225000D03*
%TO.P,C14,2*%
%TO.N,GND*%
X43900000Y-12775000D03*
%TD*%
D54*
%TO.P,Y1,1,1*%
%TO.N,/MCU/OSC_OUT*%
X25278858Y-7323223D03*
%TO.P,Y1,2,2*%
%TO.N,GND*%
X23723223Y-8878858D03*
%TO.P,Y1,3,3*%
%TO.N,/MCU/OSC_IN*%
X22521142Y-7676777D03*
%TO.P,Y1,4,4*%
%TO.N,GND*%
X24076777Y-6121142D03*
%TD*%
D44*
%TO.P,C7,1*%
%TO.N,/MCU/3V3_MCU*%
X30439411Y-6760589D03*
%TO.P,C7,2*%
%TO.N,GND*%
X29760589Y-7439411D03*
%TD*%
%TO.P,C3,1*%
%TO.N,GND*%
X27439411Y-7860589D03*
%TO.P,C3,2*%
%TO.N,/MCU/OSC_OUT*%
X26760589Y-8539411D03*
%TD*%
D33*
%TO.P,R1,1*%
%TO.N,GND*%
X35965001Y-30755000D03*
%TO.P,R1,2*%
%TO.N,Net-(R1-Pad2)*%
X35965001Y-31775000D03*
%TD*%
D42*
%TO.P,C5,1*%
%TO.N,/MCU/3V3_MCU*%
X44100000Y-15180000D03*
%TO.P,C5,2*%
%TO.N,GND*%
X44100000Y-14220000D03*
%TD*%
D40*
%TO.P,D2,1,K*%
%TO.N,+5V*%
X18200000Y-21200000D03*
%TO.P,D2,2,A*%
%TO.N,/CAN/CAN_5V*%
X18200000Y-25200000D03*
%TD*%
D32*
%TO.P,R6,1*%
%TO.N,+3V3*%
X27990000Y-36400000D03*
%TO.P,R6,2*%
%TO.N,/MCU/SDA*%
X29010000Y-36400000D03*
%TD*%
D30*
%TO.P,U9,1,NC*%
%TO.N,unconnected-(U9-NC-Pad1)*%
X55500000Y-15175000D03*
%TO.P,U9,2,A*%
%TO.N,/MCU/MCU_STEPER_STEP*%
X54550000Y-15175000D03*
%TO.P,U9,3,GND*%
%TO.N,GND*%
X53600000Y-15175000D03*
%TO.P,U9,4,Y*%
%TO.N,/SteperMotor/STEPER_STEP*%
X53600000Y-12900000D03*
%TO.P,U9,5,VCC*%
%TO.N,+5V*%
X55500000Y-12900000D03*
%TD*%
D55*
%TO.P,U1,1,NC*%
%TO.N,Net-(R1-Pad2)*%
X34470000Y-32650000D03*
%TO.P,U1,2,NC*%
%TO.N,Net-(R2-Pad2)*%
X33200000Y-32650000D03*
%TO.P,U1,3,NC*%
%TO.N,Net-(R5-Pad2)*%
X31930000Y-32650000D03*
%TO.P,U1,4,VSS*%
%TO.N,GND*%
X30660000Y-32650000D03*
%TO.P,U1,5,SDA*%
%TO.N,/MCU/SDA*%
X30660000Y-27700000D03*
%TO.P,U1,6,SCL*%
%TO.N,/MCU/SCL*%
X31930000Y-27700000D03*
%TO.P,U1,7,WP*%
%TO.N,Net-(U1-WP)*%
X33200000Y-27700000D03*
%TO.P,U1,8,VDD*%
%TO.N,+3V3*%
X34470000Y-27700000D03*
%TD*%
D41*
%TO.P,C41,1*%
%TO.N,+5V*%
X55530000Y-11237500D03*
%TO.P,C41,2*%
%TO.N,GND*%
X54570000Y-11237500D03*
%TD*%
D56*
%TO.P,FB1,1*%
%TO.N,/MCU/3V3_MCU*%
X23365514Y-13437087D03*
%TO.P,FB1,2*%
%TO.N,+3V3*%
X21862912Y-11934485D03*
%TD*%
D35*
%TO.P,R32,1*%
%TO.N,+3V3*%
X15900000Y990000D03*
%TO.P,R32,2*%
%TO.N,/MCU/Temp_Step*%
X15900000Y2010000D03*
%TD*%
D57*
%TO.N,GND*%
X63400000Y-13371000D03*
X71750000Y-30150000D03*
X7200000Y-18600000D03*
X66900000Y1800000D03*
X31500000Y-15200000D03*
X36000000Y-15185995D03*
X10200000Y-14500000D03*
X51500000Y-14400000D03*
X19000000Y100000D03*
X11600000Y-12100000D03*
X27400000Y1300000D03*
X8400000Y-21300000D03*
X68100000Y-22900000D03*
X34900000Y-16600000D03*
X37900000Y-16100000D03*
X12700000Y-14500000D03*
X34100000Y-17300000D03*
X27400000Y0D03*
X8400000Y-18600000D03*
X26900000Y-11800000D03*
X52150000Y-22602000D03*
X37500000Y-25700000D03*
X34100000Y-15800000D03*
X37200000Y-12800000D03*
X11500000Y-15700000D03*
X27798000Y-29100000D03*
X61350000Y-15175000D03*
X41900000Y-25400000D03*
X7200000Y-22500000D03*
X36800000Y-16100000D03*
X71300000Y2700000D03*
X35965000Y-28600000D03*
X54600000Y-13400000D03*
X67000000Y-38300000D03*
X51500000Y-15598000D03*
X11600000Y-10800000D03*
X42400000Y-14000000D03*
X11600000Y-9600000D03*
X71300000Y1800000D03*
X8400000Y-19800000D03*
X74235000Y-29300000D03*
X37100000Y-15200000D03*
X43400000Y-14000000D03*
X67900000Y1800000D03*
X32800000Y-12800000D03*
X78210000Y-29200000D03*
X34700000Y-12300000D03*
X28700000Y-8600000D03*
X49000000Y-26200000D03*
X5900000Y-21300000D03*
X52500000Y-15100000D03*
X57050000Y-15075000D03*
X20600000Y-9600000D03*
X50100000Y-26200000D03*
X42900000Y-26400000D03*
X10200000Y-15700000D03*
X66200000Y-29800000D03*
X53300000Y-26200000D03*
X5900000Y-22500000D03*
X69087500Y-22900000D03*
X38300000Y-26600000D03*
X50900000Y-22602000D03*
X7200000Y-21300000D03*
X12800000Y-12100000D03*
X62700000Y-35500000D03*
X34400000Y-9000000D03*
X31200000Y-34300000D03*
X6500000Y1300000D03*
X71750000Y-31250000D03*
X66900000Y2700000D03*
X69000000Y2700000D03*
X70200000Y-35400000D03*
X70200000Y1800000D03*
X5900000Y-18600000D03*
X39700000Y-25600000D03*
X12800000Y-10800000D03*
X8400000Y-22500000D03*
X11500000Y-14500000D03*
X59200000Y-13371000D03*
X38400000Y-15200000D03*
X50600000Y-14100000D03*
X7200000Y-19800000D03*
X12800000Y-9600000D03*
X19300000Y-27700000D03*
X50600000Y-15100000D03*
X5900000Y-19800000D03*
X40500000Y-26300000D03*
D58*
X78300000Y-7000000D03*
D57*
X70200000Y2700000D03*
X69000000Y1800000D03*
X67900000Y2700000D03*
X51100000Y-19102000D03*
X12700000Y-15700000D03*
%TO.N,+5V*%
X67200000Y-14200000D03*
X70000000Y-14200000D03*
D58*
X66000000Y-28700000D03*
D57*
X20902500Y-21502500D03*
X71000000Y-14200000D03*
X56800000Y-13335500D03*
X61800000Y3900000D03*
X65900000Y-13483501D03*
X61200000Y-13335500D03*
X21700000Y-20700000D03*
X69000000Y-14200000D03*
X68100000Y-14200000D03*
X64100000Y3900000D03*
X22400000Y-20005000D03*
X63000000Y3900000D03*
D58*
X64743519Y-27573513D03*
D57*
%TO.N,/SteperMotor/STEPER_DIRECTION*%
X35800000Y100000D03*
%TO.N,/MCU/NRST*%
X45600000Y-35200000D03*
X8650000Y1400000D03*
X11400000Y-36200000D03*
%TO.N,+3V3*%
X28500000Y400000D03*
X34500000Y-29200000D03*
X27800000Y-35400000D03*
X32300000Y-35100000D03*
X24800000Y100000D03*
X59700000Y-22602000D03*
X61500000Y-17400000D03*
X20100000Y-11600000D03*
X60700000Y-22602000D03*
D58*
X76300000Y-6700000D03*
D57*
X58700000Y-22602000D03*
X72574321Y-25125679D03*
X19000000Y-8700000D03*
X19000000Y-9800000D03*
X55700000Y-22602000D03*
X57700000Y-22602000D03*
X19400000Y-10900000D03*
X26400000Y-26300000D03*
X18600000Y-7700000D03*
X20200000Y200000D03*
X74110000Y-24700000D03*
X61600000Y-22602000D03*
X15900000Y200000D03*
X56700000Y-22602000D03*
%TO.N,/USB/V_BUS*%
X68600000Y-35600000D03*
X63900000Y-35500000D03*
%TO.N,Net-(D3-A)*%
X66600000Y-20000000D03*
%TO.N,Net-(D4-A)*%
X66600000Y-21700000D03*
%TO.N,Net-(D5-A)*%
X66600000Y-18300000D03*
%TO.N,Net-(D6-A)*%
X66500000Y-17300000D03*
%TO.N,Net-(D7-A)*%
X77500000Y-1700000D03*
%TO.N,Net-(D8-A)*%
X75400000Y-2500000D03*
%TO.N,Net-(J6-CC1)*%
X65000000Y-38100000D03*
%TO.N,/USB/USB_CONN_D+*%
X67150000Y-34750000D03*
%TO.N,/USB/USB_CONN_D-*%
X65300000Y-34700000D03*
%TO.N,Net-(J6-CC2)*%
X68000000Y-38100000D03*
%TO.N,/MCU/USR_BTN*%
X72900000Y-30100000D03*
%TO.N,Net-(R14-Pad2)*%
X18305000Y-31500000D03*
%TO.N,/MCU/Poz_zero_sens*%
X70700000Y-16100000D03*
%TO.N,/MCU/C_RX*%
X47900000Y-11600000D03*
%TO.N,/MCU/C_A2*%
X48798000Y-11300000D03*
%TO.N,/MCU/C_A1*%
X50200000Y-10700000D03*
%TO.N,Net-(R34-Pad1)*%
X76210000Y-25600000D03*
%TO.N,VCC*%
X33900000Y-5800000D03*
X73800000Y-400000D03*
%TD*%
D59*
%TO.N,VCC*%
X33900000Y-5800000D02*
X33900000Y-5100000D01*
X34316637Y-4683363D02*
X34316637Y-4383363D01*
X33900000Y-5100000D02*
X34316637Y-4683363D01*
%TO.N,/MCU/BOOT0*%
X29749732Y-16875394D02*
X28500000Y-18125126D01*
X62272555Y-40373000D02*
X62280555Y-40381000D01*
X28500000Y-18125126D02*
X28500000Y-32300000D01*
X28500000Y-32300000D02*
X26200000Y-34600000D01*
X58300000Y-42300000D02*
X60227000Y-40373000D01*
X70019000Y-40381000D02*
X76700000Y-33700000D01*
X26200000Y-34600000D02*
X26200000Y-41100000D01*
X26200000Y-41100000D02*
X27400000Y-42300000D01*
X27400000Y-42300000D02*
X58300000Y-42300000D01*
X60227000Y-40373000D02*
X62272555Y-40373000D01*
X62280555Y-40381000D02*
X70019000Y-40381000D01*
X76700000Y-33700000D02*
X76700000Y-27920000D01*
X76700000Y-27920000D02*
X76920000Y-27700000D01*
%TO.N,/MCU/PUL_SYNC*%
X38836054Y-18289608D02*
X38836054Y-18312831D01*
X38836054Y-18312831D02*
X46023223Y-25500000D01*
X50151357Y-25500000D02*
X53048643Y-25500000D01*
X46023223Y-25500000D02*
X46025223Y-25498000D01*
X46025223Y-25498000D02*
X50149357Y-25498000D01*
X50149357Y-25498000D02*
X50151357Y-25500000D01*
X53048643Y-25500000D02*
X53250643Y-25298000D01*
X53250643Y-25298000D02*
X68023000Y-25298000D01*
X68023000Y-25298000D02*
X69350000Y-26625000D01*
D60*
%TO.N,/MCU/DIR_SYNC*%
X38482501Y-18643161D02*
X39700000Y-19860660D01*
X39700000Y-19860660D02*
X39700000Y-20200000D01*
X39700000Y-20200000D02*
X46300000Y-26800000D01*
X53748529Y-26600000D02*
X66825000Y-26600000D01*
X46300000Y-26800000D02*
X53548529Y-26800000D01*
X53548529Y-26800000D02*
X53748529Y-26600000D01*
X66825000Y-26600000D02*
X66850000Y-26625000D01*
D61*
%TO.N,+5V*%
X69200000Y-28700000D02*
X70000000Y-29500000D01*
X64743519Y-27573513D02*
X65870006Y-28700000D01*
X65870006Y-28700000D02*
X69200000Y-28700000D01*
D59*
%TO.N,/MCU/C_RX*%
X47900000Y-11600000D02*
X47900000Y-11400000D01*
X47900000Y-11400000D02*
X44900000Y-8400000D01*
X44900000Y-8400000D02*
X40346446Y-8400000D01*
X40346446Y-8400000D02*
X38836054Y-9910392D01*
%TO.N,/MCU/MCU_STEPER_DIRECTION*%
X39543161Y-10617499D02*
X41160660Y-9000000D01*
X41160660Y-9000000D02*
X44800000Y-9000000D01*
X44800000Y-9000000D02*
X47200000Y-11400000D01*
X47200000Y-11400000D02*
X47200000Y-14000000D01*
X47200000Y-14000000D02*
X50000000Y-16800000D01*
X59150000Y-16575000D02*
X59150001Y-15075000D01*
X50000000Y-16800000D02*
X58925000Y-16800000D01*
X58925000Y-16800000D02*
X59150000Y-16575000D01*
%TO.N,/MCU/MCU_STEPER_ENABLE*%
X39896714Y-10971052D02*
X41267766Y-9600000D01*
X41267766Y-9600000D02*
X44600000Y-9600000D01*
X62900000Y-16500000D02*
X63350001Y-16049999D01*
X44600000Y-9600000D02*
X46600000Y-11600000D01*
X63350001Y-16049999D02*
X63350001Y-15112500D01*
X46600000Y-11600000D02*
X46600000Y-14300000D01*
X61300000Y-16500000D02*
X62900000Y-16500000D01*
X46600000Y-14300000D02*
X49800000Y-17500000D01*
X60300000Y-17500000D02*
X61300000Y-16500000D01*
X49800000Y-17500000D02*
X60300000Y-17500000D01*
D60*
%TO.N,/MCU/C_TX*%
X40603821Y-11678159D02*
X42081980Y-10200000D01*
X42081980Y-10200000D02*
X44300000Y-10200000D01*
X44300000Y-10200000D02*
X45700000Y-11600000D01*
X45700000Y-11600000D02*
X45700000Y-14800000D01*
X45700000Y-14800000D02*
X49300000Y-18400000D01*
X62100000Y-18400000D02*
X64000000Y-16500000D01*
X68700000Y-16500000D02*
X71400000Y-19200000D01*
X71400000Y-19200000D02*
X75700000Y-19200000D01*
X49300000Y-18400000D02*
X62100000Y-18400000D01*
X64000000Y-16500000D02*
X68700000Y-16500000D01*
D59*
%TO.N,/MCU/Poz_zero_sens*%
X66900000Y-15400000D02*
X65585501Y-14085501D01*
X51200000Y-12900000D02*
X51200000Y-10700000D01*
X52385501Y-14085501D02*
X51200000Y-12900000D01*
X51200000Y-10700000D02*
X46000000Y-5500000D01*
X70700000Y-16100000D02*
X70000000Y-15400000D01*
X70000000Y-15400000D02*
X66900000Y-15400000D01*
X65585501Y-14085501D02*
X52385501Y-14085501D01*
X46000000Y-5500000D02*
X40418020Y-5500000D01*
X40418020Y-5500000D02*
X37421841Y-8496179D01*
%TO.N,/CAN/TXD_LED*%
X41664481Y-15461181D02*
X41664481Y-15464481D01*
X41664481Y-15464481D02*
X42400000Y-16200000D01*
X64067052Y-17400000D02*
X64590000Y-17400000D01*
X42400000Y-16200000D02*
X45900000Y-16200000D01*
X45900000Y-16200000D02*
X49500000Y-19800000D01*
X49500000Y-19800000D02*
X61667052Y-19800000D01*
X61667052Y-19800000D02*
X64067052Y-17400000D01*
D60*
%TO.N,Net-(D6-A)*%
X65610000Y-17400000D02*
X66400000Y-17400000D01*
X66400000Y-17400000D02*
X66500000Y-17300000D01*
D59*
%TO.N,GND*%
X52500000Y-15100000D02*
X52575000Y-15175000D01*
X30660000Y-32650000D02*
X30660000Y-33760000D01*
X37200000Y-12800000D02*
X37383190Y-12983190D01*
X28700000Y-8600000D02*
X27960589Y-7860589D01*
X27798000Y-29100000D02*
X27520000Y-29100000D01*
D61*
X13700000Y-15700000D02*
X13700000Y-15500000D01*
D59*
X27520000Y-29100000D02*
X27000000Y-28580000D01*
X26939411Y-17439411D02*
X27064395Y-17439411D01*
D62*
X71750000Y-31250000D02*
X72550000Y-32050000D01*
D59*
X77880000Y-28870000D02*
X78210000Y-29200000D01*
X54600000Y-13400000D02*
X54600000Y-11267500D01*
X32224606Y-8849732D02*
X31626683Y-8251809D01*
D60*
X25260589Y-10439411D02*
X25260589Y-10460589D01*
D59*
X22865000Y-27299999D02*
X22464999Y-27700000D01*
D60*
X26600000Y-11800000D02*
X26900000Y-11800000D01*
D59*
X53600000Y-14783764D02*
X53600000Y-15175000D01*
X36714734Y-7789072D02*
X37600000Y-6903806D01*
X22865000Y-27299999D02*
X22865000Y-26325000D01*
X59200000Y-13371000D02*
X59200000Y-11407500D01*
X38465000Y-30755001D02*
X35965001Y-30755000D01*
X58200001Y-14683764D02*
X58200000Y-15075000D01*
X30381909Y-4195046D02*
X27937087Y-1750224D01*
X31500000Y-15200000D02*
X31483190Y-15216810D01*
X36116810Y-16783190D02*
X36116810Y-19813004D01*
D62*
X72800000Y-32175000D02*
X74475000Y-32175000D01*
D59*
X30660000Y-33760000D02*
X31200000Y-34300000D01*
X62400001Y-14721264D02*
X62400000Y-15112500D01*
X77880000Y-27700000D02*
X77880000Y-28870000D01*
X32822529Y-9447655D02*
X32224606Y-8849732D01*
X27400000Y0D02*
X26800000Y0D01*
X30572987Y-8251809D02*
X29760589Y-7439411D01*
X36116810Y-19813004D02*
X36714734Y-20410928D01*
X58200000Y-15075000D02*
X57050000Y-15075000D01*
X62400000Y-15112500D02*
X61412500Y-15112500D01*
D61*
X50092500Y-3780000D02*
X52680000Y-6367500D01*
D59*
X40713004Y-12983190D02*
X41310928Y-12385266D01*
D60*
X23002081Y-9600000D02*
X23723223Y-8878858D01*
D63*
X66005000Y-39100000D02*
X66595000Y-39100000D01*
D59*
X31483190Y-15216810D02*
X29286996Y-15216810D01*
X36800000Y-16100000D02*
X36116810Y-16783190D01*
X35965000Y-27465000D02*
X34375000Y-25875000D01*
X52575000Y-15175000D02*
X53600000Y-15175000D01*
D61*
X20528249Y-13875734D02*
X18266205Y-16137778D01*
D63*
X67000000Y-38300000D02*
X67000000Y-38695000D01*
D59*
X31626683Y-8251809D02*
X30572987Y-8251809D01*
D61*
X13700000Y-15700000D02*
X10200000Y-15700000D01*
D59*
X37600000Y-6903806D02*
X37600000Y-5900000D01*
X19275000Y-2905000D02*
X19275000Y-175000D01*
D63*
X66595000Y-39100000D02*
X66985000Y-39100000D01*
D59*
X27960589Y-7860589D02*
X27439411Y-7860589D01*
X63400000Y-11205001D02*
X63369999Y-11175000D01*
D61*
X18266205Y-16137778D02*
X17828427Y-15700000D01*
D59*
X34700000Y-9803806D02*
X36714734Y-7789072D01*
X27937087Y-1750224D02*
X27937087Y-1637087D01*
D63*
X67000000Y-38695000D02*
X66595000Y-39100000D01*
D59*
X38400000Y-5100000D02*
X38720000Y-5100000D01*
X37383190Y-12983190D02*
X40713004Y-12983190D01*
X22464999Y-27700000D02*
X19300000Y-27700000D01*
X35965000Y-28600000D02*
X35965000Y-27465000D01*
D61*
X17828427Y-15700000D02*
X13700000Y-15700000D01*
D60*
X24397919Y-5800000D02*
X24076777Y-6121142D01*
D61*
X20528249Y-13428249D02*
X20528249Y-13875734D01*
D59*
X32800000Y-12800000D02*
X32822529Y-12777471D01*
X35965000Y-28600000D02*
X35965000Y-30755000D01*
D62*
X72550000Y-32050000D02*
X74600000Y-32050000D01*
D59*
X59200000Y-11407500D02*
X59270000Y-11337500D01*
X26800000Y0D02*
X25860624Y-939376D01*
X37600000Y-5900000D02*
X38400000Y-5100000D01*
D61*
X52680000Y-6367500D02*
X52680000Y-6500000D01*
D59*
X34400000Y-9000000D02*
X35377297Y-8022703D01*
D60*
X25900000Y-5800000D02*
X24397919Y-5800000D01*
D59*
X32822529Y-12777471D02*
X32822529Y-9447655D01*
X74690000Y-28845000D02*
X74690000Y-27700000D01*
X63400000Y-13371000D02*
X63400000Y-11205001D01*
X34700000Y-12300000D02*
X34700000Y-9803806D01*
D60*
X27960589Y-7860589D02*
X25900000Y-5800000D01*
D59*
X61412500Y-15112500D02*
X61350000Y-15175000D01*
D62*
X74475000Y-32175000D02*
X74600000Y-32050000D01*
D59*
X74235000Y-29300000D02*
X74690000Y-28845000D01*
X27064395Y-17439411D02*
X28689072Y-15814734D01*
D63*
X27400000Y1300000D02*
X27400000Y-1100000D01*
D60*
X25260589Y-10460589D02*
X26600000Y-11800000D01*
D59*
X38139411Y-21835605D02*
X36714734Y-20410928D01*
D61*
X12700000Y-14500000D02*
X10200000Y-14500000D01*
D59*
X54600000Y-11267500D02*
X54570000Y-11237500D01*
X19275000Y-175000D02*
X19000000Y100000D01*
D60*
X25260589Y-10439411D02*
X25260589Y-10416224D01*
D62*
X71750000Y-30150000D02*
X71750000Y-31250000D01*
D59*
X35377297Y-8022703D02*
X35377297Y-5444023D01*
X38139411Y-22360589D02*
X38139411Y-21835605D01*
D61*
X48300000Y-3780000D02*
X50092500Y-3780000D01*
D60*
X20600000Y-9600000D02*
X23002081Y-9600000D01*
D61*
X13700000Y-15500000D02*
X12700000Y-14500000D01*
D59*
X29286996Y-15216810D02*
X28689072Y-15814734D01*
D63*
X27400000Y-1100000D02*
X27937087Y-1637087D01*
D59*
X66200000Y-29800000D02*
X66200000Y-31062500D01*
%TO.N,+5V*%
X56800000Y-13335500D02*
X55935500Y-13335500D01*
X60635499Y-13335500D02*
X60230000Y-12930001D01*
D62*
X61800000Y3873000D02*
X64327000Y3873000D01*
D59*
X55500000Y-11267500D02*
X55530000Y-11237500D01*
X55935500Y-13335500D02*
X55530000Y-12930000D01*
D62*
X73700000Y-12900000D02*
X73700000Y-11000000D01*
D63*
X20905000Y-21500000D02*
X18500000Y-21500000D01*
X18500000Y-21500000D02*
X18200000Y-21200000D01*
D62*
X65400000Y-1500000D02*
X67500000Y-3600000D01*
X73700000Y-9200000D02*
X75700000Y-9200000D01*
D61*
X70000000Y-28800000D02*
X70000000Y-29500000D01*
X48320000Y-2800000D02*
X51700000Y-2800000D01*
D59*
X55500000Y-12900000D02*
X55500000Y-11267500D01*
D61*
X63675000Y-8100000D02*
X56820000Y-8100000D01*
D62*
X73700000Y-11000000D02*
X73700000Y-9200000D01*
D59*
X61200000Y-13335500D02*
X60635499Y-13335500D01*
X60230000Y-12670000D02*
X60100000Y-12800000D01*
D61*
X56820000Y-8100000D02*
X55220000Y-6500000D01*
X55220000Y-6320000D02*
X55220000Y-6500000D01*
X48300000Y-2820000D02*
X48320000Y-2800000D01*
D62*
X73700000Y-6100000D02*
X73700000Y-11000000D01*
X70000000Y-14200000D02*
X69000000Y-14200000D01*
X72400000Y-14200000D02*
X73700000Y-12900000D01*
D61*
X51700000Y-2800000D02*
X55220000Y-6320000D01*
D62*
X65400000Y2800000D02*
X65400000Y-1500000D01*
X71200000Y-3600000D02*
X73700000Y-6100000D01*
D61*
X68100000Y-14200000D02*
X68100000Y-12525000D01*
D59*
X60230000Y-12930001D02*
X60230000Y-11337500D01*
D63*
X21700000Y-20705000D02*
X20902500Y-21502500D01*
D62*
X64327000Y3873000D02*
X65400000Y2800000D01*
D59*
X60229999Y-11337500D02*
X60230000Y-12670000D01*
D61*
X68100000Y-12525000D02*
X63675000Y-8100000D01*
D63*
X22400000Y-20005000D02*
X20905000Y-21500000D01*
D62*
X67500000Y-3600000D02*
X71200000Y-3600000D01*
D59*
X64946000Y-13483501D02*
X64300000Y-12837501D01*
X64329999Y-12807501D02*
X64300000Y-12837500D01*
X64329999Y-11175001D02*
X64329999Y-12807501D01*
D62*
X69000000Y-14200000D02*
X67200000Y-14200000D01*
D63*
X21700000Y-20700000D02*
X21700000Y-20705000D01*
D62*
X70000000Y-14200000D02*
X72400000Y-14200000D01*
D59*
X65900000Y-13483501D02*
X64946000Y-13483501D01*
X55530000Y-12930000D02*
X55530000Y-11237500D01*
D64*
%TO.N,/SteperMotor/STEPER_B1*%
X42400000Y-1100000D02*
X40300000Y1000000D01*
X57760000Y-6500000D02*
X57760000Y-5660000D01*
X42080000Y4880000D02*
X42200000Y4880000D01*
X53200000Y-1100000D02*
X42400000Y-1100000D01*
X40300000Y1000000D02*
X40300000Y3100000D01*
X40300000Y3100000D02*
X42080000Y4880000D01*
X57760000Y-5660000D02*
X53200000Y-1100000D01*
%TO.N,/SteperMotor/STEPER_A1*%
X54100000Y1200000D02*
X49100000Y1200000D01*
X60300000Y-5000000D02*
X54100000Y1200000D01*
X45420000Y4880000D02*
X45200000Y4880000D01*
X49100000Y1200000D02*
X45420000Y4880000D01*
X60300000Y-6500000D02*
X60300000Y-5000000D01*
D59*
%TO.N,/SteperMotor/STEPER_ENABLE*%
X41400000Y6300000D02*
X39500000Y4400000D01*
X36920000Y1880000D02*
X41400000Y-2600000D01*
X37700000Y4400000D02*
X36920000Y3620000D01*
X52425000Y-9000000D02*
X60300000Y-9000000D01*
X41400000Y-2600000D02*
X46025000Y-2600000D01*
X62400000Y-11100000D02*
X62400000Y-12837501D01*
X36920000Y3620000D02*
X36920000Y1880000D01*
X68960000Y4700000D02*
X47700000Y4700000D01*
X60300000Y-9000000D02*
X62400000Y-11100000D01*
X39500000Y4400000D02*
X37700000Y4400000D01*
X47700000Y4700000D02*
X46100000Y6300000D01*
X46025000Y-2600000D02*
X52425000Y-9000000D01*
X33500000Y1880000D02*
X36980000Y1880000D01*
X33500000Y1880000D02*
X36920000Y1880000D01*
X70460000Y6200000D02*
X68960000Y4700000D01*
X46100000Y6300000D02*
X41400000Y6300000D01*
%TO.N,/SteperMotor/STEPER_STEP*%
X30500000Y1880000D02*
X32000000Y3380000D01*
X34100000Y7400000D02*
X54020000Y7400000D01*
X54020000Y7400000D02*
X55220000Y6200000D01*
X53600000Y-12900000D02*
X53600000Y-11400000D01*
X32480000Y-100000D02*
X30500000Y1880000D01*
X38000000Y-4200000D02*
X33900000Y-100000D01*
X52900000Y-10700000D02*
X52100000Y-10700000D01*
X53600000Y-11400000D02*
X52900000Y-10700000D01*
X33900000Y-100000D02*
X32480000Y-100000D01*
X32000000Y5300000D02*
X34100000Y7400000D01*
X52100000Y-10700000D02*
X45600000Y-4200000D01*
X45600000Y-4200000D02*
X38000000Y-4200000D01*
X32000000Y3380000D02*
X32000000Y5300000D01*
%TO.N,/SteperMotor/STEPER_DIRECTION*%
X35474000Y6854000D02*
X33500000Y4880000D01*
X52026000Y6854000D02*
X35474000Y6854000D01*
X57200000Y-9800000D02*
X58200000Y-10800000D01*
X35900000Y100000D02*
X39400000Y-3400000D01*
X35800000Y100000D02*
X35900000Y100000D01*
X39400000Y-3400000D02*
X45800000Y-3400000D01*
X45800000Y-3400000D02*
X52200000Y-9800000D01*
X52680000Y6200000D02*
X52026000Y6854000D01*
X58200000Y-10800000D02*
X58200000Y-12800001D01*
X52200000Y-9800000D02*
X57200000Y-9800000D01*
%TO.N,/MCU/NRST*%
X29858915Y-8658915D02*
X29858915Y-10019575D01*
X22300000Y-3469079D02*
X24669079Y-3469079D01*
X29858915Y-10019575D02*
X30456839Y-10617499D01*
X20570000Y-3900000D02*
X20575000Y-3895000D01*
X8650000Y150000D02*
X12665000Y-3865000D01*
X20545000Y-3865000D02*
X20575000Y-3895000D01*
X12665000Y-3865000D02*
X20545000Y-3865000D01*
X58920000Y-32580000D02*
X58920000Y-31800000D01*
X3600000Y-26900000D02*
X3600000Y-6000000D01*
X21000921Y-3469079D02*
X22580921Y-3469079D01*
X5735000Y-3865000D02*
X12665000Y-3865000D01*
X3600000Y-6000000D02*
X5735000Y-3865000D01*
X56300000Y-35200000D02*
X58920000Y-32580000D01*
X45600000Y-35200000D02*
X56300000Y-35200000D01*
X24669079Y-3469079D02*
X29858915Y-8658915D01*
X8650000Y1400000D02*
X8650000Y150000D01*
X11400000Y-36200000D02*
X11400000Y-34700000D01*
X20575000Y-3895000D02*
X21000921Y-3469079D01*
X11400000Y-34700000D02*
X3600000Y-26900000D01*
D60*
%TO.N,/MCU/OSC_IN*%
X23518351Y-7181802D02*
X23016117Y-7181802D01*
X26918274Y-10581726D02*
X23518351Y-7181802D01*
D59*
X26918274Y-10581726D02*
X29006852Y-10581726D01*
D60*
X23016117Y-7181802D02*
X22521142Y-7676777D01*
D59*
X29006852Y-10581726D02*
X29749732Y-11324606D01*
D60*
%TO.N,/MCU/OSC_OUT*%
X25278858Y-7323223D02*
X27155635Y-9200000D01*
D59*
X28367661Y-9235427D02*
X30103286Y-10971052D01*
D60*
X28332234Y-9200000D02*
X28367661Y-9235427D01*
X27155635Y-9200000D02*
X28332234Y-9200000D01*
D61*
%TO.N,+3V3*%
X19000000Y-8700000D02*
X19000000Y-8100000D01*
X19000000Y-10500000D02*
X19400000Y-10900000D01*
D59*
X31060731Y-3516224D02*
X31060731Y-3417228D01*
X24462001Y-27627000D02*
X26993000Y-27627000D01*
X27000000Y-26900000D02*
X26400000Y-26300000D01*
X27000000Y-27620000D02*
X27000000Y-26900000D01*
D61*
X20100000Y-11600000D02*
X20434485Y-11934485D01*
D59*
X76300000Y-6700000D02*
X74100000Y-4500000D01*
X74100000Y-2090000D02*
X74690000Y-1500000D01*
X72900000Y-25451358D02*
X72900000Y-26590000D01*
X29934664Y-1534664D02*
X29934664Y-2291161D01*
D61*
X19000000Y-9800000D02*
X19000000Y-10500000D01*
D59*
X24600000Y990000D02*
X24600000Y300000D01*
D61*
X19000000Y-8100000D02*
X18600000Y-7700000D01*
D59*
X28500000Y400000D02*
X28500000Y-100000D01*
X15900000Y990000D02*
X15900000Y200000D01*
X24135000Y-26325000D02*
X24135000Y-27299999D01*
D61*
X20100000Y-11600000D02*
X19400000Y-10900000D01*
D59*
X74100000Y-4500000D02*
X74100000Y-2090000D01*
X32000000Y-35400000D02*
X32300000Y-35100000D01*
X26993000Y-27627000D02*
X27000000Y-27620000D01*
X34500000Y-29200000D02*
X34470000Y-29170000D01*
X20575000Y-2875000D02*
X20575000Y-175000D01*
X24600000Y300000D02*
X24800000Y100000D01*
X27990000Y-35590000D02*
X27800000Y-35400000D01*
X31060731Y-3417228D02*
X29934664Y-2291161D01*
X24135000Y-27299999D02*
X24462001Y-27627000D01*
D61*
X19000000Y-8700000D02*
X19000000Y-10500000D01*
D59*
X27990000Y-36400000D02*
X27990000Y-35590000D01*
X31010000Y-35400000D02*
X32000000Y-35400000D01*
X34470000Y-29170000D02*
X34470000Y-27700000D01*
X28500000Y-100000D02*
X29934664Y-1534664D01*
X72574321Y-25125679D02*
X72900000Y-25451358D01*
X20575000Y-175000D02*
X20200000Y200000D01*
D61*
X20434485Y-11934485D02*
X21862912Y-11934485D01*
D62*
%TO.N,Net-(J6-SHIELD)*%
X72800000Y-35170000D02*
X70570000Y-37400000D01*
X74600000Y-33950000D02*
X72925000Y-33950000D01*
X72800000Y-33825000D02*
X72800000Y-35170000D01*
X72925000Y-33950000D02*
X72800000Y-33825000D01*
D59*
%TO.N,/USB/V_BUS*%
X66200000Y-35198324D02*
X65733824Y-35664500D01*
X66200000Y-35000000D02*
X66200000Y-35200000D01*
X64064500Y-35664500D02*
X63900000Y-35500000D01*
X66200000Y-33337500D02*
X66200000Y-35000000D01*
X65733824Y-35664500D02*
X64064500Y-35664500D01*
D62*
X70000000Y-32900000D02*
X68600000Y-34300000D01*
D59*
X66200000Y-35000000D02*
X66200000Y-35198324D01*
X68535500Y-35664500D02*
X68600000Y-35600000D01*
X66664500Y-35664500D02*
X68535500Y-35664500D01*
D62*
X70000000Y-32800000D02*
X70000000Y-32900000D01*
D59*
X66200000Y-35200000D02*
X66664500Y-35664500D01*
D62*
X68600000Y-34300000D02*
X68600000Y-35600000D01*
D63*
%TO.N,/CAN/CAN_5V*%
X12900000Y-30500000D02*
X12900000Y-37050000D01*
X18200000Y-25200000D02*
X12900000Y-30500000D01*
D60*
%TO.N,Net-(D3-A)*%
X65610000Y-20000000D02*
X66600000Y-20000000D01*
%TO.N,Net-(D4-A)*%
X65610000Y-21700000D02*
X66600000Y-21700000D01*
%TO.N,Net-(D5-A)*%
X65610000Y-18400000D02*
X66500000Y-18400000D01*
X66500000Y-18400000D02*
X66600000Y-18300000D01*
D59*
%TO.N,Net-(D7-A)*%
X76100000Y-300000D02*
X77500000Y-1700000D01*
X75710000Y-300000D02*
X76100000Y-300000D01*
%TO.N,Net-(D8-A)*%
X75710000Y-2190000D02*
X75400000Y-2500000D01*
X75710000Y-1500000D02*
X75710000Y-2190000D01*
%TO.N,/MCU/SWDIO*%
X39100000Y-23800000D02*
X45500000Y-30200000D01*
X37068287Y-20057375D02*
X39100000Y-22089088D01*
X56380000Y-31800000D02*
X56920000Y-31800000D01*
X45500000Y-30200000D02*
X54780000Y-30200000D01*
X39100000Y-22089088D02*
X39100000Y-23800000D01*
X54780000Y-30200000D02*
X56380000Y-31800000D01*
%TO.N,/MCU/SWCLK*%
X46274338Y-33400000D02*
X52780000Y-33400000D01*
X33638819Y-20764481D02*
X46274338Y-33400000D01*
X52780000Y-33400000D02*
X53840000Y-32340000D01*
X53840000Y-32340000D02*
X53840000Y-31800000D01*
%TO.N,Net-(J6-CC1)*%
X64985000Y-38115000D02*
X64985000Y-39100000D01*
X65000000Y-38100000D02*
X64985000Y-38115000D01*
%TO.N,/USB/USB_CONN_D+*%
X67150000Y-34750000D02*
X67150000Y-33337500D01*
%TO.N,/USB/USB_CONN_D-*%
X65250000Y-34650000D02*
X65250000Y-33337500D01*
X65300000Y-34700000D02*
X65250000Y-34650000D01*
%TO.N,Net-(J6-CC2)*%
X68105000Y-39000000D02*
X68005000Y-39100000D01*
X67995000Y-39090000D02*
X68005000Y-39100000D01*
X68000000Y-39095000D02*
X68005000Y-39100000D01*
X68000000Y-38100000D02*
X68000000Y-39095000D01*
%TO.N,/MCU/Temp_Eng*%
X22100000Y2100000D02*
X24510000Y2100000D01*
X33000000Y-3100000D02*
X27890000Y2010000D01*
X33638819Y-7435519D02*
X33000000Y-6796700D01*
X33000000Y-6796700D02*
X33000000Y-3100000D01*
X24510000Y2100000D02*
X24600000Y2010000D01*
X27890000Y2010000D02*
X24600000Y2010000D01*
%TO.N,/MCU/Temp_Step*%
X32931713Y-8142625D02*
X30789088Y-6000000D01*
X21300000Y400000D02*
X19600000Y2100000D01*
X13920000Y2100000D02*
X13700000Y1880000D01*
X22200000Y400000D02*
X21300000Y400000D01*
X19600000Y2100000D02*
X13920000Y2100000D01*
X28600000Y-6000000D02*
X22200000Y400000D01*
X30789088Y-6000000D02*
X28600000Y-6000000D01*
%TO.N,/MCU/Mag_enc_analog*%
X30919575Y-19241085D02*
X30919575Y-20419575D01*
X30919575Y-20419575D02*
X41600000Y-31100000D01*
X31517499Y-18643161D02*
X30919575Y-19241085D01*
X41600000Y-31100000D02*
X41600000Y-34000000D01*
X41600000Y-34000000D02*
X47600000Y-40000000D01*
%TO.N,/MCU/SCL*%
X29800000Y-38000000D02*
X30300000Y-38500000D01*
X31930000Y-29070000D02*
X29800000Y-31200000D01*
X31930000Y-27700000D02*
X31930000Y-29070000D01*
X31600000Y-23900000D02*
X31600000Y-26100000D01*
X31600000Y-26100000D02*
X31930000Y-26430000D01*
X29700000Y-22000000D02*
X31600000Y-23900000D01*
X29800000Y-31200000D02*
X29800000Y-38000000D01*
X50700000Y-40100000D02*
X50899999Y-40100000D01*
X31930000Y-26430000D02*
X31930000Y-27700000D01*
X34700000Y-38500000D02*
X36200000Y-40000000D01*
X30456839Y-17582501D02*
X29700000Y-18339340D01*
X30300000Y-38500000D02*
X34700000Y-38500000D01*
X29700000Y-18339340D02*
X29700000Y-22000000D01*
%TO.N,/MCU/SDA*%
X31100000Y-26000000D02*
X30660000Y-26440000D01*
X30660000Y-26440000D02*
X30660000Y-27700000D01*
X29200000Y-38300000D02*
X32400000Y-41500000D01*
X29200000Y-18132234D02*
X29200000Y-22325000D01*
X32400000Y-41500000D02*
X37700000Y-41500000D01*
X30660000Y-29440000D02*
X29200000Y-30900000D01*
X30103286Y-17228948D02*
X29200000Y-18132234D01*
X30660000Y-27700000D02*
X30660000Y-29440000D01*
X31100000Y-24225000D02*
X31100000Y-26000000D01*
X29200000Y-30900000D02*
X29200000Y-38300000D01*
X29200000Y-22325000D02*
X31100000Y-24225000D01*
X37700000Y-41500000D02*
X39200000Y-40000000D01*
%TO.N,Net-(R1-Pad2)*%
X35965000Y-32035000D02*
X35965000Y-31775000D01*
X34470000Y-32650000D02*
X35350000Y-32650000D01*
X35350000Y-32650000D02*
X35965000Y-32035000D01*
%TO.N,Net-(R2-Pad2)*%
X35250000Y-34100000D02*
X37165000Y-32185000D01*
X34183132Y-34100000D02*
X35250000Y-34100000D01*
X33200000Y-32650000D02*
X33200000Y-33116868D01*
X33200000Y-33116868D02*
X34183132Y-34100000D01*
X37165000Y-32185000D02*
X37165000Y-31774999D01*
%TO.N,/MCU/USR_LED1*%
X40250268Y-16875394D02*
X41774874Y-18400000D01*
X62590000Y-22000000D02*
X64590000Y-20000000D01*
X41774874Y-18400000D02*
X45400000Y-18400000D01*
X49000000Y-22000000D02*
X62590000Y-22000000D01*
X45400000Y-18400000D02*
X49000000Y-22000000D01*
%TO.N,/MCU/BOOT0*%
X75710000Y-27700000D02*
X75710000Y-26600000D01*
X76890000Y-27670000D02*
X76920000Y-27700000D01*
X76890000Y-26600000D02*
X76890000Y-27670000D01*
X76920000Y-27700000D02*
X75710000Y-27700000D01*
X75710000Y-26600000D02*
X76890000Y-26600000D01*
%TO.N,Net-(R5-Pad2)*%
X38465000Y-32235000D02*
X38465000Y-31775000D01*
X36000000Y-34700000D02*
X38465000Y-32235000D01*
X33596264Y-34700000D02*
X36000000Y-34700000D01*
X31930000Y-32650000D02*
X31930000Y-33033736D01*
X31930000Y-33033736D02*
X33596264Y-34700000D01*
%TO.N,Net-(U1-WP)*%
X33200000Y-26030000D02*
X33355000Y-25875000D01*
X33200000Y-27700000D02*
X33200000Y-26030000D01*
%TO.N,/MCU/USR_LED2*%
X48500000Y-23300000D02*
X62990000Y-23300000D01*
X39896714Y-17228948D02*
X41867766Y-19200000D01*
X41867766Y-19200000D02*
X44400000Y-19200000D01*
X44400000Y-19200000D02*
X48500000Y-23300000D01*
X62990000Y-23300000D02*
X64590000Y-21700000D01*
%TO.N,/MCU/USR_BTN*%
X72700000Y-27610000D02*
X72900000Y-27610000D01*
X42353554Y-21100000D02*
X43100000Y-21100000D01*
X46700000Y-24700000D02*
X69790000Y-24700000D01*
X43100000Y-21100000D02*
X46700000Y-24700000D01*
X39189608Y-17936054D02*
X42353554Y-21100000D01*
X72900000Y-27610000D02*
X72900000Y-30100000D01*
X69790000Y-24700000D02*
X72700000Y-27610000D01*
%TO.N,/CAN/RXD_LED*%
X41908852Y-16858852D02*
X42550000Y-17500000D01*
X41310928Y-15814734D02*
X41908852Y-16412658D01*
X45800000Y-17500000D02*
X49300000Y-21000000D01*
X49300000Y-21000000D02*
X61990000Y-21000000D01*
X61990000Y-21000000D02*
X64590000Y-18400000D01*
X42550000Y-17500000D02*
X45800000Y-17500000D01*
X41908852Y-16412658D02*
X41908852Y-16858852D01*
%TO.N,/CAN/CANH*%
X11350000Y-38600000D02*
X9900000Y-40050000D01*
X22865000Y-30300001D02*
X22865000Y-31275000D01*
X22865000Y-31275000D02*
X22865000Y-32765000D01*
X20260000Y-38600000D02*
X11350000Y-38600000D01*
X22865000Y-32765000D02*
X23046000Y-32946000D01*
X21864999Y-29300000D02*
X22865000Y-30300001D01*
X23046000Y-38694000D02*
X21700000Y-40040000D01*
X19225000Y-29300000D02*
X21864999Y-29300000D01*
X21700000Y-40040000D02*
X20260000Y-38600000D01*
X23046000Y-32946000D02*
X23046000Y-38694000D01*
%TO.N,Net-(R14-Pad2)*%
X17575000Y-30770000D02*
X18305000Y-31500000D01*
X17575000Y-29300000D02*
X17575000Y-30770000D01*
%TO.N,/MCU/V_SENSE*%
X35483363Y-3216637D02*
X37000000Y-4733274D01*
X37000000Y-4733274D02*
X37000000Y-6796700D01*
X37000000Y-6796700D02*
X36361181Y-7435519D01*
%TO.N,Net-(R29-Pad1)*%
X59910000Y-29100000D02*
X59510000Y-28700000D01*
X61800000Y-28500000D02*
X61500000Y-28500000D01*
X61500000Y-28500000D02*
X60900000Y-29100000D01*
X64000000Y-28600000D02*
X63500000Y-29100000D01*
X63500000Y-29100000D02*
X62400000Y-29100000D01*
X64200000Y-28600000D02*
X64000000Y-28600000D01*
X62400000Y-29100000D02*
X61800000Y-28500000D01*
X65250000Y-29650000D02*
X64200000Y-28600000D01*
X65250000Y-31062500D02*
X65250000Y-29650000D01*
X60900000Y-29100000D02*
X59910000Y-29100000D01*
D65*
%TO.N,/MCU/USB_D-*%
X47364770Y-28975000D02*
X57734999Y-28975000D01*
X38437753Y-20012627D02*
X38437753Y-20047983D01*
X37775394Y-19350268D02*
X38437753Y-20012627D01*
X57734999Y-28975000D02*
X58009999Y-28700000D01*
X58009999Y-28700000D02*
X58490000Y-28700000D01*
X38437753Y-20047983D02*
X47364770Y-28975000D01*
D59*
%TO.N,Net-(R30-Pad1)*%
X67150000Y-31550000D02*
X67150000Y-31062500D01*
X64898264Y-32052000D02*
X66648000Y-32052000D01*
X66648000Y-32052000D02*
X67150000Y-31550000D01*
X59510000Y-29700000D02*
X59610000Y-29600000D01*
X62446264Y-29600000D02*
X64898264Y-32052000D01*
X59610000Y-29600000D02*
X62446264Y-29600000D01*
D65*
%TO.N,/MCU/USB_D+*%
X37421841Y-19703821D02*
X38084200Y-20366180D01*
X57734999Y-29425000D02*
X58009999Y-29700000D01*
X47178376Y-29425000D02*
X57734999Y-29425000D01*
X38084200Y-20366180D02*
X38119556Y-20366180D01*
X58009999Y-29700000D02*
X58490000Y-29700000D01*
X38119556Y-20366180D02*
X47178376Y-29425000D01*
D59*
%TO.N,/MCU/Temp_Board*%
X30000000Y-5200000D02*
X30696194Y-5200000D01*
X28591161Y-3591161D02*
X28591161Y-3634664D01*
X25139376Y-1660624D02*
X25460624Y-1660624D01*
X27300000Y-2300000D02*
X28591161Y-3591161D01*
X25460624Y-1660624D02*
X26100000Y-2300000D01*
X28591161Y-3791161D02*
X30000000Y-5200000D01*
X28591161Y-3634664D02*
X28591161Y-3791161D01*
X26100000Y-2300000D02*
X27300000Y-2300000D01*
X28591161Y-3634664D02*
X28591161Y-3794967D01*
X30696194Y-5200000D02*
X33285266Y-7789072D01*
%TO.N,/CAN/CANL*%
X24700000Y-40040000D02*
X22859000Y-41881000D01*
X23500000Y-33050000D02*
X23500000Y-38840000D01*
X14731000Y-41881000D02*
X12900000Y-40050000D01*
X22859000Y-41881000D02*
X14731000Y-41881000D01*
X24135000Y-32415000D02*
X23500000Y-33050000D01*
X23500000Y-38840000D02*
X24700000Y-40040000D01*
X24135000Y-31275000D02*
X24135000Y-32415000D01*
%TO.N,/MCU/MCU_STEPER_STEP*%
X40332234Y-7000000D02*
X38128948Y-9203286D01*
X49400000Y-10900000D02*
X45500000Y-7000000D01*
X54550000Y-15175000D02*
X54550000Y-15875000D01*
X45500000Y-7000000D02*
X40332234Y-7000000D01*
X49400000Y-15200000D02*
X49400000Y-10900000D01*
X54225000Y-16200000D02*
X50400000Y-16200000D01*
X50400000Y-16200000D02*
X49400000Y-15200000D01*
X54550000Y-15875000D02*
X54225000Y-16200000D01*
%TO.N,/MCU/C_A2*%
X40339340Y-7700000D02*
X38482501Y-9556839D01*
X48798000Y-11298000D02*
X45200000Y-7700000D01*
X45200000Y-7700000D02*
X40339340Y-7700000D01*
X48798000Y-11300000D02*
X48798000Y-11298000D01*
D60*
%TO.N,Net-(U2-VCAP_1)*%
X41764088Y-11225000D02*
X43900000Y-11225000D01*
X40957375Y-12031713D02*
X41764088Y-11225000D01*
D59*
%TO.N,/MCU/PUL_SYNC*%
X69350000Y-26825000D02*
X69250000Y-26925000D01*
%TO.N,/MCU/C_A1*%
X45700000Y-6200000D02*
X40425126Y-6200000D01*
X40425126Y-6200000D02*
X37775394Y-8849732D01*
X50200000Y-10700000D02*
X45700000Y-6200000D01*
%TO.N,/CAN/RXD*%
X23800000Y-24100000D02*
X25405000Y-25705000D01*
X25405000Y-25705000D02*
X25405000Y-26325000D01*
X29396179Y-16521841D02*
X23800000Y-22118020D01*
X23800000Y-22118020D02*
X23800000Y-24100000D01*
%TO.N,/CAN/TXD*%
X23346000Y-21897440D02*
X29042625Y-16200815D01*
X29042625Y-16200815D02*
X29042625Y-16168287D01*
X23346000Y-24000000D02*
X23346000Y-21897440D01*
X21595000Y-26325000D02*
X21595000Y-25751000D01*
X21595000Y-25751000D02*
X23346000Y-24000000D01*
%TO.N,/MCU/3V3_MCU*%
X28335519Y-15461181D02*
X28335519Y-15464481D01*
X34498324Y-13800000D02*
X36200000Y-12098324D01*
X36200000Y-9010912D02*
X37068287Y-8142625D01*
X29596700Y-14000000D02*
X33500000Y-14000000D01*
X28335519Y-12738819D02*
X29596700Y-14000000D01*
X33500000Y-14000000D02*
X35600000Y-16100000D01*
X26921178Y-16100000D02*
X26260589Y-16760589D01*
D62*
X33500000Y-14000000D02*
X22578858Y-14000000D01*
D59*
X29796700Y-14000000D02*
X33500000Y-14000000D01*
X33700000Y-14200000D02*
X40203300Y-14200000D01*
X36361181Y-20764481D02*
X36364481Y-20764481D01*
X35600000Y-20003300D02*
X36361181Y-20764481D01*
X39680000Y-5530912D02*
X39680000Y-5100000D01*
X28335519Y-15464481D02*
X27700000Y-16100000D01*
X30842569Y-6760589D02*
X32578159Y-8496179D01*
X40203300Y-14200000D02*
X41200000Y-14200000D01*
X37000000Y-22578822D02*
X37460589Y-23039411D01*
X33500000Y-14000000D02*
X33700000Y-14200000D01*
X36200000Y-12098324D02*
X36200000Y-9010912D01*
X41200000Y-14200000D02*
X42180000Y-15180000D01*
X27700000Y-16100000D02*
X26921178Y-16100000D01*
X33700000Y-9618020D02*
X33700000Y-13800000D01*
X36364481Y-20764481D02*
X37000000Y-21400000D01*
X35600000Y-16100000D02*
X35600000Y-20003300D01*
X39600000Y-5100000D02*
X39780000Y-5100000D01*
X42180000Y-15180000D02*
X44100000Y-15180000D01*
X37000000Y-21400000D02*
X37000000Y-22578822D01*
X37068287Y-8142625D02*
X39680000Y-5530912D01*
D62*
X22578858Y-14000000D02*
X19345926Y-17232932D01*
D59*
X40300000Y-14200000D02*
X41664481Y-12835519D01*
X28335519Y-15461181D02*
X29796700Y-14000000D01*
X41664481Y-12835519D02*
X41664481Y-12738819D01*
X33700000Y-13800000D02*
X33500000Y-14000000D01*
X33700000Y-13800000D02*
X34498324Y-13800000D01*
X30439411Y-6760589D02*
X30842569Y-6760589D01*
X40203300Y-14200000D02*
X40300000Y-14200000D01*
X32578159Y-8496179D02*
X33700000Y-9618020D01*
%TO.N,Net-(R34-Pad1)*%
X76910000Y-25600000D02*
X77910000Y-26600000D01*
X76210000Y-25600000D02*
X76910000Y-25600000D01*
%TO.N,/MCU/BOOT_EN*%
X47300000Y-24000000D02*
X72400000Y-24000000D01*
X74690000Y-26290000D02*
X74690000Y-26600000D01*
X42060660Y-20100000D02*
X43400000Y-20100000D01*
X39543161Y-17582501D02*
X42060660Y-20100000D01*
X43400000Y-20100000D02*
X47300000Y-24000000D01*
X72400000Y-24000000D02*
X74690000Y-26290000D01*
D60*
%TO.N,VCC*%
X70460000Y-6500000D02*
X70300000Y-6660000D01*
D59*
X73800000Y-400000D02*
X73900000Y-300000D01*
X73900000Y-300000D02*
X74690000Y-300000D01*
D60*
X70500000Y-6540000D02*
X70460000Y-6500000D01*
%TD*%
%TA.AperFunction,Conductor*%
%TO.N,GND*%
G36*
X44465383Y-12319685D02*
G01*
X44511138Y-12372489D01*
X44519936Y-12399681D01*
X44597592Y-12787959D01*
X44600000Y-12812278D01*
X44600000Y-14170728D01*
X44586909Y-14226182D01*
X44434273Y-14531454D01*
X44386686Y-14582613D01*
X44323364Y-14600000D01*
X42329272Y-14600000D01*
X42273818Y-14586909D01*
X41997044Y-14448522D01*
X41964815Y-14425293D01*
X41936317Y-14396794D01*
X41902833Y-14335470D01*
X41900000Y-14309114D01*
X41900000Y-13361057D01*
X41919685Y-13294018D01*
X41948396Y-13262772D01*
X43166571Y-12325714D01*
X43231709Y-12300442D01*
X43242174Y-12300000D01*
X44398344Y-12300000D01*
X44465383Y-12319685D01*
G37*
%TD.AperFunction*%
%TD*%
M02*
