%TF.GenerationSoftware,KiCad,Pcbnew,7.0.10-7.0.10~ubuntu22.04.1*%
%TF.CreationDate,2024-02-12T00:21:08+01:00*%
%TF.ProjectId,sdrac_board,73647261-635f-4626-9f61-72642e6b6963,2.0*%
%TF.SameCoordinates,Original*%
%TF.FileFunction,Copper,L2,Inr*%
%TF.FilePolarity,Positive*%
%FSLAX46Y46*%
G04 Gerber Fmt 4.6, Leading zero omitted, Abs format (unit mm)*
G04 Created by KiCad (PCBNEW 7.0.10-7.0.10~ubuntu22.04.1) date 2024-02-12 00:21:08*
%MOMM*%
%LPD*%
G01*
G04 APERTURE LIST*
G04 Aperture macros list*
%AMRoundRect*
0 Rectangle with rounded corners*
0 $1 Rounding radius*
0 $2 $3 $4 $5 $6 $7 $8 $9 X,Y pos of 4 corners*
0 Add a 4 corners polygon primitive as box body*
4,1,4,$2,$3,$4,$5,$6,$7,$8,$9,$2,$3,0*
0 Add four circle primitives for the rounded corners*
1,1,$1+$1,$2,$3*
1,1,$1+$1,$4,$5*
1,1,$1+$1,$6,$7*
1,1,$1+$1,$8,$9*
0 Add four rect primitives between the rounded corners*
20,1,$1+$1,$2,$3,$4,$5,0*
20,1,$1+$1,$4,$5,$6,$7,0*
20,1,$1+$1,$6,$7,$8,$9,0*
20,1,$1+$1,$8,$9,$2,$3,0*%
G04 Aperture macros list end*
%TA.AperFunction,ComponentPad*%
%ADD10RoundRect,0.250001X-0.499999X-0.499999X0.499999X-0.499999X0.499999X0.499999X-0.499999X0.499999X0*%
%TD*%
%TA.AperFunction,ComponentPad*%
%ADD11C,1.500000*%
%TD*%
%TA.AperFunction,ComponentPad*%
%ADD12C,1.400000*%
%TD*%
%TA.AperFunction,ComponentPad*%
%ADD13R,3.500000X3.500000*%
%TD*%
%TA.AperFunction,ComponentPad*%
%ADD14C,3.500000*%
%TD*%
%TA.AperFunction,ComponentPad*%
%ADD15RoundRect,0.250001X0.499999X0.499999X-0.499999X0.499999X-0.499999X-0.499999X0.499999X-0.499999X0*%
%TD*%
%TA.AperFunction,ComponentPad*%
%ADD16O,1.000000X2.100000*%
%TD*%
%TA.AperFunction,ComponentPad*%
%ADD17O,1.000000X1.800000*%
%TD*%
%TA.AperFunction,ComponentPad*%
%ADD18R,1.700000X1.700000*%
%TD*%
%TA.AperFunction,ComponentPad*%
%ADD19O,1.700000X1.700000*%
%TD*%
%TA.AperFunction,ComponentPad*%
%ADD20R,1.600000X1.600000*%
%TD*%
%TA.AperFunction,ComponentPad*%
%ADD21O,1.600000X1.600000*%
%TD*%
%TA.AperFunction,ViaPad*%
%ADD22C,0.550000*%
%TD*%
%TA.AperFunction,ViaPad*%
%ADD23C,0.800000*%
%TD*%
G04 APERTURE END LIST*
D10*
%TO.N,GND*%
%TO.C,U4*%
X9900000Y-37050000D03*
D11*
%TO.N,/CAN/CAN_5V*%
X12900000Y-37050000D03*
%TO.N,/CAN/CANH*%
X9900000Y-40050000D03*
%TO.N,/CAN/CANL*%
X12900000Y-40050000D03*
%TD*%
D12*
%TO.N,*%
%TO.C,J3*%
X1850000Y-14700000D03*
X1850000Y-3700000D03*
D13*
%TO.N,GND*%
X6850000Y-11700000D03*
D14*
%TO.N,VCC*%
X6850000Y-6700000D03*
%TD*%
D15*
%TO.N,/SteperMotor/STEPER_B2*%
%TO.C,J5*%
X45200000Y1880000D03*
D11*
%TO.N,/SteperMotor/STEPER_A2*%
X42200000Y1880000D03*
%TO.N,/SteperMotor/STEPER_A1*%
X45200000Y4880000D03*
%TO.N,/SteperMotor/STEPER_B1*%
X42200000Y4880000D03*
%TD*%
D12*
%TO.N,*%
%TO.C,J2*%
X1875000Y-29200000D03*
X1875000Y-18200000D03*
D13*
%TO.N,GND*%
X11875000Y-21200000D03*
D14*
%TO.N,VCC*%
X11875000Y-26200000D03*
%TD*%
D10*
%TO.N,+5V*%
%TO.C,J10*%
X33200000Y-37000000D03*
D11*
%TO.N,+3V3*%
X36200000Y-37000000D03*
%TO.N,GND*%
X39200000Y-37000000D03*
%TO.N,/MCU/Poz_zero_sens*%
X33200000Y-40000000D03*
%TO.N,/MCU/SCL*%
X36200000Y-40000000D03*
%TO.N,/MCU/SDA*%
X39200000Y-40000000D03*
%TD*%
D10*
%TO.N,+5V*%
%TO.C,J9*%
X47600000Y-37000000D03*
D11*
%TO.N,+3V3*%
X50600000Y-37000000D03*
%TO.N,GND*%
X53600000Y-37000000D03*
%TO.N,/MCU/Mag_enc_analog*%
X47600000Y-40000000D03*
%TO.N,/MCU/SCL*%
X50600000Y-40000000D03*
%TO.N,/MCU/SDA*%
X53600000Y-40000000D03*
%TD*%
D10*
%TO.N,GND*%
%TO.C,U5*%
X21700000Y-37040000D03*
D11*
%TO.N,/CAN/CAN_5V*%
X24700000Y-37040000D03*
%TO.N,/CAN/CANH*%
X21700000Y-40040000D03*
%TO.N,/CAN/CANL*%
X24700000Y-40040000D03*
%TD*%
D16*
%TO.N,Net-(J6-SHIELD)*%
%TO.C,J6*%
X61930000Y-37400000D03*
D17*
X61930000Y-41600000D03*
D16*
X70570000Y-37400000D03*
D17*
X70570000Y-41600000D03*
%TD*%
D18*
%TO.N,/MCU/SWDIO*%
%TO.C,J1*%
X58180000Y-32200000D03*
D19*
%TO.N,/MCU/SWCLK*%
X55640000Y-32200000D03*
%TO.N,GND*%
X53100000Y-32200000D03*
%TD*%
D11*
%TO.N,+5V*%
%TO.C,J4*%
X30500000Y4880000D03*
%TO.N,/SteperMotor/STEPER_DIRECTION*%
X33500000Y4880000D03*
%TO.N,/SteperMotor/STEPER_STEP*%
X30500000Y1880000D03*
D15*
%TO.N,/SteperMotor/STEPER_ENABLE*%
X33500000Y1880000D03*
%TD*%
D20*
%TO.N,GND*%
%TO.C,A1*%
X52680000Y-6500000D03*
D21*
%TO.N,+5V*%
X55220000Y-6500000D03*
%TO.N,/SteperMotor/STEPER_B1*%
X57760000Y-6500000D03*
%TO.N,/SteperMotor/STEPER_A1*%
X60300000Y-6500000D03*
%TO.N,/SteperMotor/STEPER_A2*%
X62840000Y-6500000D03*
%TO.N,/SteperMotor/STEPER_B2*%
X65380000Y-6500000D03*
%TO.N,GND*%
X67920000Y-6500000D03*
%TO.N,VCC*%
X70460000Y-6500000D03*
%TO.N,/SteperMotor/STEPER_ENABLE*%
X70460000Y6200000D03*
%TO.N,unconnected-(A1-MS1-Pad10)*%
X67920000Y6200000D03*
%TO.N,unconnected-(A1-MS2-Pad11)*%
X65380000Y6200000D03*
%TO.N,unconnected-(A1-MS3-Pad12)*%
X62840000Y6200000D03*
%TO.N,+5V*%
X60300000Y6200000D03*
X57760000Y6200000D03*
%TO.N,/SteperMotor/STEPER_STEP*%
X55220000Y6200000D03*
%TO.N,/SteperMotor/STEPER_DIRECTION*%
X52680000Y6200000D03*
%TD*%
D15*
%TO.N,/MCU/Temp_Eng*%
%TO.C,J7*%
X22100000Y1880000D03*
D11*
%TO.N,GND*%
X22100000Y4880000D03*
%TD*%
D15*
%TO.N,/MCU/Temp_Step*%
%TO.C,J8*%
X13700000Y1880000D03*
D11*
%TO.N,GND*%
X13700000Y4880000D03*
%TD*%
D18*
%TO.N,/MCU/PUL_SYNC*%
%TO.C,J11*%
X69340000Y-26700000D03*
D19*
%TO.N,/MCU/DIR_SYNC*%
X66800000Y-26700000D03*
%TD*%
D22*
%TO.N,Net-(R14-Pad2)*%
X18305000Y-31500000D03*
%TO.N,VCC*%
X33600000Y-1900000D03*
%TO.N,GND*%
X27400000Y0D03*
X26900000Y-11800000D03*
X63400000Y-13000000D03*
X78000000Y-7000000D03*
X31500000Y-15200000D03*
X36000000Y-15185995D03*
X10200000Y-14500000D03*
X51600000Y-14600000D03*
X19000000Y100000D03*
X27400000Y1300000D03*
X8400000Y-19900000D03*
X78300000Y-11000000D03*
X34900000Y-16600000D03*
X37900000Y-16100000D03*
X12700000Y-14500000D03*
X34100000Y-17300000D03*
X52150000Y-22602000D03*
X78000000Y-5700000D03*
X65300000Y1700000D03*
X37500000Y-25700000D03*
X34100000Y-15800000D03*
X37200000Y-12800000D03*
X11500000Y-15700000D03*
X27798000Y-29100000D03*
X61350000Y-15175000D03*
X41900000Y-25400000D03*
X7200000Y-21100000D03*
X36800000Y-16100000D03*
X72100000Y1700000D03*
X35965000Y-28600000D03*
X54600000Y-12700000D03*
X67000000Y-38300000D03*
X51500000Y-15598000D03*
X52100000Y-13200000D03*
X74900000Y-200000D03*
X74225000Y-27600000D03*
X37100000Y-15200000D03*
X78000000Y-8200000D03*
X32800000Y-12800000D03*
X78200000Y-27500000D03*
X34700000Y-12300000D03*
X28700000Y-8600000D03*
X49000000Y-26200000D03*
X5900000Y-19900000D03*
X52500000Y-15100000D03*
X57050000Y-15075000D03*
X51100000Y-17800000D03*
X20600000Y-9600000D03*
X50100000Y-26200000D03*
X42900000Y-26400000D03*
X10200000Y-15700000D03*
X66200000Y-29800000D03*
X53300000Y-26200000D03*
X5900000Y-21100000D03*
X78300000Y-12100000D03*
X38300000Y-26600000D03*
X50900000Y-22602000D03*
X7200000Y-19900000D03*
X62700000Y-35500000D03*
X34400000Y-9000000D03*
X77900000Y-3200000D03*
X31200000Y-34300000D03*
X6500000Y1300000D03*
X71750000Y-31250000D03*
X66600000Y1700000D03*
X69300000Y1700000D03*
X78000000Y-4500000D03*
X70200000Y-35400000D03*
X76200000Y-800000D03*
X77900000Y-1900000D03*
X39700000Y-25600000D03*
X8400000Y-21100000D03*
X11500000Y-14500000D03*
X59200000Y-12900000D03*
X38400000Y-15200000D03*
X50500000Y-14100000D03*
X50500000Y-15100000D03*
X40500000Y-26300000D03*
X70700000Y1700000D03*
X78000000Y-9200000D03*
X68000000Y1700000D03*
X51100000Y-19102000D03*
X12700000Y-15700000D03*
%TO.N,+5V*%
X68200000Y-13300000D03*
D23*
X66000000Y-28700000D03*
D22*
X20902500Y-21502500D03*
X56800000Y-13335500D03*
X62000000Y1100000D03*
X65900000Y-13298000D03*
X73400000Y-13000000D03*
X61200000Y-13335500D03*
X21700000Y-20700000D03*
X67100000Y-13300000D03*
X74800000Y-11700000D03*
X61300000Y1800000D03*
X22400000Y-20005000D03*
X60600000Y2500000D03*
D23*
X65200000Y-27900000D03*
D22*
X74200000Y-12400000D03*
%TO.N,/SteperMotor/STEPER_DIRECTION*%
X35800000Y100000D03*
%TO.N,/MCU/NRST*%
X8650000Y1400000D03*
%TO.N,+3V3*%
X28500000Y400000D03*
X33500000Y-30600000D03*
X27800000Y-35400000D03*
X32300000Y-35100000D03*
X24800000Y100000D03*
X59700000Y-22602000D03*
X61500000Y-17800000D03*
X20100000Y-11600000D03*
X60700000Y-22602000D03*
X58700000Y-22602000D03*
X72900000Y-25500000D03*
X19000000Y-8700000D03*
X68300000Y-22100000D03*
X19000000Y-9800000D03*
X55700000Y-22602000D03*
X57700000Y-22602000D03*
X19400000Y-10900000D03*
X27000000Y-21800000D03*
X18600000Y-7700000D03*
X20200000Y200000D03*
X74100000Y-23000000D03*
X61600000Y-22602000D03*
X15900000Y200000D03*
X56700000Y-22602000D03*
%TO.N,/USB/V_BUS*%
X68600000Y-35600000D03*
X63900000Y-35500000D03*
%TO.N,Net-(D3-A)*%
X75300000Y-18800000D03*
%TO.N,Net-(D4-A)*%
X75300000Y-20400000D03*
%TO.N,Net-(D5-A)*%
X75300000Y-17300000D03*
%TO.N,Net-(D6-A)*%
X75200000Y-15500000D03*
%TO.N,Net-(D7-A)*%
X75200000Y-13800000D03*
%TO.N,Net-(D8-A)*%
X75300000Y-22100000D03*
%TO.N,Net-(J6-CC1)*%
X65000000Y-38100000D03*
%TO.N,/USB/USB_CONN_D+*%
X67150000Y-34750000D03*
%TO.N,/USB/USB_CONN_D-*%
X65300000Y-34700000D03*
%TO.N,Net-(J6-CC2)*%
X68000000Y-38100000D03*
%TO.N,/MCU/USR_BTN*%
X72900000Y-30100000D03*
%TO.N,/MCU/Poz_zero_sens*%
X67438647Y-15368722D03*
%TO.N,Net-(R34-Pad1)*%
X76200000Y-23900000D03*
%TD*%
%TA.AperFunction,Conductor*%
%TO.N,GND*%
G36*
X52376627Y7679815D02*
G01*
X52422382Y7627011D01*
X52432326Y7557853D01*
X52403301Y7494297D01*
X52344523Y7456523D01*
X52341681Y7455725D01*
X52233511Y7426742D01*
X52233502Y7426739D01*
X52027267Y7330569D01*
X52027265Y7330568D01*
X51840858Y7200046D01*
X51679954Y7039142D01*
X51549432Y6852735D01*
X51549431Y6852733D01*
X51453261Y6646498D01*
X51453258Y6646489D01*
X51394366Y6426698D01*
X51394364Y6426687D01*
X51374532Y6200002D01*
X51374532Y6199999D01*
X51394364Y5973314D01*
X51394366Y5973303D01*
X51453258Y5753512D01*
X51453261Y5753503D01*
X51549431Y5547268D01*
X51549432Y5547266D01*
X51679954Y5360859D01*
X51840858Y5199955D01*
X51840861Y5199953D01*
X52027266Y5069432D01*
X52233504Y4973261D01*
X52453308Y4914365D01*
X52615230Y4900199D01*
X52679998Y4894532D01*
X52680000Y4894532D01*
X52680002Y4894532D01*
X52736673Y4899491D01*
X52906692Y4914365D01*
X53126496Y4973261D01*
X53332734Y5069432D01*
X53519139Y5199953D01*
X53680047Y5360861D01*
X53810568Y5547266D01*
X53837618Y5605276D01*
X53883790Y5657715D01*
X53950983Y5676867D01*
X54017865Y5656652D01*
X54062382Y5605275D01*
X54089429Y5547272D01*
X54089432Y5547266D01*
X54219954Y5360859D01*
X54380858Y5199955D01*
X54380861Y5199953D01*
X54567266Y5069432D01*
X54773504Y4973261D01*
X54993308Y4914365D01*
X55155230Y4900199D01*
X55219998Y4894532D01*
X55220000Y4894532D01*
X55220002Y4894532D01*
X55276673Y4899491D01*
X55446692Y4914365D01*
X55666496Y4973261D01*
X55872734Y5069432D01*
X56059139Y5199953D01*
X56220047Y5360861D01*
X56350568Y5547266D01*
X56377618Y5605276D01*
X56423790Y5657715D01*
X56490983Y5676867D01*
X56557865Y5656652D01*
X56602382Y5605275D01*
X56629429Y5547272D01*
X56629432Y5547266D01*
X56759954Y5360859D01*
X56920858Y5199955D01*
X56920861Y5199953D01*
X57107266Y5069432D01*
X57313504Y4973261D01*
X57533308Y4914365D01*
X57695230Y4900199D01*
X57759998Y4894532D01*
X57760000Y4894532D01*
X57760002Y4894532D01*
X57816673Y4899491D01*
X57986692Y4914365D01*
X58206496Y4973261D01*
X58412734Y5069432D01*
X58599139Y5199953D01*
X58760047Y5360861D01*
X58890568Y5547266D01*
X58917618Y5605276D01*
X58963790Y5657715D01*
X59030983Y5676867D01*
X59097865Y5656652D01*
X59142382Y5605275D01*
X59169429Y5547272D01*
X59169432Y5547266D01*
X59299954Y5360859D01*
X59460858Y5199955D01*
X59460861Y5199953D01*
X59647266Y5069432D01*
X59853504Y4973261D01*
X60073308Y4914365D01*
X60235230Y4900199D01*
X60299998Y4894532D01*
X60300000Y4894532D01*
X60300002Y4894532D01*
X60356673Y4899491D01*
X60526692Y4914365D01*
X60746496Y4973261D01*
X60952734Y5069432D01*
X61139139Y5199953D01*
X61300047Y5360861D01*
X61430568Y5547266D01*
X61457618Y5605276D01*
X61503790Y5657715D01*
X61570983Y5676867D01*
X61637865Y5656652D01*
X61682382Y5605275D01*
X61709429Y5547272D01*
X61709432Y5547266D01*
X61839954Y5360859D01*
X62000858Y5199955D01*
X62000861Y5199953D01*
X62187266Y5069432D01*
X62393504Y4973261D01*
X62613308Y4914365D01*
X62775230Y4900199D01*
X62839998Y4894532D01*
X62840000Y4894532D01*
X62840002Y4894532D01*
X62896673Y4899491D01*
X63066692Y4914365D01*
X63286496Y4973261D01*
X63492734Y5069432D01*
X63679139Y5199953D01*
X63840047Y5360861D01*
X63970568Y5547266D01*
X63997618Y5605276D01*
X64043790Y5657715D01*
X64110983Y5676867D01*
X64177865Y5656652D01*
X64222382Y5605275D01*
X64249429Y5547272D01*
X64249432Y5547266D01*
X64379954Y5360859D01*
X64540858Y5199955D01*
X64540861Y5199953D01*
X64727266Y5069432D01*
X64933504Y4973261D01*
X65153308Y4914365D01*
X65315230Y4900199D01*
X65379998Y4894532D01*
X65380000Y4894532D01*
X65380002Y4894532D01*
X65436673Y4899491D01*
X65606692Y4914365D01*
X65826496Y4973261D01*
X66032734Y5069432D01*
X66219139Y5199953D01*
X66380047Y5360861D01*
X66510568Y5547266D01*
X66537618Y5605276D01*
X66583790Y5657715D01*
X66650983Y5676867D01*
X66717865Y5656652D01*
X66762382Y5605275D01*
X66789429Y5547272D01*
X66789432Y5547266D01*
X66919954Y5360859D01*
X67080858Y5199955D01*
X67080861Y5199953D01*
X67267266Y5069432D01*
X67473504Y4973261D01*
X67693308Y4914365D01*
X67855230Y4900199D01*
X67919998Y4894532D01*
X67920000Y4894532D01*
X67920002Y4894532D01*
X67976673Y4899491D01*
X68146692Y4914365D01*
X68366496Y4973261D01*
X68572734Y5069432D01*
X68759139Y5199953D01*
X68920047Y5360861D01*
X69050568Y5547266D01*
X69077618Y5605276D01*
X69123790Y5657715D01*
X69190983Y5676867D01*
X69257865Y5656652D01*
X69302382Y5605275D01*
X69329429Y5547272D01*
X69329432Y5547266D01*
X69459954Y5360859D01*
X69620858Y5199955D01*
X69620861Y5199953D01*
X69807266Y5069432D01*
X70013504Y4973261D01*
X70233308Y4914365D01*
X70395230Y4900199D01*
X70459998Y4894532D01*
X70460000Y4894532D01*
X70460002Y4894532D01*
X70516673Y4899491D01*
X70686692Y4914365D01*
X70906496Y4973261D01*
X71112734Y5069432D01*
X71299139Y5199953D01*
X71460047Y5360861D01*
X71590568Y5547266D01*
X71686739Y5753504D01*
X71745635Y5973308D01*
X71765468Y6200000D01*
X71745635Y6426692D01*
X71686739Y6646496D01*
X71590568Y6852734D01*
X71460047Y7039139D01*
X71460045Y7039142D01*
X71299141Y7200046D01*
X71112734Y7330568D01*
X71112732Y7330569D01*
X70906497Y7426739D01*
X70906488Y7426742D01*
X70798319Y7455725D01*
X70738658Y7492090D01*
X70708129Y7554937D01*
X70716424Y7624312D01*
X70760909Y7678190D01*
X70827461Y7699465D01*
X70830412Y7699500D01*
X75460118Y7699500D01*
X75496948Y7699500D01*
X75503032Y7699351D01*
X75567797Y7696170D01*
X75866338Y7681503D01*
X75878440Y7680311D01*
X76235230Y7627387D01*
X76247140Y7625018D01*
X76597046Y7537371D01*
X76608663Y7533846D01*
X76948275Y7412331D01*
X76959497Y7407683D01*
X77285582Y7253457D01*
X77296290Y7247733D01*
X77484308Y7135039D01*
X77605659Y7062304D01*
X77615774Y7055546D01*
X77861403Y6873375D01*
X77905488Y6840679D01*
X77914894Y6832959D01*
X78182146Y6590736D01*
X78190735Y6582147D01*
X78278745Y6485043D01*
X78432958Y6314895D01*
X78440678Y6305489D01*
X78655543Y6015778D01*
X78662303Y6005660D01*
X78693472Y5953658D01*
X78836532Y5714976D01*
X78847725Y5696303D01*
X78853460Y5685575D01*
X78894290Y5599246D01*
X79007679Y5359505D01*
X79012334Y5348266D01*
X79111525Y5071045D01*
X79133840Y5008681D01*
X79137373Y4997036D01*
X79225014Y4647154D01*
X79227388Y4635218D01*
X79280309Y4278445D01*
X79281502Y4266336D01*
X79299351Y3903033D01*
X79299500Y3896948D01*
X79299500Y-39096947D01*
X79299351Y-39103032D01*
X79281502Y-39466335D01*
X79280309Y-39478444D01*
X79227388Y-39835217D01*
X79225014Y-39847153D01*
X79137373Y-40197035D01*
X79133840Y-40208680D01*
X79012335Y-40548262D01*
X79007679Y-40559504D01*
X78853462Y-40885570D01*
X78847725Y-40896302D01*
X78662303Y-41205659D01*
X78655543Y-41215777D01*
X78440678Y-41505488D01*
X78432958Y-41514894D01*
X78190743Y-41782138D01*
X78182138Y-41790743D01*
X77914894Y-42032958D01*
X77905488Y-42040678D01*
X77615777Y-42255543D01*
X77605659Y-42262303D01*
X77296302Y-42447725D01*
X77285570Y-42453462D01*
X76959504Y-42607679D01*
X76948262Y-42612335D01*
X76608680Y-42733840D01*
X76597035Y-42737373D01*
X76247153Y-42825014D01*
X76235217Y-42827388D01*
X75878444Y-42880309D01*
X75866335Y-42881502D01*
X75503033Y-42899351D01*
X75496948Y-42899500D01*
X71386329Y-42899500D01*
X71319290Y-42879815D01*
X71273535Y-42827011D01*
X71263591Y-42757853D01*
X71292616Y-42694297D01*
X71300896Y-42685627D01*
X71305415Y-42681330D01*
X71333053Y-42655059D01*
X71449295Y-42488049D01*
X71529540Y-42301058D01*
X71570500Y-42101741D01*
X71570500Y-41149258D01*
X71566880Y-41113653D01*
X71555074Y-40997560D01*
X71494162Y-40803420D01*
X71494160Y-40803416D01*
X71494159Y-40803412D01*
X71395409Y-40625498D01*
X71395408Y-40625497D01*
X71395407Y-40625495D01*
X71262867Y-40471106D01*
X71262865Y-40471104D01*
X71101962Y-40346554D01*
X71101959Y-40346553D01*
X71101958Y-40346552D01*
X70919271Y-40256940D01*
X70722285Y-40205937D01*
X70722287Y-40205937D01*
X70586804Y-40199066D01*
X70519064Y-40195631D01*
X70519063Y-40195631D01*
X70519061Y-40195631D01*
X70317936Y-40226442D01*
X70317924Y-40226445D01*
X70127118Y-40297111D01*
X70127111Y-40297115D01*
X69954432Y-40404745D01*
X69954427Y-40404749D01*
X69806949Y-40544938D01*
X69806948Y-40544940D01*
X69690705Y-40711949D01*
X69610459Y-40898943D01*
X69569500Y-41098258D01*
X69569500Y-42050743D01*
X69584925Y-42202439D01*
X69645837Y-42396579D01*
X69645844Y-42396594D01*
X69696605Y-42488049D01*
X69744591Y-42574502D01*
X69847804Y-42694730D01*
X69876536Y-42758418D01*
X69866274Y-42827530D01*
X69820277Y-42880123D01*
X69753718Y-42899500D01*
X62746329Y-42899500D01*
X62679290Y-42879815D01*
X62633535Y-42827011D01*
X62623591Y-42757853D01*
X62652616Y-42694297D01*
X62660896Y-42685627D01*
X62665415Y-42681330D01*
X62693053Y-42655059D01*
X62809295Y-42488049D01*
X62889540Y-42301058D01*
X62930500Y-42101741D01*
X62930500Y-41149258D01*
X62926880Y-41113653D01*
X62915074Y-40997560D01*
X62854162Y-40803420D01*
X62854160Y-40803416D01*
X62854159Y-40803412D01*
X62755409Y-40625498D01*
X62755408Y-40625497D01*
X62755407Y-40625495D01*
X62622867Y-40471106D01*
X62622865Y-40471104D01*
X62461962Y-40346554D01*
X62461959Y-40346553D01*
X62461958Y-40346552D01*
X62279271Y-40256940D01*
X62082285Y-40205937D01*
X62082287Y-40205937D01*
X61946804Y-40199066D01*
X61879064Y-40195631D01*
X61879063Y-40195631D01*
X61879061Y-40195631D01*
X61677936Y-40226442D01*
X61677924Y-40226445D01*
X61487118Y-40297111D01*
X61487111Y-40297115D01*
X61314432Y-40404745D01*
X61314427Y-40404749D01*
X61166949Y-40544938D01*
X61166948Y-40544940D01*
X61050705Y-40711949D01*
X60970459Y-40898943D01*
X60929500Y-41098258D01*
X60929500Y-42050743D01*
X60944925Y-42202439D01*
X61005837Y-42396579D01*
X61005844Y-42396594D01*
X61056605Y-42488049D01*
X61104591Y-42574502D01*
X61207804Y-42694730D01*
X61236536Y-42758418D01*
X61226274Y-42827530D01*
X61180277Y-42880123D01*
X61113718Y-42899500D01*
X2503052Y-42899500D01*
X2496967Y-42899351D01*
X2133664Y-42881502D01*
X2121555Y-42880309D01*
X1764782Y-42827388D01*
X1752846Y-42825014D01*
X1402964Y-42737373D01*
X1391323Y-42733841D01*
X1051734Y-42612334D01*
X1040495Y-42607679D01*
X787560Y-42488050D01*
X714425Y-42453460D01*
X703702Y-42447727D01*
X394340Y-42262303D01*
X384222Y-42255543D01*
X94511Y-42040678D01*
X85105Y-42032958D01*
X42479Y-41994324D01*
X-182147Y-41790735D01*
X-190736Y-41782146D01*
X-432959Y-41514894D01*
X-440679Y-41505488D01*
X-462259Y-41476391D01*
X-655546Y-41215774D01*
X-662304Y-41205659D01*
X-689223Y-41160747D01*
X-764741Y-41034754D01*
X6131598Y-41034754D01*
X6162630Y-41210747D01*
X6162631Y-41210750D01*
X6162632Y-41210754D01*
X6233417Y-41374852D01*
X6233418Y-41374854D01*
X6233420Y-41374857D01*
X6302914Y-41468203D01*
X6340138Y-41518203D01*
X6477041Y-41633078D01*
X6537188Y-41663285D01*
X6636745Y-41713285D01*
X6810642Y-41754500D01*
X6810643Y-41754500D01*
X6944517Y-41754500D01*
X6944524Y-41754500D01*
X7077506Y-41738957D01*
X7245443Y-41677833D01*
X7394756Y-41579627D01*
X7517397Y-41449635D01*
X7606755Y-41294864D01*
X7658010Y-41123658D01*
X7668402Y-40945246D01*
X7637368Y-40769246D01*
X7566583Y-40605148D01*
X7559138Y-40595148D01*
X7477037Y-40484867D01*
X7459862Y-40461797D01*
X7447944Y-40451797D01*
X7322959Y-40346922D01*
X7322957Y-40346921D01*
X7163254Y-40266714D01*
X6989358Y-40225500D01*
X6989357Y-40225500D01*
X6855476Y-40225500D01*
X6752045Y-40237589D01*
X6722492Y-40241043D01*
X6722490Y-40241044D01*
X6554557Y-40302166D01*
X6554556Y-40302166D01*
X6405246Y-40400371D01*
X6405240Y-40400376D01*
X6282604Y-40530363D01*
X6282600Y-40530368D01*
X6193246Y-40685133D01*
X6193245Y-40685135D01*
X6193245Y-40685136D01*
X6182347Y-40721540D01*
X6141991Y-40856338D01*
X6141989Y-40856346D01*
X6131598Y-41034753D01*
X6131598Y-41034754D01*
X-764741Y-41034754D01*
X-847733Y-40896290D01*
X-853457Y-40885582D01*
X-1007683Y-40559497D01*
X-1012331Y-40548275D01*
X-1133846Y-40208663D01*
X-1137371Y-40197046D01*
X-1225018Y-39847140D01*
X-1227387Y-39835230D01*
X-1280311Y-39478440D01*
X-1281503Y-39466334D01*
X-1284155Y-39412361D01*
X-1296164Y-39167909D01*
X641779Y-39167909D01*
X671468Y-39437735D01*
X671470Y-39437748D01*
X719291Y-39620668D01*
X740132Y-39700384D01*
X846303Y-39950224D01*
X907193Y-40049997D01*
X987716Y-40181940D01*
X987717Y-40181942D01*
X1059318Y-40267979D01*
X1124707Y-40346552D01*
X1161369Y-40390605D01*
X1185021Y-40411797D01*
X1363546Y-40571757D01*
X1589947Y-40721542D01*
X1835743Y-40836767D01*
X2095697Y-40914975D01*
X2364268Y-40954500D01*
X2364273Y-40954500D01*
X2567779Y-40954500D01*
X2567781Y-40954500D01*
X2567786Y-40954499D01*
X2567798Y-40954499D01*
X2605424Y-40951744D01*
X2770740Y-40939645D01*
X2881488Y-40914975D01*
X3035702Y-40880623D01*
X3035704Y-40880622D01*
X3035709Y-40880621D01*
X3289261Y-40783646D01*
X3525991Y-40650786D01*
X3740853Y-40484875D01*
X3929269Y-40289447D01*
X4087223Y-40068668D01*
X4096821Y-40050000D01*
X8644723Y-40050000D01*
X8662827Y-40256940D01*
X8663793Y-40267975D01*
X8663793Y-40267979D01*
X8720422Y-40479322D01*
X8720424Y-40479326D01*
X8720425Y-40479330D01*
X8751020Y-40544941D01*
X8812897Y-40677638D01*
X8812898Y-40677639D01*
X8938402Y-40856877D01*
X9093123Y-41011598D01*
X9272361Y-41137102D01*
X9470670Y-41229575D01*
X9682023Y-41286207D01*
X9864926Y-41302208D01*
X9899998Y-41305277D01*
X9900000Y-41305277D01*
X9900002Y-41305277D01*
X9928254Y-41302805D01*
X10117977Y-41286207D01*
X10329330Y-41229575D01*
X10527639Y-41137102D01*
X10706877Y-41011598D01*
X10861598Y-40856877D01*
X10987102Y-40677639D01*
X11079575Y-40479330D01*
X11136207Y-40267977D01*
X11155277Y-40050000D01*
X11644723Y-40050000D01*
X11662827Y-40256940D01*
X11663793Y-40267975D01*
X11663793Y-40267979D01*
X11720422Y-40479322D01*
X11720424Y-40479326D01*
X11720425Y-40479330D01*
X11751020Y-40544941D01*
X11812897Y-40677638D01*
X11812898Y-40677639D01*
X11938402Y-40856877D01*
X12093123Y-41011598D01*
X12272361Y-41137102D01*
X12470670Y-41229575D01*
X12682023Y-41286207D01*
X12864926Y-41302208D01*
X12899998Y-41305277D01*
X12900000Y-41305277D01*
X12900002Y-41305277D01*
X12928254Y-41302805D01*
X13117977Y-41286207D01*
X13329330Y-41229575D01*
X13527639Y-41137102D01*
X13673807Y-41034754D01*
X15131598Y-41034754D01*
X15162630Y-41210747D01*
X15162631Y-41210750D01*
X15162632Y-41210754D01*
X15233417Y-41374852D01*
X15233418Y-41374854D01*
X15233420Y-41374857D01*
X15302914Y-41468203D01*
X15340138Y-41518203D01*
X15477041Y-41633078D01*
X15537188Y-41663285D01*
X15636745Y-41713285D01*
X15810642Y-41754500D01*
X15810643Y-41754500D01*
X15944517Y-41754500D01*
X15944524Y-41754500D01*
X16077506Y-41738957D01*
X16245443Y-41677833D01*
X16394756Y-41579627D01*
X16517397Y-41449635D01*
X16606755Y-41294864D01*
X16658010Y-41123658D01*
X16663771Y-41024754D01*
X17931598Y-41024754D01*
X17962630Y-41200747D01*
X17962631Y-41200750D01*
X17962632Y-41200754D01*
X18033417Y-41364852D01*
X18033418Y-41364854D01*
X18033420Y-41364857D01*
X18096536Y-41449636D01*
X18140138Y-41508203D01*
X18277041Y-41623078D01*
X18296951Y-41633077D01*
X18436745Y-41703285D01*
X18610642Y-41744500D01*
X18610643Y-41744500D01*
X18744517Y-41744500D01*
X18744524Y-41744500D01*
X18877506Y-41728957D01*
X19045443Y-41667833D01*
X19194756Y-41569627D01*
X19317397Y-41439635D01*
X19406755Y-41284864D01*
X19458010Y-41113658D01*
X19468402Y-40935246D01*
X19437368Y-40759246D01*
X19366583Y-40595148D01*
X19349168Y-40571756D01*
X19280360Y-40479331D01*
X19259862Y-40451797D01*
X19203787Y-40404745D01*
X19122959Y-40336922D01*
X19122957Y-40336921D01*
X18963254Y-40256714D01*
X18789358Y-40215500D01*
X18789357Y-40215500D01*
X18655476Y-40215500D01*
X18552045Y-40227589D01*
X18522492Y-40231043D01*
X18522490Y-40231044D01*
X18354557Y-40292166D01*
X18354556Y-40292166D01*
X18205246Y-40390371D01*
X18205240Y-40390376D01*
X18082604Y-40520363D01*
X18082600Y-40520368D01*
X17993246Y-40675133D01*
X17993245Y-40675135D01*
X17993245Y-40675136D01*
X17980040Y-40719246D01*
X17941991Y-40846338D01*
X17941989Y-40846346D01*
X17931598Y-41024753D01*
X17931598Y-41024754D01*
X16663771Y-41024754D01*
X16668402Y-40945246D01*
X16637368Y-40769246D01*
X16566583Y-40605148D01*
X16559138Y-40595148D01*
X16477037Y-40484867D01*
X16459862Y-40461797D01*
X16447944Y-40451797D01*
X16322959Y-40346922D01*
X16322957Y-40346921D01*
X16163254Y-40266714D01*
X15989358Y-40225500D01*
X15989357Y-40225500D01*
X15855476Y-40225500D01*
X15752045Y-40237589D01*
X15722492Y-40241043D01*
X15722490Y-40241044D01*
X15554557Y-40302166D01*
X15554556Y-40302166D01*
X15405246Y-40400371D01*
X15405240Y-40400376D01*
X15282604Y-40530363D01*
X15282600Y-40530368D01*
X15193246Y-40685133D01*
X15193245Y-40685135D01*
X15193245Y-40685136D01*
X15182347Y-40721540D01*
X15141991Y-40856338D01*
X15141989Y-40856346D01*
X15131598Y-41034753D01*
X15131598Y-41034754D01*
X13673807Y-41034754D01*
X13706877Y-41011598D01*
X13861598Y-40856877D01*
X13987102Y-40677639D01*
X14079575Y-40479330D01*
X14136207Y-40267977D01*
X14155277Y-40050000D01*
X14154402Y-40040002D01*
X20444723Y-40040002D01*
X20445598Y-40050000D01*
X20461034Y-40226445D01*
X20463793Y-40257975D01*
X20463793Y-40257979D01*
X20520422Y-40469322D01*
X20520424Y-40469326D01*
X20520425Y-40469330D01*
X20555682Y-40544938D01*
X20612897Y-40667638D01*
X20637998Y-40703486D01*
X20738402Y-40846877D01*
X20893123Y-41001598D01*
X21072361Y-41127102D01*
X21270670Y-41219575D01*
X21482023Y-41276207D01*
X21664926Y-41292208D01*
X21699998Y-41295277D01*
X21700000Y-41295277D01*
X21700002Y-41295277D01*
X21728254Y-41292805D01*
X21917977Y-41276207D01*
X22129330Y-41219575D01*
X22327639Y-41127102D01*
X22506877Y-41001598D01*
X22661598Y-40846877D01*
X22787102Y-40667639D01*
X22879575Y-40469330D01*
X22936207Y-40257977D01*
X22954402Y-40050000D01*
X22955277Y-40040002D01*
X23444723Y-40040002D01*
X23445598Y-40050000D01*
X23461034Y-40226445D01*
X23463793Y-40257975D01*
X23463793Y-40257979D01*
X23520422Y-40469322D01*
X23520424Y-40469326D01*
X23520425Y-40469330D01*
X23555682Y-40544938D01*
X23612897Y-40667638D01*
X23637998Y-40703486D01*
X23738402Y-40846877D01*
X23893123Y-41001598D01*
X24072361Y-41127102D01*
X24270670Y-41219575D01*
X24482023Y-41276207D01*
X24664926Y-41292208D01*
X24699998Y-41295277D01*
X24700000Y-41295277D01*
X24700002Y-41295277D01*
X24728254Y-41292805D01*
X24917977Y-41276207D01*
X25129330Y-41219575D01*
X25327639Y-41127102D01*
X25473807Y-41024754D01*
X26931598Y-41024754D01*
X26962630Y-41200747D01*
X26962631Y-41200750D01*
X26962632Y-41200754D01*
X27033417Y-41364852D01*
X27033418Y-41364854D01*
X27033420Y-41364857D01*
X27096536Y-41449636D01*
X27140138Y-41508203D01*
X27277041Y-41623078D01*
X27296951Y-41633077D01*
X27436745Y-41703285D01*
X27610642Y-41744500D01*
X27610643Y-41744500D01*
X27744517Y-41744500D01*
X27744524Y-41744500D01*
X27877506Y-41728957D01*
X28045443Y-41667833D01*
X28194756Y-41569627D01*
X28317397Y-41439635D01*
X28406755Y-41284864D01*
X28458010Y-41113658D01*
X28465518Y-40984754D01*
X29431598Y-40984754D01*
X29462630Y-41160747D01*
X29462631Y-41160750D01*
X29462632Y-41160754D01*
X29533417Y-41324852D01*
X29533418Y-41324854D01*
X29533420Y-41324857D01*
X29626312Y-41449631D01*
X29640138Y-41468203D01*
X29777041Y-41583078D01*
X29856685Y-41623077D01*
X29936745Y-41663285D01*
X30110642Y-41704500D01*
X30110643Y-41704500D01*
X30244517Y-41704500D01*
X30244524Y-41704500D01*
X30377506Y-41688957D01*
X30545443Y-41627833D01*
X30694756Y-41529627D01*
X30817397Y-41399635D01*
X30906755Y-41244864D01*
X30958010Y-41073658D01*
X30968402Y-40895246D01*
X30937368Y-40719246D01*
X30866583Y-40555148D01*
X30858984Y-40544941D01*
X30789640Y-40451796D01*
X30759862Y-40411797D01*
X30746247Y-40400373D01*
X30622959Y-40296922D01*
X30622957Y-40296921D01*
X30463254Y-40216714D01*
X30289358Y-40175500D01*
X30289357Y-40175500D01*
X30155476Y-40175500D01*
X30052045Y-40187589D01*
X30022492Y-40191043D01*
X30022490Y-40191044D01*
X29854557Y-40252166D01*
X29854556Y-40252166D01*
X29705246Y-40350371D01*
X29705240Y-40350376D01*
X29582604Y-40480363D01*
X29582600Y-40480368D01*
X29493246Y-40635133D01*
X29441991Y-40806338D01*
X29441989Y-40806346D01*
X29431598Y-40984753D01*
X29431598Y-40984754D01*
X28465518Y-40984754D01*
X28468402Y-40935246D01*
X28437368Y-40759246D01*
X28366583Y-40595148D01*
X28349168Y-40571756D01*
X28280360Y-40479331D01*
X28259862Y-40451797D01*
X28203787Y-40404745D01*
X28122959Y-40336922D01*
X28122957Y-40336921D01*
X27963254Y-40256714D01*
X27789358Y-40215500D01*
X27789357Y-40215500D01*
X27655476Y-40215500D01*
X27552045Y-40227589D01*
X27522492Y-40231043D01*
X27522490Y-40231044D01*
X27354557Y-40292166D01*
X27354556Y-40292166D01*
X27205246Y-40390371D01*
X27205240Y-40390376D01*
X27082604Y-40520363D01*
X27082600Y-40520368D01*
X26993246Y-40675133D01*
X26993245Y-40675135D01*
X26993245Y-40675136D01*
X26980040Y-40719246D01*
X26941991Y-40846338D01*
X26941989Y-40846346D01*
X26931598Y-41024753D01*
X26931598Y-41024754D01*
X25473807Y-41024754D01*
X25506877Y-41001598D01*
X25661598Y-40846877D01*
X25787102Y-40667639D01*
X25879575Y-40469330D01*
X25936207Y-40257977D01*
X25954402Y-40050000D01*
X25955277Y-40040002D01*
X25955277Y-40039997D01*
X25951778Y-40000002D01*
X31944723Y-40000002D01*
X31950731Y-40068670D01*
X31960640Y-40181942D01*
X31963793Y-40217975D01*
X31963793Y-40217979D01*
X32020422Y-40429322D01*
X32020424Y-40429326D01*
X32020425Y-40429330D01*
X32046323Y-40484869D01*
X32112897Y-40627638D01*
X32112898Y-40627639D01*
X32238402Y-40806877D01*
X32393123Y-40961598D01*
X32572361Y-41087102D01*
X32770670Y-41179575D01*
X32982023Y-41236207D01*
X33164926Y-41252208D01*
X33199998Y-41255277D01*
X33200000Y-41255277D01*
X33200002Y-41255277D01*
X33228254Y-41252805D01*
X33417977Y-41236207D01*
X33629330Y-41179575D01*
X33827639Y-41087102D01*
X34006877Y-40961598D01*
X34161598Y-40806877D01*
X34287102Y-40627639D01*
X34379575Y-40429330D01*
X34436207Y-40217977D01*
X34455277Y-40000002D01*
X34944723Y-40000002D01*
X34950731Y-40068670D01*
X34960640Y-40181942D01*
X34963793Y-40217975D01*
X34963793Y-40217979D01*
X35020422Y-40429322D01*
X35020424Y-40429326D01*
X35020425Y-40429330D01*
X35046323Y-40484869D01*
X35112897Y-40627638D01*
X35112898Y-40627639D01*
X35238402Y-40806877D01*
X35393123Y-40961598D01*
X35572361Y-41087102D01*
X35770670Y-41179575D01*
X35982023Y-41236207D01*
X36164926Y-41252208D01*
X36199998Y-41255277D01*
X36200000Y-41255277D01*
X36200002Y-41255277D01*
X36228254Y-41252805D01*
X36417977Y-41236207D01*
X36629330Y-41179575D01*
X36827639Y-41087102D01*
X37006877Y-40961598D01*
X37161598Y-40806877D01*
X37287102Y-40627639D01*
X37379575Y-40429330D01*
X37436207Y-40217977D01*
X37455277Y-40000002D01*
X37944723Y-40000002D01*
X37950731Y-40068670D01*
X37960640Y-40181942D01*
X37963793Y-40217975D01*
X37963793Y-40217979D01*
X38020422Y-40429322D01*
X38020424Y-40429326D01*
X38020425Y-40429330D01*
X38046323Y-40484869D01*
X38112897Y-40627638D01*
X38112898Y-40627639D01*
X38238402Y-40806877D01*
X38393123Y-40961598D01*
X38572361Y-41087102D01*
X38770670Y-41179575D01*
X38982023Y-41236207D01*
X39164926Y-41252208D01*
X39199998Y-41255277D01*
X39200000Y-41255277D01*
X39200002Y-41255277D01*
X39228254Y-41252805D01*
X39417977Y-41236207D01*
X39629330Y-41179575D01*
X39827639Y-41087102D01*
X39973807Y-40984754D01*
X41431598Y-40984754D01*
X41462630Y-41160747D01*
X41462631Y-41160750D01*
X41462632Y-41160754D01*
X41533417Y-41324852D01*
X41533418Y-41324854D01*
X41533420Y-41324857D01*
X41626312Y-41449631D01*
X41640138Y-41468203D01*
X41777041Y-41583078D01*
X41856685Y-41623077D01*
X41936745Y-41663285D01*
X42110642Y-41704500D01*
X42110643Y-41704500D01*
X42244517Y-41704500D01*
X42244524Y-41704500D01*
X42377506Y-41688957D01*
X42545443Y-41627833D01*
X42694756Y-41529627D01*
X42817397Y-41399635D01*
X42906755Y-41244864D01*
X42958010Y-41073658D01*
X42963188Y-40984754D01*
X43831598Y-40984754D01*
X43862630Y-41160747D01*
X43862631Y-41160750D01*
X43862632Y-41160754D01*
X43933417Y-41324852D01*
X43933418Y-41324854D01*
X43933420Y-41324857D01*
X44026312Y-41449631D01*
X44040138Y-41468203D01*
X44177041Y-41583078D01*
X44256685Y-41623077D01*
X44336745Y-41663285D01*
X44510642Y-41704500D01*
X44510643Y-41704500D01*
X44644517Y-41704500D01*
X44644524Y-41704500D01*
X44777506Y-41688957D01*
X44945443Y-41627833D01*
X45094756Y-41529627D01*
X45217397Y-41399635D01*
X45306755Y-41244864D01*
X45358010Y-41073658D01*
X45368402Y-40895246D01*
X45337368Y-40719246D01*
X45266583Y-40555148D01*
X45258984Y-40544941D01*
X45189640Y-40451796D01*
X45159862Y-40411797D01*
X45146247Y-40400373D01*
X45022959Y-40296922D01*
X45022957Y-40296921D01*
X44863254Y-40216714D01*
X44689358Y-40175500D01*
X44689357Y-40175500D01*
X44555476Y-40175500D01*
X44452045Y-40187589D01*
X44422492Y-40191043D01*
X44422490Y-40191044D01*
X44254557Y-40252166D01*
X44254556Y-40252166D01*
X44105246Y-40350371D01*
X44105240Y-40350376D01*
X43982604Y-40480363D01*
X43982600Y-40480368D01*
X43893246Y-40635133D01*
X43841991Y-40806338D01*
X43841989Y-40806346D01*
X43831598Y-40984753D01*
X43831598Y-40984754D01*
X42963188Y-40984754D01*
X42968402Y-40895246D01*
X42937368Y-40719246D01*
X42866583Y-40555148D01*
X42858984Y-40544941D01*
X42789640Y-40451796D01*
X42759862Y-40411797D01*
X42746247Y-40400373D01*
X42622959Y-40296922D01*
X42622957Y-40296921D01*
X42463254Y-40216714D01*
X42289358Y-40175500D01*
X42289357Y-40175500D01*
X42155476Y-40175500D01*
X42052045Y-40187589D01*
X42022492Y-40191043D01*
X42022490Y-40191044D01*
X41854557Y-40252166D01*
X41854556Y-40252166D01*
X41705246Y-40350371D01*
X41705240Y-40350376D01*
X41582604Y-40480363D01*
X41582600Y-40480368D01*
X41493246Y-40635133D01*
X41441991Y-40806338D01*
X41441989Y-40806346D01*
X41431598Y-40984753D01*
X41431598Y-40984754D01*
X39973807Y-40984754D01*
X40006877Y-40961598D01*
X40161598Y-40806877D01*
X40287102Y-40627639D01*
X40379575Y-40429330D01*
X40436207Y-40217977D01*
X40455277Y-40000002D01*
X46344723Y-40000002D01*
X46350731Y-40068670D01*
X46360640Y-40181942D01*
X46363793Y-40217975D01*
X46363793Y-40217979D01*
X46420422Y-40429322D01*
X46420424Y-40429326D01*
X46420425Y-40429330D01*
X46446323Y-40484869D01*
X46512897Y-40627638D01*
X46512898Y-40627639D01*
X46638402Y-40806877D01*
X46793123Y-40961598D01*
X46972361Y-41087102D01*
X47170670Y-41179575D01*
X47382023Y-41236207D01*
X47564926Y-41252208D01*
X47599998Y-41255277D01*
X47600000Y-41255277D01*
X47600002Y-41255277D01*
X47628254Y-41252805D01*
X47817977Y-41236207D01*
X48029330Y-41179575D01*
X48227639Y-41087102D01*
X48406877Y-40961598D01*
X48561598Y-40806877D01*
X48687102Y-40627639D01*
X48779575Y-40429330D01*
X48836207Y-40217977D01*
X48855277Y-40000002D01*
X49344723Y-40000002D01*
X49350731Y-40068670D01*
X49360640Y-40181942D01*
X49363793Y-40217975D01*
X49363793Y-40217979D01*
X49420422Y-40429322D01*
X49420424Y-40429326D01*
X49420425Y-40429330D01*
X49446323Y-40484869D01*
X49512897Y-40627638D01*
X49512898Y-40627639D01*
X49638402Y-40806877D01*
X49793123Y-40961598D01*
X49972361Y-41087102D01*
X50170670Y-41179575D01*
X50382023Y-41236207D01*
X50564926Y-41252208D01*
X50599998Y-41255277D01*
X50600000Y-41255277D01*
X50600002Y-41255277D01*
X50628254Y-41252805D01*
X50817977Y-41236207D01*
X51029330Y-41179575D01*
X51227639Y-41087102D01*
X51406877Y-40961598D01*
X51561598Y-40806877D01*
X51687102Y-40627639D01*
X51779575Y-40429330D01*
X51836207Y-40217977D01*
X51855277Y-40000002D01*
X52344723Y-40000002D01*
X52350731Y-40068670D01*
X52360640Y-40181942D01*
X52363793Y-40217975D01*
X52363793Y-40217979D01*
X52420422Y-40429322D01*
X52420424Y-40429326D01*
X52420425Y-40429330D01*
X52446323Y-40484869D01*
X52512897Y-40627638D01*
X52512898Y-40627639D01*
X52638402Y-40806877D01*
X52793123Y-40961598D01*
X52972361Y-41087102D01*
X53170670Y-41179575D01*
X53382023Y-41236207D01*
X53564926Y-41252208D01*
X53599998Y-41255277D01*
X53600000Y-41255277D01*
X53600002Y-41255277D01*
X53628254Y-41252805D01*
X53817977Y-41236207D01*
X54029330Y-41179575D01*
X54227639Y-41087102D01*
X54373807Y-40984754D01*
X55831598Y-40984754D01*
X55862630Y-41160747D01*
X55862631Y-41160750D01*
X55862632Y-41160754D01*
X55933417Y-41324852D01*
X55933418Y-41324854D01*
X55933420Y-41324857D01*
X56026312Y-41449631D01*
X56040138Y-41468203D01*
X56177041Y-41583078D01*
X56256685Y-41623077D01*
X56336745Y-41663285D01*
X56510642Y-41704500D01*
X56510643Y-41704500D01*
X56644517Y-41704500D01*
X56644524Y-41704500D01*
X56777506Y-41688957D01*
X56945443Y-41627833D01*
X57094756Y-41529627D01*
X57217397Y-41399635D01*
X57306755Y-41244864D01*
X57358010Y-41073658D01*
X57368402Y-40895246D01*
X57337368Y-40719246D01*
X57266583Y-40555148D01*
X57258984Y-40544941D01*
X57189640Y-40451796D01*
X57159862Y-40411797D01*
X57146247Y-40400373D01*
X57022959Y-40296922D01*
X57022957Y-40296921D01*
X56863254Y-40216714D01*
X56689358Y-40175500D01*
X56689357Y-40175500D01*
X56555476Y-40175500D01*
X56452045Y-40187589D01*
X56422492Y-40191043D01*
X56422490Y-40191044D01*
X56254557Y-40252166D01*
X56254556Y-40252166D01*
X56105246Y-40350371D01*
X56105240Y-40350376D01*
X55982604Y-40480363D01*
X55982600Y-40480368D01*
X55893246Y-40635133D01*
X55841991Y-40806338D01*
X55841989Y-40806346D01*
X55831598Y-40984753D01*
X55831598Y-40984754D01*
X54373807Y-40984754D01*
X54406877Y-40961598D01*
X54561598Y-40806877D01*
X54687102Y-40627639D01*
X54779575Y-40429330D01*
X54836207Y-40217977D01*
X54855277Y-40000000D01*
X54836207Y-39782023D01*
X54792974Y-39620677D01*
X54779577Y-39570677D01*
X54779576Y-39570676D01*
X54779575Y-39570670D01*
X54687102Y-39372362D01*
X54687100Y-39372359D01*
X54687099Y-39372357D01*
X54561599Y-39193124D01*
X54536384Y-39167909D01*
X73641779Y-39167909D01*
X73671468Y-39437735D01*
X73671470Y-39437748D01*
X73719291Y-39620668D01*
X73740132Y-39700384D01*
X73846303Y-39950224D01*
X73907193Y-40049997D01*
X73987716Y-40181940D01*
X73987717Y-40181942D01*
X74059318Y-40267979D01*
X74124707Y-40346552D01*
X74161369Y-40390605D01*
X74185021Y-40411797D01*
X74363546Y-40571757D01*
X74589947Y-40721542D01*
X74835743Y-40836767D01*
X75095697Y-40914975D01*
X75364268Y-40954500D01*
X75364273Y-40954500D01*
X75567779Y-40954500D01*
X75567781Y-40954500D01*
X75567786Y-40954499D01*
X75567798Y-40954499D01*
X75605424Y-40951744D01*
X75770740Y-40939645D01*
X75881488Y-40914975D01*
X76035702Y-40880623D01*
X76035704Y-40880622D01*
X76035709Y-40880621D01*
X76289261Y-40783646D01*
X76525991Y-40650786D01*
X76740853Y-40484875D01*
X76929269Y-40289447D01*
X77087223Y-40068668D01*
X77207249Y-39835217D01*
X77211344Y-39827252D01*
X77211344Y-39827251D01*
X77211348Y-39827244D01*
X77285233Y-39610670D01*
X77298994Y-39570333D01*
X77298994Y-39570329D01*
X77298998Y-39570320D01*
X77348306Y-39303371D01*
X77358220Y-39032089D01*
X77328530Y-38762253D01*
X77259868Y-38499616D01*
X77153697Y-38249776D01*
X77012281Y-38018056D01*
X77006902Y-38011593D01*
X76922814Y-37910551D01*
X76838632Y-37809396D01*
X76730426Y-37712443D01*
X76636454Y-37628243D01*
X76410055Y-37478459D01*
X76367208Y-37458373D01*
X76164257Y-37363233D01*
X75904303Y-37285025D01*
X75904301Y-37285024D01*
X75904299Y-37285024D01*
X75807999Y-37270852D01*
X75635732Y-37245500D01*
X75432219Y-37245500D01*
X75432201Y-37245500D01*
X75229260Y-37260355D01*
X75229246Y-37260357D01*
X74964297Y-37319376D01*
X74964290Y-37319379D01*
X74710736Y-37416355D01*
X74474012Y-37549211D01*
X74259140Y-37715130D01*
X74259139Y-37715132D01*
X74070734Y-37910549D01*
X74070732Y-37910551D01*
X73912778Y-38131329D01*
X73788656Y-38372746D01*
X73788649Y-38372762D01*
X73701005Y-38629666D01*
X73701001Y-38629684D01*
X73651693Y-38896631D01*
X73651693Y-38896633D01*
X73641779Y-39167909D01*
X54536384Y-39167909D01*
X54406877Y-39038402D01*
X54242860Y-38923556D01*
X54227638Y-38912897D01*
X54128484Y-38866661D01*
X54029330Y-38820425D01*
X54029326Y-38820424D01*
X54029322Y-38820422D01*
X53817977Y-38763793D01*
X53600002Y-38744723D01*
X53599998Y-38744723D01*
X53454682Y-38757436D01*
X53382023Y-38763793D01*
X53382020Y-38763793D01*
X53170677Y-38820422D01*
X53170668Y-38820426D01*
X52972361Y-38912898D01*
X52972357Y-38912900D01*
X52793121Y-39038402D01*
X52638402Y-39193121D01*
X52512900Y-39372357D01*
X52512898Y-39372361D01*
X52420426Y-39570668D01*
X52420422Y-39570677D01*
X52363793Y-39782020D01*
X52363793Y-39782024D01*
X52344723Y-39999997D01*
X52344723Y-40000002D01*
X51855277Y-40000002D01*
X51855277Y-40000000D01*
X51836207Y-39782023D01*
X51792974Y-39620677D01*
X51779577Y-39570677D01*
X51779576Y-39570676D01*
X51779575Y-39570670D01*
X51687102Y-39372362D01*
X51687100Y-39372359D01*
X51687099Y-39372357D01*
X51561599Y-39193124D01*
X51536384Y-39167909D01*
X51406877Y-39038402D01*
X51242860Y-38923556D01*
X51227638Y-38912897D01*
X51128484Y-38866661D01*
X51029330Y-38820425D01*
X51029326Y-38820424D01*
X51029322Y-38820422D01*
X50817977Y-38763793D01*
X50600002Y-38744723D01*
X50599998Y-38744723D01*
X50454682Y-38757436D01*
X50382023Y-38763793D01*
X50382020Y-38763793D01*
X50170677Y-38820422D01*
X50170668Y-38820426D01*
X49972361Y-38912898D01*
X49972357Y-38912900D01*
X49793121Y-39038402D01*
X49638402Y-39193121D01*
X49512900Y-39372357D01*
X49512898Y-39372361D01*
X49420426Y-39570668D01*
X49420422Y-39570677D01*
X49363793Y-39782020D01*
X49363793Y-39782024D01*
X49344723Y-39999997D01*
X49344723Y-40000002D01*
X48855277Y-40000002D01*
X48855277Y-40000000D01*
X48836207Y-39782023D01*
X48792974Y-39620677D01*
X48779577Y-39570677D01*
X48779576Y-39570676D01*
X48779575Y-39570670D01*
X48687102Y-39372362D01*
X48687100Y-39372359D01*
X48687099Y-39372357D01*
X48561599Y-39193124D01*
X48536384Y-39167909D01*
X48406877Y-39038402D01*
X48242860Y-38923556D01*
X48227638Y-38912897D01*
X48128484Y-38866661D01*
X48029330Y-38820425D01*
X48029326Y-38820424D01*
X48029322Y-38820422D01*
X47817977Y-38763793D01*
X47600002Y-38744723D01*
X47599998Y-38744723D01*
X47454682Y-38757436D01*
X47382023Y-38763793D01*
X47382020Y-38763793D01*
X47170677Y-38820422D01*
X47170668Y-38820426D01*
X46972361Y-38912898D01*
X46972357Y-38912900D01*
X46793121Y-39038402D01*
X46638402Y-39193121D01*
X46512900Y-39372357D01*
X46512898Y-39372361D01*
X46420426Y-39570668D01*
X46420422Y-39570677D01*
X46363793Y-39782020D01*
X46363793Y-39782024D01*
X46344723Y-39999997D01*
X46344723Y-40000002D01*
X40455277Y-40000002D01*
X40455277Y-40000000D01*
X40436207Y-39782023D01*
X40392974Y-39620677D01*
X40379577Y-39570677D01*
X40379576Y-39570676D01*
X40379575Y-39570670D01*
X40287102Y-39372362D01*
X40287100Y-39372359D01*
X40287099Y-39372357D01*
X40161599Y-39193124D01*
X40136384Y-39167909D01*
X40006877Y-39038402D01*
X39842860Y-38923556D01*
X39827638Y-38912897D01*
X39728484Y-38866661D01*
X39629330Y-38820425D01*
X39629326Y-38820424D01*
X39629322Y-38820422D01*
X39417977Y-38763793D01*
X39200002Y-38744723D01*
X39199998Y-38744723D01*
X39054682Y-38757436D01*
X38982023Y-38763793D01*
X38982020Y-38763793D01*
X38770677Y-38820422D01*
X38770668Y-38820426D01*
X38572361Y-38912898D01*
X38572357Y-38912900D01*
X38393121Y-39038402D01*
X38238402Y-39193121D01*
X38112900Y-39372357D01*
X38112898Y-39372361D01*
X38020426Y-39570668D01*
X38020422Y-39570677D01*
X37963793Y-39782020D01*
X37963793Y-39782024D01*
X37944723Y-39999997D01*
X37944723Y-40000002D01*
X37455277Y-40000002D01*
X37455277Y-40000000D01*
X37436207Y-39782023D01*
X37392974Y-39620677D01*
X37379577Y-39570677D01*
X37379576Y-39570676D01*
X37379575Y-39570670D01*
X37287102Y-39372362D01*
X37287100Y-39372359D01*
X37287099Y-39372357D01*
X37161599Y-39193124D01*
X37136384Y-39167909D01*
X37006877Y-39038402D01*
X36842860Y-38923556D01*
X36827638Y-38912897D01*
X36728484Y-38866661D01*
X36629330Y-38820425D01*
X36629326Y-38820424D01*
X36629322Y-38820422D01*
X36417977Y-38763793D01*
X36200002Y-38744723D01*
X36199998Y-38744723D01*
X36054682Y-38757436D01*
X35982023Y-38763793D01*
X35982020Y-38763793D01*
X35770677Y-38820422D01*
X35770668Y-38820426D01*
X35572361Y-38912898D01*
X35572357Y-38912900D01*
X35393121Y-39038402D01*
X35238402Y-39193121D01*
X35112900Y-39372357D01*
X35112898Y-39372361D01*
X35020426Y-39570668D01*
X35020422Y-39570677D01*
X34963793Y-39782020D01*
X34963793Y-39782024D01*
X34944723Y-39999997D01*
X34944723Y-40000002D01*
X34455277Y-40000002D01*
X34455277Y-40000000D01*
X34436207Y-39782023D01*
X34392974Y-39620677D01*
X34379577Y-39570677D01*
X34379576Y-39570676D01*
X34379575Y-39570670D01*
X34287102Y-39372362D01*
X34287100Y-39372359D01*
X34287099Y-39372357D01*
X34161599Y-39193124D01*
X34136384Y-39167909D01*
X34006877Y-39038402D01*
X33842860Y-38923556D01*
X33827638Y-38912897D01*
X33728484Y-38866661D01*
X33629330Y-38820425D01*
X33629326Y-38820424D01*
X33629322Y-38820422D01*
X33417977Y-38763793D01*
X33200002Y-38744723D01*
X33199998Y-38744723D01*
X33054682Y-38757436D01*
X32982023Y-38763793D01*
X32982020Y-38763793D01*
X32770677Y-38820422D01*
X32770668Y-38820426D01*
X32572361Y-38912898D01*
X32572357Y-38912900D01*
X32393121Y-39038402D01*
X32238402Y-39193121D01*
X32112900Y-39372357D01*
X32112898Y-39372361D01*
X32020426Y-39570668D01*
X32020422Y-39570677D01*
X31963793Y-39782020D01*
X31963793Y-39782024D01*
X31944723Y-39999997D01*
X31944723Y-40000002D01*
X25951778Y-40000002D01*
X25947423Y-39950224D01*
X25936207Y-39822023D01*
X25882256Y-39620677D01*
X25879577Y-39610677D01*
X25879576Y-39610676D01*
X25879575Y-39610670D01*
X25787102Y-39412362D01*
X25787100Y-39412359D01*
X25787099Y-39412357D01*
X25661599Y-39233124D01*
X25596384Y-39167909D01*
X25506877Y-39078402D01*
X25368978Y-38981844D01*
X25327638Y-38952897D01*
X25206974Y-38896631D01*
X25129330Y-38860425D01*
X25129326Y-38860424D01*
X25129322Y-38860422D01*
X24917977Y-38803793D01*
X24700002Y-38784723D01*
X24699998Y-38784723D01*
X24585696Y-38794723D01*
X24482023Y-38803793D01*
X24482020Y-38803793D01*
X24270677Y-38860422D01*
X24270668Y-38860426D01*
X24072361Y-38952898D01*
X24072357Y-38952900D01*
X23893121Y-39078402D01*
X23738402Y-39233121D01*
X23612900Y-39412357D01*
X23612898Y-39412361D01*
X23520426Y-39610668D01*
X23520422Y-39610677D01*
X23463793Y-39822020D01*
X23463793Y-39822023D01*
X23459025Y-39876517D01*
X23444723Y-40039997D01*
X23444723Y-40040002D01*
X22955277Y-40040002D01*
X22955277Y-40039997D01*
X22947423Y-39950224D01*
X22936207Y-39822023D01*
X22882256Y-39620677D01*
X22879577Y-39610677D01*
X22879576Y-39610676D01*
X22879575Y-39610670D01*
X22787102Y-39412362D01*
X22787100Y-39412359D01*
X22787099Y-39412357D01*
X22661599Y-39233124D01*
X22596384Y-39167909D01*
X22506877Y-39078402D01*
X22368978Y-38981844D01*
X22327638Y-38952897D01*
X22206974Y-38896631D01*
X22129330Y-38860425D01*
X22129326Y-38860424D01*
X22129322Y-38860422D01*
X21917977Y-38803793D01*
X21700002Y-38784723D01*
X21699998Y-38784723D01*
X21585696Y-38794723D01*
X21482023Y-38803793D01*
X21482020Y-38803793D01*
X21270677Y-38860422D01*
X21270668Y-38860426D01*
X21072361Y-38952898D01*
X21072357Y-38952900D01*
X20893121Y-39078402D01*
X20738402Y-39233121D01*
X20612900Y-39412357D01*
X20612898Y-39412361D01*
X20520426Y-39610668D01*
X20520422Y-39610677D01*
X20463793Y-39822020D01*
X20463793Y-39822023D01*
X20459025Y-39876517D01*
X20444723Y-40039997D01*
X20444723Y-40040002D01*
X14154402Y-40040002D01*
X14146548Y-39950223D01*
X14136207Y-39832023D01*
X14079575Y-39620670D01*
X13987102Y-39422362D01*
X13987100Y-39422359D01*
X13987099Y-39422357D01*
X13861599Y-39243124D01*
X13786384Y-39167909D01*
X13706877Y-39088402D01*
X13527639Y-38962898D01*
X13527640Y-38962898D01*
X13527638Y-38962897D01*
X13420414Y-38912898D01*
X13329330Y-38870425D01*
X13329326Y-38870424D01*
X13329322Y-38870422D01*
X13117977Y-38813793D01*
X12900002Y-38794723D01*
X12899998Y-38794723D01*
X12754682Y-38807436D01*
X12682023Y-38813793D01*
X12682020Y-38813793D01*
X12470677Y-38870422D01*
X12470668Y-38870426D01*
X12272361Y-38962898D01*
X12272357Y-38962900D01*
X12093121Y-39088402D01*
X11938402Y-39243121D01*
X11812900Y-39422357D01*
X11812898Y-39422361D01*
X11720426Y-39620668D01*
X11720422Y-39620677D01*
X11663793Y-39832020D01*
X11663793Y-39832024D01*
X11645598Y-40040002D01*
X11644723Y-40050000D01*
X11155277Y-40050000D01*
X11154402Y-40040002D01*
X11146548Y-39950223D01*
X11136207Y-39832023D01*
X11079575Y-39620670D01*
X10987102Y-39422362D01*
X10987100Y-39422359D01*
X10987099Y-39422357D01*
X10861599Y-39243124D01*
X10786384Y-39167909D01*
X10706877Y-39088402D01*
X10527639Y-38962898D01*
X10527640Y-38962898D01*
X10527638Y-38962897D01*
X10420414Y-38912898D01*
X10329330Y-38870425D01*
X10329326Y-38870424D01*
X10329322Y-38870422D01*
X10117977Y-38813793D01*
X9900002Y-38794723D01*
X9899998Y-38794723D01*
X9754682Y-38807436D01*
X9682023Y-38813793D01*
X9682020Y-38813793D01*
X9470677Y-38870422D01*
X9470668Y-38870426D01*
X9272361Y-38962898D01*
X9272357Y-38962900D01*
X9093121Y-39088402D01*
X8938402Y-39243121D01*
X8812900Y-39422357D01*
X8812898Y-39422361D01*
X8720426Y-39620668D01*
X8720422Y-39620677D01*
X8663793Y-39832020D01*
X8663793Y-39832024D01*
X8645598Y-40040002D01*
X8644723Y-40050000D01*
X4096821Y-40050000D01*
X4207249Y-39835217D01*
X4211344Y-39827252D01*
X4211344Y-39827251D01*
X4211348Y-39827244D01*
X4285233Y-39610670D01*
X4298994Y-39570333D01*
X4298994Y-39570329D01*
X4298998Y-39570320D01*
X4348306Y-39303371D01*
X4358220Y-39032089D01*
X4328530Y-38762253D01*
X4259868Y-38499616D01*
X4153697Y-38249776D01*
X4012281Y-38018056D01*
X4006902Y-38011593D01*
X3922814Y-37910551D01*
X3838632Y-37809396D01*
X3730426Y-37712443D01*
X3636454Y-37628243D01*
X3518189Y-37550000D01*
X8650000Y-37550000D01*
X8650000Y-37599985D01*
X8660493Y-37702689D01*
X8660494Y-37702696D01*
X8715641Y-37869118D01*
X8715643Y-37869123D01*
X8807684Y-38018344D01*
X8931655Y-38142315D01*
X9080876Y-38234356D01*
X9080881Y-38234358D01*
X9247303Y-38289505D01*
X9247310Y-38289506D01*
X9350014Y-38299999D01*
X9350027Y-38300000D01*
X9400000Y-38300000D01*
X9400000Y-37550000D01*
X8650000Y-37550000D01*
X3518189Y-37550000D01*
X3410055Y-37478459D01*
X3367208Y-37458373D01*
X3164257Y-37363233D01*
X2904303Y-37285025D01*
X2904301Y-37285024D01*
X2904299Y-37285024D01*
X2807999Y-37270852D01*
X2635732Y-37245500D01*
X2432219Y-37245500D01*
X2432201Y-37245500D01*
X2229260Y-37260355D01*
X2229246Y-37260357D01*
X1964297Y-37319376D01*
X1964290Y-37319379D01*
X1710736Y-37416355D01*
X1474012Y-37549211D01*
X1259140Y-37715130D01*
X1259139Y-37715132D01*
X1070734Y-37910549D01*
X1070732Y-37910551D01*
X912778Y-38131329D01*
X788656Y-38372746D01*
X788649Y-38372762D01*
X701005Y-38629666D01*
X701001Y-38629684D01*
X651693Y-38896631D01*
X651693Y-38896633D01*
X641779Y-39167909D01*
X-1296164Y-39167909D01*
X-1299351Y-39103031D01*
X-1299500Y-39096947D01*
X-1299500Y-37123327D01*
X9390000Y-37123327D01*
X9431318Y-37264040D01*
X9510605Y-37387413D01*
X9621438Y-37483451D01*
X9754839Y-37544373D01*
X9863527Y-37560000D01*
X9936473Y-37560000D01*
X10006024Y-37550000D01*
X10400000Y-37550000D01*
X10400000Y-38300000D01*
X10449973Y-38300000D01*
X10449985Y-38299999D01*
X10552689Y-38289506D01*
X10552696Y-38289505D01*
X10719118Y-38234358D01*
X10719123Y-38234356D01*
X10868344Y-38142315D01*
X10992315Y-38018344D01*
X11084356Y-37869123D01*
X11084358Y-37869118D01*
X11139505Y-37702696D01*
X11139506Y-37702689D01*
X11149999Y-37599985D01*
X11150000Y-37599972D01*
X11150000Y-37550000D01*
X10400000Y-37550000D01*
X10006024Y-37550000D01*
X10045161Y-37544373D01*
X10178562Y-37483451D01*
X10289395Y-37387413D01*
X10368682Y-37264040D01*
X10410000Y-37123327D01*
X10410000Y-37050000D01*
X11644723Y-37050000D01*
X11663126Y-37260357D01*
X11663793Y-37267975D01*
X11663793Y-37267979D01*
X11720422Y-37479322D01*
X11720424Y-37479326D01*
X11720425Y-37479330D01*
X11753379Y-37550000D01*
X11812897Y-37677638D01*
X11812898Y-37677639D01*
X11938402Y-37856877D01*
X12093123Y-38011598D01*
X12272361Y-38137102D01*
X12470670Y-38229575D01*
X12470676Y-38229576D01*
X12470677Y-38229577D01*
X12495417Y-38236206D01*
X12682023Y-38286207D01*
X12864926Y-38302208D01*
X12899998Y-38305277D01*
X12900000Y-38305277D01*
X12900002Y-38305277D01*
X12928254Y-38302805D01*
X13117977Y-38286207D01*
X13329330Y-38229575D01*
X13527639Y-38137102D01*
X13706877Y-38011598D01*
X13861598Y-37856877D01*
X13987102Y-37677639D01*
X14051284Y-37540000D01*
X20450000Y-37540000D01*
X20450000Y-37589985D01*
X20460493Y-37692689D01*
X20460494Y-37692696D01*
X20515641Y-37859118D01*
X20515643Y-37859123D01*
X20607684Y-38008344D01*
X20731655Y-38132315D01*
X20880876Y-38224356D01*
X20880881Y-38224358D01*
X21047303Y-38279505D01*
X21047310Y-38279506D01*
X21150014Y-38289999D01*
X21150027Y-38290000D01*
X21200000Y-38290000D01*
X21200000Y-37540000D01*
X20450000Y-37540000D01*
X14051284Y-37540000D01*
X14079575Y-37479330D01*
X14136207Y-37267977D01*
X14149737Y-37113327D01*
X21190000Y-37113327D01*
X21231318Y-37254040D01*
X21310605Y-37377413D01*
X21421438Y-37473451D01*
X21554839Y-37534373D01*
X21663527Y-37550000D01*
X21736473Y-37550000D01*
X21806024Y-37540000D01*
X22200000Y-37540000D01*
X22200000Y-38290000D01*
X22249973Y-38290000D01*
X22249985Y-38289999D01*
X22352689Y-38279506D01*
X22352696Y-38279505D01*
X22519118Y-38224358D01*
X22519123Y-38224356D01*
X22668344Y-38132315D01*
X22792315Y-38008344D01*
X22884356Y-37859123D01*
X22884358Y-37859118D01*
X22939505Y-37692696D01*
X22939506Y-37692689D01*
X22949999Y-37589985D01*
X22950000Y-37589972D01*
X22950000Y-37540000D01*
X22200000Y-37540000D01*
X21806024Y-37540000D01*
X21845161Y-37534373D01*
X21978562Y-37473451D01*
X22089395Y-37377413D01*
X22168682Y-37254040D01*
X22210000Y-37113327D01*
X22210000Y-37040002D01*
X23444723Y-37040002D01*
X23445598Y-37050000D01*
X23462701Y-37245500D01*
X23463793Y-37257975D01*
X23463793Y-37257979D01*
X23520422Y-37469322D01*
X23520424Y-37469326D01*
X23520425Y-37469330D01*
X23550139Y-37533051D01*
X23612897Y-37667638D01*
X23612898Y-37667639D01*
X23738402Y-37846877D01*
X23893123Y-38001598D01*
X24072361Y-38127102D01*
X24270670Y-38219575D01*
X24482023Y-38276207D01*
X24664926Y-38292208D01*
X24699998Y-38295277D01*
X24700000Y-38295277D01*
X24700002Y-38295277D01*
X24728254Y-38292805D01*
X24917977Y-38276207D01*
X25129330Y-38219575D01*
X25327639Y-38127102D01*
X25506877Y-38001598D01*
X25661598Y-37846877D01*
X25787102Y-37667639D01*
X25879575Y-37469330D01*
X25936207Y-37257977D01*
X25954402Y-37050000D01*
X25955277Y-37040002D01*
X25955277Y-37039997D01*
X25945362Y-36926673D01*
X25936207Y-36822023D01*
X25882256Y-36620677D01*
X25879577Y-36610677D01*
X25879576Y-36610676D01*
X25879575Y-36610670D01*
X25787102Y-36412362D01*
X25787100Y-36412359D01*
X25787099Y-36412357D01*
X25661599Y-36233124D01*
X25589315Y-36160840D01*
X25506877Y-36078402D01*
X25368978Y-35981844D01*
X25327638Y-35952897D01*
X25167058Y-35878018D01*
X25129330Y-35860425D01*
X25129326Y-35860424D01*
X25129322Y-35860422D01*
X24917977Y-35803793D01*
X24700002Y-35784723D01*
X24699998Y-35784723D01*
X24585696Y-35794723D01*
X24482023Y-35803793D01*
X24482020Y-35803793D01*
X24270677Y-35860422D01*
X24270668Y-35860426D01*
X24072361Y-35952898D01*
X24072357Y-35952900D01*
X23893121Y-36078402D01*
X23738402Y-36233121D01*
X23612900Y-36412357D01*
X23612898Y-36412361D01*
X23520426Y-36610668D01*
X23520422Y-36610677D01*
X23463793Y-36822020D01*
X23463793Y-36822024D01*
X23444723Y-37039997D01*
X23444723Y-37040002D01*
X22210000Y-37040002D01*
X22210000Y-36966673D01*
X22168682Y-36825960D01*
X22089395Y-36702587D01*
X21978562Y-36606549D01*
X21845161Y-36545627D01*
X21736473Y-36530000D01*
X21663527Y-36530000D01*
X21554839Y-36545627D01*
X21421438Y-36606549D01*
X21310605Y-36702587D01*
X21231318Y-36825960D01*
X21190000Y-36966673D01*
X21190000Y-37113327D01*
X14149737Y-37113327D01*
X14155277Y-37050000D01*
X14154402Y-37040002D01*
X14150903Y-36999999D01*
X14136207Y-36832023D01*
X14079575Y-36620670D01*
X14041958Y-36540000D01*
X20450000Y-36540000D01*
X21200000Y-36540000D01*
X21200000Y-35790000D01*
X22200000Y-35790000D01*
X22200000Y-36540000D01*
X22950000Y-36540000D01*
X22950000Y-36490027D01*
X22949999Y-36490014D01*
X22939506Y-36387310D01*
X22939505Y-36387303D01*
X22884358Y-36220881D01*
X22884356Y-36220876D01*
X22792315Y-36071655D01*
X22668344Y-35947684D01*
X22519123Y-35855643D01*
X22519118Y-35855641D01*
X22352696Y-35800494D01*
X22352689Y-35800493D01*
X22249985Y-35790000D01*
X22200000Y-35790000D01*
X21200000Y-35790000D01*
X21150014Y-35790000D01*
X21047310Y-35800493D01*
X21047303Y-35800494D01*
X20880881Y-35855641D01*
X20880876Y-35855643D01*
X20731655Y-35947684D01*
X20607684Y-36071655D01*
X20515643Y-36220876D01*
X20515641Y-36220881D01*
X20460494Y-36387303D01*
X20460493Y-36387310D01*
X20450000Y-36490014D01*
X20450000Y-36540000D01*
X14041958Y-36540000D01*
X13987102Y-36422362D01*
X13987100Y-36422359D01*
X13987099Y-36422357D01*
X13861599Y-36243124D01*
X13798882Y-36180407D01*
X13706877Y-36088402D01*
X13527639Y-35962898D01*
X13527640Y-35962898D01*
X13527638Y-35962897D01*
X13420414Y-35912898D01*
X13329330Y-35870425D01*
X13329326Y-35870424D01*
X13329322Y-35870422D01*
X13117977Y-35813793D01*
X12900002Y-35794723D01*
X12899998Y-35794723D01*
X12754682Y-35807436D01*
X12682023Y-35813793D01*
X12682020Y-35813793D01*
X12470677Y-35870422D01*
X12470668Y-35870426D01*
X12272361Y-35962898D01*
X12272357Y-35962900D01*
X12093121Y-36088402D01*
X11938402Y-36243121D01*
X11812900Y-36422357D01*
X11812898Y-36422361D01*
X11720426Y-36620668D01*
X11720422Y-36620677D01*
X11663793Y-36832020D01*
X11663793Y-36832024D01*
X11645598Y-37040002D01*
X11644723Y-37050000D01*
X10410000Y-37050000D01*
X10410000Y-36976673D01*
X10368682Y-36835960D01*
X10289395Y-36712587D01*
X10178562Y-36616549D01*
X10045161Y-36555627D01*
X9936473Y-36540000D01*
X9863527Y-36540000D01*
X9754839Y-36555627D01*
X9621438Y-36616549D01*
X9510605Y-36712587D01*
X9431318Y-36835960D01*
X9390000Y-36976673D01*
X9390000Y-37123327D01*
X-1299500Y-37123327D01*
X-1299500Y-36550000D01*
X8650000Y-36550000D01*
X9400000Y-36550000D01*
X9400000Y-35800000D01*
X10400000Y-35800000D01*
X10400000Y-36550000D01*
X11150000Y-36550000D01*
X11150000Y-36500027D01*
X11149999Y-36500014D01*
X11139506Y-36397310D01*
X11139505Y-36397303D01*
X11084358Y-36230881D01*
X11084356Y-36230876D01*
X10992315Y-36081655D01*
X10868344Y-35957684D01*
X10719123Y-35865643D01*
X10719118Y-35865641D01*
X10552696Y-35810494D01*
X10552689Y-35810493D01*
X10449985Y-35800000D01*
X10400000Y-35800000D01*
X9400000Y-35800000D01*
X9350014Y-35800000D01*
X9247310Y-35810493D01*
X9247303Y-35810494D01*
X9080881Y-35865641D01*
X9080876Y-35865643D01*
X8931655Y-35957684D01*
X8807684Y-36081655D01*
X8715643Y-36230876D01*
X8715641Y-36230881D01*
X8660494Y-36397303D01*
X8660493Y-36397310D01*
X8650000Y-36500014D01*
X8650000Y-36550000D01*
X-1299500Y-36550000D01*
X-1299500Y-35400003D01*
X27019593Y-35400003D01*
X27039157Y-35573648D01*
X27039159Y-35573658D01*
X27093802Y-35729815D01*
X27096878Y-35738606D01*
X27189853Y-35886576D01*
X27313424Y-36010147D01*
X27461394Y-36103122D01*
X27626343Y-36160841D01*
X27626349Y-36160841D01*
X27626351Y-36160842D01*
X27799996Y-36180407D01*
X27800000Y-36180407D01*
X27800004Y-36180407D01*
X27973648Y-36160842D01*
X27973647Y-36160842D01*
X27973657Y-36160841D01*
X28138606Y-36103122D01*
X28286576Y-36010147D01*
X28410147Y-35886576D01*
X28503122Y-35738606D01*
X28560841Y-35573657D01*
X28565714Y-35530407D01*
X28580407Y-35400003D01*
X28580407Y-35399996D01*
X28560842Y-35226351D01*
X28560841Y-35226349D01*
X28560841Y-35226343D01*
X28516632Y-35100003D01*
X31519593Y-35100003D01*
X31539157Y-35273648D01*
X31539159Y-35273658D01*
X31596877Y-35438604D01*
X31596878Y-35438606D01*
X31689853Y-35586576D01*
X31813424Y-35710147D01*
X31961394Y-35803122D01*
X32052790Y-35835103D01*
X32109564Y-35875823D01*
X32135311Y-35940776D01*
X32121855Y-36009337D01*
X32109109Y-36029042D01*
X32107288Y-36031344D01*
X32015187Y-36180662D01*
X32015186Y-36180664D01*
X31960001Y-36347203D01*
X31960000Y-36347204D01*
X31949500Y-36449984D01*
X31949500Y-37550015D01*
X31960000Y-37652795D01*
X31960001Y-37652797D01*
X31980656Y-37715130D01*
X32015186Y-37819335D01*
X32015187Y-37819337D01*
X32107286Y-37968651D01*
X32107289Y-37968655D01*
X32231344Y-38092710D01*
X32231348Y-38092713D01*
X32380662Y-38184812D01*
X32380664Y-38184813D01*
X32380666Y-38184814D01*
X32547203Y-38239999D01*
X32649992Y-38250500D01*
X32649997Y-38250500D01*
X33750003Y-38250500D01*
X33750008Y-38250500D01*
X33852797Y-38239999D01*
X34019334Y-38184814D01*
X34168655Y-38092711D01*
X34292711Y-37968655D01*
X34384814Y-37819334D01*
X34439999Y-37652797D01*
X34450500Y-37550008D01*
X34450500Y-37000000D01*
X34944723Y-37000000D01*
X34963785Y-37217891D01*
X34963793Y-37217975D01*
X34963793Y-37217979D01*
X35020422Y-37429322D01*
X35020424Y-37429326D01*
X35020425Y-37429330D01*
X35048648Y-37489854D01*
X35112897Y-37627638D01*
X35112977Y-37627752D01*
X35238402Y-37806877D01*
X35393123Y-37961598D01*
X35572361Y-38087102D01*
X35770670Y-38179575D01*
X35982023Y-38236207D01*
X36164926Y-38252208D01*
X36199998Y-38255277D01*
X36200000Y-38255277D01*
X36200002Y-38255277D01*
X36228254Y-38252805D01*
X36417977Y-38236207D01*
X36629330Y-38179575D01*
X36659561Y-38165478D01*
X38741625Y-38165478D01*
X38770844Y-38179104D01*
X38982105Y-38235710D01*
X38982115Y-38235712D01*
X39199999Y-38254775D01*
X39200001Y-38254775D01*
X39417884Y-38235712D01*
X39417891Y-38235711D01*
X39629159Y-38179101D01*
X39658373Y-38165478D01*
X39196531Y-37703636D01*
X39183350Y-37712443D01*
X39180315Y-37722781D01*
X39163681Y-37743423D01*
X38741625Y-38165478D01*
X36659561Y-38165478D01*
X36827639Y-38087102D01*
X37006877Y-37961598D01*
X37161598Y-37806877D01*
X37287102Y-37627639D01*
X37323299Y-37550015D01*
X46349500Y-37550015D01*
X46360000Y-37652795D01*
X46360001Y-37652797D01*
X46380656Y-37715130D01*
X46415186Y-37819335D01*
X46415187Y-37819337D01*
X46507286Y-37968651D01*
X46507289Y-37968655D01*
X46631344Y-38092710D01*
X46631348Y-38092713D01*
X46780662Y-38184812D01*
X46780664Y-38184813D01*
X46780666Y-38184814D01*
X46947203Y-38239999D01*
X47049992Y-38250500D01*
X47049997Y-38250500D01*
X48150003Y-38250500D01*
X48150008Y-38250500D01*
X48252797Y-38239999D01*
X48419334Y-38184814D01*
X48568655Y-38092711D01*
X48692711Y-37968655D01*
X48784814Y-37819334D01*
X48839999Y-37652797D01*
X48850500Y-37550008D01*
X48850500Y-37000000D01*
X49344723Y-37000000D01*
X49363785Y-37217891D01*
X49363793Y-37217975D01*
X49363793Y-37217979D01*
X49420422Y-37429322D01*
X49420424Y-37429326D01*
X49420425Y-37429330D01*
X49448648Y-37489854D01*
X49512897Y-37627638D01*
X49512977Y-37627752D01*
X49638402Y-37806877D01*
X49793123Y-37961598D01*
X49972361Y-38087102D01*
X50170670Y-38179575D01*
X50382023Y-38236207D01*
X50564926Y-38252208D01*
X50599998Y-38255277D01*
X50600000Y-38255277D01*
X50600002Y-38255277D01*
X50628254Y-38252805D01*
X50817977Y-38236207D01*
X51029330Y-38179575D01*
X51059561Y-38165478D01*
X53141625Y-38165478D01*
X53170844Y-38179104D01*
X53382105Y-38235710D01*
X53382115Y-38235712D01*
X53599999Y-38254775D01*
X53600001Y-38254775D01*
X53817884Y-38235712D01*
X53817891Y-38235711D01*
X54029159Y-38179101D01*
X54058373Y-38165478D01*
X53893638Y-38000743D01*
X60929500Y-38000743D01*
X60944925Y-38152439D01*
X61005837Y-38346579D01*
X61005844Y-38346594D01*
X61104589Y-38524499D01*
X61104592Y-38524504D01*
X61237132Y-38678893D01*
X61237134Y-38678895D01*
X61398037Y-38803445D01*
X61398038Y-38803445D01*
X61398042Y-38803448D01*
X61580729Y-38893060D01*
X61777715Y-38944063D01*
X61980936Y-38954369D01*
X62182071Y-38923556D01*
X62372887Y-38852886D01*
X62545571Y-38745252D01*
X62693053Y-38605059D01*
X62809295Y-38438049D01*
X62814246Y-38426510D01*
X62858771Y-38372666D01*
X62925339Y-38351441D01*
X62992814Y-38369574D01*
X63003685Y-38377033D01*
X63067748Y-38426191D01*
X63067750Y-38426192D01*
X63208720Y-38484584D01*
X63265370Y-38492042D01*
X63322019Y-38499500D01*
X63322020Y-38499500D01*
X63397981Y-38499500D01*
X63435746Y-38494528D01*
X63511280Y-38484584D01*
X63652250Y-38426192D01*
X63773304Y-38333304D01*
X63866192Y-38212250D01*
X63912686Y-38100003D01*
X64219593Y-38100003D01*
X64239157Y-38273648D01*
X64239159Y-38273658D01*
X64296683Y-38438049D01*
X64296878Y-38438606D01*
X64389853Y-38586576D01*
X64513424Y-38710147D01*
X64661394Y-38803122D01*
X64826343Y-38860841D01*
X64826349Y-38860841D01*
X64826351Y-38860842D01*
X64999996Y-38880407D01*
X65000000Y-38880407D01*
X65000004Y-38880407D01*
X65173648Y-38860842D01*
X65173647Y-38860842D01*
X65173657Y-38860841D01*
X65338606Y-38803122D01*
X65486576Y-38710147D01*
X65610147Y-38586576D01*
X65703122Y-38438606D01*
X65760841Y-38273657D01*
X65766934Y-38219577D01*
X65780407Y-38100003D01*
X67219593Y-38100003D01*
X67239157Y-38273648D01*
X67239159Y-38273658D01*
X67296683Y-38438049D01*
X67296878Y-38438606D01*
X67389853Y-38586576D01*
X67513424Y-38710147D01*
X67661394Y-38803122D01*
X67826343Y-38860841D01*
X67826349Y-38860841D01*
X67826351Y-38860842D01*
X67999996Y-38880407D01*
X68000000Y-38880407D01*
X68000004Y-38880407D01*
X68173648Y-38860842D01*
X68173647Y-38860842D01*
X68173657Y-38860841D01*
X68338606Y-38803122D01*
X68486576Y-38710147D01*
X68610147Y-38586576D01*
X68683796Y-38469362D01*
X68736130Y-38423071D01*
X68805183Y-38412422D01*
X68839777Y-38424201D01*
X68840241Y-38423082D01*
X68877715Y-38438604D01*
X68988720Y-38484584D01*
X69045370Y-38492042D01*
X69102019Y-38499500D01*
X69102020Y-38499500D01*
X69177981Y-38499500D01*
X69215746Y-38494528D01*
X69291280Y-38484584D01*
X69432250Y-38426192D01*
X69498926Y-38375029D01*
X69564091Y-38349836D01*
X69632536Y-38363874D01*
X69682527Y-38412687D01*
X69682829Y-38413228D01*
X69744589Y-38524499D01*
X69744592Y-38524503D01*
X69744592Y-38524504D01*
X69877132Y-38678893D01*
X69877134Y-38678895D01*
X70038037Y-38803445D01*
X70038038Y-38803445D01*
X70038042Y-38803448D01*
X70220729Y-38893060D01*
X70417715Y-38944063D01*
X70620936Y-38954369D01*
X70822071Y-38923556D01*
X71012887Y-38852886D01*
X71185571Y-38745252D01*
X71333053Y-38605059D01*
X71449295Y-38438049D01*
X71529540Y-38251058D01*
X71570500Y-38051741D01*
X71570500Y-36799258D01*
X71568748Y-36782024D01*
X71555074Y-36647560D01*
X71494162Y-36453420D01*
X71494160Y-36453416D01*
X71494159Y-36453412D01*
X71395409Y-36275498D01*
X71395408Y-36275497D01*
X71395407Y-36275495D01*
X71262867Y-36121106D01*
X71262865Y-36121104D01*
X71101962Y-35996554D01*
X71101959Y-35996553D01*
X71101958Y-35996552D01*
X70919271Y-35906940D01*
X70722285Y-35855937D01*
X70722287Y-35855937D01*
X70586804Y-35849066D01*
X70519064Y-35845631D01*
X70519063Y-35845631D01*
X70519061Y-35845631D01*
X70317936Y-35876442D01*
X70317924Y-35876445D01*
X70127118Y-35947111D01*
X70127111Y-35947115D01*
X69954432Y-36054745D01*
X69954427Y-36054749D01*
X69806949Y-36194938D01*
X69806948Y-36194940D01*
X69690705Y-36361949D01*
X69610459Y-36548943D01*
X69569500Y-36748258D01*
X69569500Y-37285079D01*
X69549815Y-37352118D01*
X69497011Y-37397873D01*
X69427853Y-37407817D01*
X69398048Y-37399640D01*
X69291283Y-37355417D01*
X69291278Y-37355415D01*
X69177981Y-37340500D01*
X69177980Y-37340500D01*
X69102020Y-37340500D01*
X69102019Y-37340500D01*
X68988721Y-37355415D01*
X68988719Y-37355416D01*
X68847752Y-37413806D01*
X68799328Y-37450963D01*
X68726696Y-37506696D01*
X68726694Y-37506697D01*
X68726693Y-37506699D01*
X68715829Y-37520857D01*
X68659400Y-37562059D01*
X68589654Y-37566212D01*
X68529775Y-37533051D01*
X68486577Y-37489854D01*
X68486576Y-37489853D01*
X68453915Y-37469331D01*
X68338606Y-37396878D01*
X68338605Y-37396877D01*
X68338604Y-37396877D01*
X68173658Y-37339159D01*
X68173648Y-37339157D01*
X68000004Y-37319593D01*
X67999996Y-37319593D01*
X67826351Y-37339157D01*
X67826341Y-37339159D01*
X67661395Y-37396877D01*
X67513423Y-37489853D01*
X67389853Y-37613423D01*
X67296877Y-37761395D01*
X67239159Y-37926341D01*
X67239157Y-37926351D01*
X67219593Y-38099996D01*
X67219593Y-38100003D01*
X65780407Y-38100003D01*
X65780407Y-38099996D01*
X65760842Y-37926351D01*
X65760841Y-37926349D01*
X65760841Y-37926343D01*
X65703122Y-37761394D01*
X65610147Y-37613424D01*
X65486576Y-37489853D01*
X65338606Y-37396878D01*
X65338605Y-37396877D01*
X65338604Y-37396877D01*
X65173658Y-37339159D01*
X65173648Y-37339157D01*
X65000004Y-37319593D01*
X64999996Y-37319593D01*
X64826351Y-37339157D01*
X64826341Y-37339159D01*
X64661395Y-37396877D01*
X64513423Y-37489853D01*
X64389853Y-37613423D01*
X64296877Y-37761395D01*
X64239159Y-37926341D01*
X64239157Y-37926351D01*
X64219593Y-38099996D01*
X64219593Y-38100003D01*
X63912686Y-38100003D01*
X63924584Y-38071280D01*
X63944500Y-37920000D01*
X63943256Y-37910553D01*
X63924584Y-37768721D01*
X63924584Y-37768720D01*
X63866192Y-37627750D01*
X63773304Y-37506696D01*
X63652250Y-37413808D01*
X63652249Y-37413807D01*
X63652247Y-37413806D01*
X63511280Y-37355416D01*
X63511278Y-37355415D01*
X63397981Y-37340500D01*
X63397980Y-37340500D01*
X63322020Y-37340500D01*
X63322019Y-37340500D01*
X63208721Y-37355415D01*
X63208716Y-37355417D01*
X63101952Y-37399640D01*
X63032483Y-37407109D01*
X62970004Y-37375833D01*
X62934352Y-37315744D01*
X62930500Y-37285079D01*
X62930500Y-36799256D01*
X62915074Y-36647560D01*
X62854162Y-36453420D01*
X62854160Y-36453416D01*
X62854159Y-36453412D01*
X62755409Y-36275498D01*
X62755408Y-36275497D01*
X62755407Y-36275495D01*
X62622867Y-36121106D01*
X62622865Y-36121104D01*
X62461962Y-35996554D01*
X62461959Y-35996553D01*
X62461958Y-35996552D01*
X62279271Y-35906940D01*
X62082285Y-35855937D01*
X62082287Y-35855937D01*
X61946804Y-35849066D01*
X61879064Y-35845631D01*
X61879063Y-35845631D01*
X61879061Y-35845631D01*
X61677936Y-35876442D01*
X61677924Y-35876445D01*
X61487118Y-35947111D01*
X61487111Y-35947115D01*
X61314432Y-36054745D01*
X61314427Y-36054749D01*
X61166949Y-36194938D01*
X61166948Y-36194940D01*
X61050705Y-36361949D01*
X60970459Y-36548943D01*
X60929500Y-36748258D01*
X60929500Y-38000743D01*
X53893638Y-38000743D01*
X53596531Y-37703636D01*
X53583350Y-37712443D01*
X53580315Y-37722781D01*
X53563681Y-37743423D01*
X53141625Y-38165478D01*
X51059561Y-38165478D01*
X51227639Y-38087102D01*
X51406877Y-37961598D01*
X51561598Y-37806877D01*
X51687102Y-37627639D01*
X51779575Y-37429330D01*
X51836207Y-37217977D01*
X51855277Y-37000000D01*
X52345225Y-37000000D01*
X52364287Y-37217884D01*
X52364289Y-37217894D01*
X52420894Y-37429150D01*
X52434520Y-37458372D01*
X52819565Y-37073327D01*
X53090000Y-37073327D01*
X53131318Y-37214040D01*
X53210605Y-37337413D01*
X53321438Y-37433451D01*
X53454839Y-37494373D01*
X53563527Y-37510000D01*
X53636473Y-37510000D01*
X53745161Y-37494373D01*
X53878562Y-37433451D01*
X53989395Y-37337413D01*
X54068682Y-37214040D01*
X54110000Y-37073327D01*
X54110000Y-36996531D01*
X54303636Y-36996531D01*
X54765478Y-37458373D01*
X54779101Y-37429159D01*
X54835711Y-37217891D01*
X54835712Y-37217884D01*
X54854775Y-37000000D01*
X54854775Y-36999999D01*
X54835712Y-36782115D01*
X54835710Y-36782105D01*
X54779104Y-36570844D01*
X54765478Y-36541625D01*
X54343424Y-36963681D01*
X54315339Y-36979016D01*
X54303636Y-36996531D01*
X54110000Y-36996531D01*
X54110000Y-36926673D01*
X54068682Y-36785960D01*
X53989395Y-36662587D01*
X53878562Y-36566549D01*
X53745161Y-36505627D01*
X53636473Y-36490000D01*
X53563527Y-36490000D01*
X53454839Y-36505627D01*
X53321438Y-36566549D01*
X53210605Y-36662587D01*
X53131318Y-36785960D01*
X53090000Y-36926673D01*
X53090000Y-37073327D01*
X52819565Y-37073327D01*
X52892893Y-36999999D01*
X52892892Y-36999998D01*
X52434520Y-36541625D01*
X52434519Y-36541626D01*
X52420897Y-36570839D01*
X52420897Y-36570841D01*
X52364289Y-36782105D01*
X52364287Y-36782115D01*
X52345225Y-36999999D01*
X52345225Y-37000000D01*
X51855277Y-37000000D01*
X51836207Y-36782023D01*
X51792974Y-36620677D01*
X51779577Y-36570677D01*
X51779576Y-36570676D01*
X51779575Y-36570670D01*
X51687102Y-36372362D01*
X51687100Y-36372359D01*
X51687099Y-36372357D01*
X51561599Y-36193124D01*
X51489579Y-36121104D01*
X51406877Y-36038402D01*
X51227639Y-35912898D01*
X51227640Y-35912898D01*
X51227638Y-35912897D01*
X51115104Y-35860422D01*
X51059557Y-35834520D01*
X53141625Y-35834520D01*
X53599998Y-36292892D01*
X53599999Y-36292893D01*
X53600000Y-36292893D01*
X53600000Y-36292892D01*
X54058372Y-35834520D01*
X54029150Y-35820894D01*
X53817894Y-35764289D01*
X53817884Y-35764287D01*
X53600001Y-35745225D01*
X53599999Y-35745225D01*
X53382115Y-35764287D01*
X53382105Y-35764289D01*
X53170841Y-35820897D01*
X53170839Y-35820897D01*
X53141626Y-35834519D01*
X53141625Y-35834520D01*
X51059557Y-35834520D01*
X51029330Y-35820425D01*
X51029326Y-35820424D01*
X51029322Y-35820422D01*
X50817977Y-35763793D01*
X50600002Y-35744723D01*
X50599998Y-35744723D01*
X50454682Y-35757436D01*
X50382023Y-35763793D01*
X50382020Y-35763793D01*
X50170677Y-35820422D01*
X50170668Y-35820426D01*
X49972361Y-35912898D01*
X49972357Y-35912900D01*
X49793121Y-36038402D01*
X49638402Y-36193121D01*
X49512900Y-36372357D01*
X49512898Y-36372361D01*
X49420426Y-36570668D01*
X49420422Y-36570677D01*
X49363793Y-36782020D01*
X49363793Y-36782024D01*
X49347639Y-36966673D01*
X49344723Y-37000000D01*
X48850500Y-37000000D01*
X48850500Y-36449992D01*
X48839999Y-36347203D01*
X48784814Y-36180666D01*
X48784654Y-36180407D01*
X48692713Y-36031348D01*
X48692710Y-36031344D01*
X48568655Y-35907289D01*
X48568651Y-35907286D01*
X48419337Y-35815187D01*
X48419335Y-35815186D01*
X48294011Y-35773658D01*
X48252797Y-35760001D01*
X48252795Y-35760000D01*
X48150015Y-35749500D01*
X48150008Y-35749500D01*
X47049992Y-35749500D01*
X47049984Y-35749500D01*
X46947204Y-35760000D01*
X46947203Y-35760001D01*
X46780664Y-35815186D01*
X46780662Y-35815187D01*
X46631348Y-35907286D01*
X46631344Y-35907289D01*
X46507289Y-36031344D01*
X46507286Y-36031348D01*
X46415187Y-36180662D01*
X46415186Y-36180664D01*
X46360001Y-36347203D01*
X46360000Y-36347204D01*
X46349500Y-36449984D01*
X46349500Y-37550015D01*
X37323299Y-37550015D01*
X37379575Y-37429330D01*
X37436207Y-37217977D01*
X37455277Y-37000000D01*
X37945225Y-37000000D01*
X37964287Y-37217884D01*
X37964289Y-37217894D01*
X38020894Y-37429150D01*
X38034520Y-37458372D01*
X38419565Y-37073327D01*
X38690000Y-37073327D01*
X38731318Y-37214040D01*
X38810605Y-37337413D01*
X38921438Y-37433451D01*
X39054839Y-37494373D01*
X39163527Y-37510000D01*
X39236473Y-37510000D01*
X39345161Y-37494373D01*
X39478562Y-37433451D01*
X39589395Y-37337413D01*
X39668682Y-37214040D01*
X39710000Y-37073327D01*
X39710000Y-36996531D01*
X39903636Y-36996531D01*
X40365478Y-37458373D01*
X40379101Y-37429159D01*
X40435711Y-37217891D01*
X40435712Y-37217884D01*
X40454775Y-37000000D01*
X40454775Y-36999999D01*
X40435712Y-36782115D01*
X40435710Y-36782105D01*
X40379104Y-36570844D01*
X40365478Y-36541625D01*
X39943424Y-36963681D01*
X39915339Y-36979016D01*
X39903636Y-36996531D01*
X39710000Y-36996531D01*
X39710000Y-36926673D01*
X39668682Y-36785960D01*
X39589395Y-36662587D01*
X39478562Y-36566549D01*
X39345161Y-36505627D01*
X39236473Y-36490000D01*
X39163527Y-36490000D01*
X39054839Y-36505627D01*
X38921438Y-36566549D01*
X38810605Y-36662587D01*
X38731318Y-36785960D01*
X38690000Y-36926673D01*
X38690000Y-37073327D01*
X38419565Y-37073327D01*
X38492893Y-36999999D01*
X38492892Y-36999998D01*
X38034520Y-36541625D01*
X38034519Y-36541626D01*
X38020897Y-36570839D01*
X38020897Y-36570841D01*
X37964289Y-36782105D01*
X37964287Y-36782115D01*
X37945225Y-36999999D01*
X37945225Y-37000000D01*
X37455277Y-37000000D01*
X37436207Y-36782023D01*
X37392974Y-36620677D01*
X37379577Y-36570677D01*
X37379576Y-36570676D01*
X37379575Y-36570670D01*
X37287102Y-36372362D01*
X37287100Y-36372359D01*
X37287099Y-36372357D01*
X37161599Y-36193124D01*
X37089579Y-36121104D01*
X37006877Y-36038402D01*
X36827639Y-35912898D01*
X36827640Y-35912898D01*
X36827638Y-35912897D01*
X36715104Y-35860422D01*
X36659557Y-35834520D01*
X38741625Y-35834520D01*
X39199998Y-36292892D01*
X39199999Y-36292893D01*
X39200000Y-36292893D01*
X39200000Y-36292892D01*
X39658372Y-35834520D01*
X39629150Y-35820894D01*
X39417894Y-35764289D01*
X39417884Y-35764287D01*
X39200001Y-35745225D01*
X39199999Y-35745225D01*
X38982115Y-35764287D01*
X38982105Y-35764289D01*
X38770841Y-35820897D01*
X38770839Y-35820897D01*
X38741626Y-35834519D01*
X38741625Y-35834520D01*
X36659557Y-35834520D01*
X36629330Y-35820425D01*
X36629326Y-35820424D01*
X36629322Y-35820422D01*
X36417977Y-35763793D01*
X36200002Y-35744723D01*
X36199998Y-35744723D01*
X36054682Y-35757436D01*
X35982023Y-35763793D01*
X35982020Y-35763793D01*
X35770677Y-35820422D01*
X35770668Y-35820426D01*
X35572361Y-35912898D01*
X35572357Y-35912900D01*
X35393121Y-36038402D01*
X35238402Y-36193121D01*
X35112900Y-36372357D01*
X35112898Y-36372361D01*
X35020426Y-36570668D01*
X35020422Y-36570677D01*
X34963793Y-36782020D01*
X34963793Y-36782024D01*
X34947639Y-36966673D01*
X34944723Y-37000000D01*
X34450500Y-37000000D01*
X34450500Y-36449992D01*
X34439999Y-36347203D01*
X34384814Y-36180666D01*
X34384654Y-36180407D01*
X34292713Y-36031348D01*
X34292710Y-36031344D01*
X34168655Y-35907289D01*
X34168651Y-35907286D01*
X34019337Y-35815187D01*
X34019335Y-35815186D01*
X33894011Y-35773658D01*
X33852797Y-35760001D01*
X33852795Y-35760000D01*
X33750015Y-35749500D01*
X33750008Y-35749500D01*
X33032136Y-35749500D01*
X32965097Y-35729815D01*
X32919342Y-35677011D01*
X32909398Y-35607853D01*
X32927142Y-35559528D01*
X32957733Y-35510842D01*
X32964544Y-35500003D01*
X63119593Y-35500003D01*
X63139157Y-35673648D01*
X63139159Y-35673658D01*
X63196877Y-35838604D01*
X63196878Y-35838606D01*
X63289853Y-35986576D01*
X63413424Y-36110147D01*
X63561394Y-36203122D01*
X63726343Y-36260841D01*
X63726349Y-36260841D01*
X63726351Y-36260842D01*
X63899996Y-36280407D01*
X63900000Y-36280407D01*
X63900004Y-36280407D01*
X64073648Y-36260842D01*
X64073647Y-36260842D01*
X64073657Y-36260841D01*
X64238606Y-36203122D01*
X64386576Y-36110147D01*
X64510147Y-35986576D01*
X64603122Y-35838606D01*
X64660841Y-35673657D01*
X64669140Y-35600000D01*
X64680407Y-35500003D01*
X64680407Y-35499997D01*
X64676081Y-35461603D01*
X64688135Y-35392781D01*
X64735484Y-35341401D01*
X64803095Y-35323777D01*
X64865271Y-35342724D01*
X64961394Y-35403122D01*
X65126343Y-35460841D01*
X65126349Y-35460841D01*
X65126351Y-35460842D01*
X65299996Y-35480407D01*
X65300000Y-35480407D01*
X65300004Y-35480407D01*
X65473648Y-35460842D01*
X65473647Y-35460842D01*
X65473657Y-35460841D01*
X65638606Y-35403122D01*
X65786576Y-35310147D01*
X65910147Y-35186576D01*
X66003122Y-35038606D01*
X66060841Y-34873657D01*
X66064728Y-34839157D01*
X66074773Y-34750003D01*
X66369593Y-34750003D01*
X66389157Y-34923648D01*
X66389159Y-34923658D01*
X66429381Y-35038604D01*
X66446878Y-35088606D01*
X66539853Y-35236576D01*
X66663424Y-35360147D01*
X66811394Y-35453122D01*
X66976343Y-35510841D01*
X66976349Y-35510841D01*
X66976351Y-35510842D01*
X67149996Y-35530407D01*
X67150000Y-35530407D01*
X67150004Y-35530407D01*
X67323648Y-35510842D01*
X67323647Y-35510842D01*
X67323657Y-35510841D01*
X67488606Y-35453122D01*
X67636576Y-35360147D01*
X67636576Y-35360146D01*
X67642472Y-35356442D01*
X67643760Y-35358492D01*
X67697965Y-35336351D01*
X67766663Y-35349094D01*
X67817566Y-35396955D01*
X67834513Y-35464738D01*
X67833835Y-35473587D01*
X67819593Y-35599995D01*
X67819593Y-35600003D01*
X67839157Y-35773648D01*
X67839159Y-35773658D01*
X67887882Y-35912897D01*
X67896878Y-35938606D01*
X67989853Y-36086576D01*
X68113424Y-36210147D01*
X68261394Y-36303122D01*
X68426343Y-36360841D01*
X68426349Y-36360841D01*
X68426351Y-36360842D01*
X68599996Y-36380407D01*
X68600000Y-36380407D01*
X68600004Y-36380407D01*
X68773648Y-36360842D01*
X68773647Y-36360842D01*
X68773657Y-36360841D01*
X68938606Y-36303122D01*
X69086576Y-36210147D01*
X69210147Y-36086576D01*
X69303122Y-35938606D01*
X69360841Y-35773657D01*
X69361621Y-35766726D01*
X69380407Y-35600003D01*
X69380407Y-35599996D01*
X69360842Y-35426351D01*
X69360841Y-35426349D01*
X69360841Y-35426343D01*
X69303122Y-35261394D01*
X69210147Y-35113424D01*
X69086576Y-34989853D01*
X68938606Y-34896878D01*
X68938605Y-34896877D01*
X68938604Y-34896877D01*
X68773658Y-34839159D01*
X68773648Y-34839157D01*
X68600004Y-34819593D01*
X68599996Y-34819593D01*
X68426351Y-34839157D01*
X68426341Y-34839159D01*
X68261395Y-34896877D01*
X68107528Y-34993558D01*
X68106245Y-34991516D01*
X68051971Y-35013654D01*
X67983280Y-35000877D01*
X67932401Y-34952990D01*
X67915489Y-34885198D01*
X67916164Y-34876411D01*
X67916186Y-34876222D01*
X67930407Y-34750000D01*
X67929185Y-34739157D01*
X67910842Y-34576351D01*
X67910841Y-34576349D01*
X67910841Y-34576343D01*
X67853122Y-34411394D01*
X67760147Y-34263424D01*
X67636576Y-34139853D01*
X67488606Y-34046878D01*
X67488605Y-34046877D01*
X67488604Y-34046877D01*
X67323658Y-33989159D01*
X67323648Y-33989157D01*
X67150004Y-33969593D01*
X67149996Y-33969593D01*
X66976351Y-33989157D01*
X66976341Y-33989159D01*
X66811395Y-34046877D01*
X66663423Y-34139853D01*
X66539853Y-34263423D01*
X66446877Y-34411395D01*
X66389159Y-34576341D01*
X66389157Y-34576351D01*
X66369593Y-34749996D01*
X66369593Y-34750003D01*
X66074773Y-34750003D01*
X66080407Y-34700003D01*
X66080407Y-34699996D01*
X66060842Y-34526351D01*
X66060841Y-34526349D01*
X66060841Y-34526343D01*
X66003122Y-34361394D01*
X65910147Y-34213424D01*
X65786576Y-34089853D01*
X65638606Y-33996878D01*
X65638605Y-33996877D01*
X65638604Y-33996877D01*
X65473658Y-33939159D01*
X65473648Y-33939157D01*
X65300004Y-33919593D01*
X65299996Y-33919593D01*
X65126351Y-33939157D01*
X65126341Y-33939159D01*
X64961395Y-33996877D01*
X64813423Y-34089853D01*
X64689853Y-34213423D01*
X64596877Y-34361395D01*
X64539159Y-34526341D01*
X64539157Y-34526351D01*
X64519593Y-34699996D01*
X64519593Y-34700000D01*
X64521080Y-34713204D01*
X64523919Y-34738399D01*
X64511863Y-34807220D01*
X64464512Y-34858599D01*
X64396902Y-34876222D01*
X64334726Y-34857274D01*
X64238604Y-34796877D01*
X64073658Y-34739159D01*
X64073648Y-34739157D01*
X63900004Y-34719593D01*
X63899996Y-34719593D01*
X63726351Y-34739157D01*
X63726341Y-34739159D01*
X63561395Y-34796877D01*
X63413423Y-34889853D01*
X63289853Y-35013423D01*
X63196877Y-35161395D01*
X63139159Y-35326341D01*
X63139157Y-35326351D01*
X63119593Y-35499996D01*
X63119593Y-35500003D01*
X32964544Y-35500003D01*
X33003122Y-35438606D01*
X33060841Y-35273657D01*
X33066172Y-35226341D01*
X33080407Y-35100003D01*
X33080407Y-35099996D01*
X33060842Y-34926351D01*
X33060841Y-34926349D01*
X33060841Y-34926343D01*
X33003122Y-34761394D01*
X32910147Y-34613424D01*
X32786576Y-34489853D01*
X32638606Y-34396878D01*
X32638605Y-34396877D01*
X32638604Y-34396877D01*
X32473658Y-34339159D01*
X32473648Y-34339157D01*
X32300004Y-34319593D01*
X32299996Y-34319593D01*
X32126351Y-34339157D01*
X32126341Y-34339159D01*
X31961395Y-34396877D01*
X31813423Y-34489853D01*
X31689853Y-34613423D01*
X31596877Y-34761395D01*
X31539159Y-34926341D01*
X31539157Y-34926351D01*
X31519593Y-35099996D01*
X31519593Y-35100003D01*
X28516632Y-35100003D01*
X28503122Y-35061394D01*
X28410147Y-34913424D01*
X28286576Y-34789853D01*
X28138606Y-34696878D01*
X28138605Y-34696877D01*
X28138604Y-34696877D01*
X27973658Y-34639159D01*
X27973648Y-34639157D01*
X27800004Y-34619593D01*
X27799996Y-34619593D01*
X27626351Y-34639157D01*
X27626341Y-34639159D01*
X27461395Y-34696877D01*
X27313423Y-34789853D01*
X27189853Y-34913423D01*
X27096877Y-35061395D01*
X27039159Y-35226341D01*
X27039157Y-35226351D01*
X27019593Y-35399996D01*
X27019593Y-35400003D01*
X-1299500Y-35400003D01*
X-1299500Y-32700000D01*
X51843593Y-32700000D01*
X51926398Y-32877576D01*
X52061894Y-33071082D01*
X52228917Y-33238105D01*
X52422422Y-33373600D01*
X52422424Y-33373601D01*
X52599999Y-33456405D01*
X52600000Y-33456405D01*
X52600000Y-32700000D01*
X51843593Y-32700000D01*
X-1299500Y-32700000D01*
X-1299500Y-31500003D01*
X17524593Y-31500003D01*
X17544157Y-31673648D01*
X17544159Y-31673658D01*
X17601877Y-31838604D01*
X17601878Y-31838606D01*
X17694853Y-31986576D01*
X17818424Y-32110147D01*
X17966394Y-32203122D01*
X18131343Y-32260841D01*
X18131349Y-32260841D01*
X18131351Y-32260842D01*
X18304996Y-32280407D01*
X18305000Y-32280407D01*
X18305004Y-32280407D01*
X18380603Y-32271889D01*
X52600000Y-32271889D01*
X52640507Y-32409844D01*
X52718239Y-32530798D01*
X52826900Y-32624952D01*
X52957685Y-32684680D01*
X53064237Y-32700000D01*
X53135763Y-32700000D01*
X53242315Y-32684680D01*
X53373100Y-32624952D01*
X53481761Y-32530798D01*
X53559493Y-32409844D01*
X53600000Y-32271889D01*
X53600000Y-33456405D01*
X53777575Y-33373601D01*
X53777577Y-33373600D01*
X53971082Y-33238105D01*
X54138105Y-33071082D01*
X54268119Y-32885405D01*
X54322696Y-32841781D01*
X54392195Y-32834588D01*
X54454549Y-32866110D01*
X54471269Y-32885405D01*
X54601505Y-33071401D01*
X54768599Y-33238495D01*
X54865384Y-33306265D01*
X54962165Y-33374032D01*
X54962167Y-33374033D01*
X54962170Y-33374035D01*
X55176337Y-33473903D01*
X55404592Y-33535063D01*
X55581034Y-33550500D01*
X55639999Y-33555659D01*
X55640000Y-33555659D01*
X55640001Y-33555659D01*
X55698966Y-33550500D01*
X55875408Y-33535063D01*
X56103663Y-33473903D01*
X56317830Y-33374035D01*
X56511401Y-33238495D01*
X56633329Y-33116566D01*
X56694648Y-33083084D01*
X56764340Y-33088068D01*
X56820274Y-33129939D01*
X56837189Y-33160917D01*
X56886202Y-33292328D01*
X56886206Y-33292335D01*
X56972452Y-33407544D01*
X56972455Y-33407547D01*
X57087664Y-33493793D01*
X57087671Y-33493797D01*
X57222517Y-33544091D01*
X57222516Y-33544091D01*
X57229444Y-33544835D01*
X57282127Y-33550500D01*
X59077872Y-33550499D01*
X59137483Y-33544091D01*
X59272331Y-33493796D01*
X59387546Y-33407546D01*
X59473796Y-33292331D01*
X59524091Y-33157483D01*
X59530500Y-33097873D01*
X59530499Y-31302128D01*
X59524091Y-31242517D01*
X59522810Y-31239083D01*
X59473797Y-31107671D01*
X59473793Y-31107664D01*
X59387547Y-30992455D01*
X59387544Y-30992452D01*
X59272335Y-30906206D01*
X59272328Y-30906202D01*
X59137482Y-30855908D01*
X59137483Y-30855908D01*
X59077883Y-30849501D01*
X59077881Y-30849500D01*
X59077873Y-30849500D01*
X59077864Y-30849500D01*
X57282129Y-30849500D01*
X57282123Y-30849501D01*
X57222516Y-30855908D01*
X57087671Y-30906202D01*
X57087664Y-30906206D01*
X56972455Y-30992452D01*
X56972452Y-30992455D01*
X56886206Y-31107664D01*
X56886203Y-31107669D01*
X56837189Y-31239083D01*
X56795317Y-31295016D01*
X56729853Y-31319433D01*
X56661580Y-31304581D01*
X56633326Y-31283430D01*
X56511402Y-31161506D01*
X56511395Y-31161501D01*
X56317834Y-31025967D01*
X56317830Y-31025965D01*
X56290934Y-31013423D01*
X56103663Y-30926097D01*
X56103659Y-30926096D01*
X56103655Y-30926094D01*
X55875413Y-30864938D01*
X55875403Y-30864936D01*
X55640001Y-30844341D01*
X55639999Y-30844341D01*
X55404596Y-30864936D01*
X55404586Y-30864938D01*
X55176344Y-30926094D01*
X55176335Y-30926098D01*
X54962171Y-31025964D01*
X54962169Y-31025965D01*
X54768597Y-31161505D01*
X54601508Y-31328594D01*
X54471269Y-31514595D01*
X54416692Y-31558219D01*
X54347193Y-31565412D01*
X54284839Y-31533890D01*
X54268119Y-31514594D01*
X54138113Y-31328926D01*
X54138108Y-31328920D01*
X53971082Y-31161894D01*
X53777576Y-31026398D01*
X53600000Y-30943593D01*
X53600000Y-32128111D01*
X53559493Y-31990156D01*
X53481761Y-31869202D01*
X53373100Y-31775048D01*
X53242315Y-31715320D01*
X53135763Y-31700000D01*
X53064237Y-31700000D01*
X52957685Y-31715320D01*
X52826900Y-31775048D01*
X52718239Y-31869202D01*
X52640507Y-31990156D01*
X52600000Y-32128111D01*
X52600000Y-32271889D01*
X18380603Y-32271889D01*
X18478648Y-32260842D01*
X18478647Y-32260842D01*
X18478657Y-32260841D01*
X18643606Y-32203122D01*
X18791576Y-32110147D01*
X18915147Y-31986576D01*
X19008122Y-31838606D01*
X19056623Y-31700000D01*
X51843594Y-31700000D01*
X52600000Y-31700000D01*
X52600000Y-30943593D01*
X52599999Y-30943593D01*
X52422422Y-31026399D01*
X52422420Y-31026400D01*
X52228926Y-31161886D01*
X52228920Y-31161891D01*
X52061891Y-31328920D01*
X52061886Y-31328926D01*
X51926402Y-31522417D01*
X51926400Y-31522421D01*
X51843594Y-31699999D01*
X51843594Y-31700000D01*
X19056623Y-31700000D01*
X19065841Y-31673657D01*
X19078037Y-31565412D01*
X19085407Y-31500003D01*
X19085407Y-31499996D01*
X19065842Y-31326351D01*
X19065841Y-31326349D01*
X19065841Y-31326343D01*
X19008122Y-31161394D01*
X18915147Y-31013424D01*
X18791576Y-30889853D01*
X18643606Y-30796878D01*
X18643605Y-30796877D01*
X18643604Y-30796877D01*
X18478658Y-30739159D01*
X18478648Y-30739157D01*
X18305004Y-30719593D01*
X18304996Y-30719593D01*
X18131351Y-30739157D01*
X18131341Y-30739159D01*
X17966395Y-30796877D01*
X17818423Y-30889853D01*
X17694853Y-31013423D01*
X17601877Y-31161395D01*
X17544159Y-31326341D01*
X17544157Y-31326351D01*
X17524593Y-31499996D01*
X17524593Y-31500003D01*
X-1299500Y-31500003D01*
X-1299500Y-30600003D01*
X32719593Y-30600003D01*
X32739157Y-30773648D01*
X32739159Y-30773658D01*
X32792501Y-30926097D01*
X32796878Y-30938606D01*
X32889853Y-31086576D01*
X33013424Y-31210147D01*
X33161394Y-31303122D01*
X33326343Y-31360841D01*
X33326349Y-31360841D01*
X33326351Y-31360842D01*
X33499996Y-31380407D01*
X33500000Y-31380407D01*
X33500004Y-31380407D01*
X33673648Y-31360842D01*
X33673647Y-31360842D01*
X33673657Y-31360841D01*
X33838606Y-31303122D01*
X33986576Y-31210147D01*
X34110147Y-31086576D01*
X34203122Y-30938606D01*
X34260841Y-30773657D01*
X34264728Y-30739157D01*
X34280407Y-30600003D01*
X34280407Y-30599996D01*
X34260842Y-30426351D01*
X34260841Y-30426349D01*
X34260841Y-30426343D01*
X34203122Y-30261394D01*
X34110147Y-30113424D01*
X34096726Y-30100003D01*
X72119593Y-30100003D01*
X72139157Y-30273648D01*
X72139159Y-30273658D01*
X72196877Y-30438604D01*
X72196878Y-30438606D01*
X72289853Y-30586576D01*
X72413424Y-30710147D01*
X72561394Y-30803122D01*
X72726343Y-30860841D01*
X72726349Y-30860841D01*
X72726351Y-30860842D01*
X72899996Y-30880407D01*
X72900000Y-30880407D01*
X72900004Y-30880407D01*
X73073648Y-30860842D01*
X73073647Y-30860842D01*
X73073657Y-30860841D01*
X73238606Y-30803122D01*
X73386576Y-30710147D01*
X73510147Y-30586576D01*
X73603122Y-30438606D01*
X73660841Y-30273657D01*
X73662223Y-30261394D01*
X73680407Y-30100003D01*
X73680407Y-30099996D01*
X73660842Y-29926351D01*
X73660841Y-29926349D01*
X73660841Y-29926343D01*
X73603122Y-29761394D01*
X73510147Y-29613424D01*
X73386576Y-29489853D01*
X73238606Y-29396878D01*
X73238605Y-29396877D01*
X73238604Y-29396877D01*
X73073658Y-29339159D01*
X73073648Y-29339157D01*
X72900004Y-29319593D01*
X72899996Y-29319593D01*
X72726351Y-29339157D01*
X72726341Y-29339159D01*
X72561395Y-29396877D01*
X72413423Y-29489853D01*
X72289853Y-29613423D01*
X72196877Y-29761395D01*
X72139159Y-29926341D01*
X72139157Y-29926351D01*
X72119593Y-30099996D01*
X72119593Y-30100003D01*
X34096726Y-30100003D01*
X33986576Y-29989853D01*
X33838606Y-29896878D01*
X33838605Y-29896877D01*
X33838604Y-29896877D01*
X33673658Y-29839159D01*
X33673648Y-29839157D01*
X33500004Y-29819593D01*
X33499996Y-29819593D01*
X33326351Y-29839157D01*
X33326341Y-29839159D01*
X33161395Y-29896877D01*
X33013423Y-29989853D01*
X32889853Y-30113423D01*
X32796877Y-30261395D01*
X32739159Y-30426341D01*
X32739157Y-30426351D01*
X32719593Y-30599996D01*
X32719593Y-30600003D01*
X-1299500Y-30600003D01*
X-1299500Y-29200000D01*
X669357Y-29200000D01*
X689884Y-29421535D01*
X689885Y-29421537D01*
X750769Y-29635523D01*
X750775Y-29635538D01*
X849938Y-29834683D01*
X849943Y-29834691D01*
X984020Y-30012238D01*
X1148437Y-30162123D01*
X1148439Y-30162125D01*
X1337595Y-30279245D01*
X1337596Y-30279245D01*
X1337599Y-30279247D01*
X1545060Y-30359618D01*
X1763757Y-30400500D01*
X1763759Y-30400500D01*
X1986241Y-30400500D01*
X1986243Y-30400500D01*
X2204940Y-30359618D01*
X2412401Y-30279247D01*
X2601562Y-30162124D01*
X2765981Y-30012236D01*
X2900058Y-29834689D01*
X2999229Y-29635528D01*
X3060115Y-29421536D01*
X3080643Y-29200000D01*
X3060115Y-28978464D01*
X2999229Y-28764472D01*
X2959234Y-28684151D01*
X2900061Y-28565316D01*
X2900056Y-28565308D01*
X2765979Y-28387761D01*
X2601562Y-28237876D01*
X2601560Y-28237874D01*
X2412404Y-28120754D01*
X2412398Y-28120752D01*
X2204940Y-28040382D01*
X1986243Y-27999500D01*
X1763757Y-27999500D01*
X1545060Y-28040382D01*
X1413864Y-28091207D01*
X1337601Y-28120752D01*
X1337595Y-28120754D01*
X1148439Y-28237874D01*
X1148437Y-28237876D01*
X984020Y-28387761D01*
X849943Y-28565308D01*
X849938Y-28565316D01*
X750775Y-28764461D01*
X750769Y-28764476D01*
X689885Y-28978462D01*
X689884Y-28978464D01*
X669357Y-29199999D01*
X669357Y-29200000D01*
X-1299500Y-29200000D01*
X-1299500Y-26200007D01*
X9619671Y-26200007D01*
X9638964Y-26494363D01*
X9638965Y-26494373D01*
X9638966Y-26494380D01*
X9638968Y-26494390D01*
X9696518Y-26783716D01*
X9696521Y-26783730D01*
X9791349Y-27063080D01*
X9921825Y-27327660D01*
X9921829Y-27327667D01*
X10085725Y-27572955D01*
X10280241Y-27794758D01*
X10502044Y-27989274D01*
X10698818Y-28120754D01*
X10747335Y-28153172D01*
X11011923Y-28283652D01*
X11291278Y-28378481D01*
X11580620Y-28436034D01*
X11608888Y-28437886D01*
X11874993Y-28455329D01*
X11875000Y-28455329D01*
X11875007Y-28455329D01*
X12110675Y-28439881D01*
X12169380Y-28436034D01*
X12458722Y-28378481D01*
X12738077Y-28283652D01*
X13002665Y-28153172D01*
X13247957Y-27989273D01*
X13349753Y-27900000D01*
X64294540Y-27900000D01*
X64314326Y-28088256D01*
X64314327Y-28088259D01*
X64372818Y-28268277D01*
X64372821Y-28268284D01*
X64467467Y-28432216D01*
X64539071Y-28511740D01*
X64594129Y-28572888D01*
X64747265Y-28684148D01*
X64747270Y-28684151D01*
X64920192Y-28761142D01*
X64920193Y-28761142D01*
X64920197Y-28761144D01*
X65016973Y-28781714D01*
X65078455Y-28814906D01*
X65112232Y-28876069D01*
X65113879Y-28886151D01*
X65114327Y-28888260D01*
X65172818Y-29068277D01*
X65172821Y-29068284D01*
X65267467Y-29232216D01*
X65363759Y-29339159D01*
X65394129Y-29372888D01*
X65547265Y-29484148D01*
X65547270Y-29484151D01*
X65720192Y-29561142D01*
X65720197Y-29561144D01*
X65905354Y-29600500D01*
X65905355Y-29600500D01*
X66094644Y-29600500D01*
X66094646Y-29600500D01*
X66279803Y-29561144D01*
X66452730Y-29484151D01*
X66605871Y-29372888D01*
X66732533Y-29232216D01*
X66827179Y-29068284D01*
X66885674Y-28888256D01*
X66905460Y-28700000D01*
X66885674Y-28511744D01*
X66827179Y-28331716D01*
X66771473Y-28235231D01*
X66755001Y-28167331D01*
X66777854Y-28101305D01*
X66832775Y-28058114D01*
X66868047Y-28049705D01*
X67035408Y-28035063D01*
X67263663Y-27973903D01*
X67477830Y-27874035D01*
X67671401Y-27738495D01*
X67793329Y-27616566D01*
X67854648Y-27583084D01*
X67924340Y-27588068D01*
X67980274Y-27629939D01*
X67997189Y-27660917D01*
X68046202Y-27792328D01*
X68046206Y-27792335D01*
X68132452Y-27907544D01*
X68132455Y-27907547D01*
X68247664Y-27993793D01*
X68247671Y-27993797D01*
X68382517Y-28044091D01*
X68382516Y-28044091D01*
X68389444Y-28044835D01*
X68442127Y-28050500D01*
X70237872Y-28050499D01*
X70297483Y-28044091D01*
X70432331Y-27993796D01*
X70547546Y-27907546D01*
X70633796Y-27792331D01*
X70684091Y-27657483D01*
X70690500Y-27597873D01*
X70690499Y-25802128D01*
X70684091Y-25742517D01*
X70682810Y-25739083D01*
X70633797Y-25607671D01*
X70633793Y-25607664D01*
X70553197Y-25500003D01*
X72119593Y-25500003D01*
X72139157Y-25673648D01*
X72139159Y-25673658D01*
X72193376Y-25828599D01*
X72196878Y-25838606D01*
X72289853Y-25986576D01*
X72413424Y-26110147D01*
X72561394Y-26203122D01*
X72726343Y-26260841D01*
X72726349Y-26260841D01*
X72726351Y-26260842D01*
X72899996Y-26280407D01*
X72900000Y-26280407D01*
X72900004Y-26280407D01*
X73073648Y-26260842D01*
X73073647Y-26260842D01*
X73073657Y-26260841D01*
X73238606Y-26203122D01*
X73386576Y-26110147D01*
X73510147Y-25986576D01*
X73603122Y-25838606D01*
X73660841Y-25673657D01*
X73668276Y-25607669D01*
X73680407Y-25500003D01*
X73680407Y-25499996D01*
X73660842Y-25326351D01*
X73660841Y-25326349D01*
X73660841Y-25326343D01*
X73603122Y-25161394D01*
X73510147Y-25013424D01*
X73386576Y-24889853D01*
X73238606Y-24796878D01*
X73238605Y-24796877D01*
X73238604Y-24796877D01*
X73073658Y-24739159D01*
X73073648Y-24739157D01*
X72900004Y-24719593D01*
X72899996Y-24719593D01*
X72726351Y-24739157D01*
X72726341Y-24739159D01*
X72561395Y-24796877D01*
X72413423Y-24889853D01*
X72289853Y-25013423D01*
X72196877Y-25161395D01*
X72139159Y-25326341D01*
X72139157Y-25326351D01*
X72119593Y-25499996D01*
X72119593Y-25500003D01*
X70553197Y-25500003D01*
X70547547Y-25492455D01*
X70547544Y-25492452D01*
X70432335Y-25406206D01*
X70432328Y-25406202D01*
X70297482Y-25355908D01*
X70297483Y-25355908D01*
X70237883Y-25349501D01*
X70237881Y-25349500D01*
X70237873Y-25349500D01*
X70237864Y-25349500D01*
X68442129Y-25349500D01*
X68442123Y-25349501D01*
X68382516Y-25355908D01*
X68247671Y-25406202D01*
X68247664Y-25406206D01*
X68132455Y-25492452D01*
X68132452Y-25492455D01*
X68046206Y-25607664D01*
X68046203Y-25607669D01*
X67997189Y-25739083D01*
X67955317Y-25795016D01*
X67889853Y-25819433D01*
X67821580Y-25804581D01*
X67793326Y-25783430D01*
X67671402Y-25661506D01*
X67671395Y-25661501D01*
X67477834Y-25525967D01*
X67477830Y-25525965D01*
X67422139Y-25499996D01*
X67263663Y-25426097D01*
X67263659Y-25426096D01*
X67263655Y-25426094D01*
X67035413Y-25364938D01*
X67035403Y-25364936D01*
X66800001Y-25344341D01*
X66799999Y-25344341D01*
X66564596Y-25364936D01*
X66564586Y-25364938D01*
X66336344Y-25426094D01*
X66336335Y-25426098D01*
X66122171Y-25525964D01*
X66122169Y-25525965D01*
X65928597Y-25661505D01*
X65761505Y-25828597D01*
X65625965Y-26022169D01*
X65625964Y-26022171D01*
X65526098Y-26236335D01*
X65526094Y-26236344D01*
X65464938Y-26464586D01*
X65464936Y-26464596D01*
X65444341Y-26699999D01*
X65444341Y-26700000D01*
X65459272Y-26870657D01*
X65445506Y-26939157D01*
X65396890Y-26989340D01*
X65328862Y-27005274D01*
X65309968Y-27002756D01*
X65294647Y-26999500D01*
X65294646Y-26999500D01*
X65105354Y-26999500D01*
X65090036Y-27002756D01*
X64920197Y-27038855D01*
X64920192Y-27038857D01*
X64747270Y-27115848D01*
X64747265Y-27115851D01*
X64594129Y-27227111D01*
X64467466Y-27367785D01*
X64372821Y-27531715D01*
X64372818Y-27531722D01*
X64314327Y-27711740D01*
X64314326Y-27711744D01*
X64294540Y-27900000D01*
X13349753Y-27900000D01*
X13469758Y-27794758D01*
X13664273Y-27572957D01*
X13828172Y-27327665D01*
X13958652Y-27063077D01*
X14053481Y-26783722D01*
X14111034Y-26494380D01*
X14126341Y-26260842D01*
X14130329Y-26200007D01*
X14130329Y-26199992D01*
X14111035Y-25905636D01*
X14111034Y-25905620D01*
X14053481Y-25616278D01*
X13958652Y-25336923D01*
X13828172Y-25072336D01*
X13664273Y-24827043D01*
X13570042Y-24719593D01*
X13469758Y-24605241D01*
X13247955Y-24410725D01*
X13002667Y-24246829D01*
X13002660Y-24246825D01*
X12738080Y-24116349D01*
X12458730Y-24021521D01*
X12458724Y-24021519D01*
X12458722Y-24021519D01*
X12169380Y-23963966D01*
X12169373Y-23963965D01*
X12169363Y-23963964D01*
X11875007Y-23944671D01*
X11874993Y-23944671D01*
X11580636Y-23963964D01*
X11580624Y-23963965D01*
X11580620Y-23963966D01*
X11580612Y-23963967D01*
X11580609Y-23963968D01*
X11291283Y-24021518D01*
X11291269Y-24021521D01*
X11011919Y-24116349D01*
X10747334Y-24246828D01*
X10502041Y-24410728D01*
X10280241Y-24605241D01*
X10085728Y-24827041D01*
X9921828Y-25072334D01*
X9791349Y-25336919D01*
X9696521Y-25616269D01*
X9696518Y-25616283D01*
X9638968Y-25905609D01*
X9638964Y-25905636D01*
X9619671Y-26199992D01*
X9619671Y-26200007D01*
X-1299500Y-26200007D01*
X-1299500Y-23900003D01*
X75419593Y-23900003D01*
X75439157Y-24073648D01*
X75439159Y-24073658D01*
X75496877Y-24238604D01*
X75496878Y-24238606D01*
X75589853Y-24386576D01*
X75713424Y-24510147D01*
X75861394Y-24603122D01*
X76026343Y-24660841D01*
X76026349Y-24660841D01*
X76026351Y-24660842D01*
X76199996Y-24680407D01*
X76200000Y-24680407D01*
X76200004Y-24680407D01*
X76373648Y-24660842D01*
X76373647Y-24660842D01*
X76373657Y-24660841D01*
X76538606Y-24603122D01*
X76686576Y-24510147D01*
X76810147Y-24386576D01*
X76903122Y-24238606D01*
X76960841Y-24073657D01*
X76980407Y-23900000D01*
X76966932Y-23780407D01*
X76960842Y-23726351D01*
X76960841Y-23726349D01*
X76960841Y-23726343D01*
X76903122Y-23561394D01*
X76810147Y-23413424D01*
X76686576Y-23289853D01*
X76538606Y-23196878D01*
X76538605Y-23196877D01*
X76538604Y-23196877D01*
X76373658Y-23139159D01*
X76373648Y-23139157D01*
X76200004Y-23119593D01*
X76199996Y-23119593D01*
X76026351Y-23139157D01*
X76026341Y-23139159D01*
X75861395Y-23196877D01*
X75713423Y-23289853D01*
X75589853Y-23413423D01*
X75496877Y-23561395D01*
X75439159Y-23726341D01*
X75439157Y-23726351D01*
X75419593Y-23899996D01*
X75419593Y-23900003D01*
X-1299500Y-23900003D01*
X-1299500Y-22997844D01*
X9625000Y-22997844D01*
X9631401Y-23057372D01*
X9631403Y-23057379D01*
X9681645Y-23192086D01*
X9681649Y-23192093D01*
X9767809Y-23307187D01*
X9767812Y-23307190D01*
X9882906Y-23393350D01*
X9882913Y-23393354D01*
X10017620Y-23443596D01*
X10017627Y-23443598D01*
X10077155Y-23449999D01*
X10077172Y-23450000D01*
X11375000Y-23450000D01*
X11375000Y-22009448D01*
X11411586Y-22034913D01*
X11589138Y-22111107D01*
X11778394Y-22150000D01*
X11923175Y-22150000D01*
X12067220Y-22135352D01*
X12251570Y-22077512D01*
X12375000Y-22009002D01*
X12375000Y-23450000D01*
X13672828Y-23450000D01*
X13672844Y-23449999D01*
X13732372Y-23443598D01*
X13732379Y-23443596D01*
X13867086Y-23393354D01*
X13867093Y-23393350D01*
X13982187Y-23307190D01*
X13982190Y-23307187D01*
X14068350Y-23192093D01*
X14068354Y-23192086D01*
X14118596Y-23057379D01*
X14118598Y-23057372D01*
X14124999Y-22997844D01*
X14125000Y-22997827D01*
X14125000Y-22602003D01*
X54919593Y-22602003D01*
X54939157Y-22775648D01*
X54939159Y-22775658D01*
X54996877Y-22940604D01*
X54996878Y-22940606D01*
X55089853Y-23088576D01*
X55213424Y-23212147D01*
X55361394Y-23305122D01*
X55526343Y-23362841D01*
X55526349Y-23362841D01*
X55526351Y-23362842D01*
X55699996Y-23382407D01*
X55700000Y-23382407D01*
X55700004Y-23382407D01*
X55873648Y-23362842D01*
X55873647Y-23362842D01*
X55873657Y-23362841D01*
X56038606Y-23305122D01*
X56134030Y-23245163D01*
X56201265Y-23226164D01*
X56265969Y-23245163D01*
X56361394Y-23305122D01*
X56526343Y-23362841D01*
X56526349Y-23362841D01*
X56526351Y-23362842D01*
X56699996Y-23382407D01*
X56700000Y-23382407D01*
X56700004Y-23382407D01*
X56873648Y-23362842D01*
X56873647Y-23362842D01*
X56873657Y-23362841D01*
X57038606Y-23305122D01*
X57134030Y-23245163D01*
X57201265Y-23226164D01*
X57265969Y-23245163D01*
X57361394Y-23305122D01*
X57526343Y-23362841D01*
X57526349Y-23362841D01*
X57526351Y-23362842D01*
X57699996Y-23382407D01*
X57700000Y-23382407D01*
X57700004Y-23382407D01*
X57873648Y-23362842D01*
X57873647Y-23362842D01*
X57873657Y-23362841D01*
X58038606Y-23305122D01*
X58134030Y-23245163D01*
X58201265Y-23226164D01*
X58265969Y-23245163D01*
X58361394Y-23305122D01*
X58526343Y-23362841D01*
X58526349Y-23362841D01*
X58526351Y-23362842D01*
X58699996Y-23382407D01*
X58700000Y-23382407D01*
X58700004Y-23382407D01*
X58873648Y-23362842D01*
X58873647Y-23362842D01*
X58873657Y-23362841D01*
X59038606Y-23305122D01*
X59134030Y-23245163D01*
X59201265Y-23226164D01*
X59265969Y-23245163D01*
X59361394Y-23305122D01*
X59526343Y-23362841D01*
X59526349Y-23362841D01*
X59526351Y-23362842D01*
X59699996Y-23382407D01*
X59700000Y-23382407D01*
X59700004Y-23382407D01*
X59873648Y-23362842D01*
X59873647Y-23362842D01*
X59873657Y-23362841D01*
X60038606Y-23305122D01*
X60134030Y-23245163D01*
X60201265Y-23226164D01*
X60265969Y-23245163D01*
X60361394Y-23305122D01*
X60526343Y-23362841D01*
X60526349Y-23362841D01*
X60526351Y-23362842D01*
X60699996Y-23382407D01*
X60700000Y-23382407D01*
X60700004Y-23382407D01*
X60873648Y-23362842D01*
X60873647Y-23362842D01*
X60873657Y-23362841D01*
X61038606Y-23305122D01*
X61084027Y-23276581D01*
X61151263Y-23257581D01*
X61215972Y-23276581D01*
X61261394Y-23305122D01*
X61426343Y-23362841D01*
X61426349Y-23362841D01*
X61426351Y-23362842D01*
X61599996Y-23382407D01*
X61600000Y-23382407D01*
X61600004Y-23382407D01*
X61773648Y-23362842D01*
X61773647Y-23362842D01*
X61773657Y-23362841D01*
X61938606Y-23305122D01*
X62086576Y-23212147D01*
X62210147Y-23088576D01*
X62265801Y-23000003D01*
X73319593Y-23000003D01*
X73339157Y-23173648D01*
X73339159Y-23173658D01*
X73379818Y-23289853D01*
X73396878Y-23338606D01*
X73489853Y-23486576D01*
X73613424Y-23610147D01*
X73761394Y-23703122D01*
X73926343Y-23760841D01*
X73926349Y-23760841D01*
X73926351Y-23760842D01*
X74099996Y-23780407D01*
X74100000Y-23780407D01*
X74100004Y-23780407D01*
X74273648Y-23760842D01*
X74273647Y-23760842D01*
X74273657Y-23760841D01*
X74438606Y-23703122D01*
X74586576Y-23610147D01*
X74710147Y-23486576D01*
X74803122Y-23338606D01*
X74860841Y-23173657D01*
X74864728Y-23139157D01*
X74880407Y-23000003D01*
X74880407Y-22999999D01*
X74879646Y-22993249D01*
X74876085Y-22961643D01*
X74888139Y-22892823D01*
X74935487Y-22841443D01*
X75003097Y-22823818D01*
X75040260Y-22830719D01*
X75126340Y-22860840D01*
X75126343Y-22860841D01*
X75126349Y-22860841D01*
X75126351Y-22860842D01*
X75299996Y-22880407D01*
X75300000Y-22880407D01*
X75300004Y-22880407D01*
X75473648Y-22860842D01*
X75473647Y-22860842D01*
X75473657Y-22860841D01*
X75638606Y-22803122D01*
X75786576Y-22710147D01*
X75910147Y-22586576D01*
X76003122Y-22438606D01*
X76060841Y-22273657D01*
X76064728Y-22239157D01*
X76080407Y-22100003D01*
X76080407Y-22099996D01*
X76060842Y-21926351D01*
X76060841Y-21926349D01*
X76060841Y-21926343D01*
X76003122Y-21761394D01*
X75910147Y-21613424D01*
X75786576Y-21489853D01*
X75638606Y-21396878D01*
X75638605Y-21396877D01*
X75638604Y-21396877D01*
X75553338Y-21367041D01*
X75496562Y-21326319D01*
X75470815Y-21261367D01*
X75484271Y-21192805D01*
X75532659Y-21142402D01*
X75553338Y-21132959D01*
X75638606Y-21103122D01*
X75786576Y-21010147D01*
X75910147Y-20886576D01*
X76003122Y-20738606D01*
X76060841Y-20573657D01*
X76080407Y-20400000D01*
X76076473Y-20365087D01*
X76060842Y-20226351D01*
X76060841Y-20226349D01*
X76060841Y-20226343D01*
X76003122Y-20061394D01*
X75910147Y-19913424D01*
X75786576Y-19789853D01*
X75651521Y-19704993D01*
X75605231Y-19652660D01*
X75594582Y-19583606D01*
X75622957Y-19519758D01*
X75651520Y-19495007D01*
X75786576Y-19410147D01*
X75910147Y-19286576D01*
X76003122Y-19138606D01*
X76060841Y-18973657D01*
X76063506Y-18950000D01*
X76080407Y-18800003D01*
X76080407Y-18799996D01*
X76060842Y-18626351D01*
X76060841Y-18626349D01*
X76060841Y-18626343D01*
X76003122Y-18461394D01*
X75910147Y-18313424D01*
X75786576Y-18189853D01*
X75786573Y-18189850D01*
X75731098Y-18154994D01*
X75684806Y-18102660D01*
X75674157Y-18033606D01*
X75702532Y-17969758D01*
X75731098Y-17945006D01*
X75786573Y-17910149D01*
X75786573Y-17910148D01*
X75786576Y-17910147D01*
X75910147Y-17786576D01*
X76003122Y-17638606D01*
X76060841Y-17473657D01*
X76080407Y-17300000D01*
X76073407Y-17237876D01*
X76060842Y-17126351D01*
X76060841Y-17126349D01*
X76060841Y-17126343D01*
X76003122Y-16961394D01*
X75910147Y-16813424D01*
X75786576Y-16689853D01*
X75638606Y-16596878D01*
X75638605Y-16596877D01*
X75638604Y-16596877D01*
X75473658Y-16539159D01*
X75473648Y-16539157D01*
X75300004Y-16519593D01*
X75299996Y-16519593D01*
X75126351Y-16539157D01*
X75126341Y-16539159D01*
X74961395Y-16596877D01*
X74813423Y-16689853D01*
X74689853Y-16813423D01*
X74596877Y-16961395D01*
X74539159Y-17126341D01*
X74539157Y-17126351D01*
X74519593Y-17299996D01*
X74519593Y-17300003D01*
X74539157Y-17473648D01*
X74539159Y-17473658D01*
X74596877Y-17638604D01*
X74596878Y-17638606D01*
X74689853Y-17786576D01*
X74813424Y-17910147D01*
X74854556Y-17935991D01*
X74868902Y-17945006D01*
X74915193Y-17997341D01*
X74925841Y-18066394D01*
X74897466Y-18130243D01*
X74868902Y-18154994D01*
X74813423Y-18189853D01*
X74689853Y-18313423D01*
X74596877Y-18461395D01*
X74539159Y-18626341D01*
X74539157Y-18626351D01*
X74519593Y-18799996D01*
X74519593Y-18800003D01*
X74539157Y-18973648D01*
X74539159Y-18973658D01*
X74596877Y-19138604D01*
X74596878Y-19138606D01*
X74689853Y-19286576D01*
X74813424Y-19410147D01*
X74897299Y-19462849D01*
X74948477Y-19495006D01*
X74994768Y-19547341D01*
X75005416Y-19616394D01*
X74977041Y-19680243D01*
X74948477Y-19704994D01*
X74813423Y-19789853D01*
X74689853Y-19913423D01*
X74596877Y-20061395D01*
X74539159Y-20226341D01*
X74539157Y-20226351D01*
X74519593Y-20399996D01*
X74519593Y-20400003D01*
X74539157Y-20573648D01*
X74539159Y-20573658D01*
X74591881Y-20724327D01*
X74596878Y-20738606D01*
X74689853Y-20886576D01*
X74813424Y-21010147D01*
X74961394Y-21103122D01*
X75046662Y-21132959D01*
X75103437Y-21173681D01*
X75129184Y-21238634D01*
X75115727Y-21307195D01*
X75067340Y-21357598D01*
X75046662Y-21367041D01*
X74961394Y-21396878D01*
X74813423Y-21489853D01*
X74689853Y-21613423D01*
X74596877Y-21761395D01*
X74539159Y-21926341D01*
X74539157Y-21926351D01*
X74519593Y-22099996D01*
X74519593Y-22100004D01*
X74523914Y-22138356D01*
X74511859Y-22207178D01*
X74464510Y-22258557D01*
X74396899Y-22276181D01*
X74359740Y-22269281D01*
X74273654Y-22239158D01*
X74273648Y-22239157D01*
X74100004Y-22219593D01*
X74099996Y-22219593D01*
X73926351Y-22239157D01*
X73926341Y-22239159D01*
X73761395Y-22296877D01*
X73613423Y-22389853D01*
X73489853Y-22513423D01*
X73396877Y-22661395D01*
X73339159Y-22826341D01*
X73339157Y-22826351D01*
X73319593Y-22999996D01*
X73319593Y-23000003D01*
X62265801Y-23000003D01*
X62303122Y-22940606D01*
X62360841Y-22775657D01*
X62380407Y-22602000D01*
X62378669Y-22586576D01*
X62360842Y-22428351D01*
X62360841Y-22428349D01*
X62360841Y-22428343D01*
X62303122Y-22263394D01*
X62210147Y-22115424D01*
X62194726Y-22100003D01*
X67519593Y-22100003D01*
X67539157Y-22273648D01*
X67539159Y-22273658D01*
X67596877Y-22438604D01*
X67596878Y-22438606D01*
X67689853Y-22586576D01*
X67813424Y-22710147D01*
X67961394Y-22803122D01*
X68126343Y-22860841D01*
X68126349Y-22860841D01*
X68126351Y-22860842D01*
X68299996Y-22880407D01*
X68300000Y-22880407D01*
X68300004Y-22880407D01*
X68473648Y-22860842D01*
X68473647Y-22860842D01*
X68473657Y-22860841D01*
X68638606Y-22803122D01*
X68786576Y-22710147D01*
X68910147Y-22586576D01*
X69003122Y-22438606D01*
X69060841Y-22273657D01*
X69064728Y-22239157D01*
X69080407Y-22100003D01*
X69080407Y-22099996D01*
X69060842Y-21926351D01*
X69060841Y-21926349D01*
X69060841Y-21926343D01*
X69003122Y-21761394D01*
X68910147Y-21613424D01*
X68786576Y-21489853D01*
X68638606Y-21396878D01*
X68638605Y-21396877D01*
X68638604Y-21396877D01*
X68473658Y-21339159D01*
X68473648Y-21339157D01*
X68300004Y-21319593D01*
X68299996Y-21319593D01*
X68126351Y-21339157D01*
X68126341Y-21339159D01*
X67961395Y-21396877D01*
X67813423Y-21489853D01*
X67689853Y-21613423D01*
X67596877Y-21761395D01*
X67539159Y-21926341D01*
X67539157Y-21926351D01*
X67519593Y-22099996D01*
X67519593Y-22100003D01*
X62194726Y-22100003D01*
X62086576Y-21991853D01*
X61938606Y-21898878D01*
X61938605Y-21898877D01*
X61938604Y-21898877D01*
X61773658Y-21841159D01*
X61773648Y-21841157D01*
X61600004Y-21821593D01*
X61599996Y-21821593D01*
X61426351Y-21841157D01*
X61426341Y-21841159D01*
X61261396Y-21898877D01*
X61261394Y-21898877D01*
X61261394Y-21898878D01*
X61215969Y-21927419D01*
X61148734Y-21946418D01*
X61084030Y-21927419D01*
X61038606Y-21898878D01*
X61018067Y-21891691D01*
X60873658Y-21841159D01*
X60873648Y-21841157D01*
X60700004Y-21821593D01*
X60699996Y-21821593D01*
X60526351Y-21841157D01*
X60526341Y-21841159D01*
X60361392Y-21898878D01*
X60265971Y-21958835D01*
X60198734Y-21977835D01*
X60134029Y-21958835D01*
X60038607Y-21898878D01*
X59873658Y-21841159D01*
X59873648Y-21841157D01*
X59700004Y-21821593D01*
X59699996Y-21821593D01*
X59526351Y-21841157D01*
X59526341Y-21841159D01*
X59361392Y-21898878D01*
X59265971Y-21958835D01*
X59198734Y-21977835D01*
X59134029Y-21958835D01*
X59038607Y-21898878D01*
X58873658Y-21841159D01*
X58873648Y-21841157D01*
X58700004Y-21821593D01*
X58699996Y-21821593D01*
X58526351Y-21841157D01*
X58526341Y-21841159D01*
X58361392Y-21898878D01*
X58265971Y-21958835D01*
X58198734Y-21977835D01*
X58134029Y-21958835D01*
X58038607Y-21898878D01*
X57873658Y-21841159D01*
X57873648Y-21841157D01*
X57700004Y-21821593D01*
X57699996Y-21821593D01*
X57526351Y-21841157D01*
X57526341Y-21841159D01*
X57361392Y-21898878D01*
X57265971Y-21958835D01*
X57198734Y-21977835D01*
X57134029Y-21958835D01*
X57038607Y-21898878D01*
X56873658Y-21841159D01*
X56873648Y-21841157D01*
X56700004Y-21821593D01*
X56699996Y-21821593D01*
X56526351Y-21841157D01*
X56526341Y-21841159D01*
X56361392Y-21898878D01*
X56265971Y-21958835D01*
X56198734Y-21977835D01*
X56134029Y-21958835D01*
X56038607Y-21898878D01*
X55873658Y-21841159D01*
X55873648Y-21841157D01*
X55700004Y-21821593D01*
X55699996Y-21821593D01*
X55526351Y-21841157D01*
X55526341Y-21841159D01*
X55361395Y-21898877D01*
X55213423Y-21991853D01*
X55089853Y-22115423D01*
X54996877Y-22263395D01*
X54939159Y-22428341D01*
X54939157Y-22428351D01*
X54919593Y-22601996D01*
X54919593Y-22602003D01*
X14125000Y-22602003D01*
X14125000Y-21700000D01*
X12687875Y-21700000D01*
X12770459Y-21531641D01*
X12778003Y-21502503D01*
X20122093Y-21502503D01*
X20141657Y-21676148D01*
X20141659Y-21676158D01*
X20184994Y-21800000D01*
X20199378Y-21841106D01*
X20292353Y-21989076D01*
X20415924Y-22112647D01*
X20563894Y-22205622D01*
X20728843Y-22263341D01*
X20728849Y-22263341D01*
X20728851Y-22263342D01*
X20902496Y-22282907D01*
X20902500Y-22282907D01*
X20902504Y-22282907D01*
X21075678Y-22263395D01*
X21076157Y-22263341D01*
X21241106Y-22205622D01*
X21389076Y-22112647D01*
X21512647Y-21989076D01*
X21605622Y-21841106D01*
X21620005Y-21800003D01*
X26219593Y-21800003D01*
X26239157Y-21973648D01*
X26239159Y-21973658D01*
X26296877Y-22138604D01*
X26296878Y-22138606D01*
X26389853Y-22286576D01*
X26513424Y-22410147D01*
X26661394Y-22503122D01*
X26826343Y-22560841D01*
X26826349Y-22560841D01*
X26826351Y-22560842D01*
X26999996Y-22580407D01*
X27000000Y-22580407D01*
X27000004Y-22580407D01*
X27173648Y-22560842D01*
X27173647Y-22560842D01*
X27173657Y-22560841D01*
X27338606Y-22503122D01*
X27486576Y-22410147D01*
X27610147Y-22286576D01*
X27703122Y-22138606D01*
X27760841Y-21973657D01*
X27766375Y-21924537D01*
X27780407Y-21800003D01*
X27780407Y-21799996D01*
X27760842Y-21626351D01*
X27760841Y-21626349D01*
X27760841Y-21626343D01*
X27703122Y-21461394D01*
X27610147Y-21313424D01*
X27486576Y-21189853D01*
X27338606Y-21096878D01*
X27338605Y-21096877D01*
X27338604Y-21096877D01*
X27173658Y-21039159D01*
X27173648Y-21039157D01*
X27000004Y-21019593D01*
X26999996Y-21019593D01*
X26826351Y-21039157D01*
X26826341Y-21039159D01*
X26661395Y-21096877D01*
X26513423Y-21189853D01*
X26389853Y-21313423D01*
X26296877Y-21461395D01*
X26239159Y-21626341D01*
X26239157Y-21626351D01*
X26219593Y-21799996D01*
X26219593Y-21800003D01*
X21620005Y-21800003D01*
X21663341Y-21676157D01*
X21674137Y-21580339D01*
X21701203Y-21515925D01*
X21758797Y-21476370D01*
X21783475Y-21471002D01*
X21873648Y-21460842D01*
X21873647Y-21460842D01*
X21873657Y-21460841D01*
X22038606Y-21403122D01*
X22186576Y-21310147D01*
X22310147Y-21186576D01*
X22403122Y-21038606D01*
X22460841Y-20873657D01*
X22460841Y-20873650D01*
X22462392Y-20866862D01*
X22464127Y-20867258D01*
X22487684Y-20811187D01*
X22545277Y-20771628D01*
X22569959Y-20766257D01*
X22573657Y-20765841D01*
X22738606Y-20708122D01*
X22886576Y-20615147D01*
X23010147Y-20491576D01*
X23103122Y-20343606D01*
X23160841Y-20178657D01*
X23180407Y-20005000D01*
X23172988Y-19939157D01*
X23160842Y-19831351D01*
X23160841Y-19831346D01*
X23160841Y-19831343D01*
X23103122Y-19666394D01*
X23010147Y-19518424D01*
X22886576Y-19394853D01*
X22738606Y-19301878D01*
X22738605Y-19301877D01*
X22738604Y-19301877D01*
X22573658Y-19244159D01*
X22573648Y-19244157D01*
X22400004Y-19224593D01*
X22399996Y-19224593D01*
X22226351Y-19244157D01*
X22226341Y-19244159D01*
X22061395Y-19301877D01*
X21913423Y-19394853D01*
X21789853Y-19518423D01*
X21696877Y-19666395D01*
X21639157Y-19831346D01*
X21637607Y-19838139D01*
X21635875Y-19837743D01*
X21612299Y-19893831D01*
X21554699Y-19933379D01*
X21530048Y-19938740D01*
X21526350Y-19939156D01*
X21526346Y-19939157D01*
X21361395Y-19996877D01*
X21213423Y-20089853D01*
X21089853Y-20213423D01*
X20996877Y-20361395D01*
X20939159Y-20526341D01*
X20939157Y-20526350D01*
X20928362Y-20622161D01*
X20901295Y-20686575D01*
X20843700Y-20726130D01*
X20819026Y-20731497D01*
X20728850Y-20741657D01*
X20728841Y-20741659D01*
X20563895Y-20799377D01*
X20415923Y-20892353D01*
X20292353Y-21015923D01*
X20199377Y-21163895D01*
X20141659Y-21328841D01*
X20141657Y-21328851D01*
X20122093Y-21502496D01*
X20122093Y-21502503D01*
X12778003Y-21502503D01*
X12818887Y-21344598D01*
X12828673Y-21151635D01*
X12799416Y-20960652D01*
X12732313Y-20779468D01*
X12682780Y-20700000D01*
X14125000Y-20700000D01*
X14125000Y-19402172D01*
X14124999Y-19402155D01*
X14118598Y-19342627D01*
X14118596Y-19342620D01*
X14068354Y-19207913D01*
X14068350Y-19207906D01*
X13982190Y-19092812D01*
X13982187Y-19092809D01*
X13867093Y-19006649D01*
X13867086Y-19006645D01*
X13732379Y-18956403D01*
X13732372Y-18956401D01*
X13672844Y-18950000D01*
X12375000Y-18950000D01*
X12375000Y-20390551D01*
X12338414Y-20365087D01*
X12160862Y-20288893D01*
X11971606Y-20250000D01*
X11826825Y-20250000D01*
X11682780Y-20264648D01*
X11498430Y-20322488D01*
X11375000Y-20390997D01*
X11375000Y-18950000D01*
X10077155Y-18950000D01*
X10017627Y-18956401D01*
X10017620Y-18956403D01*
X9882913Y-19006645D01*
X9882906Y-19006649D01*
X9767812Y-19092809D01*
X9767809Y-19092812D01*
X9681649Y-19207906D01*
X9681645Y-19207913D01*
X9631403Y-19342620D01*
X9631401Y-19342627D01*
X9625000Y-19402155D01*
X9625000Y-20700000D01*
X11062125Y-20700000D01*
X10979541Y-20868359D01*
X10931113Y-21055402D01*
X10921327Y-21248365D01*
X10950584Y-21439348D01*
X11017687Y-21620532D01*
X11067220Y-21700000D01*
X9625000Y-21700000D01*
X9625000Y-22997844D01*
X-1299500Y-22997844D01*
X-1299500Y-18200000D01*
X669357Y-18200000D01*
X689884Y-18421535D01*
X689885Y-18421537D01*
X750769Y-18635523D01*
X750775Y-18635538D01*
X849938Y-18834683D01*
X849943Y-18834691D01*
X984020Y-19012238D01*
X1148437Y-19162123D01*
X1148439Y-19162125D01*
X1337595Y-19279245D01*
X1337596Y-19279245D01*
X1337599Y-19279247D01*
X1545060Y-19359618D01*
X1763757Y-19400500D01*
X1763759Y-19400500D01*
X1986241Y-19400500D01*
X1986243Y-19400500D01*
X2204940Y-19359618D01*
X2412401Y-19279247D01*
X2601562Y-19162124D01*
X2765981Y-19012236D01*
X2900058Y-18834689D01*
X2999229Y-18635528D01*
X3060115Y-18421536D01*
X3080643Y-18200000D01*
X3079702Y-18189850D01*
X3060115Y-17978464D01*
X3060114Y-17978462D01*
X3058747Y-17973658D01*
X3009338Y-17800003D01*
X60719593Y-17800003D01*
X60739157Y-17973648D01*
X60739159Y-17973658D01*
X60796877Y-18138604D01*
X60796878Y-18138606D01*
X60889853Y-18286576D01*
X61013424Y-18410147D01*
X61161394Y-18503122D01*
X61326343Y-18560841D01*
X61326349Y-18560841D01*
X61326351Y-18560842D01*
X61499996Y-18580407D01*
X61500000Y-18580407D01*
X61500004Y-18580407D01*
X61673648Y-18560842D01*
X61673647Y-18560842D01*
X61673657Y-18560841D01*
X61838606Y-18503122D01*
X61986576Y-18410147D01*
X62110147Y-18286576D01*
X62203122Y-18138606D01*
X62260841Y-17973657D01*
X62264069Y-17945006D01*
X62280407Y-17800003D01*
X62280407Y-17799996D01*
X62260842Y-17626351D01*
X62260841Y-17626349D01*
X62260841Y-17626343D01*
X62203122Y-17461394D01*
X62110147Y-17313424D01*
X61986576Y-17189853D01*
X61838606Y-17096878D01*
X61838605Y-17096877D01*
X61838604Y-17096877D01*
X61673658Y-17039159D01*
X61673648Y-17039157D01*
X61500004Y-17019593D01*
X61499996Y-17019593D01*
X61326351Y-17039157D01*
X61326341Y-17039159D01*
X61161395Y-17096877D01*
X61013423Y-17189853D01*
X60889853Y-17313423D01*
X60796877Y-17461395D01*
X60739159Y-17626341D01*
X60739157Y-17626351D01*
X60719593Y-17799996D01*
X60719593Y-17800003D01*
X3009338Y-17800003D01*
X2999229Y-17764472D01*
X2936554Y-17638604D01*
X2900061Y-17565316D01*
X2900056Y-17565308D01*
X2765979Y-17387761D01*
X2601562Y-17237876D01*
X2601560Y-17237874D01*
X2412404Y-17120754D01*
X2412398Y-17120752D01*
X2204940Y-17040382D01*
X1986243Y-16999500D01*
X1763757Y-16999500D01*
X1545060Y-17040382D01*
X1413864Y-17091207D01*
X1337601Y-17120752D01*
X1337595Y-17120754D01*
X1148439Y-17237874D01*
X1148437Y-17237876D01*
X984020Y-17387761D01*
X849943Y-17565308D01*
X849938Y-17565316D01*
X750775Y-17764461D01*
X750769Y-17764476D01*
X689885Y-17978462D01*
X689884Y-17978464D01*
X669357Y-18199999D01*
X669357Y-18200000D01*
X-1299500Y-18200000D01*
X-1299500Y-14700000D01*
X644357Y-14700000D01*
X664884Y-14921535D01*
X664885Y-14921537D01*
X725769Y-15135523D01*
X725775Y-15135538D01*
X824938Y-15334683D01*
X824943Y-15334691D01*
X959020Y-15512238D01*
X1123437Y-15662123D01*
X1123439Y-15662125D01*
X1312595Y-15779245D01*
X1312596Y-15779245D01*
X1312599Y-15779247D01*
X1520060Y-15859618D01*
X1738757Y-15900500D01*
X1738759Y-15900500D01*
X1961241Y-15900500D01*
X1961243Y-15900500D01*
X2179940Y-15859618D01*
X2387401Y-15779247D01*
X2576562Y-15662124D01*
X2740981Y-15512236D01*
X2849355Y-15368725D01*
X66658240Y-15368725D01*
X66677804Y-15542370D01*
X66677806Y-15542380D01*
X66723743Y-15673657D01*
X66735525Y-15707328D01*
X66828500Y-15855298D01*
X66952071Y-15978869D01*
X67100041Y-16071844D01*
X67264990Y-16129563D01*
X67264996Y-16129563D01*
X67264998Y-16129564D01*
X67438643Y-16149129D01*
X67438647Y-16149129D01*
X67438651Y-16149129D01*
X67612295Y-16129564D01*
X67612294Y-16129564D01*
X67612304Y-16129563D01*
X67777253Y-16071844D01*
X67925223Y-15978869D01*
X68048794Y-15855298D01*
X68141769Y-15707328D01*
X68199488Y-15542379D01*
X68219054Y-15368722D01*
X68215219Y-15334689D01*
X68199489Y-15195073D01*
X68199488Y-15195071D01*
X68199488Y-15195065D01*
X68141769Y-15030116D01*
X68048794Y-14882146D01*
X67925223Y-14758575D01*
X67777253Y-14665600D01*
X67777252Y-14665599D01*
X67777251Y-14665599D01*
X67612305Y-14607881D01*
X67612295Y-14607879D01*
X67438651Y-14588315D01*
X67438643Y-14588315D01*
X67264998Y-14607879D01*
X67264988Y-14607881D01*
X67100042Y-14665599D01*
X66952070Y-14758575D01*
X66828500Y-14882145D01*
X66735524Y-15030117D01*
X66677806Y-15195063D01*
X66677804Y-15195073D01*
X66658240Y-15368718D01*
X66658240Y-15368725D01*
X2849355Y-15368725D01*
X2875058Y-15334689D01*
X2974229Y-15135528D01*
X3035115Y-14921536D01*
X3055643Y-14700000D01*
X3052455Y-14665600D01*
X3035115Y-14478464D01*
X3035114Y-14478462D01*
X2974230Y-14264476D01*
X2974229Y-14264472D01*
X2890510Y-14096342D01*
X2875061Y-14065316D01*
X2875056Y-14065308D01*
X2740979Y-13887761D01*
X2576562Y-13737876D01*
X2576560Y-13737874D01*
X2387404Y-13620754D01*
X2387398Y-13620752D01*
X2179940Y-13540382D01*
X1961243Y-13499500D01*
X1738757Y-13499500D01*
X1520060Y-13540382D01*
X1476186Y-13557379D01*
X1312601Y-13620752D01*
X1312595Y-13620754D01*
X1123439Y-13737874D01*
X1123437Y-13737876D01*
X959020Y-13887761D01*
X824943Y-14065308D01*
X824938Y-14065316D01*
X725775Y-14264461D01*
X725769Y-14264476D01*
X664885Y-14478462D01*
X664884Y-14478464D01*
X644357Y-14699999D01*
X644357Y-14700000D01*
X-1299500Y-14700000D01*
X-1299500Y-13497844D01*
X4600000Y-13497844D01*
X4606401Y-13557372D01*
X4606403Y-13557379D01*
X4656645Y-13692086D01*
X4656649Y-13692093D01*
X4742809Y-13807187D01*
X4742812Y-13807190D01*
X4857906Y-13893350D01*
X4857913Y-13893354D01*
X4992620Y-13943596D01*
X4992627Y-13943598D01*
X5052155Y-13949999D01*
X5052172Y-13950000D01*
X6350000Y-13950000D01*
X6350000Y-12509448D01*
X6386586Y-12534913D01*
X6564138Y-12611107D01*
X6753394Y-12650000D01*
X6898175Y-12650000D01*
X7042220Y-12635352D01*
X7226570Y-12577512D01*
X7350000Y-12509002D01*
X7350000Y-13950000D01*
X8647828Y-13950000D01*
X8647844Y-13949999D01*
X8707372Y-13943598D01*
X8707379Y-13943596D01*
X8842086Y-13893354D01*
X8842093Y-13893350D01*
X8957187Y-13807190D01*
X8957190Y-13807187D01*
X9043350Y-13692093D01*
X9043354Y-13692086D01*
X9093596Y-13557379D01*
X9093598Y-13557372D01*
X9099999Y-13497844D01*
X9100000Y-13497827D01*
X9100000Y-13335503D01*
X56019593Y-13335503D01*
X56039157Y-13509148D01*
X56039159Y-13509158D01*
X56083755Y-13636604D01*
X56096878Y-13674106D01*
X56189853Y-13822076D01*
X56313424Y-13945647D01*
X56461394Y-14038622D01*
X56626343Y-14096341D01*
X56626349Y-14096341D01*
X56626351Y-14096342D01*
X56799996Y-14115907D01*
X56800000Y-14115907D01*
X56800004Y-14115907D01*
X56973648Y-14096342D01*
X56973647Y-14096342D01*
X56973657Y-14096341D01*
X57138606Y-14038622D01*
X57286576Y-13945647D01*
X57410147Y-13822076D01*
X57503122Y-13674106D01*
X57560841Y-13509157D01*
X57566222Y-13461395D01*
X57580407Y-13335503D01*
X60419593Y-13335503D01*
X60439157Y-13509148D01*
X60439159Y-13509158D01*
X60483755Y-13636604D01*
X60496878Y-13674106D01*
X60589853Y-13822076D01*
X60713424Y-13945647D01*
X60861394Y-14038622D01*
X61026343Y-14096341D01*
X61026349Y-14096341D01*
X61026351Y-14096342D01*
X61199996Y-14115907D01*
X61200000Y-14115907D01*
X61200004Y-14115907D01*
X61373648Y-14096342D01*
X61373647Y-14096342D01*
X61373657Y-14096341D01*
X61538606Y-14038622D01*
X61686576Y-13945647D01*
X61810147Y-13822076D01*
X61903122Y-13674106D01*
X61960841Y-13509157D01*
X61966222Y-13461395D01*
X61980407Y-13335503D01*
X61980407Y-13335496D01*
X61976183Y-13298003D01*
X65119593Y-13298003D01*
X65139157Y-13471648D01*
X65139159Y-13471658D01*
X65196877Y-13636604D01*
X65196878Y-13636606D01*
X65289853Y-13784576D01*
X65413424Y-13908147D01*
X65561394Y-14001122D01*
X65726343Y-14058841D01*
X65726349Y-14058841D01*
X65726351Y-14058842D01*
X65899996Y-14078407D01*
X65900000Y-14078407D01*
X65900004Y-14078407D01*
X66073648Y-14058842D01*
X66073647Y-14058842D01*
X66073657Y-14058841D01*
X66238606Y-14001122D01*
X66386576Y-13908147D01*
X66411319Y-13883404D01*
X66472642Y-13849919D01*
X66542334Y-13854903D01*
X66586681Y-13883404D01*
X66613424Y-13910147D01*
X66761394Y-14003122D01*
X66926343Y-14060841D01*
X66926349Y-14060841D01*
X66926351Y-14060842D01*
X67099996Y-14080407D01*
X67100000Y-14080407D01*
X67100004Y-14080407D01*
X67273648Y-14060842D01*
X67273647Y-14060842D01*
X67273657Y-14060841D01*
X67438606Y-14003122D01*
X67584030Y-13911746D01*
X67651265Y-13892747D01*
X67715969Y-13911746D01*
X67861394Y-14003122D01*
X68026343Y-14060841D01*
X68026349Y-14060841D01*
X68026351Y-14060842D01*
X68199996Y-14080407D01*
X68200000Y-14080407D01*
X68200004Y-14080407D01*
X68373648Y-14060842D01*
X68373647Y-14060842D01*
X68373657Y-14060841D01*
X68538606Y-14003122D01*
X68686576Y-13910147D01*
X68810147Y-13786576D01*
X68903122Y-13638606D01*
X68960841Y-13473657D01*
X68962223Y-13461392D01*
X68980407Y-13300003D01*
X68980407Y-13299996D01*
X68960842Y-13126351D01*
X68960841Y-13126349D01*
X68960841Y-13126343D01*
X68916632Y-13000003D01*
X72619593Y-13000003D01*
X72639157Y-13173648D01*
X72639159Y-13173658D01*
X72695791Y-13335500D01*
X72696878Y-13338606D01*
X72789853Y-13486576D01*
X72913424Y-13610147D01*
X73061394Y-13703122D01*
X73226343Y-13760841D01*
X73226349Y-13760841D01*
X73226351Y-13760842D01*
X73399996Y-13780407D01*
X73400000Y-13780407D01*
X73400004Y-13780407D01*
X73573648Y-13760842D01*
X73573647Y-13760842D01*
X73573657Y-13760841D01*
X73738606Y-13703122D01*
X73886576Y-13610147D01*
X74010147Y-13486576D01*
X74103122Y-13338606D01*
X74131040Y-13258819D01*
X74171762Y-13202044D01*
X74234199Y-13176554D01*
X74373649Y-13160842D01*
X74373650Y-13160841D01*
X74373657Y-13160841D01*
X74439195Y-13137907D01*
X74508971Y-13134345D01*
X74569599Y-13169074D01*
X74601826Y-13231067D01*
X74595422Y-13300642D01*
X74585142Y-13320920D01*
X74496878Y-13461392D01*
X74439159Y-13626341D01*
X74439157Y-13626351D01*
X74419593Y-13799996D01*
X74419593Y-13800003D01*
X74439157Y-13973648D01*
X74439159Y-13973658D01*
X74482089Y-14096342D01*
X74496878Y-14138606D01*
X74589853Y-14286576D01*
X74713424Y-14410147D01*
X74861394Y-14503122D01*
X74946662Y-14532959D01*
X75003437Y-14573681D01*
X75029184Y-14638634D01*
X75015727Y-14707195D01*
X74967340Y-14757598D01*
X74946662Y-14767041D01*
X74861394Y-14796878D01*
X74713423Y-14889853D01*
X74589853Y-15013423D01*
X74496877Y-15161395D01*
X74439159Y-15326341D01*
X74439157Y-15326351D01*
X74419593Y-15499996D01*
X74419593Y-15500003D01*
X74439157Y-15673648D01*
X74439159Y-15673657D01*
X74496878Y-15838606D01*
X74589853Y-15986576D01*
X74713424Y-16110147D01*
X74861394Y-16203122D01*
X75026343Y-16260841D01*
X75026349Y-16260841D01*
X75026351Y-16260842D01*
X75199996Y-16280407D01*
X75200000Y-16280407D01*
X75200004Y-16280407D01*
X75373648Y-16260842D01*
X75373647Y-16260842D01*
X75373657Y-16260841D01*
X75538606Y-16203122D01*
X75686576Y-16110147D01*
X75810147Y-15986576D01*
X75903122Y-15838606D01*
X75960841Y-15673657D01*
X75979028Y-15512238D01*
X75980407Y-15500003D01*
X75980407Y-15499996D01*
X75960842Y-15326351D01*
X75960841Y-15326349D01*
X75960841Y-15326343D01*
X75903122Y-15161394D01*
X75810147Y-15013424D01*
X75686576Y-14889853D01*
X75538606Y-14796878D01*
X75538605Y-14796877D01*
X75538604Y-14796877D01*
X75453338Y-14767041D01*
X75396562Y-14726319D01*
X75370815Y-14661367D01*
X75384271Y-14592805D01*
X75432659Y-14542402D01*
X75453338Y-14532959D01*
X75538606Y-14503122D01*
X75686576Y-14410147D01*
X75810147Y-14286576D01*
X75903122Y-14138606D01*
X75960841Y-13973657D01*
X75964228Y-13943596D01*
X75980407Y-13800003D01*
X75980407Y-13799996D01*
X75960842Y-13626351D01*
X75960841Y-13626349D01*
X75960841Y-13626343D01*
X75903122Y-13461394D01*
X75810147Y-13313424D01*
X75686576Y-13189853D01*
X75538606Y-13096878D01*
X75538605Y-13096877D01*
X75538604Y-13096877D01*
X75373658Y-13039159D01*
X75373648Y-13039157D01*
X75200004Y-13019593D01*
X75199996Y-13019593D01*
X75026351Y-13039157D01*
X75026345Y-13039158D01*
X74960805Y-13062092D01*
X74891026Y-13065653D01*
X74830399Y-13030924D01*
X74798172Y-12968930D01*
X74804578Y-12899355D01*
X74814851Y-12879088D01*
X74903122Y-12738606D01*
X74960841Y-12573657D01*
X74964824Y-12538303D01*
X74991889Y-12473892D01*
X75047089Y-12435146D01*
X75077406Y-12424537D01*
X75138606Y-12403122D01*
X75286576Y-12310147D01*
X75410147Y-12186576D01*
X75503122Y-12038606D01*
X75560841Y-11873657D01*
X75572109Y-11773648D01*
X75580407Y-11700003D01*
X75580407Y-11699996D01*
X75560842Y-11526351D01*
X75560841Y-11526346D01*
X75560841Y-11526343D01*
X75503122Y-11361394D01*
X75410147Y-11213424D01*
X75286576Y-11089853D01*
X75138606Y-10996878D01*
X75138605Y-10996877D01*
X75138604Y-10996877D01*
X74973658Y-10939159D01*
X74973648Y-10939157D01*
X74800004Y-10919593D01*
X74799996Y-10919593D01*
X74626351Y-10939157D01*
X74626341Y-10939159D01*
X74461395Y-10996877D01*
X74313423Y-11089853D01*
X74189853Y-11213423D01*
X74096877Y-11361395D01*
X74039157Y-11526346D01*
X74035175Y-11561696D01*
X74008109Y-11626110D01*
X73952911Y-11664854D01*
X73861394Y-11696878D01*
X73713423Y-11789853D01*
X73589853Y-11913423D01*
X73496879Y-12061390D01*
X73468958Y-12141182D01*
X73428235Y-12197957D01*
X73365801Y-12223445D01*
X73226350Y-12239157D01*
X73226341Y-12239159D01*
X73061395Y-12296877D01*
X72913423Y-12389853D01*
X72789853Y-12513423D01*
X72696877Y-12661395D01*
X72639159Y-12826341D01*
X72639157Y-12826351D01*
X72619593Y-12999996D01*
X72619593Y-13000003D01*
X68916632Y-13000003D01*
X68903122Y-12961394D01*
X68810147Y-12813424D01*
X68686576Y-12689853D01*
X68538606Y-12596878D01*
X68538605Y-12596877D01*
X68538604Y-12596877D01*
X68373658Y-12539159D01*
X68373648Y-12539157D01*
X68200004Y-12519593D01*
X68199996Y-12519593D01*
X68026351Y-12539157D01*
X68026341Y-12539159D01*
X67861392Y-12596878D01*
X67715971Y-12688252D01*
X67648735Y-12707252D01*
X67584029Y-12688252D01*
X67438606Y-12596878D01*
X67438607Y-12596878D01*
X67273658Y-12539159D01*
X67273648Y-12539157D01*
X67100004Y-12519593D01*
X67099996Y-12519593D01*
X66926351Y-12539157D01*
X66926341Y-12539159D01*
X66761395Y-12596877D01*
X66613423Y-12689853D01*
X66588681Y-12714596D01*
X66527358Y-12748081D01*
X66457666Y-12743097D01*
X66413319Y-12714596D01*
X66386576Y-12687853D01*
X66298286Y-12632377D01*
X66238606Y-12594878D01*
X66238605Y-12594877D01*
X66238604Y-12594877D01*
X66073658Y-12537159D01*
X66073648Y-12537157D01*
X65900004Y-12517593D01*
X65899996Y-12517593D01*
X65726351Y-12537157D01*
X65726341Y-12537159D01*
X65561395Y-12594877D01*
X65413423Y-12687853D01*
X65289853Y-12811423D01*
X65196877Y-12959395D01*
X65139159Y-13124341D01*
X65139157Y-13124351D01*
X65119593Y-13297996D01*
X65119593Y-13298003D01*
X61976183Y-13298003D01*
X61960842Y-13161851D01*
X61960841Y-13161849D01*
X61960841Y-13161843D01*
X61903122Y-12996894D01*
X61810147Y-12848924D01*
X61686576Y-12725353D01*
X61538606Y-12632378D01*
X61538605Y-12632377D01*
X61538604Y-12632377D01*
X61373658Y-12574659D01*
X61373648Y-12574657D01*
X61200004Y-12555093D01*
X61199996Y-12555093D01*
X61026351Y-12574657D01*
X61026341Y-12574659D01*
X60861395Y-12632377D01*
X60713423Y-12725353D01*
X60589853Y-12848923D01*
X60496877Y-12996895D01*
X60439159Y-13161841D01*
X60439157Y-13161851D01*
X60419593Y-13335496D01*
X60419593Y-13335503D01*
X57580407Y-13335503D01*
X57580407Y-13335496D01*
X57560842Y-13161851D01*
X57560841Y-13161849D01*
X57560841Y-13161843D01*
X57503122Y-12996894D01*
X57410147Y-12848924D01*
X57286576Y-12725353D01*
X57138606Y-12632378D01*
X57138605Y-12632377D01*
X57138604Y-12632377D01*
X56973658Y-12574659D01*
X56973648Y-12574657D01*
X56800004Y-12555093D01*
X56799996Y-12555093D01*
X56626351Y-12574657D01*
X56626341Y-12574659D01*
X56461395Y-12632377D01*
X56313423Y-12725353D01*
X56189853Y-12848923D01*
X56096877Y-12996895D01*
X56039159Y-13161841D01*
X56039157Y-13161851D01*
X56019593Y-13335496D01*
X56019593Y-13335503D01*
X9100000Y-13335503D01*
X9100000Y-12200000D01*
X7662875Y-12200000D01*
X7745459Y-12031641D01*
X7793887Y-11844598D01*
X7803673Y-11651635D01*
X7774416Y-11460652D01*
X7707313Y-11279468D01*
X7657780Y-11200000D01*
X9100000Y-11200000D01*
X9100000Y-9902172D01*
X9099999Y-9902155D01*
X9093598Y-9842627D01*
X9093596Y-9842620D01*
X9043354Y-9707913D01*
X9043350Y-9707906D01*
X8957190Y-9592812D01*
X8957187Y-9592809D01*
X8842093Y-9506649D01*
X8842086Y-9506645D01*
X8707379Y-9456403D01*
X8707372Y-9456401D01*
X8647844Y-9450000D01*
X7350000Y-9450000D01*
X7350000Y-10890551D01*
X7313414Y-10865087D01*
X7135862Y-10788893D01*
X6946606Y-10750000D01*
X6801825Y-10750000D01*
X6657780Y-10764648D01*
X6473430Y-10822488D01*
X6350000Y-10890997D01*
X6350000Y-9450000D01*
X5052155Y-9450000D01*
X4992627Y-9456401D01*
X4992620Y-9456403D01*
X4857913Y-9506645D01*
X4857906Y-9506649D01*
X4742812Y-9592809D01*
X4742809Y-9592812D01*
X4656649Y-9707906D01*
X4656645Y-9707913D01*
X4606403Y-9842620D01*
X4606401Y-9842627D01*
X4600000Y-9902155D01*
X4600000Y-11200000D01*
X6037125Y-11200000D01*
X5954541Y-11368359D01*
X5906113Y-11555402D01*
X5896327Y-11748365D01*
X5925584Y-11939348D01*
X5992687Y-12120532D01*
X6042220Y-12200000D01*
X4600000Y-12200000D01*
X4600000Y-13497844D01*
X-1299500Y-13497844D01*
X-1299500Y-6700007D01*
X4594671Y-6700007D01*
X4613964Y-6994363D01*
X4613965Y-6994373D01*
X4613966Y-6994380D01*
X4645414Y-7152484D01*
X4671518Y-7283716D01*
X4671521Y-7283730D01*
X4766349Y-7563080D01*
X4896825Y-7827660D01*
X4896829Y-7827667D01*
X5060725Y-8072955D01*
X5255241Y-8294758D01*
X5477044Y-8489274D01*
X5532534Y-8526351D01*
X5722335Y-8653172D01*
X5986923Y-8783652D01*
X6244189Y-8870982D01*
X6252040Y-8873648D01*
X6266278Y-8878481D01*
X6555620Y-8936034D01*
X6583888Y-8937886D01*
X6849993Y-8955329D01*
X6850000Y-8955329D01*
X6850007Y-8955329D01*
X7085675Y-8939881D01*
X7144380Y-8936034D01*
X7433722Y-8878481D01*
X7713077Y-8783652D01*
X7977665Y-8653172D01*
X8222957Y-8489273D01*
X8444758Y-8294758D01*
X8639273Y-8072957D01*
X8803172Y-7827665D01*
X8866128Y-7700003D01*
X17819593Y-7700003D01*
X17839157Y-7873648D01*
X17839159Y-7873658D01*
X17896877Y-8038604D01*
X17896878Y-8038606D01*
X17989853Y-8186576D01*
X18113424Y-8310147D01*
X18152561Y-8334738D01*
X18194781Y-8361267D01*
X18241072Y-8413602D01*
X18251720Y-8482656D01*
X18245852Y-8507212D01*
X18239159Y-8526338D01*
X18239157Y-8526348D01*
X18219593Y-8699996D01*
X18219593Y-8700003D01*
X18239157Y-8873648D01*
X18239159Y-8873658D01*
X18296878Y-9038607D01*
X18388252Y-9184029D01*
X18407252Y-9251265D01*
X18388252Y-9315971D01*
X18296878Y-9461392D01*
X18239159Y-9626341D01*
X18239157Y-9626351D01*
X18219593Y-9799996D01*
X18219593Y-9800003D01*
X18239157Y-9973648D01*
X18239159Y-9973658D01*
X18283131Y-10099320D01*
X18296878Y-10138606D01*
X18389853Y-10286576D01*
X18513424Y-10410147D01*
X18623467Y-10479291D01*
X18669758Y-10531626D01*
X18680407Y-10600679D01*
X18674537Y-10625239D01*
X18639158Y-10726345D01*
X18639157Y-10726351D01*
X18619593Y-10899996D01*
X18619593Y-10900003D01*
X18639157Y-11073648D01*
X18639159Y-11073657D01*
X18696878Y-11238606D01*
X18789853Y-11386576D01*
X18913424Y-11510147D01*
X19061394Y-11603122D01*
X19226343Y-11660841D01*
X19229462Y-11661192D01*
X19231341Y-11661981D01*
X19233138Y-11662392D01*
X19233066Y-11662706D01*
X19293875Y-11688252D01*
X19333435Y-11745844D01*
X19338806Y-11770530D01*
X19339157Y-11773648D01*
X19339159Y-11773658D01*
X19374148Y-11873648D01*
X19396878Y-11938606D01*
X19489853Y-12086576D01*
X19613424Y-12210147D01*
X19761394Y-12303122D01*
X19926343Y-12360841D01*
X19926349Y-12360841D01*
X19926351Y-12360842D01*
X20099996Y-12380407D01*
X20100000Y-12380407D01*
X20100004Y-12380407D01*
X20273648Y-12360842D01*
X20273647Y-12360842D01*
X20273657Y-12360841D01*
X20438606Y-12303122D01*
X20586576Y-12210147D01*
X20710147Y-12086576D01*
X20803122Y-11938606D01*
X20860841Y-11773657D01*
X20869140Y-11700000D01*
X20880407Y-11600003D01*
X20880407Y-11599996D01*
X20860842Y-11426351D01*
X20860841Y-11426349D01*
X20860841Y-11426343D01*
X20803122Y-11261394D01*
X20710147Y-11113424D01*
X20586576Y-10989853D01*
X20438606Y-10896878D01*
X20438605Y-10896877D01*
X20438604Y-10896877D01*
X20273658Y-10839159D01*
X20273648Y-10839157D01*
X20270530Y-10838806D01*
X20268650Y-10838016D01*
X20266862Y-10837608D01*
X20266933Y-10837294D01*
X20206116Y-10811740D01*
X20166561Y-10754145D01*
X20161193Y-10729469D01*
X20160841Y-10726343D01*
X20103122Y-10561394D01*
X20010147Y-10413424D01*
X19886576Y-10289853D01*
X19776532Y-10220708D01*
X19730241Y-10168373D01*
X19719593Y-10099320D01*
X19725463Y-10074759D01*
X19760841Y-9973657D01*
X19780407Y-9800000D01*
X19760841Y-9626343D01*
X19703122Y-9461394D01*
X19611746Y-9315969D01*
X19592747Y-9248735D01*
X19611747Y-9184029D01*
X19703122Y-9038606D01*
X19760841Y-8873657D01*
X19780407Y-8700000D01*
X19760841Y-8526343D01*
X19703122Y-8361394D01*
X19610147Y-8213424D01*
X19486576Y-8089853D01*
X19405217Y-8038732D01*
X19358926Y-7986397D01*
X19348278Y-7917344D01*
X19354149Y-7892780D01*
X19360841Y-7873657D01*
X19366023Y-7827665D01*
X19380407Y-7700003D01*
X19380407Y-7699996D01*
X19360842Y-7526351D01*
X19360841Y-7526349D01*
X19360841Y-7526343D01*
X19303122Y-7361394D01*
X19210147Y-7213424D01*
X19086576Y-7089853D01*
X18943575Y-7000000D01*
X51380000Y-7000000D01*
X51380000Y-7347844D01*
X51386401Y-7407372D01*
X51386403Y-7407379D01*
X51436645Y-7542086D01*
X51436649Y-7542093D01*
X51522809Y-7657187D01*
X51522812Y-7657190D01*
X51637906Y-7743350D01*
X51637913Y-7743354D01*
X51772620Y-7793596D01*
X51772627Y-7793598D01*
X51832155Y-7799999D01*
X51832172Y-7800000D01*
X52180000Y-7800000D01*
X53180000Y-7800000D01*
X53527828Y-7800000D01*
X53527844Y-7799999D01*
X53587372Y-7793598D01*
X53587379Y-7793596D01*
X53722086Y-7743354D01*
X53722093Y-7743350D01*
X53837187Y-7657190D01*
X53837190Y-7657187D01*
X53923350Y-7542093D01*
X53923354Y-7542086D01*
X53973596Y-7407380D01*
X53977424Y-7371781D01*
X54004162Y-7307230D01*
X54061555Y-7267382D01*
X54131380Y-7264888D01*
X54191469Y-7300540D01*
X54202289Y-7313912D01*
X54219956Y-7339143D01*
X54380858Y-7500045D01*
X54380861Y-7500047D01*
X54567266Y-7630568D01*
X54773504Y-7726739D01*
X54993308Y-7785635D01*
X55155230Y-7799801D01*
X55219998Y-7805468D01*
X55220000Y-7805468D01*
X55220002Y-7805468D01*
X55282511Y-7799999D01*
X55446692Y-7785635D01*
X55666496Y-7726739D01*
X55872734Y-7630568D01*
X56059139Y-7500047D01*
X56220047Y-7339139D01*
X56350568Y-7152734D01*
X56377618Y-7094724D01*
X56423790Y-7042285D01*
X56490983Y-7023133D01*
X56557865Y-7043348D01*
X56602382Y-7094725D01*
X56629429Y-7152728D01*
X56629432Y-7152734D01*
X56759954Y-7339141D01*
X56920858Y-7500045D01*
X56920861Y-7500047D01*
X57107266Y-7630568D01*
X57313504Y-7726739D01*
X57533308Y-7785635D01*
X57695230Y-7799801D01*
X57759998Y-7805468D01*
X57760000Y-7805468D01*
X57760002Y-7805468D01*
X57822511Y-7799999D01*
X57986692Y-7785635D01*
X58206496Y-7726739D01*
X58412734Y-7630568D01*
X58599139Y-7500047D01*
X58760047Y-7339139D01*
X58890568Y-7152734D01*
X58917618Y-7094724D01*
X58963790Y-7042285D01*
X59030983Y-7023133D01*
X59097865Y-7043348D01*
X59142382Y-7094725D01*
X59169429Y-7152728D01*
X59169432Y-7152734D01*
X59299954Y-7339141D01*
X59460858Y-7500045D01*
X59460861Y-7500047D01*
X59647266Y-7630568D01*
X59853504Y-7726739D01*
X60073308Y-7785635D01*
X60235230Y-7799801D01*
X60299998Y-7805468D01*
X60300000Y-7805468D01*
X60300002Y-7805468D01*
X60362511Y-7799999D01*
X60526692Y-7785635D01*
X60746496Y-7726739D01*
X60952734Y-7630568D01*
X61139139Y-7500047D01*
X61300047Y-7339139D01*
X61430568Y-7152734D01*
X61457618Y-7094724D01*
X61503790Y-7042285D01*
X61570983Y-7023133D01*
X61637865Y-7043348D01*
X61682382Y-7094725D01*
X61709429Y-7152728D01*
X61709432Y-7152734D01*
X61839954Y-7339141D01*
X62000858Y-7500045D01*
X62000861Y-7500047D01*
X62187266Y-7630568D01*
X62393504Y-7726739D01*
X62613308Y-7785635D01*
X62775230Y-7799801D01*
X62839998Y-7805468D01*
X62840000Y-7805468D01*
X62840002Y-7805468D01*
X62902511Y-7799999D01*
X63066692Y-7785635D01*
X63286496Y-7726739D01*
X63492734Y-7630568D01*
X63679139Y-7500047D01*
X63840047Y-7339139D01*
X63970568Y-7152734D01*
X63997618Y-7094724D01*
X64043790Y-7042285D01*
X64110983Y-7023133D01*
X64177865Y-7043348D01*
X64222382Y-7094725D01*
X64249429Y-7152728D01*
X64249432Y-7152734D01*
X64379954Y-7339141D01*
X64540858Y-7500045D01*
X64540861Y-7500047D01*
X64727266Y-7630568D01*
X64933504Y-7726739D01*
X65153308Y-7785635D01*
X65315230Y-7799801D01*
X65379998Y-7805468D01*
X65380000Y-7805468D01*
X65380002Y-7805468D01*
X65442511Y-7799999D01*
X65606692Y-7785635D01*
X65826496Y-7726739D01*
X66032734Y-7630568D01*
X66219139Y-7500047D01*
X66380047Y-7339139D01*
X66510568Y-7152734D01*
X66537895Y-7094129D01*
X66584064Y-7041695D01*
X66651257Y-7022542D01*
X66718139Y-7042757D01*
X66762657Y-7094133D01*
X66789865Y-7152482D01*
X66920342Y-7338820D01*
X67081179Y-7499657D01*
X67267518Y-7630134D01*
X67267520Y-7630135D01*
X67419999Y-7701237D01*
X68420000Y-7701237D01*
X68572479Y-7630135D01*
X68572481Y-7630134D01*
X68758820Y-7499657D01*
X68919657Y-7338820D01*
X69050132Y-7152484D01*
X69077341Y-7094134D01*
X69123513Y-7041695D01*
X69190707Y-7022542D01*
X69257588Y-7042757D01*
X69302106Y-7094133D01*
X69329431Y-7152732D01*
X69329432Y-7152734D01*
X69459954Y-7339141D01*
X69620858Y-7500045D01*
X69620861Y-7500047D01*
X69807266Y-7630568D01*
X70013504Y-7726739D01*
X70233308Y-7785635D01*
X70395230Y-7799801D01*
X70459998Y-7805468D01*
X70460000Y-7805468D01*
X70460002Y-7805468D01*
X70522511Y-7799999D01*
X70686692Y-7785635D01*
X70906496Y-7726739D01*
X71112734Y-7630568D01*
X71299139Y-7500047D01*
X71460047Y-7339139D01*
X71590568Y-7152734D01*
X71686739Y-6946496D01*
X71745635Y-6726692D01*
X71765468Y-6500000D01*
X71745635Y-6273308D01*
X71686739Y-6053504D01*
X71590568Y-5847266D01*
X71460047Y-5660861D01*
X71460045Y-5660858D01*
X71299141Y-5499954D01*
X71112734Y-5369432D01*
X71112732Y-5369431D01*
X70906497Y-5273261D01*
X70906488Y-5273258D01*
X70686697Y-5214366D01*
X70686693Y-5214365D01*
X70686692Y-5214365D01*
X70686691Y-5214364D01*
X70686686Y-5214364D01*
X70460002Y-5194532D01*
X70459998Y-5194532D01*
X70233313Y-5214364D01*
X70233302Y-5214366D01*
X70013511Y-5273258D01*
X70013502Y-5273261D01*
X69807267Y-5369431D01*
X69807265Y-5369432D01*
X69620858Y-5499954D01*
X69459954Y-5660858D01*
X69336677Y-5836919D01*
X69329432Y-5847266D01*
X69329315Y-5847518D01*
X69302106Y-5905867D01*
X69255933Y-5958306D01*
X69188739Y-5977457D01*
X69121858Y-5957241D01*
X69077342Y-5905865D01*
X69050135Y-5847520D01*
X69050134Y-5847518D01*
X68919657Y-5661179D01*
X68758820Y-5500342D01*
X68572482Y-5369865D01*
X68420000Y-5298762D01*
X68420000Y-7701237D01*
X67419999Y-7701237D01*
X67420000Y-7701236D01*
X67420000Y-6500000D01*
X67515014Y-6500000D01*
X67534835Y-6625148D01*
X67592359Y-6738045D01*
X67681955Y-6827641D01*
X67794852Y-6885165D01*
X67888519Y-6900000D01*
X67951481Y-6900000D01*
X68045148Y-6885165D01*
X68158045Y-6827641D01*
X68247641Y-6738045D01*
X68305165Y-6625148D01*
X68324986Y-6500000D01*
X68305165Y-6374852D01*
X68247641Y-6261955D01*
X68158045Y-6172359D01*
X68045148Y-6114835D01*
X67951481Y-6100000D01*
X67888519Y-6100000D01*
X67794852Y-6114835D01*
X67681955Y-6172359D01*
X67592359Y-6261955D01*
X67534835Y-6374852D01*
X67515014Y-6500000D01*
X67420000Y-6500000D01*
X67420000Y-5298762D01*
X67267517Y-5369865D01*
X67081179Y-5500342D01*
X66920342Y-5661179D01*
X66789867Y-5847515D01*
X66762657Y-5905867D01*
X66716484Y-5958306D01*
X66649290Y-5977457D01*
X66582409Y-5957241D01*
X66537893Y-5905865D01*
X66510685Y-5847518D01*
X66510568Y-5847266D01*
X66380047Y-5660861D01*
X66380045Y-5660858D01*
X66219141Y-5499954D01*
X66032734Y-5369432D01*
X66032732Y-5369431D01*
X65826497Y-5273261D01*
X65826488Y-5273258D01*
X65606697Y-5214366D01*
X65606693Y-5214365D01*
X65606692Y-5214365D01*
X65606691Y-5214364D01*
X65606686Y-5214364D01*
X65380002Y-5194532D01*
X65379998Y-5194532D01*
X65153313Y-5214364D01*
X65153302Y-5214366D01*
X64933511Y-5273258D01*
X64933502Y-5273261D01*
X64727267Y-5369431D01*
X64727265Y-5369432D01*
X64540858Y-5499954D01*
X64379954Y-5660858D01*
X64249432Y-5847265D01*
X64249431Y-5847267D01*
X64222382Y-5905275D01*
X64176209Y-5957714D01*
X64109016Y-5976866D01*
X64042135Y-5956650D01*
X63997618Y-5905275D01*
X63970686Y-5847520D01*
X63970568Y-5847266D01*
X63840047Y-5660861D01*
X63840045Y-5660858D01*
X63679141Y-5499954D01*
X63492734Y-5369432D01*
X63492732Y-5369431D01*
X63286497Y-5273261D01*
X63286488Y-5273258D01*
X63066697Y-5214366D01*
X63066693Y-5214365D01*
X63066692Y-5214365D01*
X63066691Y-5214364D01*
X63066686Y-5214364D01*
X62840002Y-5194532D01*
X62839998Y-5194532D01*
X62613313Y-5214364D01*
X62613302Y-5214366D01*
X62393511Y-5273258D01*
X62393502Y-5273261D01*
X62187267Y-5369431D01*
X62187265Y-5369432D01*
X62000858Y-5499954D01*
X61839954Y-5660858D01*
X61709432Y-5847265D01*
X61709431Y-5847267D01*
X61682382Y-5905275D01*
X61636209Y-5957714D01*
X61569016Y-5976866D01*
X61502135Y-5956650D01*
X61457618Y-5905275D01*
X61430686Y-5847520D01*
X61430568Y-5847266D01*
X61300047Y-5660861D01*
X61300045Y-5660858D01*
X61139141Y-5499954D01*
X60952734Y-5369432D01*
X60952732Y-5369431D01*
X60746497Y-5273261D01*
X60746488Y-5273258D01*
X60526697Y-5214366D01*
X60526693Y-5214365D01*
X60526692Y-5214365D01*
X60526691Y-5214364D01*
X60526686Y-5214364D01*
X60300002Y-5194532D01*
X60299998Y-5194532D01*
X60073313Y-5214364D01*
X60073302Y-5214366D01*
X59853511Y-5273258D01*
X59853502Y-5273261D01*
X59647267Y-5369431D01*
X59647265Y-5369432D01*
X59460858Y-5499954D01*
X59299954Y-5660858D01*
X59169432Y-5847265D01*
X59169431Y-5847267D01*
X59142382Y-5905275D01*
X59096209Y-5957714D01*
X59029016Y-5976866D01*
X58962135Y-5956650D01*
X58917618Y-5905275D01*
X58890686Y-5847520D01*
X58890568Y-5847266D01*
X58760047Y-5660861D01*
X58760045Y-5660858D01*
X58599141Y-5499954D01*
X58412734Y-5369432D01*
X58412732Y-5369431D01*
X58206497Y-5273261D01*
X58206488Y-5273258D01*
X57986697Y-5214366D01*
X57986693Y-5214365D01*
X57986692Y-5214365D01*
X57986691Y-5214364D01*
X57986686Y-5214364D01*
X57760002Y-5194532D01*
X57759998Y-5194532D01*
X57533313Y-5214364D01*
X57533302Y-5214366D01*
X57313511Y-5273258D01*
X57313502Y-5273261D01*
X57107267Y-5369431D01*
X57107265Y-5369432D01*
X56920858Y-5499954D01*
X56759954Y-5660858D01*
X56629432Y-5847265D01*
X56629431Y-5847267D01*
X56602382Y-5905275D01*
X56556209Y-5957714D01*
X56489016Y-5976866D01*
X56422135Y-5956650D01*
X56377618Y-5905275D01*
X56350686Y-5847520D01*
X56350568Y-5847266D01*
X56220047Y-5660861D01*
X56220045Y-5660858D01*
X56059141Y-5499954D01*
X55872734Y-5369432D01*
X55872732Y-5369431D01*
X55666497Y-5273261D01*
X55666488Y-5273258D01*
X55446697Y-5214366D01*
X55446693Y-5214365D01*
X55446692Y-5214365D01*
X55446691Y-5214364D01*
X55446686Y-5214364D01*
X55220002Y-5194532D01*
X55219998Y-5194532D01*
X54993313Y-5214364D01*
X54993302Y-5214366D01*
X54773511Y-5273258D01*
X54773502Y-5273261D01*
X54567267Y-5369431D01*
X54567265Y-5369432D01*
X54380858Y-5499954D01*
X54219951Y-5660861D01*
X54202287Y-5686088D01*
X54147710Y-5729712D01*
X54078211Y-5736904D01*
X54015857Y-5705380D01*
X53980445Y-5645150D01*
X53977425Y-5628218D01*
X53973598Y-5592627D01*
X53973596Y-5592620D01*
X53923354Y-5457913D01*
X53923350Y-5457906D01*
X53837190Y-5342812D01*
X53837187Y-5342809D01*
X53722093Y-5256649D01*
X53722086Y-5256645D01*
X53587379Y-5206403D01*
X53587372Y-5206401D01*
X53527844Y-5200000D01*
X53180000Y-5200000D01*
X53180000Y-7800000D01*
X52180000Y-7800000D01*
X52180000Y-7000000D01*
X51380000Y-7000000D01*
X18943575Y-7000000D01*
X18938606Y-6996878D01*
X18938605Y-6996877D01*
X18938604Y-6996877D01*
X18773658Y-6939159D01*
X18773648Y-6939157D01*
X18600004Y-6919593D01*
X18599996Y-6919593D01*
X18426351Y-6939157D01*
X18426341Y-6939159D01*
X18261395Y-6996877D01*
X18113423Y-7089853D01*
X17989853Y-7213423D01*
X17896877Y-7361395D01*
X17839159Y-7526341D01*
X17839157Y-7526351D01*
X17819593Y-7699996D01*
X17819593Y-7700003D01*
X8866128Y-7700003D01*
X8933652Y-7563077D01*
X9028481Y-7283722D01*
X9086034Y-6994380D01*
X9092220Y-6900000D01*
X9105329Y-6700007D01*
X9105329Y-6699992D01*
X9092220Y-6500000D01*
X52275014Y-6500000D01*
X52294835Y-6625148D01*
X52352359Y-6738045D01*
X52441955Y-6827641D01*
X52554852Y-6885165D01*
X52648519Y-6900000D01*
X52711481Y-6900000D01*
X52805148Y-6885165D01*
X52918045Y-6827641D01*
X53007641Y-6738045D01*
X53065165Y-6625148D01*
X53084986Y-6500000D01*
X53065165Y-6374852D01*
X53007641Y-6261955D01*
X52918045Y-6172359D01*
X52805148Y-6114835D01*
X52711481Y-6100000D01*
X52648519Y-6100000D01*
X52554852Y-6114835D01*
X52441955Y-6172359D01*
X52352359Y-6261955D01*
X52294835Y-6374852D01*
X52275014Y-6500000D01*
X9092220Y-6500000D01*
X9086035Y-6405636D01*
X9086034Y-6405620D01*
X9028481Y-6116278D01*
X8989010Y-6000000D01*
X51380000Y-6000000D01*
X52180000Y-6000000D01*
X52180000Y-5200000D01*
X51832155Y-5200000D01*
X51772627Y-5206401D01*
X51772620Y-5206403D01*
X51637913Y-5256645D01*
X51637906Y-5256649D01*
X51522812Y-5342809D01*
X51522809Y-5342812D01*
X51436649Y-5457906D01*
X51436645Y-5457913D01*
X51386403Y-5592620D01*
X51386401Y-5592627D01*
X51380000Y-5652155D01*
X51380000Y-6000000D01*
X8989010Y-6000000D01*
X8933652Y-5836923D01*
X8803172Y-5572336D01*
X8639273Y-5327043D01*
X8540456Y-5214364D01*
X8444758Y-5105241D01*
X8222955Y-4910725D01*
X7977667Y-4746829D01*
X7977660Y-4746825D01*
X7713080Y-4616349D01*
X7433730Y-4521521D01*
X7433724Y-4521519D01*
X7433722Y-4521519D01*
X7144380Y-4463966D01*
X7144373Y-4463965D01*
X7144363Y-4463964D01*
X6850007Y-4444671D01*
X6849993Y-4444671D01*
X6555636Y-4463964D01*
X6555624Y-4463965D01*
X6555620Y-4463966D01*
X6555612Y-4463967D01*
X6555609Y-4463968D01*
X6266283Y-4521518D01*
X6266269Y-4521521D01*
X5986919Y-4616349D01*
X5722334Y-4746828D01*
X5477041Y-4910728D01*
X5255241Y-5105241D01*
X5060728Y-5327041D01*
X4896828Y-5572334D01*
X4766349Y-5836919D01*
X4671521Y-6116269D01*
X4671518Y-6116283D01*
X4613968Y-6405609D01*
X4613964Y-6405636D01*
X4594671Y-6699992D01*
X4594671Y-6700007D01*
X-1299500Y-6700007D01*
X-1299500Y-3700000D01*
X644357Y-3700000D01*
X664884Y-3921535D01*
X664885Y-3921537D01*
X725769Y-4135523D01*
X725775Y-4135538D01*
X824938Y-4334683D01*
X824943Y-4334691D01*
X959020Y-4512238D01*
X1123437Y-4662123D01*
X1123439Y-4662125D01*
X1312595Y-4779245D01*
X1312596Y-4779245D01*
X1312599Y-4779247D01*
X1520060Y-4859618D01*
X1738757Y-4900500D01*
X1738759Y-4900500D01*
X1961241Y-4900500D01*
X1961243Y-4900500D01*
X2179940Y-4859618D01*
X2387401Y-4779247D01*
X2576562Y-4662124D01*
X2740981Y-4512236D01*
X2875058Y-4334689D01*
X2974229Y-4135528D01*
X3035115Y-3921536D01*
X3055643Y-3700000D01*
X3035115Y-3478464D01*
X2974229Y-3264472D01*
X2974224Y-3264461D01*
X2875061Y-3065316D01*
X2875056Y-3065308D01*
X2740979Y-2887761D01*
X2576562Y-2737876D01*
X2576560Y-2737874D01*
X2387404Y-2620754D01*
X2387398Y-2620752D01*
X2179940Y-2540382D01*
X1961243Y-2499500D01*
X1738757Y-2499500D01*
X1520060Y-2540382D01*
X1388864Y-2591207D01*
X1312601Y-2620752D01*
X1312595Y-2620754D01*
X1123439Y-2737874D01*
X1123437Y-2737876D01*
X959020Y-2887761D01*
X824943Y-3065308D01*
X824938Y-3065316D01*
X725775Y-3264461D01*
X725769Y-3264476D01*
X664885Y-3478462D01*
X664884Y-3478464D01*
X644357Y-3699999D01*
X644357Y-3700000D01*
X-1299500Y-3700000D01*
X-1299500Y-1900003D01*
X32819593Y-1900003D01*
X32839157Y-2073648D01*
X32839159Y-2073657D01*
X32896878Y-2238606D01*
X32989853Y-2386576D01*
X33113424Y-2510147D01*
X33261394Y-2603122D01*
X33426343Y-2660841D01*
X33426349Y-2660841D01*
X33426351Y-2660842D01*
X33599996Y-2680407D01*
X33600000Y-2680407D01*
X33600004Y-2680407D01*
X33773648Y-2660842D01*
X33773647Y-2660842D01*
X33773657Y-2660841D01*
X33938606Y-2603122D01*
X34086576Y-2510147D01*
X34210147Y-2386576D01*
X34303122Y-2238606D01*
X34360841Y-2073657D01*
X34380407Y-1900000D01*
X34360841Y-1726343D01*
X34303122Y-1561394D01*
X34210147Y-1413424D01*
X34086576Y-1289853D01*
X33938606Y-1196878D01*
X33938605Y-1196877D01*
X33938604Y-1196877D01*
X33773658Y-1139159D01*
X33773648Y-1139157D01*
X33600004Y-1119593D01*
X33599996Y-1119593D01*
X33426351Y-1139157D01*
X33426341Y-1139159D01*
X33261395Y-1196877D01*
X33113423Y-1289853D01*
X32989853Y-1413423D01*
X32896877Y-1561395D01*
X32839159Y-1726341D01*
X32839157Y-1726351D01*
X32819593Y-1899996D01*
X32819593Y-1900003D01*
X-1299500Y-1900003D01*
X-1299500Y199997D01*
X15119593Y199997D01*
X15139157Y26352D01*
X15139159Y26342D01*
X15196877Y-138604D01*
X15196878Y-138606D01*
X15289853Y-286576D01*
X15413424Y-410147D01*
X15561394Y-503122D01*
X15726343Y-560841D01*
X15726349Y-560841D01*
X15726351Y-560842D01*
X15899996Y-580407D01*
X15900000Y-580407D01*
X15900004Y-580407D01*
X16073648Y-560842D01*
X16073647Y-560842D01*
X16073657Y-560841D01*
X16238606Y-503122D01*
X16386576Y-410147D01*
X16510147Y-286576D01*
X16603122Y-138606D01*
X16660841Y26343D01*
X16669140Y100000D01*
X16680407Y199997D01*
X19419593Y199997D01*
X19439157Y26352D01*
X19439159Y26342D01*
X19496877Y-138604D01*
X19496878Y-138606D01*
X19589853Y-286576D01*
X19713424Y-410147D01*
X19861394Y-503122D01*
X20026343Y-560841D01*
X20026349Y-560841D01*
X20026351Y-560842D01*
X20199996Y-580407D01*
X20200000Y-580407D01*
X20200004Y-580407D01*
X20373648Y-560842D01*
X20373647Y-560842D01*
X20373657Y-560841D01*
X20538606Y-503122D01*
X20686576Y-410147D01*
X20810147Y-286576D01*
X20903122Y-138606D01*
X20960841Y26343D01*
X20969140Y99997D01*
X24019593Y99997D01*
X24039157Y-73648D01*
X24039159Y-73658D01*
X24096877Y-238604D01*
X24096878Y-238606D01*
X24189853Y-386576D01*
X24313424Y-510147D01*
X24461394Y-603122D01*
X24626343Y-660841D01*
X24626349Y-660841D01*
X24626351Y-660842D01*
X24799996Y-680407D01*
X24800000Y-680407D01*
X24800004Y-680407D01*
X24973648Y-660842D01*
X24973647Y-660842D01*
X24973657Y-660841D01*
X25138606Y-603122D01*
X25286576Y-510147D01*
X25410147Y-386576D01*
X25503122Y-238606D01*
X25560841Y-73657D01*
X25572109Y26352D01*
X25580407Y99997D01*
X25580407Y100004D01*
X25560842Y273649D01*
X25560841Y273651D01*
X25560841Y273657D01*
X25516632Y399997D01*
X27719593Y399997D01*
X27739157Y226352D01*
X27739159Y226342D01*
X27783369Y100000D01*
X27796878Y61394D01*
X27889853Y-86576D01*
X28013424Y-210147D01*
X28161394Y-303122D01*
X28326343Y-360841D01*
X28326349Y-360841D01*
X28326351Y-360842D01*
X28499996Y-380407D01*
X28500000Y-380407D01*
X28500004Y-380407D01*
X28673648Y-360842D01*
X28673647Y-360842D01*
X28673657Y-360841D01*
X28838606Y-303122D01*
X28986576Y-210147D01*
X29110147Y-86576D01*
X29203122Y61394D01*
X29216630Y99997D01*
X35019593Y99997D01*
X35039157Y-73648D01*
X35039159Y-73658D01*
X35096877Y-238604D01*
X35096878Y-238606D01*
X35189853Y-386576D01*
X35313424Y-510147D01*
X35461394Y-603122D01*
X35626343Y-660841D01*
X35626349Y-660841D01*
X35626351Y-660842D01*
X35799996Y-680407D01*
X35800000Y-680407D01*
X35800004Y-680407D01*
X35973648Y-660842D01*
X35973647Y-660842D01*
X35973657Y-660841D01*
X36138606Y-603122D01*
X36286576Y-510147D01*
X36410147Y-386576D01*
X36503122Y-238606D01*
X36560841Y-73657D01*
X36572109Y26352D01*
X36580407Y99997D01*
X36580407Y100004D01*
X36560842Y273649D01*
X36560841Y273651D01*
X36560841Y273657D01*
X36503122Y438606D01*
X36410147Y586576D01*
X36286576Y710147D01*
X36138606Y803122D01*
X36138605Y803123D01*
X36138604Y803123D01*
X35973658Y860841D01*
X35973648Y860843D01*
X35800004Y880407D01*
X35799996Y880407D01*
X35626351Y860843D01*
X35626341Y860841D01*
X35461395Y803123D01*
X35313423Y710147D01*
X35189853Y586577D01*
X35096877Y438605D01*
X35039159Y273659D01*
X35039157Y273649D01*
X35019593Y100004D01*
X35019593Y99997D01*
X29216630Y99997D01*
X29260841Y226343D01*
X29277439Y373659D01*
X29280407Y399997D01*
X29280407Y400004D01*
X29260842Y573649D01*
X29260841Y573651D01*
X29260841Y573657D01*
X29203122Y738606D01*
X29110147Y886576D01*
X28986576Y1010147D01*
X28838606Y1103122D01*
X28838605Y1103123D01*
X28838604Y1103123D01*
X28673658Y1160841D01*
X28673648Y1160843D01*
X28500004Y1180407D01*
X28499996Y1180407D01*
X28326351Y1160843D01*
X28326341Y1160841D01*
X28161395Y1103123D01*
X28013423Y1010147D01*
X27889853Y886577D01*
X27796877Y738605D01*
X27739159Y573659D01*
X27739157Y573649D01*
X27719593Y400004D01*
X27719593Y399997D01*
X25516632Y399997D01*
X25503122Y438606D01*
X25410147Y586576D01*
X25286576Y710147D01*
X25138606Y803122D01*
X25138605Y803123D01*
X25138604Y803123D01*
X24973658Y860841D01*
X24973648Y860843D01*
X24800004Y880407D01*
X24799996Y880407D01*
X24626351Y860843D01*
X24626341Y860841D01*
X24461395Y803123D01*
X24313423Y710147D01*
X24189853Y586577D01*
X24096877Y438605D01*
X24039159Y273659D01*
X24039157Y273649D01*
X24019593Y100004D01*
X24019593Y99997D01*
X20969140Y99997D01*
X20969140Y100000D01*
X20980407Y199997D01*
X20980407Y200004D01*
X20960842Y373649D01*
X20960841Y373651D01*
X20960841Y373657D01*
X20903122Y538606D01*
X20810147Y686576D01*
X20686576Y810147D01*
X20538606Y903122D01*
X20538605Y903123D01*
X20538604Y903123D01*
X20373658Y960841D01*
X20373648Y960843D01*
X20200004Y980407D01*
X20199996Y980407D01*
X20026351Y960843D01*
X20026341Y960841D01*
X19861395Y903123D01*
X19713423Y810147D01*
X19589853Y686577D01*
X19496877Y538605D01*
X19439159Y373659D01*
X19439157Y373649D01*
X19419593Y200004D01*
X19419593Y199997D01*
X16680407Y199997D01*
X16680407Y200004D01*
X16660842Y373649D01*
X16660841Y373651D01*
X16660841Y373657D01*
X16603122Y538606D01*
X16510147Y686576D01*
X16386576Y810147D01*
X16238606Y903122D01*
X16238605Y903123D01*
X16238604Y903123D01*
X16073658Y960841D01*
X16073648Y960843D01*
X15900004Y980407D01*
X15899996Y980407D01*
X15726351Y960843D01*
X15726341Y960841D01*
X15561395Y903123D01*
X15413423Y810147D01*
X15289853Y686577D01*
X15196877Y538605D01*
X15139159Y373659D01*
X15139157Y373649D01*
X15119593Y200004D01*
X15119593Y199997D01*
X-1299500Y199997D01*
X-1299500Y1399997D01*
X7869593Y1399997D01*
X7889157Y1226352D01*
X7889159Y1226342D01*
X7942775Y1073119D01*
X7946878Y1061394D01*
X8039853Y913424D01*
X8163424Y789853D01*
X8311394Y696878D01*
X8476343Y639159D01*
X8476349Y639159D01*
X8476351Y639158D01*
X8649996Y619593D01*
X8650000Y619593D01*
X8650004Y619593D01*
X8823648Y639158D01*
X8823647Y639158D01*
X8823657Y639159D01*
X8988606Y696878D01*
X9136576Y789853D01*
X9260147Y913424D01*
X9353122Y1061394D01*
X9410841Y1226343D01*
X9416172Y1273659D01*
X9422518Y1329985D01*
X12449500Y1329985D01*
X12460000Y1227205D01*
X12460001Y1227203D01*
X12472377Y1189854D01*
X12515186Y1060665D01*
X12515187Y1060663D01*
X12607286Y911349D01*
X12607289Y911345D01*
X12731344Y787290D01*
X12731348Y787287D01*
X12880662Y695188D01*
X12880664Y695187D01*
X12880666Y695186D01*
X13047203Y640001D01*
X13149992Y629500D01*
X13149997Y629500D01*
X14250003Y629500D01*
X14250008Y629500D01*
X14352797Y640001D01*
X14519334Y695186D01*
X14668655Y787289D01*
X14792711Y911345D01*
X14884814Y1060666D01*
X14939999Y1227203D01*
X14950499Y1329985D01*
X20849500Y1329985D01*
X20860000Y1227205D01*
X20860001Y1227203D01*
X20872377Y1189854D01*
X20915186Y1060665D01*
X20915187Y1060663D01*
X21007286Y911349D01*
X21007289Y911345D01*
X21131344Y787290D01*
X21131348Y787287D01*
X21280662Y695188D01*
X21280664Y695187D01*
X21280666Y695186D01*
X21447203Y640001D01*
X21549992Y629500D01*
X21549997Y629500D01*
X22650003Y629500D01*
X22650008Y629500D01*
X22752797Y640001D01*
X22919334Y695186D01*
X23068655Y787289D01*
X23192711Y911345D01*
X23284814Y1060666D01*
X23339999Y1227203D01*
X23350500Y1329992D01*
X23350500Y1880000D01*
X29244723Y1880000D01*
X29257044Y1739161D01*
X29263793Y1662025D01*
X29263793Y1662021D01*
X29320422Y1450678D01*
X29320424Y1450674D01*
X29320425Y1450670D01*
X29326051Y1438606D01*
X29412897Y1252362D01*
X29412898Y1252361D01*
X29538402Y1073123D01*
X29693123Y918402D01*
X29872361Y792898D01*
X30070670Y700425D01*
X30070676Y700424D01*
X30070677Y700423D01*
X30090215Y695188D01*
X30282023Y643793D01*
X30464926Y627792D01*
X30499998Y624723D01*
X30500000Y624723D01*
X30500002Y624723D01*
X30528254Y627195D01*
X30717977Y643793D01*
X30929330Y700425D01*
X31127639Y792898D01*
X31306877Y918402D01*
X31461598Y1073123D01*
X31587102Y1252361D01*
X31623299Y1329985D01*
X32249500Y1329985D01*
X32260000Y1227205D01*
X32260001Y1227203D01*
X32272377Y1189854D01*
X32315186Y1060665D01*
X32315187Y1060663D01*
X32407286Y911349D01*
X32407289Y911345D01*
X32531344Y787290D01*
X32531348Y787287D01*
X32680662Y695188D01*
X32680664Y695187D01*
X32680666Y695186D01*
X32847203Y640001D01*
X32949992Y629500D01*
X32949997Y629500D01*
X34050003Y629500D01*
X34050008Y629500D01*
X34152797Y640001D01*
X34319334Y695186D01*
X34468655Y787289D01*
X34592711Y911345D01*
X34684814Y1060666D01*
X34739999Y1227203D01*
X34750500Y1329992D01*
X34750500Y1880000D01*
X40944723Y1880000D01*
X40957044Y1739161D01*
X40963793Y1662025D01*
X40963793Y1662021D01*
X41020422Y1450678D01*
X41020424Y1450674D01*
X41020425Y1450670D01*
X41026051Y1438606D01*
X41112897Y1252362D01*
X41112898Y1252361D01*
X41238402Y1073123D01*
X41393123Y918402D01*
X41572361Y792898D01*
X41770670Y700425D01*
X41770676Y700424D01*
X41770677Y700423D01*
X41790215Y695188D01*
X41982023Y643793D01*
X42164926Y627792D01*
X42199998Y624723D01*
X42200000Y624723D01*
X42200002Y624723D01*
X42228254Y627195D01*
X42417977Y643793D01*
X42629330Y700425D01*
X42827639Y792898D01*
X43006877Y918402D01*
X43161598Y1073123D01*
X43287102Y1252361D01*
X43323299Y1329985D01*
X43949500Y1329985D01*
X43960000Y1227205D01*
X43960001Y1227203D01*
X43972377Y1189854D01*
X44015186Y1060665D01*
X44015187Y1060663D01*
X44107286Y911349D01*
X44107289Y911345D01*
X44231344Y787290D01*
X44231348Y787287D01*
X44380662Y695188D01*
X44380664Y695187D01*
X44380666Y695186D01*
X44547203Y640001D01*
X44649992Y629500D01*
X44649997Y629500D01*
X45750003Y629500D01*
X45750008Y629500D01*
X45852797Y640001D01*
X46019334Y695186D01*
X46168655Y787289D01*
X46292711Y911345D01*
X46384814Y1060666D01*
X46439999Y1227203D01*
X46450500Y1329992D01*
X46450500Y2430008D01*
X46443350Y2499997D01*
X59819593Y2499997D01*
X59839157Y2326352D01*
X59839159Y2326342D01*
X59877646Y2216354D01*
X59896878Y2161394D01*
X59989853Y2013424D01*
X60113424Y1889853D01*
X60261394Y1796878D01*
X60426343Y1739159D01*
X60429462Y1738808D01*
X60431341Y1738019D01*
X60433138Y1737608D01*
X60433066Y1737294D01*
X60493875Y1711748D01*
X60533435Y1654156D01*
X60538806Y1629470D01*
X60539157Y1626352D01*
X60539159Y1626342D01*
X60596877Y1461396D01*
X60596878Y1461394D01*
X60689853Y1313424D01*
X60813424Y1189853D01*
X60961394Y1096878D01*
X61126343Y1039159D01*
X61129462Y1038808D01*
X61131341Y1038019D01*
X61133138Y1037608D01*
X61133066Y1037294D01*
X61193875Y1011748D01*
X61233435Y954156D01*
X61238806Y929470D01*
X61239157Y926352D01*
X61239159Y926342D01*
X61296877Y761396D01*
X61296878Y761394D01*
X61389853Y613424D01*
X61513424Y489853D01*
X61661394Y396878D01*
X61826343Y339159D01*
X61826349Y339159D01*
X61826351Y339158D01*
X61999996Y319593D01*
X62000000Y319593D01*
X62000004Y319593D01*
X62173648Y339158D01*
X62173647Y339158D01*
X62173657Y339159D01*
X62338606Y396878D01*
X62486576Y489853D01*
X62610147Y613424D01*
X62703122Y761394D01*
X62760841Y926343D01*
X62764728Y960843D01*
X62780407Y1099997D01*
X62780407Y1100004D01*
X62760842Y1273649D01*
X62760841Y1273651D01*
X62760841Y1273657D01*
X62703122Y1438606D01*
X62610147Y1586576D01*
X62486576Y1710147D01*
X62338606Y1803122D01*
X62338605Y1803123D01*
X62338604Y1803123D01*
X62173658Y1860841D01*
X62173648Y1860843D01*
X62170530Y1861194D01*
X62168650Y1861984D01*
X62166862Y1862392D01*
X62166933Y1862706D01*
X62106116Y1888260D01*
X62066561Y1945855D01*
X62061193Y1970531D01*
X62060841Y1973657D01*
X62003122Y2138606D01*
X61910147Y2286576D01*
X61786576Y2410147D01*
X61638606Y2503122D01*
X61638605Y2503123D01*
X61638604Y2503123D01*
X61473658Y2560841D01*
X61473648Y2560843D01*
X61470530Y2561194D01*
X61468650Y2561984D01*
X61466862Y2562392D01*
X61466933Y2562706D01*
X61406116Y2588260D01*
X61366561Y2645855D01*
X61361193Y2670531D01*
X61360841Y2673657D01*
X61303122Y2838606D01*
X61210147Y2986576D01*
X61086576Y3110147D01*
X60938606Y3203122D01*
X60938605Y3203123D01*
X60938604Y3203123D01*
X60773658Y3260841D01*
X60773648Y3260843D01*
X60600004Y3280407D01*
X60599996Y3280407D01*
X60426351Y3260843D01*
X60426341Y3260841D01*
X60261395Y3203123D01*
X60113423Y3110147D01*
X59989853Y2986577D01*
X59896877Y2838605D01*
X59839159Y2673659D01*
X59839157Y2673649D01*
X59819593Y2500004D01*
X59819593Y2499997D01*
X46443350Y2499997D01*
X46439999Y2532797D01*
X46384814Y2699334D01*
X46311582Y2818060D01*
X46292713Y2848652D01*
X46292710Y2848656D01*
X46168655Y2972711D01*
X46168651Y2972714D01*
X46019337Y3064813D01*
X46019335Y3064814D01*
X45864240Y3116207D01*
X45852797Y3119999D01*
X45852795Y3120000D01*
X45750015Y3130500D01*
X45750008Y3130500D01*
X44649992Y3130500D01*
X44649984Y3130500D01*
X44547204Y3120000D01*
X44547203Y3119999D01*
X44380664Y3064814D01*
X44380662Y3064813D01*
X44231348Y2972714D01*
X44231344Y2972711D01*
X44107289Y2848656D01*
X44107286Y2848652D01*
X44015187Y2699338D01*
X44015186Y2699336D01*
X43960001Y2532797D01*
X43960000Y2532796D01*
X43949500Y2430016D01*
X43949500Y1329985D01*
X43323299Y1329985D01*
X43379575Y1450670D01*
X43436207Y1662023D01*
X43455277Y1880000D01*
X43454554Y1888260D01*
X43451569Y1922382D01*
X43436207Y2097977D01*
X43379575Y2309330D01*
X43287102Y2507638D01*
X43287100Y2507641D01*
X43287099Y2507643D01*
X43161599Y2686876D01*
X43137922Y2710553D01*
X43006877Y2841598D01*
X42827639Y2967102D01*
X42827640Y2967102D01*
X42827638Y2967103D01*
X42728484Y3013339D01*
X42629330Y3059575D01*
X42629326Y3059576D01*
X42629322Y3059578D01*
X42417977Y3116207D01*
X42200002Y3135277D01*
X42199998Y3135277D01*
X42054682Y3122564D01*
X41982023Y3116207D01*
X41982020Y3116207D01*
X41770677Y3059578D01*
X41770668Y3059574D01*
X41572361Y2967102D01*
X41572357Y2967100D01*
X41393121Y2841598D01*
X41238402Y2686879D01*
X41112900Y2507643D01*
X41112898Y2507639D01*
X41020426Y2309332D01*
X41020422Y2309323D01*
X40963793Y2097980D01*
X40963793Y2097976D01*
X40945446Y1888260D01*
X40944723Y1880000D01*
X34750500Y1880000D01*
X34750500Y2430008D01*
X34739999Y2532797D01*
X34684814Y2699334D01*
X34611582Y2818060D01*
X34592713Y2848652D01*
X34592710Y2848656D01*
X34468655Y2972711D01*
X34468651Y2972714D01*
X34319337Y3064813D01*
X34319335Y3064814D01*
X34164240Y3116207D01*
X34152797Y3119999D01*
X34152795Y3120000D01*
X34050015Y3130500D01*
X34050008Y3130500D01*
X32949992Y3130500D01*
X32949984Y3130500D01*
X32847204Y3120000D01*
X32847203Y3119999D01*
X32680664Y3064814D01*
X32680662Y3064813D01*
X32531348Y2972714D01*
X32531344Y2972711D01*
X32407289Y2848656D01*
X32407286Y2848652D01*
X32315187Y2699338D01*
X32315186Y2699336D01*
X32260001Y2532797D01*
X32260000Y2532796D01*
X32249500Y2430016D01*
X32249500Y1329985D01*
X31623299Y1329985D01*
X31679575Y1450670D01*
X31736207Y1662023D01*
X31755277Y1880000D01*
X31754554Y1888260D01*
X31751569Y1922382D01*
X31736207Y2097977D01*
X31679575Y2309330D01*
X31587102Y2507638D01*
X31587100Y2507641D01*
X31587099Y2507643D01*
X31461599Y2686876D01*
X31437922Y2710553D01*
X31306877Y2841598D01*
X31127639Y2967102D01*
X31127640Y2967102D01*
X31127638Y2967103D01*
X31028484Y3013339D01*
X30929330Y3059575D01*
X30929326Y3059576D01*
X30929322Y3059578D01*
X30717977Y3116207D01*
X30500002Y3135277D01*
X30499998Y3135277D01*
X30354682Y3122564D01*
X30282023Y3116207D01*
X30282020Y3116207D01*
X30070677Y3059578D01*
X30070668Y3059574D01*
X29872361Y2967102D01*
X29872357Y2967100D01*
X29693121Y2841598D01*
X29538402Y2686879D01*
X29412900Y2507643D01*
X29412898Y2507639D01*
X29320426Y2309332D01*
X29320422Y2309323D01*
X29263793Y2097980D01*
X29263793Y2097976D01*
X29245446Y1888260D01*
X29244723Y1880000D01*
X23350500Y1880000D01*
X23350500Y2430008D01*
X23339999Y2532797D01*
X23284814Y2699334D01*
X23211582Y2818060D01*
X23192713Y2848652D01*
X23192710Y2848656D01*
X23068655Y2972711D01*
X23068651Y2972714D01*
X22919337Y3064813D01*
X22919335Y3064814D01*
X22764240Y3116207D01*
X22752797Y3119999D01*
X22752795Y3120000D01*
X22650015Y3130500D01*
X22650008Y3130500D01*
X21549992Y3130500D01*
X21549984Y3130500D01*
X21447204Y3120000D01*
X21447203Y3119999D01*
X21280664Y3064814D01*
X21280662Y3064813D01*
X21131348Y2972714D01*
X21131344Y2972711D01*
X21007289Y2848656D01*
X21007286Y2848652D01*
X20915187Y2699338D01*
X20915186Y2699336D01*
X20860001Y2532797D01*
X20860000Y2532796D01*
X20849500Y2430016D01*
X20849500Y1329985D01*
X14950499Y1329985D01*
X14950500Y1329992D01*
X14950500Y2430008D01*
X14939999Y2532797D01*
X14884814Y2699334D01*
X14811582Y2818060D01*
X14792713Y2848652D01*
X14792710Y2848656D01*
X14668655Y2972711D01*
X14668651Y2972714D01*
X14519337Y3064813D01*
X14519335Y3064814D01*
X14364240Y3116207D01*
X14352797Y3119999D01*
X14352795Y3120000D01*
X14250015Y3130500D01*
X14250008Y3130500D01*
X13149992Y3130500D01*
X13149984Y3130500D01*
X13047204Y3120000D01*
X13047203Y3119999D01*
X12880664Y3064814D01*
X12880662Y3064813D01*
X12731348Y2972714D01*
X12731344Y2972711D01*
X12607289Y2848656D01*
X12607286Y2848652D01*
X12515187Y2699338D01*
X12515186Y2699336D01*
X12460001Y2532797D01*
X12460000Y2532796D01*
X12449500Y2430016D01*
X12449500Y1329985D01*
X9422518Y1329985D01*
X9430407Y1399997D01*
X9430407Y1400004D01*
X9410842Y1573649D01*
X9410841Y1573651D01*
X9410841Y1573657D01*
X9353122Y1738606D01*
X9260147Y1886576D01*
X9136576Y2010147D01*
X8988606Y2103122D01*
X8988605Y2103123D01*
X8988604Y2103123D01*
X8823658Y2160841D01*
X8823648Y2160843D01*
X8650004Y2180407D01*
X8649996Y2180407D01*
X8476351Y2160843D01*
X8476341Y2160841D01*
X8311395Y2103123D01*
X8163423Y2010147D01*
X8039853Y1886577D01*
X7946877Y1738605D01*
X7889159Y1573659D01*
X7889157Y1573649D01*
X7869593Y1400004D01*
X7869593Y1399997D01*
X-1299500Y1399997D01*
X-1299500Y3832091D01*
X641779Y3832091D01*
X671468Y3562265D01*
X671470Y3562252D01*
X706127Y3429685D01*
X740132Y3299616D01*
X846303Y3049776D01*
X896758Y2967102D01*
X987716Y2818060D01*
X987717Y2818058D01*
X1096888Y2686876D01*
X1131026Y2645855D01*
X1161369Y2609395D01*
X1213477Y2562706D01*
X1363546Y2428243D01*
X1589947Y2278458D01*
X1835743Y2163233D01*
X2095697Y2085025D01*
X2364268Y2045500D01*
X2364273Y2045500D01*
X2567779Y2045500D01*
X2567781Y2045500D01*
X2567786Y2045501D01*
X2567798Y2045501D01*
X2605424Y2048256D01*
X2770740Y2060355D01*
X2881488Y2085025D01*
X3035702Y2119377D01*
X3035704Y2119378D01*
X3035709Y2119379D01*
X3289261Y2216354D01*
X3525991Y2349214D01*
X3740853Y2515125D01*
X3929269Y2710553D01*
X4087223Y2931332D01*
X4211348Y3172756D01*
X4298998Y3429680D01*
X4348306Y3696629D01*
X4348960Y3714522D01*
X13241625Y3714522D01*
X13270844Y3700896D01*
X13482105Y3644290D01*
X13482115Y3644288D01*
X13699999Y3625225D01*
X13700001Y3625225D01*
X13917884Y3644288D01*
X13917891Y3644289D01*
X14129159Y3700899D01*
X14158373Y3714522D01*
X21641625Y3714522D01*
X21670844Y3700896D01*
X21882105Y3644290D01*
X21882115Y3644288D01*
X22099999Y3625225D01*
X22100001Y3625225D01*
X22317884Y3644288D01*
X22317891Y3644289D01*
X22529159Y3700899D01*
X22558373Y3714522D01*
X22096531Y4176364D01*
X22083350Y4167557D01*
X22080315Y4157219D01*
X22063681Y4136577D01*
X21641625Y3714522D01*
X14158373Y3714522D01*
X13696531Y4176364D01*
X13683350Y4167557D01*
X13680315Y4157219D01*
X13663681Y4136577D01*
X13241625Y3714522D01*
X4348960Y3714522D01*
X4358220Y3967911D01*
X4328530Y4237747D01*
X4259868Y4500384D01*
X4153697Y4750224D01*
X4074496Y4880000D01*
X12445225Y4880000D01*
X12464287Y4662116D01*
X12464289Y4662106D01*
X12520894Y4450850D01*
X12534520Y4421628D01*
X12919565Y4806673D01*
X13190000Y4806673D01*
X13231318Y4665960D01*
X13310605Y4542587D01*
X13421438Y4446549D01*
X13554839Y4385627D01*
X13663527Y4370000D01*
X13736473Y4370000D01*
X13845161Y4385627D01*
X13978562Y4446549D01*
X14089395Y4542587D01*
X14168682Y4665960D01*
X14210000Y4806673D01*
X14210000Y4883469D01*
X14403636Y4883469D01*
X14865478Y4421627D01*
X14879101Y4450841D01*
X14935711Y4662109D01*
X14935712Y4662116D01*
X14954775Y4880000D01*
X20845225Y4880000D01*
X20864287Y4662116D01*
X20864289Y4662106D01*
X20920894Y4450850D01*
X20934520Y4421628D01*
X21319565Y4806673D01*
X21590000Y4806673D01*
X21631318Y4665960D01*
X21710605Y4542587D01*
X21821438Y4446549D01*
X21954839Y4385627D01*
X22063527Y4370000D01*
X22136473Y4370000D01*
X22245161Y4385627D01*
X22378562Y4446549D01*
X22489395Y4542587D01*
X22568682Y4665960D01*
X22610000Y4806673D01*
X22610000Y4883469D01*
X22803636Y4883469D01*
X23265478Y4421627D01*
X23279101Y4450841D01*
X23335711Y4662109D01*
X23335712Y4662116D01*
X23354775Y4880000D01*
X29244723Y4880000D01*
X29263785Y4662109D01*
X29263793Y4662025D01*
X29263793Y4662021D01*
X29320422Y4450678D01*
X29320424Y4450674D01*
X29320425Y4450670D01*
X29322347Y4446549D01*
X29412897Y4252362D01*
X29437998Y4216514D01*
X29538402Y4073123D01*
X29693123Y3918402D01*
X29872361Y3792898D01*
X30070670Y3700425D01*
X30070676Y3700424D01*
X30070677Y3700423D01*
X30084837Y3696629D01*
X30282023Y3643793D01*
X30464926Y3627792D01*
X30499998Y3624723D01*
X30500000Y3624723D01*
X30500002Y3624723D01*
X30528254Y3627195D01*
X30717977Y3643793D01*
X30929330Y3700425D01*
X31127639Y3792898D01*
X31306877Y3918402D01*
X31461598Y4073123D01*
X31587102Y4252361D01*
X31679575Y4450670D01*
X31736207Y4662023D01*
X31755277Y4880000D01*
X32244723Y4880000D01*
X32263785Y4662109D01*
X32263793Y4662025D01*
X32263793Y4662021D01*
X32320422Y4450678D01*
X32320424Y4450674D01*
X32320425Y4450670D01*
X32322347Y4446549D01*
X32412897Y4252362D01*
X32437998Y4216514D01*
X32538402Y4073123D01*
X32693123Y3918402D01*
X32872361Y3792898D01*
X33070670Y3700425D01*
X33070676Y3700424D01*
X33070677Y3700423D01*
X33084837Y3696629D01*
X33282023Y3643793D01*
X33464926Y3627792D01*
X33499998Y3624723D01*
X33500000Y3624723D01*
X33500002Y3624723D01*
X33528254Y3627195D01*
X33717977Y3643793D01*
X33929330Y3700425D01*
X34127639Y3792898D01*
X34306877Y3918402D01*
X34461598Y4073123D01*
X34587102Y4252361D01*
X34679575Y4450670D01*
X34736207Y4662023D01*
X34755277Y4880000D01*
X40944723Y4880000D01*
X40963785Y4662109D01*
X40963793Y4662025D01*
X40963793Y4662021D01*
X41020422Y4450678D01*
X41020424Y4450674D01*
X41020425Y4450670D01*
X41022347Y4446549D01*
X41112897Y4252362D01*
X41137998Y4216514D01*
X41238402Y4073123D01*
X41393123Y3918402D01*
X41572361Y3792898D01*
X41770670Y3700425D01*
X41770676Y3700424D01*
X41770677Y3700423D01*
X41784837Y3696629D01*
X41982023Y3643793D01*
X42164926Y3627792D01*
X42199998Y3624723D01*
X42200000Y3624723D01*
X42200002Y3624723D01*
X42228254Y3627195D01*
X42417977Y3643793D01*
X42629330Y3700425D01*
X42827639Y3792898D01*
X43006877Y3918402D01*
X43161598Y4073123D01*
X43287102Y4252361D01*
X43379575Y4450670D01*
X43436207Y4662023D01*
X43455277Y4880000D01*
X43944723Y4880000D01*
X43963785Y4662109D01*
X43963793Y4662025D01*
X43963793Y4662021D01*
X44020422Y4450678D01*
X44020424Y4450674D01*
X44020425Y4450670D01*
X44022347Y4446549D01*
X44112897Y4252362D01*
X44137998Y4216514D01*
X44238402Y4073123D01*
X44393123Y3918402D01*
X44572361Y3792898D01*
X44770670Y3700425D01*
X44770676Y3700424D01*
X44770677Y3700423D01*
X44784837Y3696629D01*
X44982023Y3643793D01*
X45164926Y3627792D01*
X45199998Y3624723D01*
X45200000Y3624723D01*
X45200002Y3624723D01*
X45228254Y3627195D01*
X45417977Y3643793D01*
X45629330Y3700425D01*
X45827639Y3792898D01*
X45883612Y3832091D01*
X73641779Y3832091D01*
X73671468Y3562265D01*
X73671470Y3562252D01*
X73706127Y3429685D01*
X73740132Y3299616D01*
X73846303Y3049776D01*
X73896758Y2967102D01*
X73987716Y2818060D01*
X73987717Y2818058D01*
X74096888Y2686876D01*
X74131026Y2645855D01*
X74161369Y2609395D01*
X74213477Y2562706D01*
X74363546Y2428243D01*
X74589947Y2278458D01*
X74835743Y2163233D01*
X75095697Y2085025D01*
X75364268Y2045500D01*
X75364273Y2045500D01*
X75567779Y2045500D01*
X75567781Y2045500D01*
X75567786Y2045501D01*
X75567798Y2045501D01*
X75605424Y2048256D01*
X75770740Y2060355D01*
X75881488Y2085025D01*
X76035702Y2119377D01*
X76035704Y2119378D01*
X76035709Y2119379D01*
X76289261Y2216354D01*
X76525991Y2349214D01*
X76740853Y2515125D01*
X76929269Y2710553D01*
X77087223Y2931332D01*
X77211348Y3172756D01*
X77298998Y3429680D01*
X77348306Y3696629D01*
X77358220Y3967911D01*
X77328530Y4237747D01*
X77259868Y4500384D01*
X77153697Y4750224D01*
X77012281Y4981944D01*
X76994810Y5002937D01*
X76922814Y5089449D01*
X76838632Y5190604D01*
X76808711Y5217413D01*
X76636454Y5371757D01*
X76410055Y5521541D01*
X76410053Y5521542D01*
X76164257Y5636767D01*
X75904303Y5714975D01*
X75904301Y5714976D01*
X75904299Y5714976D01*
X75807999Y5729148D01*
X75635732Y5754500D01*
X75432219Y5754500D01*
X75432201Y5754500D01*
X75229260Y5739645D01*
X75229246Y5739643D01*
X74964297Y5680624D01*
X74964290Y5680621D01*
X74710736Y5583645D01*
X74474012Y5450789D01*
X74259140Y5284870D01*
X74259139Y5284868D01*
X74070734Y5089451D01*
X74070732Y5089449D01*
X73912778Y4868671D01*
X73788656Y4627254D01*
X73788649Y4627238D01*
X73701005Y4370334D01*
X73701001Y4370316D01*
X73651693Y4103369D01*
X73651693Y4103367D01*
X73641779Y3832091D01*
X45883612Y3832091D01*
X46006877Y3918402D01*
X46161598Y4073123D01*
X46287102Y4252361D01*
X46379575Y4450670D01*
X46436207Y4662023D01*
X46455277Y4880000D01*
X46436207Y5097977D01*
X46379575Y5309330D01*
X46287102Y5507638D01*
X46287100Y5507641D01*
X46287099Y5507643D01*
X46161599Y5686876D01*
X46093975Y5754500D01*
X46073229Y5775246D01*
X47431598Y5775246D01*
X47462630Y5599253D01*
X47462631Y5599250D01*
X47462632Y5599246D01*
X47533417Y5435148D01*
X47533418Y5435146D01*
X47533420Y5435143D01*
X47624017Y5313451D01*
X47640138Y5291797D01*
X47777041Y5176922D01*
X47856893Y5136819D01*
X47936745Y5096715D01*
X48110642Y5055500D01*
X48110643Y5055500D01*
X48244517Y5055500D01*
X48244524Y5055500D01*
X48377506Y5071043D01*
X48545443Y5132167D01*
X48694756Y5230373D01*
X48817397Y5360365D01*
X48906755Y5515136D01*
X48958010Y5686342D01*
X48968402Y5864754D01*
X48937368Y6040754D01*
X48866583Y6204852D01*
X48759862Y6348203D01*
X48622959Y6463078D01*
X48622251Y6463434D01*
X48463254Y6543286D01*
X48289358Y6584500D01*
X48289357Y6584500D01*
X48155476Y6584500D01*
X48052045Y6572411D01*
X48022492Y6568957D01*
X48022490Y6568956D01*
X47854557Y6507834D01*
X47854556Y6507834D01*
X47705246Y6409629D01*
X47705240Y6409624D01*
X47582604Y6279637D01*
X47582600Y6279632D01*
X47493246Y6124867D01*
X47441991Y5953662D01*
X47441989Y5953654D01*
X47431598Y5775247D01*
X47431598Y5775246D01*
X46073229Y5775246D01*
X46006877Y5841598D01*
X45846839Y5953658D01*
X45827638Y5967103D01*
X45723253Y6015778D01*
X45629330Y6059575D01*
X45629326Y6059576D01*
X45629322Y6059578D01*
X45417977Y6116207D01*
X45200002Y6135277D01*
X45199998Y6135277D01*
X45054682Y6122564D01*
X44982023Y6116207D01*
X44982020Y6116207D01*
X44770677Y6059578D01*
X44770668Y6059574D01*
X44572361Y5967102D01*
X44572357Y5967100D01*
X44393121Y5841598D01*
X44238402Y5686879D01*
X44112900Y5507643D01*
X44112898Y5507639D01*
X44020426Y5309332D01*
X44020422Y5309323D01*
X43963793Y5097980D01*
X43963793Y5097976D01*
X43947730Y4914367D01*
X43944723Y4880000D01*
X43455277Y4880000D01*
X43436207Y5097977D01*
X43379575Y5309330D01*
X43287102Y5507638D01*
X43287100Y5507641D01*
X43287099Y5507643D01*
X43161599Y5686876D01*
X43093975Y5754500D01*
X43006877Y5841598D01*
X42846839Y5953658D01*
X42827638Y5967103D01*
X42723253Y6015778D01*
X42629330Y6059575D01*
X42629326Y6059576D01*
X42629322Y6059578D01*
X42417977Y6116207D01*
X42200002Y6135277D01*
X42199998Y6135277D01*
X42054682Y6122564D01*
X41982023Y6116207D01*
X41982020Y6116207D01*
X41770677Y6059578D01*
X41770668Y6059574D01*
X41572361Y5967102D01*
X41572357Y5967100D01*
X41393121Y5841598D01*
X41238402Y5686879D01*
X41112900Y5507643D01*
X41112898Y5507639D01*
X41020426Y5309332D01*
X41020422Y5309323D01*
X40963793Y5097980D01*
X40963793Y5097976D01*
X40947730Y4914367D01*
X40944723Y4880000D01*
X34755277Y4880000D01*
X34736207Y5097977D01*
X34679575Y5309330D01*
X34587102Y5507638D01*
X34587100Y5507641D01*
X34587099Y5507643D01*
X34461599Y5686876D01*
X34393975Y5754500D01*
X34373229Y5775246D01*
X35731598Y5775246D01*
X35762630Y5599253D01*
X35762631Y5599250D01*
X35762632Y5599246D01*
X35833417Y5435148D01*
X35833418Y5435146D01*
X35833420Y5435143D01*
X35924017Y5313451D01*
X35940138Y5291797D01*
X36077041Y5176922D01*
X36156893Y5136819D01*
X36236745Y5096715D01*
X36410642Y5055500D01*
X36410643Y5055500D01*
X36544517Y5055500D01*
X36544524Y5055500D01*
X36677506Y5071043D01*
X36845443Y5132167D01*
X36994756Y5230373D01*
X37117397Y5360365D01*
X37206755Y5515136D01*
X37258010Y5686342D01*
X37263188Y5775246D01*
X38431598Y5775246D01*
X38462630Y5599253D01*
X38462631Y5599250D01*
X38462632Y5599246D01*
X38533417Y5435148D01*
X38533418Y5435146D01*
X38533420Y5435143D01*
X38624017Y5313451D01*
X38640138Y5291797D01*
X38777041Y5176922D01*
X38856893Y5136819D01*
X38936745Y5096715D01*
X39110642Y5055500D01*
X39110643Y5055500D01*
X39244517Y5055500D01*
X39244524Y5055500D01*
X39377506Y5071043D01*
X39545443Y5132167D01*
X39694756Y5230373D01*
X39817397Y5360365D01*
X39906755Y5515136D01*
X39958010Y5686342D01*
X39968402Y5864754D01*
X39937368Y6040754D01*
X39866583Y6204852D01*
X39759862Y6348203D01*
X39622959Y6463078D01*
X39622251Y6463434D01*
X39463254Y6543286D01*
X39289358Y6584500D01*
X39289357Y6584500D01*
X39155476Y6584500D01*
X39052045Y6572411D01*
X39022492Y6568957D01*
X39022490Y6568956D01*
X38854557Y6507834D01*
X38854556Y6507834D01*
X38705246Y6409629D01*
X38705240Y6409624D01*
X38582604Y6279637D01*
X38582600Y6279632D01*
X38493246Y6124867D01*
X38441991Y5953662D01*
X38441989Y5953654D01*
X38431598Y5775247D01*
X38431598Y5775246D01*
X37263188Y5775246D01*
X37268402Y5864754D01*
X37237368Y6040754D01*
X37166583Y6204852D01*
X37059862Y6348203D01*
X36922959Y6463078D01*
X36922251Y6463434D01*
X36763254Y6543286D01*
X36589358Y6584500D01*
X36589357Y6584500D01*
X36455476Y6584500D01*
X36352045Y6572411D01*
X36322492Y6568957D01*
X36322490Y6568956D01*
X36154557Y6507834D01*
X36154556Y6507834D01*
X36005246Y6409629D01*
X36005240Y6409624D01*
X35882604Y6279637D01*
X35882600Y6279632D01*
X35793246Y6124867D01*
X35741991Y5953662D01*
X35741989Y5953654D01*
X35731598Y5775247D01*
X35731598Y5775246D01*
X34373229Y5775246D01*
X34306877Y5841598D01*
X34146839Y5953658D01*
X34127638Y5967103D01*
X34023253Y6015778D01*
X33929330Y6059575D01*
X33929326Y6059576D01*
X33929322Y6059578D01*
X33717977Y6116207D01*
X33500002Y6135277D01*
X33499998Y6135277D01*
X33354682Y6122564D01*
X33282023Y6116207D01*
X33282020Y6116207D01*
X33070677Y6059578D01*
X33070668Y6059574D01*
X32872361Y5967102D01*
X32872357Y5967100D01*
X32693121Y5841598D01*
X32538402Y5686879D01*
X32412900Y5507643D01*
X32412898Y5507639D01*
X32320426Y5309332D01*
X32320422Y5309323D01*
X32263793Y5097980D01*
X32263793Y5097976D01*
X32247730Y4914367D01*
X32244723Y4880000D01*
X31755277Y4880000D01*
X31736207Y5097977D01*
X31679575Y5309330D01*
X31587102Y5507638D01*
X31587100Y5507641D01*
X31587099Y5507643D01*
X31461599Y5686876D01*
X31393975Y5754500D01*
X31306877Y5841598D01*
X31146839Y5953658D01*
X31127638Y5967103D01*
X31023253Y6015778D01*
X30929330Y6059575D01*
X30929326Y6059576D01*
X30929322Y6059578D01*
X30717977Y6116207D01*
X30500002Y6135277D01*
X30499998Y6135277D01*
X30354682Y6122564D01*
X30282023Y6116207D01*
X30282020Y6116207D01*
X30070677Y6059578D01*
X30070668Y6059574D01*
X29872361Y5967102D01*
X29872357Y5967100D01*
X29693121Y5841598D01*
X29538402Y5686879D01*
X29412900Y5507643D01*
X29412898Y5507639D01*
X29320426Y5309332D01*
X29320422Y5309323D01*
X29263793Y5097980D01*
X29263793Y5097976D01*
X29247730Y4914367D01*
X29244723Y4880000D01*
X23354775Y4880000D01*
X23354775Y4880001D01*
X23335712Y5097885D01*
X23335710Y5097895D01*
X23279104Y5309156D01*
X23265478Y5338375D01*
X22843424Y4916319D01*
X22815339Y4900984D01*
X22803636Y4883469D01*
X22610000Y4883469D01*
X22610000Y4953327D01*
X22568682Y5094040D01*
X22489395Y5217413D01*
X22378562Y5313451D01*
X22245161Y5374373D01*
X22136473Y5390000D01*
X22063527Y5390000D01*
X21954839Y5374373D01*
X21821438Y5313451D01*
X21710605Y5217413D01*
X21631318Y5094040D01*
X21590000Y4953327D01*
X21590000Y4806673D01*
X21319565Y4806673D01*
X21392893Y4880001D01*
X21392892Y4880002D01*
X20934520Y5338375D01*
X20934519Y5338374D01*
X20920897Y5309161D01*
X20920897Y5309159D01*
X20864289Y5097895D01*
X20864287Y5097885D01*
X20845225Y4880001D01*
X20845225Y4880000D01*
X14954775Y4880000D01*
X14954775Y4880001D01*
X14935712Y5097885D01*
X14935710Y5097895D01*
X14879104Y5309156D01*
X14865478Y5338375D01*
X14443424Y4916319D01*
X14415339Y4900984D01*
X14403636Y4883469D01*
X14210000Y4883469D01*
X14210000Y4953327D01*
X14168682Y5094040D01*
X14089395Y5217413D01*
X13978562Y5313451D01*
X13845161Y5374373D01*
X13736473Y5390000D01*
X13663527Y5390000D01*
X13554839Y5374373D01*
X13421438Y5313451D01*
X13310605Y5217413D01*
X13231318Y5094040D01*
X13190000Y4953327D01*
X13190000Y4806673D01*
X12919565Y4806673D01*
X12992893Y4880001D01*
X12992892Y4880002D01*
X12534520Y5338375D01*
X12534519Y5338374D01*
X12520897Y5309161D01*
X12520897Y5309159D01*
X12464289Y5097895D01*
X12464287Y5097885D01*
X12445225Y4880001D01*
X12445225Y4880000D01*
X4074496Y4880000D01*
X4012281Y4981944D01*
X3994810Y5002937D01*
X3922814Y5089449D01*
X3838632Y5190604D01*
X3808711Y5217413D01*
X3636454Y5371757D01*
X3410055Y5521541D01*
X3410053Y5521542D01*
X3164257Y5636767D01*
X2904303Y5714975D01*
X2904301Y5714976D01*
X2904299Y5714976D01*
X2807999Y5729148D01*
X2635732Y5754500D01*
X2432219Y5754500D01*
X2432201Y5754500D01*
X2229260Y5739645D01*
X2229246Y5739643D01*
X1964297Y5680624D01*
X1964290Y5680621D01*
X1710736Y5583645D01*
X1474012Y5450789D01*
X1259140Y5284870D01*
X1259139Y5284868D01*
X1070734Y5089451D01*
X1070732Y5089449D01*
X912778Y4868671D01*
X788656Y4627254D01*
X788649Y4627238D01*
X701005Y4370334D01*
X701001Y4370316D01*
X651693Y4103369D01*
X651693Y4103367D01*
X641779Y3832091D01*
X-1299500Y3832091D01*
X-1299500Y3896948D01*
X-1299351Y3903032D01*
X-1289509Y4103371D01*
X-1281503Y4266341D01*
X-1280310Y4278445D01*
X-1266729Y4370000D01*
X-1227386Y4635235D01*
X-1225019Y4647137D01*
X-1137369Y4997053D01*
X-1133848Y5008659D01*
X-1012328Y5348283D01*
X-1007686Y5359491D01*
X-853453Y5685591D01*
X-847738Y5696283D01*
X-800409Y5775246D01*
X9931598Y5775246D01*
X9962630Y5599253D01*
X9962631Y5599250D01*
X9962632Y5599246D01*
X10033417Y5435148D01*
X10033418Y5435146D01*
X10033420Y5435143D01*
X10124017Y5313451D01*
X10140138Y5291797D01*
X10277041Y5176922D01*
X10356893Y5136819D01*
X10436745Y5096715D01*
X10610642Y5055500D01*
X10610643Y5055500D01*
X10744517Y5055500D01*
X10744524Y5055500D01*
X10877506Y5071043D01*
X11045443Y5132167D01*
X11194756Y5230373D01*
X11317397Y5360365D01*
X11406755Y5515136D01*
X11458010Y5686342D01*
X11468402Y5864754D01*
X11437368Y6040754D01*
X11435329Y6045480D01*
X13241625Y6045480D01*
X13699998Y5587108D01*
X13699999Y5587107D01*
X13700000Y5587107D01*
X13700000Y5587108D01*
X13888138Y5775246D01*
X15931598Y5775246D01*
X15962630Y5599253D01*
X15962631Y5599250D01*
X15962632Y5599246D01*
X16033417Y5435148D01*
X16033418Y5435146D01*
X16033420Y5435143D01*
X16124017Y5313451D01*
X16140138Y5291797D01*
X16277041Y5176922D01*
X16356893Y5136819D01*
X16436745Y5096715D01*
X16610642Y5055500D01*
X16610643Y5055500D01*
X16744517Y5055500D01*
X16744524Y5055500D01*
X16877506Y5071043D01*
X17045443Y5132167D01*
X17194756Y5230373D01*
X17317397Y5360365D01*
X17406755Y5515136D01*
X17458010Y5686342D01*
X17463188Y5775246D01*
X18331598Y5775246D01*
X18362630Y5599253D01*
X18362631Y5599250D01*
X18362632Y5599246D01*
X18433417Y5435148D01*
X18433418Y5435146D01*
X18433420Y5435143D01*
X18524017Y5313451D01*
X18540138Y5291797D01*
X18677041Y5176922D01*
X18756893Y5136819D01*
X18836745Y5096715D01*
X19010642Y5055500D01*
X19010643Y5055500D01*
X19144517Y5055500D01*
X19144524Y5055500D01*
X19277506Y5071043D01*
X19445443Y5132167D01*
X19594756Y5230373D01*
X19717397Y5360365D01*
X19806755Y5515136D01*
X19858010Y5686342D01*
X19868402Y5864754D01*
X19837368Y6040754D01*
X19835329Y6045480D01*
X21641625Y6045480D01*
X22099998Y5587108D01*
X22099999Y5587107D01*
X22100000Y5587107D01*
X22100000Y5587108D01*
X22288138Y5775246D01*
X24331598Y5775246D01*
X24362630Y5599253D01*
X24362631Y5599250D01*
X24362632Y5599246D01*
X24433417Y5435148D01*
X24433418Y5435146D01*
X24433420Y5435143D01*
X24524017Y5313451D01*
X24540138Y5291797D01*
X24677041Y5176922D01*
X24756893Y5136819D01*
X24836745Y5096715D01*
X25010642Y5055500D01*
X25010643Y5055500D01*
X25144517Y5055500D01*
X25144524Y5055500D01*
X25277506Y5071043D01*
X25445443Y5132167D01*
X25594756Y5230373D01*
X25717397Y5360365D01*
X25806755Y5515136D01*
X25858010Y5686342D01*
X25863188Y5775246D01*
X26731598Y5775246D01*
X26762630Y5599253D01*
X26762631Y5599250D01*
X26762632Y5599246D01*
X26833417Y5435148D01*
X26833418Y5435146D01*
X26833420Y5435143D01*
X26924017Y5313451D01*
X26940138Y5291797D01*
X27077041Y5176922D01*
X27156893Y5136819D01*
X27236745Y5096715D01*
X27410642Y5055500D01*
X27410643Y5055500D01*
X27544517Y5055500D01*
X27544524Y5055500D01*
X27677506Y5071043D01*
X27845443Y5132167D01*
X27994756Y5230373D01*
X28117397Y5360365D01*
X28206755Y5515136D01*
X28258010Y5686342D01*
X28268402Y5864754D01*
X28237368Y6040754D01*
X28166583Y6204852D01*
X28059862Y6348203D01*
X27922959Y6463078D01*
X27922251Y6463434D01*
X27763254Y6543286D01*
X27589358Y6584500D01*
X27589357Y6584500D01*
X27455476Y6584500D01*
X27352045Y6572411D01*
X27322492Y6568957D01*
X27322490Y6568956D01*
X27154557Y6507834D01*
X27154556Y6507834D01*
X27005246Y6409629D01*
X27005240Y6409624D01*
X26882604Y6279637D01*
X26882600Y6279632D01*
X26793246Y6124867D01*
X26741991Y5953662D01*
X26741989Y5953654D01*
X26731598Y5775247D01*
X26731598Y5775246D01*
X25863188Y5775246D01*
X25868402Y5864754D01*
X25837368Y6040754D01*
X25766583Y6204852D01*
X25659862Y6348203D01*
X25522959Y6463078D01*
X25522251Y6463434D01*
X25363254Y6543286D01*
X25189358Y6584500D01*
X25189357Y6584500D01*
X25055476Y6584500D01*
X24952045Y6572411D01*
X24922492Y6568957D01*
X24922490Y6568956D01*
X24754557Y6507834D01*
X24754556Y6507834D01*
X24605246Y6409629D01*
X24605240Y6409624D01*
X24482604Y6279637D01*
X24482600Y6279632D01*
X24393246Y6124867D01*
X24341991Y5953662D01*
X24341989Y5953654D01*
X24331598Y5775247D01*
X24331598Y5775246D01*
X22288138Y5775246D01*
X22558372Y6045480D01*
X22529150Y6059106D01*
X22317894Y6115711D01*
X22317884Y6115713D01*
X22100001Y6134775D01*
X22099999Y6134775D01*
X21882115Y6115713D01*
X21882105Y6115711D01*
X21670841Y6059103D01*
X21670839Y6059103D01*
X21641626Y6045481D01*
X21641625Y6045480D01*
X19835329Y6045480D01*
X19766583Y6204852D01*
X19659862Y6348203D01*
X19522959Y6463078D01*
X19522251Y6463434D01*
X19363254Y6543286D01*
X19189358Y6584500D01*
X19189357Y6584500D01*
X19055476Y6584500D01*
X18952045Y6572411D01*
X18922492Y6568957D01*
X18922490Y6568956D01*
X18754557Y6507834D01*
X18754556Y6507834D01*
X18605246Y6409629D01*
X18605240Y6409624D01*
X18482604Y6279637D01*
X18482600Y6279632D01*
X18393246Y6124867D01*
X18341991Y5953662D01*
X18341989Y5953654D01*
X18331598Y5775247D01*
X18331598Y5775246D01*
X17463188Y5775246D01*
X17468402Y5864754D01*
X17437368Y6040754D01*
X17366583Y6204852D01*
X17259862Y6348203D01*
X17122959Y6463078D01*
X17122251Y6463434D01*
X16963254Y6543286D01*
X16789358Y6584500D01*
X16789357Y6584500D01*
X16655476Y6584500D01*
X16552045Y6572411D01*
X16522492Y6568957D01*
X16522490Y6568956D01*
X16354557Y6507834D01*
X16354556Y6507834D01*
X16205246Y6409629D01*
X16205240Y6409624D01*
X16082604Y6279637D01*
X16082600Y6279632D01*
X15993246Y6124867D01*
X15941991Y5953662D01*
X15941989Y5953654D01*
X15931598Y5775247D01*
X15931598Y5775246D01*
X13888138Y5775246D01*
X14158372Y6045480D01*
X14129150Y6059106D01*
X13917894Y6115711D01*
X13917884Y6115713D01*
X13700001Y6134775D01*
X13699999Y6134775D01*
X13482115Y6115713D01*
X13482105Y6115711D01*
X13270841Y6059103D01*
X13270839Y6059103D01*
X13241626Y6045481D01*
X13241625Y6045480D01*
X11435329Y6045480D01*
X11366583Y6204852D01*
X11259862Y6348203D01*
X11122959Y6463078D01*
X11122251Y6463434D01*
X10963254Y6543286D01*
X10789358Y6584500D01*
X10789357Y6584500D01*
X10655476Y6584500D01*
X10552045Y6572411D01*
X10522492Y6568957D01*
X10522490Y6568956D01*
X10354557Y6507834D01*
X10354556Y6507834D01*
X10205246Y6409629D01*
X10205240Y6409624D01*
X10082604Y6279637D01*
X10082600Y6279632D01*
X9993246Y6124867D01*
X9941991Y5953662D01*
X9941989Y5953654D01*
X9931598Y5775247D01*
X9931598Y5775246D01*
X-800409Y5775246D01*
X-662296Y6005673D01*
X-655553Y6015766D01*
X-440671Y6305500D01*
X-432968Y6314885D01*
X-190727Y6582157D01*
X-182157Y6590727D01*
X85115Y6832968D01*
X94500Y6840671D01*
X384234Y7055553D01*
X394327Y7062296D01*
X703717Y7247738D01*
X714409Y7253453D01*
X1040509Y7407686D01*
X1051717Y7412328D01*
X1391341Y7533848D01*
X1402947Y7537369D01*
X1752863Y7625019D01*
X1764765Y7627386D01*
X2121561Y7680311D01*
X2133659Y7681503D01*
X2442885Y7696695D01*
X2496968Y7699351D01*
X2503052Y7699500D01*
X2539882Y7699500D01*
X52309588Y7699500D01*
X52376627Y7679815D01*
G37*
%TD.AperFunction*%
%TD*%
M02*
