%TF.GenerationSoftware,KiCad,Pcbnew,7.0.10-7.0.10~ubuntu22.04.1*%
%TF.CreationDate,2024-02-12T00:21:08+01:00*%
%TF.ProjectId,sdrac_board,73647261-635f-4626-9f61-72642e6b6963,2.0*%
%TF.SameCoordinates,Original*%
%TF.FileFunction,Soldermask,Top*%
%TF.FilePolarity,Negative*%
%FSLAX46Y46*%
G04 Gerber Fmt 4.6, Leading zero omitted, Abs format (unit mm)*
G04 Created by KiCad (PCBNEW 7.0.10-7.0.10~ubuntu22.04.1) date 2024-02-12 00:21:08*
%MOMM*%
%LPD*%
G01*
G04 APERTURE LIST*
G04 Aperture macros list*
%AMRoundRect*
0 Rectangle with rounded corners*
0 $1 Rounding radius*
0 $2 $3 $4 $5 $6 $7 $8 $9 X,Y pos of 4 corners*
0 Add a 4 corners polygon primitive as box body*
4,1,4,$2,$3,$4,$5,$6,$7,$8,$9,$2,$3,0*
0 Add four circle primitives for the rounded corners*
1,1,$1+$1,$2,$3*
1,1,$1+$1,$4,$5*
1,1,$1+$1,$6,$7*
1,1,$1+$1,$8,$9*
0 Add four rect primitives between the rounded corners*
20,1,$1+$1,$2,$3,$4,$5,0*
20,1,$1+$1,$4,$5,$6,$7,0*
20,1,$1+$1,$6,$7,$8,$9,0*
20,1,$1+$1,$8,$9,$2,$3,0*%
%AMRotRect*
0 Rectangle, with rotation*
0 The origin of the aperture is its center*
0 $1 length*
0 $2 width*
0 $3 Rotation angle, in degrees counterclockwise*
0 Add horizontal line*
21,1,$1,$2,0,0,$3*%
G04 Aperture macros list end*
%ADD10R,1.525000X0.650000*%
%ADD11R,2.400000X3.100000*%
%ADD12RotRect,1.500000X4.700000X225.000000*%
%ADD13RoundRect,0.250000X-1.000000X1.950000X-1.000000X-1.950000X1.000000X-1.950000X1.000000X1.950000X0*%
%ADD14RoundRect,0.250000X-0.325000X-1.100000X0.325000X-1.100000X0.325000X1.100000X-0.325000X1.100000X0*%
%ADD15RoundRect,0.250000X-1.100000X0.325000X-1.100000X-0.325000X1.100000X-0.325000X1.100000X0.325000X0*%
%ADD16RoundRect,0.200000X0.275000X-0.200000X0.275000X0.200000X-0.275000X0.200000X-0.275000X-0.200000X0*%
%ADD17C,1.020000*%
%ADD18RoundRect,0.250001X-0.499999X-0.499999X0.499999X-0.499999X0.499999X0.499999X-0.499999X0.499999X0*%
%ADD19C,1.500000*%
%ADD20R,1.500000X2.000000*%
%ADD21R,3.800000X2.000000*%
%ADD22C,1.400000*%
%ADD23R,3.500000X3.500000*%
%ADD24C,3.500000*%
%ADD25RoundRect,0.250001X0.499999X0.499999X-0.499999X0.499999X-0.499999X-0.499999X0.499999X-0.499999X0*%
%ADD26RoundRect,0.218750X0.218750X0.256250X-0.218750X0.256250X-0.218750X-0.256250X0.218750X-0.256250X0*%
%ADD27RoundRect,0.200000X-0.275000X0.200000X-0.275000X-0.200000X0.275000X-0.200000X0.275000X0.200000X0*%
%ADD28RoundRect,0.225000X0.250000X-0.225000X0.250000X0.225000X-0.250000X0.225000X-0.250000X-0.225000X0*%
%ADD29RoundRect,0.250000X0.650000X-0.325000X0.650000X0.325000X-0.650000X0.325000X-0.650000X-0.325000X0*%
%ADD30R,0.650000X1.050000*%
%ADD31R,1.050000X0.650000*%
%ADD32C,2.000000*%
%ADD33RoundRect,0.250000X0.475000X-0.250000X0.475000X0.250000X-0.475000X0.250000X-0.475000X-0.250000X0*%
%ADD34RoundRect,0.225000X-0.225000X-0.250000X0.225000X-0.250000X0.225000X0.250000X-0.225000X0.250000X0*%
%ADD35RoundRect,0.250000X1.000000X-1.400000X1.000000X1.400000X-1.000000X1.400000X-1.000000X-1.400000X0*%
%ADD36C,3.200000*%
%ADD37RoundRect,0.250000X0.250000X0.475000X-0.250000X0.475000X-0.250000X-0.475000X0.250000X-0.475000X0*%
%ADD38C,0.650000*%
%ADD39R,0.600000X1.240000*%
%ADD40R,0.300000X1.240000*%
%ADD41O,1.000000X2.100000*%
%ADD42O,1.000000X1.800000*%
%ADD43R,1.700000X1.700000*%
%ADD44O,1.700000X1.700000*%
%ADD45RoundRect,0.200000X0.200000X0.275000X-0.200000X0.275000X-0.200000X-0.275000X0.200000X-0.275000X0*%
%ADD46RoundRect,0.250000X-1.625000X0.312500X-1.625000X-0.312500X1.625000X-0.312500X1.625000X0.312500X0*%
%ADD47RoundRect,0.242778X-1.632222X0.303472X-1.632222X-0.303472X1.632222X-0.303472X1.632222X0.303472X0*%
%ADD48RoundRect,0.225000X0.225000X0.250000X-0.225000X0.250000X-0.225000X-0.250000X0.225000X-0.250000X0*%
%ADD49R,1.600000X1.600000*%
%ADD50O,1.600000X1.600000*%
%ADD51RoundRect,0.225000X-0.250000X0.225000X-0.250000X-0.225000X0.250000X-0.225000X0.250000X0.225000X0*%
%ADD52RoundRect,0.250000X-0.325000X-0.650000X0.325000X-0.650000X0.325000X0.650000X-0.325000X0.650000X0*%
%ADD53RoundRect,0.250000X1.100000X-0.325000X1.100000X0.325000X-1.100000X0.325000X-1.100000X-0.325000X0*%
%ADD54R,2.440000X1.120000*%
G04 APERTURE END LIST*
D10*
%TO.C,IC2*%
X37712000Y-21505000D03*
X37712000Y-20235000D03*
X37712000Y-18965000D03*
X37712000Y-17695000D03*
X32288000Y-17695000D03*
X32288000Y-18965000D03*
X32288000Y-20235000D03*
X32288000Y-21505000D03*
D11*
X35000000Y-19600000D03*
%TD*%
D12*
%TO.C,L2*%
X45214214Y-6985786D03*
X42385786Y-9814214D03*
%TD*%
D13*
%TO.C,C44*%
X29200000Y-4100000D03*
X29200000Y-12500000D03*
%TD*%
D14*
%TO.C,C49*%
X46425000Y-14400000D03*
X49375000Y-14400000D03*
%TD*%
D15*
%TO.C,C48*%
X36600000Y-5125000D03*
X36600000Y-8075000D03*
%TD*%
D13*
%TO.C,C34*%
X15700000Y-4000000D03*
X15700000Y-12400000D03*
%TD*%
D16*
%TO.C,R20*%
X43000000Y-17325000D03*
X43000000Y-15675000D03*
%TD*%
D17*
%TO.C,U4*%
X6900000Y-40990000D03*
X15900000Y-40990000D03*
D18*
X9900000Y-37050000D03*
D19*
X12900000Y-37050000D03*
X9900000Y-40050000D03*
X12900000Y-40050000D03*
%TD*%
D16*
%TO.C,R21*%
X39500000Y-17625000D03*
X39500000Y-15975000D03*
%TD*%
D20*
%TO.C,U6*%
X56300000Y-25300000D03*
X58600000Y-25300000D03*
D21*
X58600000Y-19000000D03*
D20*
X60900000Y-25300000D03*
%TD*%
D22*
%TO.C,J3*%
X1850000Y-14700000D03*
X1850000Y-3700000D03*
D23*
X6850000Y-11700000D03*
D24*
X6850000Y-6700000D03*
%TD*%
D17*
%TO.C,J5*%
X48200000Y5820000D03*
X39200000Y5820000D03*
D25*
X45200000Y1880000D03*
D19*
X42200000Y1880000D03*
X45200000Y4880000D03*
X42200000Y4880000D03*
%TD*%
D26*
%TO.C,D6*%
X78287500Y-15300000D03*
X76712500Y-15300000D03*
%TD*%
D22*
%TO.C,J2*%
X1875000Y-29200000D03*
X1875000Y-18200000D03*
D23*
X11875000Y-21200000D03*
D24*
X11875000Y-26200000D03*
%TD*%
D16*
%TO.C,R24*%
X24500000Y-20025000D03*
X24500000Y-18375000D03*
%TD*%
D27*
%TO.C,C18*%
X30500000Y-18375000D03*
X30500000Y-20025000D03*
%TD*%
D28*
%TO.C,C28*%
X44012000Y-29845000D03*
X44012000Y-28295000D03*
%TD*%
D29*
%TO.C,C37*%
X64700000Y-2675000D03*
X64700000Y275000D03*
%TD*%
D14*
%TO.C,C46*%
X73525000Y-9000000D03*
X76475000Y-9000000D03*
%TD*%
D17*
%TO.C,J10*%
X30200000Y-40940000D03*
X42200000Y-40940000D03*
D18*
X33200000Y-37000000D03*
D19*
X36200000Y-37000000D03*
X39200000Y-37000000D03*
X33200000Y-40000000D03*
X36200000Y-40000000D03*
X39200000Y-40000000D03*
%TD*%
D26*
%TO.C,D3*%
X78287500Y-18700000D03*
X76712500Y-18700000D03*
%TD*%
D27*
%TO.C,C17*%
X40600000Y-22275000D03*
X40600000Y-23925000D03*
%TD*%
D29*
%TO.C,C19*%
X49400000Y-27975000D03*
X49400000Y-25025000D03*
%TD*%
D14*
%TO.C,C16*%
X46625000Y-21300000D03*
X49575000Y-21300000D03*
%TD*%
D30*
%TO.C,SW2*%
X6500000Y-275000D03*
X6500000Y3875000D03*
X8650000Y-275000D03*
X8650000Y3875000D03*
%TD*%
D29*
%TO.C,C38*%
X67200000Y-2675000D03*
X67200000Y275000D03*
%TD*%
D31*
%TO.C,SW1*%
X78465000Y-26175000D03*
X74315000Y-26175000D03*
X78465000Y-24025000D03*
X74315000Y-24025000D03*
%TD*%
D32*
%TO.C,FID2*%
X78200000Y300000D03*
%TD*%
D33*
%TO.C,C22*%
X40500000Y-29975000D03*
X40500000Y-28075000D03*
%TD*%
D28*
%TO.C,C20*%
X51400000Y-27775000D03*
X51400000Y-26225000D03*
%TD*%
D15*
%TO.C,C15*%
X43500000Y-21225000D03*
X43500000Y-24175000D03*
%TD*%
D34*
%TO.C,C13*%
X47300000Y-18900000D03*
X48850000Y-18900000D03*
%TD*%
D14*
%TO.C,C45*%
X73525000Y-5500000D03*
X76475000Y-5500000D03*
%TD*%
D16*
%TO.C,R19*%
X41300000Y-18925000D03*
X41300000Y-17275000D03*
%TD*%
D27*
%TO.C,R25*%
X29000000Y-18375000D03*
X29000000Y-20025000D03*
%TD*%
D35*
%TO.C,D10*%
X28500000Y-26400000D03*
X35300000Y-26400000D03*
%TD*%
D31*
%TO.C,SW3*%
X74225000Y-30725000D03*
X78375000Y-30725000D03*
X74225000Y-32875000D03*
X78375000Y-32875000D03*
%TD*%
D36*
%TO.C,H1*%
X2500000Y3900000D03*
%TD*%
D16*
%TO.C,R23*%
X26000000Y-20025000D03*
X26000000Y-18375000D03*
%TD*%
D17*
%TO.C,J9*%
X44600000Y-40940000D03*
X56600000Y-40940000D03*
D18*
X47600000Y-37000000D03*
D19*
X50600000Y-37000000D03*
X53600000Y-37000000D03*
X47600000Y-40000000D03*
X50600000Y-40000000D03*
X53600000Y-40000000D03*
%TD*%
D34*
%TO.C,C12*%
X47300000Y-17200000D03*
X48850000Y-17200000D03*
%TD*%
D28*
%TO.C,C26*%
X42412000Y-29845000D03*
X42412000Y-28295000D03*
%TD*%
D17*
%TO.C,U5*%
X18700000Y-40980000D03*
X27700000Y-40980000D03*
D18*
X21700000Y-37040000D03*
D19*
X24700000Y-37040000D03*
X21700000Y-40040000D03*
X24700000Y-40040000D03*
%TD*%
D37*
%TO.C,C27*%
X54050000Y-23100000D03*
X52150000Y-23100000D03*
%TD*%
D38*
%TO.C,J6*%
X63360000Y-37920000D03*
X69140000Y-37920000D03*
D39*
X63050000Y-36800000D03*
X63850000Y-36800000D03*
D40*
X65000000Y-36800000D03*
X66000000Y-36800000D03*
X66500000Y-36800000D03*
X67500000Y-36800000D03*
D39*
X68650000Y-36800000D03*
X69450000Y-36800000D03*
X69450000Y-36800000D03*
X68650000Y-36800000D03*
D40*
X68000000Y-36800000D03*
X67000000Y-36800000D03*
X65500000Y-36800000D03*
X64500000Y-36800000D03*
D39*
X63850000Y-36800000D03*
X63050000Y-36800000D03*
D41*
X61930000Y-37400000D03*
D42*
X61930000Y-41600000D03*
D41*
X70570000Y-37400000D03*
D42*
X70570000Y-41600000D03*
%TD*%
D43*
%TO.C,J1*%
X58180000Y-32200000D03*
D44*
X55640000Y-32200000D03*
X53100000Y-32200000D03*
%TD*%
D19*
%TO.C,J4*%
X30500000Y4880000D03*
X33500000Y4880000D03*
X30500000Y1880000D03*
D25*
X33500000Y1880000D03*
D17*
X27500000Y5820000D03*
X36500000Y5820000D03*
%TD*%
D32*
%TO.C,FID1*%
X0Y0D03*
%TD*%
D33*
%TO.C,C24*%
X38100000Y-29975000D03*
X38100000Y-28075000D03*
%TD*%
D36*
%TO.C,H2*%
X75500000Y3900000D03*
%TD*%
D45*
%TO.C,R22*%
X39125000Y-23600000D03*
X37475000Y-23600000D03*
%TD*%
D26*
%TO.C,D8*%
X78287500Y-22100000D03*
X76712500Y-22100000D03*
%TD*%
%TO.C,D7*%
X78287500Y-13600000D03*
X76712500Y-13600000D03*
%TD*%
%TO.C,D4*%
X78287500Y-20400000D03*
X76712500Y-20400000D03*
%TD*%
D36*
%TO.C,H3*%
X75500000Y-39100000D03*
%TD*%
D46*
%TO.C,L1*%
X23820000Y-25080000D03*
D47*
X23810000Y-28096250D03*
%TD*%
D36*
%TO.C,H4*%
X2500000Y-39100000D03*
%TD*%
D32*
%TO.C,FID3*%
X78100000Y-35300000D03*
%TD*%
D48*
%TO.C,C23*%
X53775000Y-17000000D03*
X52225000Y-17000000D03*
%TD*%
D37*
%TO.C,C29*%
X54050000Y-18900000D03*
X52150000Y-18900000D03*
%TD*%
D49*
%TO.C,A1*%
X52680000Y-6500000D03*
D50*
X55220000Y-6500000D03*
X57760000Y-6500000D03*
X60300000Y-6500000D03*
X62840000Y-6500000D03*
X65380000Y-6500000D03*
X67920000Y-6500000D03*
X70460000Y-6500000D03*
X70460000Y6200000D03*
X67920000Y6200000D03*
X65380000Y6200000D03*
X62840000Y6200000D03*
X60300000Y6200000D03*
X57760000Y6200000D03*
X55220000Y6200000D03*
X52680000Y6200000D03*
%TD*%
D17*
%TO.C,J7*%
X25100000Y5820000D03*
X19100000Y5820000D03*
D25*
X22100000Y1880000D03*
D19*
X22100000Y4880000D03*
%TD*%
D51*
%TO.C,C21*%
X27500000Y-18425000D03*
X27500000Y-19975000D03*
%TD*%
D17*
%TO.C,J8*%
X16700000Y5820000D03*
X10700000Y5820000D03*
D25*
X13700000Y1880000D03*
D19*
X13700000Y4880000D03*
%TD*%
D37*
%TO.C,C25*%
X54050000Y-21000000D03*
X52150000Y-21000000D03*
%TD*%
D26*
%TO.C,D5*%
X78287500Y-17000000D03*
X76712500Y-17000000D03*
%TD*%
D52*
%TO.C,C33*%
X73525000Y-2600000D03*
X76475000Y-2600000D03*
%TD*%
D43*
%TO.C,J11*%
X69340000Y-26700000D03*
D44*
X66800000Y-26700000D03*
%TD*%
D53*
%TO.C,C35*%
X70100000Y-2675000D03*
X70100000Y275000D03*
%TD*%
D54*
%TO.C,SW4*%
X18305000Y-31500000D03*
X9695000Y-31500000D03*
%TD*%
M02*
