%TF.GenerationSoftware,KiCad,Pcbnew,7.0.11-7.0.11~ubuntu22.04.1*%
%TF.CreationDate,2024-04-22T16:49:28+02:00*%
%TF.ProjectId,sdrac_board,73647261-635f-4626-9f61-72642e6b6963,2.0*%
%TF.SameCoordinates,Original*%
%TF.FileFunction,Paste,Bot*%
%TF.FilePolarity,Positive*%
%FSLAX46Y46*%
G04 Gerber Fmt 4.6, Leading zero omitted, Abs format (unit mm)*
G04 Created by KiCad (PCBNEW 7.0.11-7.0.11~ubuntu22.04.1) date 2024-04-22 16:49:28*
%MOMM*%
%LPD*%
G01*
G04 APERTURE LIST*
G04 Aperture macros list*
%AMRoundRect*
0 Rectangle with rounded corners*
0 $1 Rounding radius*
0 $2 $3 $4 $5 $6 $7 $8 $9 X,Y pos of 4 corners*
0 Add a 4 corners polygon primitive as box body*
4,1,4,$2,$3,$4,$5,$6,$7,$8,$9,$2,$3,0*
0 Add four circle primitives for the rounded corners*
1,1,$1+$1,$2,$3*
1,1,$1+$1,$4,$5*
1,1,$1+$1,$6,$7*
1,1,$1+$1,$8,$9*
0 Add four rect primitives between the rounded corners*
20,1,$1+$1,$2,$3,$4,$5,0*
20,1,$1+$1,$4,$5,$6,$7,0*
20,1,$1+$1,$6,$7,$8,$9,0*
20,1,$1+$1,$8,$9,$2,$3,0*%
%AMRotRect*
0 Rectangle, with rotation*
0 The origin of the aperture is its center*
0 $1 length*
0 $2 width*
0 $3 Rotation angle, in degrees counterclockwise*
0 Add horizontal line*
21,1,$1,$2,0,0,$3*%
G04 Aperture macros list end*
%ADD10RoundRect,0.150000X-0.150000X0.825000X-0.150000X-0.825000X0.150000X-0.825000X0.150000X0.825000X0*%
%ADD11RoundRect,0.135000X0.035355X-0.226274X0.226274X-0.035355X-0.035355X0.226274X-0.226274X0.035355X0*%
%ADD12RoundRect,0.135000X0.135000X0.185000X-0.135000X0.185000X-0.135000X-0.185000X0.135000X-0.185000X0*%
%ADD13RoundRect,0.155000X-0.155000X0.212500X-0.155000X-0.212500X0.155000X-0.212500X0.155000X0.212500X0*%
%ADD14RoundRect,0.150000X0.150000X-0.512500X0.150000X0.512500X-0.150000X0.512500X-0.150000X-0.512500X0*%
%ADD15RoundRect,0.150000X0.521491X-0.309359X-0.309359X0.521491X-0.521491X0.309359X0.309359X-0.521491X0*%
%ADD16RoundRect,0.135000X-0.135000X-0.185000X0.135000X-0.185000X0.135000X0.185000X-0.135000X0.185000X0*%
%ADD17RoundRect,0.135000X-0.185000X0.135000X-0.185000X-0.135000X0.185000X-0.135000X0.185000X0.135000X0*%
%ADD18RoundRect,0.135000X0.185000X-0.135000X0.185000X0.135000X-0.185000X0.135000X-0.185000X-0.135000X0*%
%ADD19RoundRect,0.200000X0.200000X0.275000X-0.200000X0.275000X-0.200000X-0.275000X0.200000X-0.275000X0*%
%ADD20RoundRect,0.075000X-0.548008X0.441942X0.441942X-0.548008X0.548008X-0.441942X-0.441942X0.548008X0*%
%ADD21RoundRect,0.075000X-0.548008X-0.441942X-0.441942X-0.548008X0.548008X0.441942X0.441942X0.548008X0*%
%ADD22RoundRect,0.250000X0.512652X0.159099X0.159099X0.512652X-0.512652X-0.159099X-0.159099X-0.512652X0*%
%ADD23RoundRect,0.140000X0.021213X-0.219203X0.219203X-0.021213X-0.021213X0.219203X-0.219203X0.021213X0*%
%ADD24RoundRect,0.250000X-0.650000X1.000000X-0.650000X-1.000000X0.650000X-1.000000X0.650000X1.000000X0*%
%ADD25RoundRect,0.140000X0.140000X0.170000X-0.140000X0.170000X-0.140000X-0.170000X0.140000X-0.170000X0*%
%ADD26RoundRect,0.140000X0.170000X-0.140000X0.170000X0.140000X-0.170000X0.140000X-0.170000X-0.140000X0*%
%ADD27RoundRect,0.200000X0.275000X-0.200000X0.275000X0.200000X-0.275000X0.200000X-0.275000X-0.200000X0*%
%ADD28RoundRect,0.140000X-0.021213X0.219203X-0.219203X0.021213X0.021213X-0.219203X0.219203X-0.021213X0*%
%ADD29RoundRect,0.225000X0.335876X0.017678X0.017678X0.335876X-0.335876X-0.017678X-0.017678X-0.335876X0*%
%ADD30RoundRect,0.250000X0.475000X-0.250000X0.475000X0.250000X-0.475000X0.250000X-0.475000X-0.250000X0*%
%ADD31RoundRect,0.200000X-0.053033X0.335876X-0.335876X0.053033X0.053033X-0.335876X0.335876X-0.053033X0*%
%ADD32RoundRect,0.200000X0.053033X-0.335876X0.335876X-0.053033X-0.053033X0.335876X-0.335876X0.053033X0*%
%ADD33RoundRect,0.140000X-0.219203X-0.021213X-0.021213X-0.219203X0.219203X0.021213X0.021213X0.219203X0*%
%ADD34RoundRect,0.140000X-0.170000X0.140000X-0.170000X-0.140000X0.170000X-0.140000X0.170000X0.140000X0*%
%ADD35RoundRect,0.150000X-0.150000X0.512500X-0.150000X-0.512500X0.150000X-0.512500X0.150000X0.512500X0*%
%ADD36RoundRect,0.140000X-0.140000X-0.170000X0.140000X-0.170000X0.140000X0.170000X-0.140000X0.170000X0*%
%ADD37RoundRect,0.225000X-0.250000X0.225000X-0.250000X-0.225000X0.250000X-0.225000X0.250000X0.225000X0*%
%ADD38RotRect,1.400000X1.200000X225.000000*%
%ADD39RoundRect,0.150000X0.150000X-0.825000X0.150000X0.825000X-0.150000X0.825000X-0.150000X-0.825000X0*%
%ADD40RoundRect,0.218750X0.424264X0.114905X0.114905X0.424264X-0.424264X-0.114905X-0.114905X-0.424264X0*%
G04 APERTURE END LIST*
D10*
%TO.C,U3*%
X21595000Y-26325000D03*
X22865000Y-26325000D03*
X24135000Y-26325000D03*
X25405000Y-26325000D03*
X25405000Y-31275000D03*
X24135000Y-31275000D03*
X22865000Y-31275000D03*
X21595000Y-31275000D03*
%TD*%
D11*
%TO.C,R48*%
X25139376Y-1660624D03*
X25860624Y-939376D03*
%TD*%
D12*
%TO.C,R6*%
X31010000Y-35400000D03*
X29990000Y-35400000D03*
%TD*%
D13*
%TO.C,C38*%
X49400000Y-2812500D03*
X49400000Y-3947500D03*
%TD*%
D14*
%TO.C,U7*%
X64300000Y-15112501D03*
X63350000Y-15112501D03*
X62400000Y-15112501D03*
X62400000Y-12837501D03*
X64300000Y-12837501D03*
%TD*%
D15*
%TO.C,U11*%
X29934664Y-2291161D03*
X28591161Y-3634664D03*
X27937087Y-1637087D03*
%TD*%
D16*
%TO.C,R3*%
X74690000Y-26600000D03*
X75710000Y-26600000D03*
%TD*%
%TO.C,R23*%
X64590000Y-18400000D03*
X65610000Y-18400000D03*
%TD*%
D17*
%TO.C,R2*%
X20575000Y-2875000D03*
X20575000Y-3895000D03*
%TD*%
D12*
%TO.C,R45*%
X59510000Y-29700000D03*
X58490000Y-29700000D03*
%TD*%
%TO.C,R4*%
X75710000Y-27700000D03*
X74690000Y-27700000D03*
%TD*%
D17*
%TO.C,R16*%
X72900000Y-26590000D03*
X72900000Y-27610000D03*
%TD*%
D18*
%TO.C,R8*%
X63300000Y-26710000D03*
X63300000Y-25690000D03*
%TD*%
D19*
%TO.C,R22*%
X19225000Y-29300000D03*
X17575000Y-29300000D03*
%TD*%
D17*
%TO.C,R19*%
X40600000Y-33190000D03*
X40600000Y-34210000D03*
%TD*%
D18*
%TO.C,R47*%
X24600000Y990000D03*
X24600000Y2010000D03*
%TD*%
D17*
%TO.C,R36*%
X68200000Y4510000D03*
X68200000Y3490000D03*
%TD*%
D20*
%TO.C,U1*%
X28335519Y-12738819D03*
X28689072Y-12385266D03*
X29042625Y-12031713D03*
X29396179Y-11678159D03*
X29749732Y-11324606D03*
X30103286Y-10971052D03*
X30456839Y-10617499D03*
X30810392Y-10263946D03*
X31163946Y-9910392D03*
X31517499Y-9556839D03*
X31871052Y-9203286D03*
X32224606Y-8849732D03*
X32578159Y-8496179D03*
X32931713Y-8142625D03*
X33285266Y-7789072D03*
X33638819Y-7435519D03*
D21*
X36361181Y-7435519D03*
X36714734Y-7789072D03*
X37068287Y-8142625D03*
X37421841Y-8496179D03*
X37775394Y-8849732D03*
X38128948Y-9203286D03*
X38482501Y-9556839D03*
X38836054Y-9910392D03*
X39189608Y-10263946D03*
X39543161Y-10617499D03*
X39896714Y-10971052D03*
X40250268Y-11324606D03*
X40603821Y-11678159D03*
X40957375Y-12031713D03*
X41310928Y-12385266D03*
X41664481Y-12738819D03*
D20*
X41664481Y-15461181D03*
X41310928Y-15814734D03*
X40957375Y-16168287D03*
X40603821Y-16521841D03*
X40250268Y-16875394D03*
X39896714Y-17228948D03*
X39543161Y-17582501D03*
X39189608Y-17936054D03*
X38836054Y-18289608D03*
X38482501Y-18643161D03*
X38128948Y-18996714D03*
X37775394Y-19350268D03*
X37421841Y-19703821D03*
X37068287Y-20057375D03*
X36714734Y-20410928D03*
X36361181Y-20764481D03*
D21*
X33638819Y-20764481D03*
X33285266Y-20410928D03*
X32931713Y-20057375D03*
X32578159Y-19703821D03*
X32224606Y-19350268D03*
X31871052Y-18996714D03*
X31517499Y-18643161D03*
X31163946Y-18289608D03*
X30810392Y-17936054D03*
X30456839Y-17582501D03*
X30103286Y-17228948D03*
X29749732Y-16875394D03*
X29396179Y-16521841D03*
X29042625Y-16168287D03*
X28689072Y-15814734D03*
X28335519Y-15461181D03*
%TD*%
D12*
%TO.C,R44*%
X59510000Y-28700000D03*
X58490000Y-28700000D03*
%TD*%
D22*
%TO.C,C8*%
X21871751Y-14771751D03*
X20528249Y-13428249D03*
%TD*%
D17*
%TO.C,R13*%
X41700000Y-33190000D03*
X41700000Y-34210000D03*
%TD*%
D18*
%TO.C,R41*%
X61400000Y3490000D03*
X61400000Y4510000D03*
%TD*%
D12*
%TO.C,R43*%
X66005000Y-39100000D03*
X64985000Y-39100000D03*
%TD*%
D23*
%TO.C,C2*%
X37460589Y-23039411D03*
X38139411Y-22360589D03*
%TD*%
D24*
%TO.C,D2*%
X70000000Y-29700000D03*
X70000000Y-33700000D03*
%TD*%
D25*
%TO.C,C36*%
X60230000Y-11337500D03*
X59270000Y-11337500D03*
%TD*%
D16*
%TO.C,R34*%
X74690000Y-1500000D03*
X75710000Y-1500000D03*
%TD*%
D26*
%TO.C,C9*%
X19275000Y-3865000D03*
X19275000Y-2905000D03*
%TD*%
D25*
%TO.C,C1*%
X39680000Y-5100000D03*
X38720000Y-5100000D03*
%TD*%
D18*
%TO.C,R20*%
X42800000Y-34210000D03*
X42800000Y-33190000D03*
%TD*%
D14*
%TO.C,U9*%
X60100000Y-15075001D03*
X59150000Y-15075001D03*
X58200000Y-15075001D03*
X58200000Y-12800001D03*
X60100000Y-12800001D03*
%TD*%
D27*
%TO.C,R46*%
X72800000Y-33825000D03*
X72800000Y-32175000D03*
%TD*%
D17*
%TO.C,R10*%
X37165001Y-30754999D03*
X37165001Y-31774999D03*
%TD*%
%TO.C,R15*%
X46100000Y-33190000D03*
X46100000Y-34210000D03*
%TD*%
D18*
%TO.C,R40*%
X62600000Y3490000D03*
X62600000Y4510000D03*
%TD*%
%TO.C,R39*%
X64300000Y3490000D03*
X64300000Y4510000D03*
%TD*%
D17*
%TO.C,R7*%
X67200000Y-23790000D03*
X67200000Y-24810000D03*
%TD*%
D23*
%TO.C,C11*%
X25260589Y-10439411D03*
X25939411Y-9760589D03*
%TD*%
D12*
%TO.C,R1*%
X77910000Y-26600000D03*
X76890000Y-26600000D03*
%TD*%
D28*
%TO.C,C49*%
X31060731Y-3516224D03*
X30381909Y-4195046D03*
%TD*%
D16*
%TO.C,R17*%
X64590000Y-20000000D03*
X65610000Y-20000000D03*
%TD*%
D29*
%TO.C,C6*%
X20545926Y-16132932D03*
X19449910Y-15036916D03*
%TD*%
D30*
%TO.C,C48*%
X74600000Y-33950000D03*
X74600000Y-32050000D03*
%TD*%
D31*
%TO.C,R35*%
X36544023Y-4277297D03*
X35377297Y-5444023D03*
%TD*%
D17*
%TO.C,R11*%
X38465000Y-30755001D03*
X38465000Y-31775001D03*
%TD*%
D32*
%TO.C,R32*%
X34316637Y-4383363D03*
X35483363Y-3216637D03*
%TD*%
D16*
%TO.C,R24*%
X64590000Y-17400000D03*
X65610000Y-17400000D03*
%TD*%
D33*
%TO.C,C4*%
X26260589Y-16760589D03*
X26939411Y-17439411D03*
%TD*%
D12*
%TO.C,R12*%
X34375000Y-25875000D03*
X33355000Y-25875000D03*
%TD*%
D34*
%TO.C,C14*%
X27000000Y-27620000D03*
X27000000Y-28580000D03*
%TD*%
%TO.C,C40*%
X48300000Y-2820000D03*
X48300000Y-3780000D03*
%TD*%
D17*
%TO.C,R14*%
X43900000Y-33190000D03*
X43900000Y-34210000D03*
%TD*%
D29*
%TO.C,C7*%
X19362221Y-17233794D03*
X18266205Y-16137778D03*
%TD*%
D16*
%TO.C,R42*%
X66985000Y-39100000D03*
X68005000Y-39100000D03*
%TD*%
D13*
%TO.C,C39*%
X50600000Y-2812500D03*
X50600000Y-3947500D03*
%TD*%
D16*
%TO.C,R33*%
X74690000Y-300000D03*
X75710000Y-300000D03*
%TD*%
D17*
%TO.C,R37*%
X67200000Y4510000D03*
X67200000Y3490000D03*
%TD*%
D25*
%TO.C,C47*%
X64329999Y-11175000D03*
X63369999Y-11175000D03*
%TD*%
D16*
%TO.C,R18*%
X64590000Y-21700000D03*
X65610000Y-21700000D03*
%TD*%
D35*
%TO.C,U10*%
X65250000Y-31062500D03*
X66200000Y-31062500D03*
X67150000Y-31062500D03*
X67150000Y-33337500D03*
X66200000Y-33337500D03*
X65250000Y-33337500D03*
%TD*%
D36*
%TO.C,C10*%
X76920000Y-27700000D03*
X77880000Y-27700000D03*
%TD*%
D37*
%TO.C,C13*%
X43900000Y-11225000D03*
X43900000Y-12775000D03*
%TD*%
D38*
%TO.C,Y1*%
X25278858Y-7323223D03*
X23723223Y-8878858D03*
X22521142Y-7676777D03*
X24076777Y-6121142D03*
%TD*%
D28*
%TO.C,C5*%
X30439411Y-6760589D03*
X29760589Y-7439411D03*
%TD*%
%TO.C,C12*%
X27439411Y-7860589D03*
X26760589Y-8539411D03*
%TD*%
D17*
%TO.C,R9*%
X35965001Y-30755000D03*
X35965001Y-31775000D03*
%TD*%
D26*
%TO.C,C3*%
X44100000Y-15180000D03*
X44100000Y-14220000D03*
%TD*%
D24*
%TO.C,D1*%
X18200000Y-21200000D03*
X18200000Y-25200000D03*
%TD*%
D16*
%TO.C,R5*%
X27990000Y-36400000D03*
X29010000Y-36400000D03*
%TD*%
D14*
%TO.C,U8*%
X55500000Y-15175000D03*
X54550000Y-15175000D03*
X53600000Y-15175000D03*
X53600000Y-12900000D03*
X55500000Y-12900000D03*
%TD*%
D18*
%TO.C,R21*%
X45000000Y-34210000D03*
X45000000Y-33190000D03*
%TD*%
D39*
%TO.C,U2*%
X34470000Y-32650000D03*
X33200000Y-32650000D03*
X31930000Y-32650000D03*
X30660000Y-32650000D03*
X30660000Y-27700000D03*
X31930000Y-27700000D03*
X33200000Y-27700000D03*
X34470000Y-27700000D03*
%TD*%
D18*
%TO.C,R38*%
X65400000Y3490000D03*
X65400000Y4510000D03*
%TD*%
D25*
%TO.C,C37*%
X55530000Y-11237500D03*
X54570000Y-11237500D03*
%TD*%
D40*
%TO.C,FB1*%
X23365514Y-13437087D03*
X21862912Y-11934485D03*
%TD*%
D18*
%TO.C,R49*%
X15900000Y990000D03*
X15900000Y2010000D03*
%TD*%
M02*
