M48
; DRILL file {KiCad 7.0.11-7.0.11~ubuntu22.04.1} date wto, 12 mar 2024, 21:56:38
; FORMAT={-:-/ absolute / inch / decimal}
; #@! TF.CreationDate,2024-03-12T21:56:38+01:00
; #@! TF.GenerationSoftware,Kicad,Pcbnew,7.0.11-7.0.11~ubuntu22.04.1
; #@! TF.FileFunction,Plated,1,4,PTH
FMAT,2
INCH
; #@! TA.AperFunction,Plated,PTH,ViaDrill
T1C0.0138
; #@! TA.AperFunction,Plated,PTH,ViaDrill
T2C0.0157
; #@! TA.AperFunction,Plated,PTH,ComponentDrill
T3C0.0236
; #@! TA.AperFunction,Plated,PTH,ComponentDrill
T4C0.0315
; #@! TA.AperFunction,Plated,PTH,ComponentDrill
T5C0.0394
; #@! TA.AperFunction,Plated,PTH,ComponentDrill
T6C0.0402
; #@! TA.AperFunction,Plated,PTH,ComponentDrill
T7C0.0748
%
G90
G05
T1
X0.2323Y-0.7835
X0.2323Y-0.8307
X0.2559Y0.0512
X0.2835Y-0.7835
X0.2835Y-0.8307
X0.3307Y-0.7835
X0.3307Y-0.8307
X0.3406Y0.0551
X0.4016Y-0.5709
X0.4016Y-0.6181
X0.4488Y-1.4252
X0.4528Y-0.5709
X0.4528Y-0.6181
X0.5Y-0.5709
X0.5Y-0.6181
X0.626Y0.0079
X0.7207Y-1.2402
X0.7323Y-0.3031
X0.748Y0.0039
X0.748Y-0.3425
X0.748Y-0.3858
X0.7638Y-0.4291
X0.7913Y-0.4567
X0.7953Y0.0079
X0.811Y-0.378
X0.8229Y-0.8466
X0.8543Y-0.815
X0.8819Y-0.7876
X0.9764Y0.0039
X1.0591Y-0.4646
X1.063Y-0.8583
X1.0787Y0.0512
X1.0787Y0.0
X1.0944Y-1.1457
X1.0945Y-1.3937
X1.122Y0.0157
X1.1299Y-0.3386
X1.2283Y-1.3504
X1.2402Y-0.5984
X1.2717Y-1.3819
X1.2913Y-0.5039
X1.3189Y-1.2047
X1.3228Y-0.0748
X1.3425Y-0.622
X1.3425Y-0.6811
X1.3543Y-0.3543
X1.3661Y-0.4843
X1.374Y-0.6535
X1.4094Y0.0039
X1.4159Y-1.126
X1.4173Y-0.5979
X1.4488Y-0.6339
X1.4606Y-0.5984
X1.4646Y-0.5039
X1.4764Y-1.0118
X1.4921Y-0.6339
X1.5079Y-1.0472
X1.5118Y-0.5984
X1.563Y-1.0079
X1.5945Y-1.0354
X1.6496Y-1.0
X1.6693Y-0.5512
X1.689Y-1.0394
X1.7087Y-0.5512
X1.7953Y-1.3858
X1.9291Y-1.0315
X1.9724Y-1.0315
X1.9882Y-0.5551
X1.9882Y-0.5945
X2.0039Y-0.8898
X2.0118Y-0.7008
X2.0118Y-0.752
X2.0276Y-0.6141
X2.0315Y-0.5748
X2.0512Y-0.5197
X2.0531Y-0.8898
X2.0669Y-0.5945
X2.0984Y-1.0315
X2.1496Y-0.5
X2.1929Y-0.8898
X2.2323Y-0.8898
X2.2362Y-0.525
X2.2461Y-0.5935
X2.2717Y-0.8898
X2.311Y-0.8898
X2.3307Y-0.5079
X2.3504Y-0.8898
X2.3858Y0.0984
X2.3898Y-0.8898
X2.4094Y-0.525
X2.4134Y0.0709
X2.4154Y-0.5974
X2.4213Y-0.7008
X2.4252Y-0.8898
X2.4409Y0.0433
X2.4685Y-1.3976
X2.4961Y-0.5118
X2.5157Y-1.3976
X2.5591Y-1.5
X2.5709Y0.0669
X2.5709Y-1.3661
X2.5945Y-0.5235
X2.6063Y-1.1732
X2.622Y0.0669
X2.6378Y-1.5079
X2.6417Y-0.5236
X2.6437Y-1.3681
X2.6551Y-0.6051
X2.6772Y0.0669
X2.6772Y-1.5
X2.685Y-0.5236
X2.689Y-0.8701
X2.7008Y-1.4016
X2.7283Y0.0669
X2.7638Y-1.3937
X2.7835Y0.0669
X2.8248Y-1.2303
X2.8386Y0.0669
X2.8701Y-1.0039
X2.8701Y-1.185
X2.8898Y-0.5118
X2.9173Y-0.9055
X2.9213Y-0.4882
X2.9222Y-1.0866
X2.9449Y-0.4606
X2.9488Y-0.0079
X2.9606Y-0.5433
X2.9606Y-0.6102
X2.9646Y-0.6811
X2.9646Y-0.7402
X2.9646Y-0.8031
X2.9646Y-0.8701
X3.0Y-0.0315
X3.0Y-0.9409
X3.0669Y-0.0748
X3.0669Y-0.126
X3.0709Y-0.1772
X3.0709Y-0.2244
X3.0709Y-0.2756
X3.0709Y-0.3228
X3.0709Y-0.3622
X3.0787Y-1.0827
X3.0827Y-0.4331
X3.0827Y-0.4764
T2
X2.5669Y-1.0984
X2.5984Y-1.1299
T4
X2.074Y0.2441
X2.074Y-0.2559
X2.174Y0.2441
X2.174Y-0.2559
X2.274Y0.2441
X2.274Y-0.2559
X2.374Y0.2441
X2.374Y-0.2559
X2.474Y0.2441
X2.474Y-0.2559
X2.574Y0.2441
X2.574Y-0.2559
X2.674Y0.2441
X2.674Y-0.2559
X2.774Y0.2441
X2.774Y-0.2559
T5
X0.0728Y-0.1457
X0.0728Y-0.5787
X0.0738Y-0.7165
X0.0738Y-1.1496
X2.0197Y-1.252
X2.1197Y-1.252
X2.2197Y-1.252
X2.3197Y-1.252
X2.6299Y-1.0512
X2.7299Y-1.0512
T6
X0.3898Y-1.4587
X0.3898Y-1.5768
X0.5079Y-1.4587
X0.5079Y-1.5768
X0.5394Y0.1921
X0.5394Y0.074
X0.8543Y-1.4583
X0.8543Y-1.5764
X0.8701Y0.1921
X0.8701Y0.074
X0.9724Y-1.4583
X0.9724Y-1.5764
X1.2008Y0.1921
X1.2008Y0.074
X1.3071Y-1.4567
X1.3071Y-1.5748
X1.3189Y0.1921
X1.3189Y0.074
X1.4252Y-1.4567
X1.4252Y-1.5748
X1.5433Y-1.4567
X1.5433Y-1.5748
X1.6614Y0.1921
X1.6614Y0.074
X1.7795Y0.1921
X1.7795Y0.074
X1.874Y-1.4567
X1.874Y-1.5748
X1.9921Y-1.4567
X1.9921Y-1.5748
X2.1102Y-1.4567
X2.1102Y-1.5748
T7
X0.2697Y-0.2638
X0.2697Y-0.4606
X0.4675Y-0.8346
X0.4675Y-1.0315
T3
G00X2.4382Y-1.4508
M15
G01X2.4382Y-1.4941
M16
G05
G00X2.4382Y-1.622
M15
G01X2.4382Y-1.6535
M16
G05
G00X2.7783Y-1.4508
M15
G01X2.7783Y-1.4941
M16
G05
G00X2.7783Y-1.622
M15
G01X2.7783Y-1.6535
M16
G05
M30
