M48
; DRILL file {KiCad 7.0.11-7.0.11~ubuntu22.04.1} date pon, 22 kwi 2024, 16:49:28
; FORMAT={-:-/ absolute / inch / decimal}
; #@! TF.CreationDate,2024-04-22T16:49:28+02:00
; #@! TF.GenerationSoftware,Kicad,Pcbnew,7.0.11-7.0.11~ubuntu22.04.1
; #@! TF.FileFunction,Plated,1,4,PTH
FMAT,2
INCH
; #@! TA.AperFunction,Plated,PTH,ViaDrill
T1C0.0138
; #@! TA.AperFunction,Plated,PTH,ViaDrill
T2C0.0157
; #@! TA.AperFunction,Plated,PTH,ComponentDrill
T3C0.0236
; #@! TA.AperFunction,Plated,PTH,ComponentDrill
T4C0.0315
; #@! TA.AperFunction,Plated,PTH,ComponentDrill
T5C0.0374
; #@! TA.AperFunction,Plated,PTH,ComponentDrill
T6C0.0394
; #@! TA.AperFunction,Plated,PTH,ComponentDrill
T7C0.0402
; #@! TA.AperFunction,Plated,PTH,ComponentDrill
T8C0.0748
%
G90
G05
T1
X0.2323Y-0.7323
X0.2323Y-0.7795
X0.2323Y-0.8386
X0.2323Y-0.8858
X0.2559Y0.0512
X0.2835Y-0.7323
X0.2835Y-0.7795
X0.2835Y-0.8386
X0.2835Y-0.8858
X0.3307Y-0.7323
X0.3307Y-0.7795
X0.3307Y-0.8386
X0.3307Y-0.8858
X0.3406Y0.0551
X0.4016Y-0.5709
X0.4016Y-0.6181
X0.4488Y-1.4252
X0.4528Y-0.5709
X0.4528Y-0.6181
X0.4567Y-0.378
X0.4567Y-0.4252
X0.4567Y-0.4764
X0.5Y-0.5709
X0.5Y-0.6181
X0.5039Y-0.378
X0.5039Y-0.4252
X0.5039Y-0.4764
X0.626Y0.0079
X0.7207Y-1.2402
X0.7323Y-0.3031
X0.748Y0.0039
X0.748Y-0.3425
X0.748Y-0.3858
X0.7598Y-1.0906
X0.7638Y-0.4291
X0.7913Y-0.4567
X0.7953Y0.0079
X0.811Y-0.378
X0.8229Y-0.8466
X0.8543Y-0.815
X0.8819Y-0.7876
X0.9764Y0.0039
X1.0394Y-1.0354
X1.0591Y-0.4646
X1.0787Y0.0512
X1.0787Y0.0
X1.0944Y-1.1457
X1.0945Y-1.3937
X1.122Y0.0157
X1.1299Y-0.3386
X1.2283Y-1.3504
X1.2402Y-0.5984
X1.2677Y-1.3504
X1.2913Y-0.5039
X1.3346Y-0.2283
X1.3425Y-0.622
X1.3425Y-0.6811
X1.3543Y-0.3543
X1.3583Y-1.1496
X1.3661Y-0.4843
X1.374Y-0.6535
X1.4094Y0.0039
X1.4159Y-1.0813
X1.4173Y-0.5979
X1.4488Y-0.6339
X1.4606Y-0.5984
X1.4646Y-0.5039
X1.4921Y-0.6339
X1.5118Y-0.5984
X1.5276Y-0.9843
X1.563Y-1.0079
X1.5945Y-1.0354
X1.624Y-1.4232
X1.6496Y-1.0
X1.6693Y-0.5512
X1.689Y-1.0394
X1.689Y-1.4095
X1.7087Y-0.5512
X1.7205Y-1.0669
X1.7323Y-1.4095
X1.7756Y-1.4095
X1.8268Y-1.3858
X1.8858Y-0.4567
X1.9212Y-0.4449
X1.9291Y-1.0315
X1.9724Y-1.0315
X1.9764Y-0.4213
X1.9921Y-0.5551
X1.9921Y-0.5945
X2.0039Y-0.8898
X2.0118Y-0.752
X2.0276Y-0.5669
X2.0276Y-0.6141
X2.0531Y-0.8898
X2.0669Y-0.5945
X2.0811Y0.1535
X2.0984Y-1.0315
X2.1181Y0.1535
X2.1496Y-0.5276
X2.1535Y0.1535
X2.1929Y-0.8898
X2.2323Y-0.8898
X2.2362Y-0.525
X2.2461Y-0.5935
X2.2717Y-0.8898
X2.311Y-0.8898
X2.3307Y-0.5264
X2.3504Y-0.8898
X2.3898Y-0.8898
X2.4094Y-0.525
X2.4154Y-0.5974
X2.4213Y-0.685
X2.4252Y-0.8898
X2.4567Y-1.0748
X2.4685Y-1.3976
X2.4961Y0.1457
X2.4961Y-0.5264
X2.5157Y-1.3976
X2.5591Y-1.5
X2.5709Y-1.3661
X2.5857Y-1.1742
X2.5945Y-0.5308
X2.6102Y0.1417
X2.6181Y-0.6811
X2.622Y-0.7205
X2.622Y-0.7874
X2.622Y-0.8543
X2.6378Y-1.5079
X2.6437Y-1.3681
X2.6457Y0.0984
X2.6457Y0.063
X2.6457Y-0.5591
X2.6772Y-1.5
X2.6811Y-0.5591
X2.6811Y-0.9016
X2.685Y0.0984
X2.685Y0.063
X2.7008Y-0.9528
X2.7008Y-1.4016
X2.7165Y-0.5591
X2.72Y-0.9016
X2.7283Y0.0984
X2.7283Y0.063
X2.7559Y-0.5591
X2.7559Y-1.4016
X2.7756Y0.0984
X2.7756Y0.063
X2.7835Y-0.6339
X2.7953Y-0.5591
X2.8189Y0.0984
X2.8189Y0.063
X2.8248Y-1.187
X2.8248Y-1.2303
X2.8573Y-0.9892
X2.8701Y-1.185
X2.9055Y-0.0157
X2.9177Y-0.9724
X2.9226Y-1.1535
X2.9685Y-0.0984
X3.0004Y-1.0079
X3.0512Y-0.0669
X3.0791Y-1.1496
T2
X2.6255Y-1.1344
X2.6732Y-1.1457
X3.0039Y-0.2638
X3.0827Y-0.2756
T4
X2.074Y0.2441
X2.074Y-0.2559
X2.174Y0.2441
X2.174Y-0.2559
X2.274Y0.2441
X2.274Y-0.2559
X2.374Y0.2441
X2.374Y-0.2559
X2.474Y0.2441
X2.474Y-0.2559
X2.574Y0.2441
X2.574Y-0.2559
X2.674Y0.2441
X2.674Y-0.2559
X2.774Y0.2441
X2.774Y-0.2559
T5
X2.9803Y-0.3622
X2.9803Y-0.4606
X2.9803Y-0.5591
X2.9803Y-0.6575
X2.9803Y-0.7559
X2.9803Y-0.8543
T6
X0.0728Y-0.1457
X0.0728Y-0.5787
X0.0738Y-0.7165
X0.0738Y-1.1496
X2.0197Y-1.252
X2.1197Y-1.252
X2.2197Y-1.252
X2.3197Y-1.252
X2.6201Y-1.0404
X2.7185Y-1.0404
T7
X0.3898Y-1.4587
X0.3898Y-1.5768
X0.5079Y-1.4587
X0.5079Y-1.5768
X0.5394Y0.1921
X0.5394Y0.074
X0.8543Y-1.4583
X0.8543Y-1.5764
X0.8701Y0.1921
X0.8701Y0.074
X0.9724Y-1.4583
X0.9724Y-1.5764
X1.2008Y0.1921
X1.2008Y0.074
X1.3071Y-1.4567
X1.3071Y-1.5748
X1.3189Y0.1921
X1.3189Y0.074
X1.4252Y-1.4567
X1.4252Y-1.5748
X1.5433Y-1.4567
X1.5433Y-1.5748
X1.6614Y0.1921
X1.6614Y0.074
X1.7795Y0.1921
X1.7795Y0.074
X1.874Y-1.4567
X1.874Y-1.5748
X1.9921Y-1.4567
X1.9921Y-1.5748
X2.1102Y-1.4567
X2.1102Y-1.5748
T8
X0.2697Y-0.2638
X0.2697Y-0.4606
X0.4675Y-0.8346
X0.4675Y-1.0315
T3
G00X2.4382Y-1.4508
M15
G01X2.4382Y-1.4941
M16
G05
G00X2.4382Y-1.622
M15
G01X2.4382Y-1.6535
M16
G05
G00X2.7783Y-1.4508
M15
G01X2.7783Y-1.4941
M16
G05
G00X2.7783Y-1.622
M15
G01X2.7783Y-1.6535
M16
G05
M30
