%TF.GenerationSoftware,KiCad,Pcbnew,7.0.11-7.0.11~ubuntu22.04.1*%
%TF.CreationDate,2024-04-28T00:56:16+02:00*%
%TF.ProjectId,sdrac_board,73647261-635f-4626-9f61-72642e6b6963,2.0*%
%TF.SameCoordinates,Original*%
%TF.FileFunction,Copper,L1,Top*%
%TF.FilePolarity,Positive*%
%FSLAX46Y46*%
G04 Gerber Fmt 4.6, Leading zero omitted, Abs format (unit mm)*
G04 Created by KiCad (PCBNEW 7.0.11-7.0.11~ubuntu22.04.1) date 2024-04-28 00:56:16*
%MOMM*%
%LPD*%
G01*
G04 APERTURE LIST*
G04 Aperture macros list*
%AMRoundRect*
0 Rectangle with rounded corners*
0 $1 Rounding radius*
0 $2 $3 $4 $5 $6 $7 $8 $9 X,Y pos of 4 corners*
0 Add a 4 corners polygon primitive as box body*
4,1,4,$2,$3,$4,$5,$6,$7,$8,$9,$2,$3,0*
0 Add four circle primitives for the rounded corners*
1,1,$1+$1,$2,$3*
1,1,$1+$1,$4,$5*
1,1,$1+$1,$6,$7*
1,1,$1+$1,$8,$9*
0 Add four rect primitives between the rounded corners*
20,1,$1+$1,$2,$3,$4,$5,0*
20,1,$1+$1,$4,$5,$6,$7,0*
20,1,$1+$1,$6,$7,$8,$9,0*
20,1,$1+$1,$8,$9,$2,$3,0*%
%AMRotRect*
0 Rectangle, with rotation*
0 The origin of the aperture is its center*
0 $1 length*
0 $2 width*
0 $3 Rotation angle, in degrees counterclockwise*
0 Add horizontal line*
21,1,$1,$2,0,0,$3*%
G04 Aperture macros list end*
%TA.AperFunction,SMDPad,CuDef*%
%ADD10R,1.525000X0.650000*%
%TD*%
%TA.AperFunction,SMDPad,CuDef*%
%ADD11R,2.400000X3.100000*%
%TD*%
%TA.AperFunction,SMDPad,CuDef*%
%ADD12RoundRect,0.225000X0.250000X-0.225000X0.250000X0.225000X-0.250000X0.225000X-0.250000X-0.225000X0*%
%TD*%
%TA.AperFunction,ComponentPad*%
%ADD13C,2.600000*%
%TD*%
%TA.AperFunction,ComponentPad*%
%ADD14R,2.600000X2.600000*%
%TD*%
%TA.AperFunction,SMDPad,CuDef*%
%ADD15R,2.160000X1.120000*%
%TD*%
%TA.AperFunction,SMDPad,CuDef*%
%ADD16RoundRect,0.200000X0.275000X-0.200000X0.275000X0.200000X-0.275000X0.200000X-0.275000X-0.200000X0*%
%TD*%
%TA.AperFunction,ComponentPad*%
%ADD17RoundRect,0.250001X-0.499999X-0.499999X0.499999X-0.499999X0.499999X0.499999X-0.499999X0.499999X0*%
%TD*%
%TA.AperFunction,ComponentPad*%
%ADD18C,1.500000*%
%TD*%
%TA.AperFunction,SMDPad,CuDef*%
%ADD19R,1.500000X2.000000*%
%TD*%
%TA.AperFunction,SMDPad,CuDef*%
%ADD20R,3.800000X2.000000*%
%TD*%
%TA.AperFunction,ComponentPad*%
%ADD21C,1.400000*%
%TD*%
%TA.AperFunction,ComponentPad*%
%ADD22R,3.500000X3.500000*%
%TD*%
%TA.AperFunction,ComponentPad*%
%ADD23C,3.500000*%
%TD*%
%TA.AperFunction,ComponentPad*%
%ADD24RoundRect,0.250001X0.499999X0.499999X-0.499999X0.499999X-0.499999X-0.499999X0.499999X-0.499999X0*%
%TD*%
%TA.AperFunction,SMDPad,CuDef*%
%ADD25RoundRect,0.218750X0.218750X0.256250X-0.218750X0.256250X-0.218750X-0.256250X0.218750X-0.256250X0*%
%TD*%
%TA.AperFunction,SMDPad,CuDef*%
%ADD26RoundRect,0.250000X-1.000000X1.950000X-1.000000X-1.950000X1.000000X-1.950000X1.000000X1.950000X0*%
%TD*%
%TA.AperFunction,SMDPad,CuDef*%
%ADD27RoundRect,0.200000X-0.275000X0.200000X-0.275000X-0.200000X0.275000X-0.200000X0.275000X0.200000X0*%
%TD*%
%TA.AperFunction,SMDPad,CuDef*%
%ADD28RoundRect,0.250000X0.650000X-0.325000X0.650000X0.325000X-0.650000X0.325000X-0.650000X-0.325000X0*%
%TD*%
%TA.AperFunction,SMDPad,CuDef*%
%ADD29RoundRect,0.250000X1.100000X-0.325000X1.100000X0.325000X-1.100000X0.325000X-1.100000X-0.325000X0*%
%TD*%
%TA.AperFunction,SMDPad,CuDef*%
%ADD30RoundRect,0.250000X-1.100000X0.325000X-1.100000X-0.325000X1.100000X-0.325000X1.100000X0.325000X0*%
%TD*%
%TA.AperFunction,SMDPad,CuDef*%
%ADD31RoundRect,0.250000X-0.325000X-1.100000X0.325000X-1.100000X0.325000X1.100000X-0.325000X1.100000X0*%
%TD*%
%TA.AperFunction,SMDPad,CuDef*%
%ADD32R,0.650000X1.050000*%
%TD*%
%TA.AperFunction,SMDPad,CuDef*%
%ADD33R,1.050000X0.650000*%
%TD*%
%TA.AperFunction,SMDPad,CuDef*%
%ADD34RoundRect,0.250000X0.475000X-0.250000X0.475000X0.250000X-0.475000X0.250000X-0.475000X-0.250000X0*%
%TD*%
%TA.AperFunction,SMDPad,CuDef*%
%ADD35RoundRect,0.225000X-0.225000X-0.250000X0.225000X-0.250000X0.225000X0.250000X-0.225000X0.250000X0*%
%TD*%
%TA.AperFunction,SMDPad,CuDef*%
%ADD36RoundRect,0.250000X-0.650000X1.000000X-0.650000X-1.000000X0.650000X-1.000000X0.650000X1.000000X0*%
%TD*%
%TA.AperFunction,SMDPad,CuDef*%
%ADD37RoundRect,0.250000X0.250000X0.475000X-0.250000X0.475000X-0.250000X-0.475000X0.250000X-0.475000X0*%
%TD*%
%TA.AperFunction,ComponentPad*%
%ADD38R,1.700000X1.700000*%
%TD*%
%TA.AperFunction,ComponentPad*%
%ADD39O,1.700000X1.700000*%
%TD*%
%TA.AperFunction,SMDPad,CuDef*%
%ADD40R,0.600000X1.240000*%
%TD*%
%TA.AperFunction,SMDPad,CuDef*%
%ADD41R,0.300000X1.240000*%
%TD*%
%TA.AperFunction,ComponentPad*%
%ADD42O,1.000000X2.100000*%
%TD*%
%TA.AperFunction,ComponentPad*%
%ADD43O,1.000000X1.800000*%
%TD*%
%TA.AperFunction,SMDPad,CuDef*%
%ADD44RotRect,1.500000X4.700000X225.000000*%
%TD*%
%TA.AperFunction,SMDPad,CuDef*%
%ADD45RoundRect,0.200000X0.200000X0.275000X-0.200000X0.275000X-0.200000X-0.275000X0.200000X-0.275000X0*%
%TD*%
%TA.AperFunction,ComponentPad*%
%ADD46RoundRect,0.250000X0.725000X-0.600000X0.725000X0.600000X-0.725000X0.600000X-0.725000X-0.600000X0*%
%TD*%
%TA.AperFunction,ComponentPad*%
%ADD47O,1.950000X1.700000*%
%TD*%
%TA.AperFunction,SMDPad,CuDef*%
%ADD48RoundRect,0.250000X-1.625000X0.312500X-1.625000X-0.312500X1.625000X-0.312500X1.625000X0.312500X0*%
%TD*%
%TA.AperFunction,SMDPad,CuDef*%
%ADD49RoundRect,0.242778X-1.632222X0.303472X-1.632222X-0.303472X1.632222X-0.303472X1.632222X0.303472X0*%
%TD*%
%TA.AperFunction,SMDPad,CuDef*%
%ADD50RoundRect,0.225000X0.225000X0.250000X-0.225000X0.250000X-0.225000X-0.250000X0.225000X-0.250000X0*%
%TD*%
%TA.AperFunction,ComponentPad*%
%ADD51R,1.600000X1.600000*%
%TD*%
%TA.AperFunction,ComponentPad*%
%ADD52O,1.600000X1.600000*%
%TD*%
%TA.AperFunction,SMDPad,CuDef*%
%ADD53RoundRect,0.225000X-0.250000X0.225000X-0.250000X-0.225000X0.250000X-0.225000X0.250000X0.225000X0*%
%TD*%
%TA.AperFunction,ComponentPad*%
%ADD54RoundRect,0.250000X0.600000X0.750000X-0.600000X0.750000X-0.600000X-0.750000X0.600000X-0.750000X0*%
%TD*%
%TA.AperFunction,ComponentPad*%
%ADD55O,1.700000X2.000000*%
%TD*%
%TA.AperFunction,ViaPad*%
%ADD56C,0.550000*%
%TD*%
%TA.AperFunction,ViaPad*%
%ADD57C,0.800000*%
%TD*%
%TA.AperFunction,Conductor*%
%ADD58C,4.000000*%
%TD*%
%TA.AperFunction,Conductor*%
%ADD59C,1.750000*%
%TD*%
%TA.AperFunction,Conductor*%
%ADD60C,1.000000*%
%TD*%
%TA.AperFunction,Conductor*%
%ADD61C,0.750000*%
%TD*%
%TA.AperFunction,Conductor*%
%ADD62C,0.508000*%
%TD*%
%TA.AperFunction,Conductor*%
%ADD63C,0.254000*%
%TD*%
%TA.AperFunction,Conductor*%
%ADD64C,0.250000*%
%TD*%
%TA.AperFunction,Conductor*%
%ADD65C,1.270000*%
%TD*%
%TA.AperFunction,Conductor*%
%ADD66C,2.540000*%
%TD*%
G04 APERTURE END LIST*
D10*
%TO.P,IC1,1,BOOT*%
%TO.N,Net-(IC1-BOOT)*%
X37712000Y-21505000D03*
%TO.P,IC1,2,VIN*%
%TO.N,VDC*%
X37712000Y-20235000D03*
%TO.P,IC1,3,EN*%
%TO.N,Net-(IC1-EN)*%
X37712000Y-18965000D03*
%TO.P,IC1,4,RT/SYNC*%
%TO.N,Net-(IC1-RT{slash}SYNC)*%
X37712000Y-17695000D03*
%TO.P,IC1,5,FB*%
%TO.N,Net-(IC1-FB)*%
X32288000Y-17695000D03*
%TO.P,IC1,6,SS_OR_PGOOD*%
%TO.N,Net-(IC1-SS_OR_PGOOD)*%
X32288000Y-18965000D03*
%TO.P,IC1,7,GND*%
%TO.N,GND*%
X32288000Y-20235000D03*
%TO.P,IC1,8,SW*%
%TO.N,Net-(D7-K)*%
X32288000Y-21505000D03*
D11*
%TO.P,IC1,9,EP*%
%TO.N,GND*%
X35000000Y-19600000D03*
%TD*%
D12*
%TO.P,C34,1*%
%TO.N,+5V*%
X38800000Y-29775000D03*
%TO.P,C34,2*%
%TO.N,GND*%
X38800000Y-28225000D03*
%TD*%
D13*
%TO.P,J4,2,Pin_2*%
%TO.N,VCC*%
X3695000Y-36100000D03*
D14*
%TO.P,J4,1,Pin_1*%
%TO.N,GND*%
X3695000Y-31100000D03*
%TD*%
D15*
%TO.P,SW4,1*%
%TO.N,Net-(R22-Pad2)*%
X18765000Y-30973000D03*
%TO.P,SW4,2*%
%TO.N,/CAN/CANL*%
X12035000Y-30973000D03*
%TD*%
D16*
%TO.P,R28,1*%
%TO.N,Net-(IC1-EN)*%
X43000000Y-17325000D03*
%TO.P,R28,2*%
%TO.N,GND*%
X43000000Y-15675000D03*
%TD*%
D17*
%TO.P,U4,1,Pin_1*%
%TO.N,GND*%
X13500000Y-36880000D03*
D18*
%TO.P,U4,2,Pin_2*%
%TO.N,/CAN/CAN_5V*%
X16500000Y-36880000D03*
%TO.P,U4,3,Pin_3*%
%TO.N,/CAN/CANH*%
X13500000Y-39880000D03*
%TO.P,U4,4,Pin_4*%
%TO.N,/CAN/CANL*%
X16500000Y-39880000D03*
%TD*%
D16*
%TO.P,R29,1*%
%TO.N,Net-(IC1-RT{slash}SYNC)*%
X39500000Y-17625000D03*
%TO.P,R29,2*%
%TO.N,GND*%
X39500000Y-15975000D03*
%TD*%
D19*
%TO.P,U6,1,GND*%
%TO.N,GND*%
X56300000Y-25300000D03*
%TO.P,U6,2,VO*%
%TO.N,+3V3*%
X58600000Y-25300000D03*
D20*
X58600000Y-19000000D03*
D19*
%TO.P,U6,3,VI*%
%TO.N,+5V*%
X60900000Y-25300000D03*
%TD*%
D21*
%TO.P,J6,*%
%TO.N,*%
X2150000Y-11900000D03*
X2150000Y-900000D03*
D22*
%TO.P,J6,1,Pin_1*%
%TO.N,GND*%
X7150000Y-8900000D03*
D23*
%TO.P,J6,2,Pin_2*%
%TO.N,VCC*%
X7150000Y-3900000D03*
%TD*%
D24*
%TO.P,J8,1,Pin_1*%
%TO.N,/SteperMotor/STEPER_B2*%
X45200000Y1880000D03*
D18*
%TO.P,J8,2,Pin_2*%
%TO.N,/SteperMotor/STEPER_A2*%
X42200000Y1880000D03*
%TO.P,J8,3,Pin_3*%
%TO.N,/SteperMotor/STEPER_A1*%
X45200000Y4880000D03*
%TO.P,J8,4,Pin_4*%
%TO.N,/SteperMotor/STEPER_B1*%
X42200000Y4880000D03*
%TD*%
D25*
%TO.P,D6,1,K*%
%TO.N,GND*%
X69187500Y-16600000D03*
%TO.P,D6,2,A*%
%TO.N,Net-(D6-A)*%
X67612500Y-16600000D03*
%TD*%
D26*
%TO.P,C16,1*%
%TO.N,VCC*%
X29200000Y-4100000D03*
%TO.P,C16,2*%
%TO.N,GND*%
X29200000Y-12500000D03*
%TD*%
D21*
%TO.P,J5,*%
%TO.N,*%
X2200000Y-26300000D03*
X2200000Y-15300000D03*
D22*
%TO.P,J5,1,Pin_1*%
%TO.N,GND*%
X12200000Y-18300000D03*
D23*
%TO.P,J5,2,Pin_2*%
%TO.N,VCC*%
X12200000Y-23300000D03*
%TD*%
D16*
%TO.P,R30,2*%
%TO.N,Net-(IC1-FB)*%
X24500000Y-18375000D03*
%TO.P,R30,1*%
%TO.N,+5V*%
X24500000Y-20025000D03*
%TD*%
D27*
%TO.P,C35,1*%
%TO.N,Net-(IC1-SS_OR_PGOOD)*%
X30500000Y-18375000D03*
%TO.P,C35,2*%
%TO.N,GND*%
X30500000Y-20025000D03*
%TD*%
D12*
%TO.P,C33,1*%
%TO.N,+5V*%
X37300000Y-29775000D03*
%TO.P,C33,2*%
%TO.N,GND*%
X37300000Y-28225000D03*
%TD*%
D28*
%TO.P,C43,1*%
%TO.N,VCC*%
X59100000Y-675000D03*
%TO.P,C43,2*%
%TO.N,GND*%
X59100000Y2275000D03*
%TD*%
D29*
%TO.P,C47,1*%
%TO.N,VCC*%
X71600000Y-2675000D03*
%TO.P,C47,2*%
%TO.N,GND*%
X71600000Y275000D03*
%TD*%
D18*
%TO.P,J12,6,Pin_6*%
%TO.N,/MCU/SDA*%
X42200000Y-39900000D03*
%TO.P,J12,5,Pin_5*%
%TO.N,/MCU/SCL*%
X39200000Y-39900000D03*
%TO.P,J12,4,Pin_4*%
%TO.N,/MCU/Poz_zero_sens*%
X36200000Y-39900000D03*
%TO.P,J12,3,Pin_3*%
%TO.N,GND*%
X42200000Y-36900000D03*
%TO.P,J12,2,Pin_2*%
%TO.N,+3V3*%
X39200000Y-36900000D03*
D17*
%TO.P,J12,1,Pin_1*%
%TO.N,+5V*%
X36200000Y-36900000D03*
%TD*%
D25*
%TO.P,D3,1,K*%
%TO.N,GND*%
X69187500Y-20000000D03*
%TO.P,D3,2,A*%
%TO.N,Net-(D3-A)*%
X67612500Y-20000000D03*
%TD*%
D27*
%TO.P,C25,1*%
%TO.N,Net-(IC1-BOOT)*%
X40600000Y-22275000D03*
%TO.P,C25,2*%
%TO.N,Net-(C25-Pad2)*%
X40600000Y-23925000D03*
%TD*%
D30*
%TO.P,C23,1*%
%TO.N,VCC*%
X36600000Y-5125000D03*
%TO.P,C23,2*%
%TO.N,GND*%
X36600000Y-8075000D03*
%TD*%
D28*
%TO.P,C17,1*%
%TO.N,+5V*%
X49400000Y-27975000D03*
%TO.P,C17,2*%
%TO.N,GND*%
X49400000Y-25025000D03*
%TD*%
D31*
%TO.P,C29,1*%
%TO.N,VDC*%
X46625000Y-21300000D03*
%TO.P,C29,2*%
%TO.N,GND*%
X49575000Y-21300000D03*
%TD*%
D32*
%TO.P,SW2,1,1*%
%TO.N,GND*%
X6525000Y1725000D03*
X6525000Y5875000D03*
%TO.P,SW2,2,2*%
%TO.N,/MCU/NRST*%
X8675000Y1725000D03*
X8675000Y5875000D03*
%TD*%
D28*
%TO.P,C44,1*%
%TO.N,VCC*%
X61700000Y-675000D03*
%TO.P,C44,2*%
%TO.N,GND*%
X61700000Y2275000D03*
%TD*%
D33*
%TO.P,SW1,1,1*%
%TO.N,Net-(R1-Pad1)*%
X78375000Y-27875000D03*
X74225000Y-27875000D03*
%TO.P,SW1,2,2*%
%TO.N,+3V3*%
X78375000Y-25725000D03*
X74225000Y-25725000D03*
%TD*%
D34*
%TO.P,C30,1*%
%TO.N,+5V*%
X33200000Y-30550000D03*
%TO.P,C30,2*%
%TO.N,GND*%
X33200000Y-28650000D03*
%TD*%
D12*
%TO.P,C18,1*%
%TO.N,+5V*%
X51400000Y-27775000D03*
%TO.P,C18,2*%
%TO.N,GND*%
X51400000Y-26225000D03*
%TD*%
D30*
%TO.P,C28,2*%
%TO.N,GND*%
X43500000Y-24175000D03*
%TO.P,C28,1*%
%TO.N,VDC*%
X43500000Y-21225000D03*
%TD*%
D35*
%TO.P,C27,1*%
%TO.N,VDC*%
X47300000Y-18900000D03*
%TO.P,C27,2*%
%TO.N,GND*%
X48850000Y-18900000D03*
%TD*%
D26*
%TO.P,C15,1*%
%TO.N,VCC*%
X15700000Y-4000000D03*
%TO.P,C15,2*%
%TO.N,GND*%
X15700000Y-12400000D03*
%TD*%
D29*
%TO.P,C46,1*%
%TO.N,VCC*%
X68200000Y-2675000D03*
%TO.P,C46,2*%
%TO.N,GND*%
X68200000Y275000D03*
%TD*%
D16*
%TO.P,R26,1*%
%TO.N,VDC*%
X41300000Y-18925000D03*
%TO.P,R26,2*%
%TO.N,Net-(IC1-EN)*%
X41300000Y-17275000D03*
%TD*%
D27*
%TO.P,R31,1*%
%TO.N,Net-(IC1-FB)*%
X29000000Y-18375000D03*
%TO.P,R31,2*%
%TO.N,GND*%
X29000000Y-20025000D03*
%TD*%
D36*
%TO.P,D7,1,K*%
%TO.N,Net-(D7-K)*%
X28200000Y-23500000D03*
%TO.P,D7,2,A*%
%TO.N,GND*%
X28200000Y-27500000D03*
%TD*%
D33*
%TO.P,SW3,1,1*%
%TO.N,GND*%
X74225000Y-30725000D03*
X78375000Y-30725000D03*
%TO.P,SW3,2,2*%
%TO.N,/MCU/USR_BTN*%
X74225000Y-32875000D03*
X78375000Y-32875000D03*
%TD*%
D16*
%TO.P,R27,1*%
%TO.N,Net-(D7-K)*%
X26000000Y-20025000D03*
%TO.P,R27,2*%
%TO.N,Net-(C36-Pad1)*%
X26000000Y-18375000D03*
%TD*%
D17*
%TO.P,J11,1,Pin_1*%
%TO.N,+5V*%
X50700000Y-36980000D03*
D18*
%TO.P,J11,2,Pin_2*%
%TO.N,+3V3*%
X53700000Y-36980000D03*
%TO.P,J11,3,Pin_3*%
%TO.N,GND*%
X56700000Y-36980000D03*
%TO.P,J11,4,Pin_4*%
%TO.N,/MCU/Mag_enc_analog*%
X50700000Y-39980000D03*
%TO.P,J11,5,Pin_5*%
%TO.N,/MCU/SCL*%
X53700000Y-39980000D03*
%TO.P,J11,6,Pin_6*%
%TO.N,/MCU/SDA*%
X56700000Y-39980000D03*
%TD*%
D35*
%TO.P,C26,1*%
%TO.N,VDC*%
X47300000Y-17200000D03*
%TO.P,C26,2*%
%TO.N,GND*%
X48850000Y-17200000D03*
%TD*%
D12*
%TO.P,C32,1*%
%TO.N,+5V*%
X35800000Y-29775000D03*
%TO.P,C32,2*%
%TO.N,GND*%
X35800000Y-28225000D03*
%TD*%
D18*
%TO.P,U5,4,Pin_4*%
%TO.N,/CAN/CANL*%
X27800000Y-39880000D03*
%TO.P,U5,3,Pin_3*%
%TO.N,/CAN/CANH*%
X24800000Y-39880000D03*
%TO.P,U5,2,Pin_2*%
%TO.N,/CAN/CAN_5V*%
X27800000Y-36880000D03*
D17*
%TO.P,U5,1,Pin_1*%
%TO.N,GND*%
X24800000Y-36880000D03*
%TD*%
D37*
%TO.P,C21,1*%
%TO.N,+3V3*%
X54050000Y-23100000D03*
%TO.P,C21,2*%
%TO.N,GND*%
X52150000Y-23100000D03*
%TD*%
D38*
%TO.P,J1,1,Pin_1*%
%TO.N,GND*%
X51300000Y-31800000D03*
D39*
%TO.P,J1,2,Pin_2*%
%TO.N,/MCU/SWCLK*%
X53840000Y-31800000D03*
%TO.P,J1,3,Pin_3*%
%TO.N,/MCU/SWDIO*%
X56380000Y-31800000D03*
%TO.P,J1,4,Pin_4*%
%TO.N,/MCU/NRST*%
X58920000Y-31800000D03*
%TD*%
D40*
%TO.P,J9,A1,GND*%
%TO.N,GND*%
X63050000Y-36800000D03*
%TO.P,J9,A4,VBUS*%
%TO.N,/USB/V_BUS*%
X63850000Y-36800000D03*
D41*
%TO.P,J9,A5,CC1*%
%TO.N,Net-(J9-CC1)*%
X65000000Y-36800000D03*
%TO.P,J9,A6,D+*%
%TO.N,/USB/USB_CONN_D+*%
X66000000Y-36800000D03*
%TO.P,J9,A7,D-*%
%TO.N,/USB/USB_CONN_D-*%
X66500000Y-36800000D03*
%TO.P,J9,A8,SBU1*%
%TO.N,unconnected-(J9-SBU1-PadA8)*%
X67500000Y-36800000D03*
D40*
%TO.P,J9,A9,VBUS*%
%TO.N,/USB/V_BUS*%
X68650000Y-36800000D03*
%TO.P,J9,A12,GND*%
%TO.N,GND*%
X69450000Y-36800000D03*
%TO.P,J9,B1,GND*%
X69450000Y-36800000D03*
%TO.P,J9,B4,VBUS*%
%TO.N,/USB/V_BUS*%
X68650000Y-36800000D03*
D41*
%TO.P,J9,B5,CC2*%
%TO.N,Net-(J9-CC2)*%
X68000000Y-36800000D03*
%TO.P,J9,B6,D+*%
%TO.N,/USB/USB_CONN_D+*%
X67000000Y-36800000D03*
%TO.P,J9,B7,D-*%
%TO.N,/USB/USB_CONN_D-*%
X65500000Y-36800000D03*
%TO.P,J9,B8,SBU2*%
%TO.N,unconnected-(J9-SBU2-PadB8)*%
X64500000Y-36800000D03*
D40*
%TO.P,J9,B9,VBUS*%
%TO.N,/USB/V_BUS*%
X63850000Y-36800000D03*
%TO.P,J9,B12,GND*%
%TO.N,GND*%
X63050000Y-36800000D03*
D42*
%TO.P,J9,S1,SHIELD*%
%TO.N,Net-(J9-SHIELD)*%
X61930000Y-37400000D03*
D43*
X61930000Y-41600000D03*
D42*
X70570000Y-37400000D03*
D43*
X70570000Y-41600000D03*
%TD*%
D24*
%TO.P,J7,1,Pin_1*%
%TO.N,/SteperMotor/STEPER_ENABLE*%
X33500000Y1880000D03*
D18*
%TO.P,J7,2,Pin_2*%
%TO.N,/SteperMotor/STEPER_STEP*%
X30500000Y1880000D03*
%TO.P,J7,3,Pin_3*%
%TO.N,/SteperMotor/STEPER_DIRECTION*%
X33500000Y4880000D03*
%TO.P,J7,4,Pin_4*%
%TO.N,+5V*%
X30500000Y4880000D03*
%TD*%
D34*
%TO.P,C31,1*%
%TO.N,+5V*%
X31100000Y-30550000D03*
%TO.P,C31,2*%
%TO.N,GND*%
X31100000Y-28650000D03*
%TD*%
D44*
%TO.P,L1,1,1*%
%TO.N,VCC*%
X45614214Y-6785786D03*
%TO.P,L1,2,2*%
%TO.N,VDC*%
X42785786Y-9614214D03*
%TD*%
D45*
%TO.P,R25,1*%
%TO.N,Net-(C25-Pad2)*%
X39125000Y-23600000D03*
%TO.P,R25,2*%
%TO.N,Net-(D7-K)*%
X37475000Y-23600000D03*
%TD*%
D46*
%TO.P,J3,1,Pin_1*%
%TO.N,GND*%
X75700000Y-21700000D03*
D47*
%TO.P,J3,2,Pin_2*%
%TO.N,/MCU/C_TX*%
X75700000Y-19200000D03*
%TO.P,J3,3,Pin_3*%
%TO.N,/MCU/C_RX*%
X75700000Y-16700000D03*
%TO.P,J3,4,Pin_4*%
%TO.N,/MCU/C_A2*%
X75700000Y-14200000D03*
%TO.P,J3,5,Pin_5*%
%TO.N,/MCU/C_A1*%
X75700000Y-11700000D03*
%TO.P,J3,6,Pin_6*%
%TO.N,+5V*%
X75700000Y-9200000D03*
%TD*%
D25*
%TO.P,D9,1,K*%
%TO.N,GND*%
X78300000Y-4800000D03*
%TO.P,D9,2,A*%
%TO.N,Net-(D9-A)*%
X76725000Y-4800000D03*
%TD*%
%TO.P,D8,1,K*%
%TO.N,GND*%
X78287500Y-3100000D03*
%TO.P,D8,2,A*%
%TO.N,Net-(D8-A)*%
X76712500Y-3100000D03*
%TD*%
%TO.P,D4,1,K*%
%TO.N,GND*%
X69187500Y-21700000D03*
%TO.P,D4,2,A*%
%TO.N,Net-(D4-A)*%
X67612500Y-21700000D03*
%TD*%
D48*
%TO.P,L2,1,1*%
%TO.N,Net-(D7-K)*%
X24092000Y-25004000D03*
D49*
%TO.P,L2,2,2*%
%TO.N,+5V*%
X24082000Y-28020250D03*
%TD*%
D31*
%TO.P,C24,1*%
%TO.N,VDC*%
X46425000Y-14600000D03*
%TO.P,C24,2*%
%TO.N,GND*%
X49375000Y-14600000D03*
%TD*%
D50*
%TO.P,C19,1*%
%TO.N,+3V3*%
X53775000Y-17000000D03*
%TO.P,C19,2*%
%TO.N,GND*%
X52225000Y-17000000D03*
%TD*%
D37*
%TO.P,C22,1*%
%TO.N,+3V3*%
X54050000Y-18900000D03*
%TO.P,C22,2*%
%TO.N,GND*%
X52150000Y-18900000D03*
%TD*%
D51*
%TO.P,A1,1,GND*%
%TO.N,GND*%
X52680000Y-6500000D03*
D52*
%TO.P,A1,2,VDD*%
%TO.N,+5V*%
X55220000Y-6500000D03*
%TO.P,A1,3,1B*%
%TO.N,/SteperMotor/STEPER_B1*%
X57760000Y-6500000D03*
%TO.P,A1,4,1A*%
%TO.N,/SteperMotor/STEPER_A1*%
X60300000Y-6500000D03*
%TO.P,A1,5,2A*%
%TO.N,/SteperMotor/STEPER_A2*%
X62840000Y-6500000D03*
%TO.P,A1,6,2B*%
%TO.N,/SteperMotor/STEPER_B2*%
X65380000Y-6500000D03*
%TO.P,A1,7,GND*%
%TO.N,GND*%
X67920000Y-6500000D03*
%TO.P,A1,8,VMOT*%
%TO.N,VCC*%
X70460000Y-6500000D03*
%TO.P,A1,9,~{ENABLE}*%
%TO.N,/SteperMotor/STEPER_ENABLE*%
X70460000Y6200000D03*
%TO.P,A1,10,MS1*%
%TO.N,Net-(A1-MS1)*%
X67920000Y6200000D03*
%TO.P,A1,11,MS2*%
%TO.N,Net-(A1-MS2)*%
X65380000Y6200000D03*
%TO.P,A1,12,MS3*%
%TO.N,Net-(A1-MS3)*%
X62840000Y6200000D03*
%TO.P,A1,13,~{RESET}*%
%TO.N,+5V*%
X60300000Y6200000D03*
%TO.P,A1,14,~{SLEEP}*%
X57760000Y6200000D03*
%TO.P,A1,15,STEP*%
%TO.N,/SteperMotor/STEPER_STEP*%
X55220000Y6200000D03*
%TO.P,A1,16,DIR*%
%TO.N,/SteperMotor/STEPER_DIRECTION*%
X52680000Y6200000D03*
%TD*%
D24*
%TO.P,J10,1,Pin_1*%
%TO.N,/MCU/Temp_Eng*%
X22100000Y1880000D03*
D18*
%TO.P,J10,2,Pin_2*%
%TO.N,GND*%
X22100000Y4880000D03*
%TD*%
D53*
%TO.P,C36,1*%
%TO.N,Net-(C36-Pad1)*%
X27500000Y-18425000D03*
%TO.P,C36,2*%
%TO.N,GND*%
X27500000Y-19975000D03*
%TD*%
D24*
%TO.P,J13,1,Pin_1*%
%TO.N,/MCU/Temp_Step*%
X13700000Y1880000D03*
D18*
%TO.P,J13,2,Pin_2*%
%TO.N,GND*%
X13700000Y4880000D03*
%TD*%
D37*
%TO.P,C20,1*%
%TO.N,+3V3*%
X54050000Y-21000000D03*
%TO.P,C20,2*%
%TO.N,GND*%
X52150000Y-21000000D03*
%TD*%
D25*
%TO.P,D5,1,K*%
%TO.N,GND*%
X69187500Y-18300000D03*
%TO.P,D5,2,A*%
%TO.N,Net-(D5-A)*%
X67612500Y-18300000D03*
%TD*%
D28*
%TO.P,C42,1*%
%TO.N,VCC*%
X56500000Y-675000D03*
%TO.P,C42,2*%
%TO.N,GND*%
X56500000Y2275000D03*
%TD*%
D54*
%TO.P,J2,1,Pin_1*%
%TO.N,/MCU/SYNC_I2C_SDA*%
X69050000Y-26425000D03*
D55*
%TO.P,J2,2,Pin_2*%
%TO.N,/MCU/SYNC_I2C_SCL*%
X66550000Y-26425000D03*
%TD*%
D29*
%TO.P,C45,1*%
%TO.N,VCC*%
X64800000Y-675000D03*
%TO.P,C45,2*%
%TO.N,GND*%
X64800000Y2275000D03*
%TD*%
D56*
%TO.N,GND*%
X29700000Y-27900000D03*
X29700000Y-26900000D03*
X44300000Y-27800000D03*
X43400000Y-26900000D03*
X39400000Y-25300000D03*
X33800000Y-15300000D03*
X32800000Y-12800000D03*
X34900000Y-12000000D03*
X37300000Y-12000000D03*
X31600000Y-11700000D03*
X37200000Y-10900000D03*
X31600000Y-12800000D03*
X46300000Y-24000000D03*
X47400000Y-26400000D03*
%TO.N,+3V3*%
X27200000Y-33800000D03*
%TO.N,/CAN/CANL*%
X12035000Y-30973000D03*
%TO.N,GND*%
X63400000Y-13371000D03*
X71750000Y-30150000D03*
X7300000Y-14800000D03*
X67200000Y1600000D03*
X43100000Y-34498000D03*
X31500000Y-15200000D03*
X36000000Y-15185995D03*
X10200000Y-14500000D03*
X51500000Y-14400000D03*
X19000000Y100000D03*
X12000000Y-11600000D03*
X27400000Y1300000D03*
X8500000Y-17500000D03*
X68100000Y-22900000D03*
X34400000Y-16400000D03*
X37900000Y-16100000D03*
X12700000Y-14500000D03*
X34500000Y-17300000D03*
X27400000Y0D03*
X8500000Y-14800000D03*
X26900000Y-11800000D03*
X52150000Y-22602000D03*
X40100000Y-26000000D03*
X32600000Y-15200000D03*
X36800000Y-13200000D03*
X11500000Y-15700000D03*
X27600000Y-29400000D03*
X61350000Y-15175000D03*
X41800000Y-25200000D03*
X7300000Y-18700000D03*
X36800000Y-16100000D03*
X71600000Y2500000D03*
X35800000Y-27000000D03*
X54600000Y-13400000D03*
X67000000Y-38300000D03*
X51500000Y-15598000D03*
X12000000Y-10300000D03*
X42400000Y-14000000D03*
X12000000Y-9100000D03*
X71600000Y1600000D03*
X8500000Y-16000000D03*
X74235000Y-29300000D03*
X37100000Y-15200000D03*
X43400000Y-14000000D03*
X68200000Y1600000D03*
X32822529Y-11600000D03*
X78210000Y-29200000D03*
X34900000Y-10800000D03*
X28700000Y-8600000D03*
X49000000Y-26200000D03*
X6000000Y-17500000D03*
X52500000Y-15100000D03*
X57050000Y-15075000D03*
X20600000Y-9600000D03*
X50100000Y-26200000D03*
X42500000Y-26000000D03*
X10200000Y-15700000D03*
X65675679Y-29824321D03*
X53300000Y-26200000D03*
X6000000Y-18700000D03*
X69087500Y-22900000D03*
X44900000Y-34498000D03*
X50900000Y-22602000D03*
X7300000Y-17500000D03*
X13200000Y-11600000D03*
X62700000Y-35500000D03*
X34400000Y-9000000D03*
X66300000Y3600000D03*
X31200000Y-34300000D03*
X6525000Y1725000D03*
X71750000Y-31250000D03*
X67200000Y2500000D03*
X69300000Y2500000D03*
X70000000Y-35600000D03*
X70500000Y1600000D03*
X6000000Y-14800000D03*
X40900000Y-26800000D03*
X13200000Y-10300000D03*
X8500000Y-18700000D03*
X11500000Y-14500000D03*
X59200000Y-13371000D03*
X38400000Y-15200000D03*
X50600000Y-14100000D03*
X7300000Y-16000000D03*
X13200000Y-9100000D03*
X41300000Y-35702000D03*
X19300000Y-27700000D03*
X50600000Y-15100000D03*
X6000000Y-16000000D03*
X63400000Y3700000D03*
X41900000Y-27800000D03*
D57*
X78300000Y-7000000D03*
D56*
X70500000Y2500000D03*
X69300000Y1600000D03*
X68200000Y2500000D03*
X51100000Y-19102000D03*
X12700000Y-15700000D03*
%TO.N,+5V*%
X67200000Y-14200000D03*
X70000000Y-14200000D03*
D57*
X66686500Y-28813500D03*
D56*
X21450000Y-22150000D03*
X71000000Y-14200000D03*
X56800000Y-13335500D03*
X52858679Y3900000D03*
X65900000Y-13483501D03*
X61200000Y-13335500D03*
X22300000Y-21300000D03*
X69000000Y-14200000D03*
X68100000Y-14200000D03*
X54700000Y3900000D03*
X22950000Y-20650000D03*
X53800000Y3900000D03*
D57*
X67900000Y-29100000D03*
D56*
%TO.N,/SteperMotor/STEPER_DIRECTION*%
X35800000Y100000D03*
%TO.N,/MCU/NRST*%
X47333000Y-35037000D03*
X8650000Y500000D03*
X11773000Y-42530000D03*
%TO.N,+3V3*%
X28500000Y400000D03*
X34500000Y-29200000D03*
X32200000Y-34300000D03*
X24800000Y100000D03*
X59700000Y-22602000D03*
X61500000Y-17400000D03*
X20100000Y-11600000D03*
X60700000Y-22602000D03*
X62400000Y-27300000D03*
D57*
X76300000Y-6700000D03*
D56*
X58700000Y-22602000D03*
X72574321Y-25125679D03*
X19000000Y-8700000D03*
X19000000Y-9800000D03*
X55700000Y-22602000D03*
X57700000Y-22602000D03*
X19400000Y-10900000D03*
X26400000Y-26200000D03*
X44000000Y-35702000D03*
X18600000Y-7700000D03*
X20200000Y200000D03*
X74110000Y-24700000D03*
X61600000Y-22602000D03*
X15900000Y200000D03*
X56700000Y-22602000D03*
X68600000Y-24200000D03*
%TO.N,/USB/V_BUS*%
X68600000Y-35600000D03*
X63900000Y-35500000D03*
%TO.N,Net-(D3-A)*%
X66600000Y-20000000D03*
%TO.N,Net-(D4-A)*%
X66600000Y-21700000D03*
%TO.N,Net-(D5-A)*%
X66600000Y-18300000D03*
%TO.N,Net-(D6-A)*%
X66500000Y-17300000D03*
%TO.N,Net-(D8-A)*%
X77500000Y-1700000D03*
%TO.N,/USB/USB_CONN_D+*%
X67150000Y-34750000D03*
%TO.N,/USB/USB_CONN_D-*%
X65300000Y-34700000D03*
%TO.N,Net-(D9-A)*%
X75400000Y-2500000D03*
%TO.N,/MCU/USR_BTN*%
X72900000Y-30100000D03*
%TO.N,Net-(J9-CC2)*%
X68000000Y-38100000D03*
%TO.N,Net-(J9-CC1)*%
X65000000Y-38100000D03*
%TO.N,Net-(R1-Pad1)*%
X76210000Y-25600000D03*
%TO.N,/MCU/Poz_zero_sens*%
X70700000Y-16100000D03*
%TO.N,/MCU/C_A2*%
X48798000Y-11300000D03*
%TO.N,/MCU/C_A1*%
X50200000Y-10700000D03*
%TO.N,VCC*%
X33900000Y-5800000D03*
X73800000Y-400000D03*
%TO.N,/MCU/C_RX*%
X47900000Y-11600000D03*
%TO.N,Net-(R22-Pad2)*%
X18765000Y-30973000D03*
%TD*%
D58*
%TO.N,VCC*%
X12200000Y-23300000D02*
X8300000Y-27200000D01*
X5757000Y-36100000D02*
X3600000Y-36100000D01*
X8300000Y-27200000D02*
X8300000Y-33557000D01*
X8300000Y-33557000D02*
X5757000Y-36100000D01*
X15600000Y-3600000D02*
X21200000Y-3600000D01*
X21200000Y-3600000D02*
X23750000Y-6150000D01*
X23750000Y-6150000D02*
X23750000Y-14750000D01*
X23750000Y-14750000D02*
X15200000Y-23300000D01*
X15200000Y-23300000D02*
X12200000Y-23300000D01*
D59*
%TO.N,+5V*%
X44300000Y-30300000D02*
X46100000Y-30300000D01*
X46100000Y-30300000D02*
X48200000Y-28200000D01*
X48200000Y-28200000D02*
X59600000Y-28200000D01*
X59600000Y-28200000D02*
X60900000Y-26900000D01*
X60900000Y-26900000D02*
X60900000Y-25300000D01*
D60*
X50700000Y-36980000D02*
X50700000Y-35300000D01*
X50700000Y-35300000D02*
X46700000Y-31300000D01*
X46700000Y-31300000D02*
X45400000Y-31300000D01*
D61*
X21450000Y-22150000D02*
X20900000Y-22700000D01*
X20900000Y-22700000D02*
X20900000Y-27300000D01*
X20900000Y-27300000D02*
X21696250Y-28096250D01*
X21696250Y-28096250D02*
X23810000Y-28096250D01*
X22950000Y-20650000D02*
X21450000Y-22150000D01*
X22950000Y-20650000D02*
X23575000Y-20025000D01*
X23575000Y-20025000D02*
X24500000Y-20025000D01*
D62*
%TO.N,Net-(C25-Pad2)*%
X40600000Y-23925000D02*
X39450000Y-23925000D01*
X39450000Y-23925000D02*
X39125000Y-23600000D01*
D61*
%TO.N,GND*%
X27500000Y-19975000D02*
X27755000Y-20230000D01*
X27755000Y-20230000D02*
X34370000Y-20230000D01*
X34370000Y-20230000D02*
X35000000Y-19600000D01*
D62*
%TO.N,Net-(IC1-FB)*%
X24500000Y-18375000D02*
X24500000Y-18100000D01*
X24500000Y-18100000D02*
X25284000Y-17316000D01*
X25284000Y-17316000D02*
X31926000Y-17316000D01*
D63*
%TO.N,/MCU/Poz_zero_sens*%
X36200000Y-39900000D02*
X38700000Y-42400000D01*
X38700000Y-42400000D02*
X56353000Y-42400000D01*
X56353000Y-42400000D02*
X58763000Y-39990000D01*
X71300000Y-29000000D02*
X71300000Y-16700000D01*
X58763000Y-39990000D02*
X58763000Y-36837000D01*
X58763000Y-36837000D02*
X62500000Y-33100000D01*
X62500000Y-33100000D02*
X67200000Y-33100000D01*
X67200000Y-33100000D02*
X71300000Y-29000000D01*
X71300000Y-16700000D02*
X70700000Y-16100000D01*
D60*
%TO.N,+5V*%
X36200000Y-36900000D02*
X36200000Y-31524000D01*
X36200000Y-31524000D02*
X36157000Y-31481000D01*
D63*
%TO.N,/CAN/CANL*%
X16500000Y-39880000D02*
X16500000Y-39581000D01*
X16500000Y-39581000D02*
X17615000Y-38466000D01*
X17615000Y-38466000D02*
X26386000Y-38466000D01*
X26386000Y-38466000D02*
X27800000Y-39880000D01*
%TO.N,/MCU/NRST*%
X37261000Y-38339000D02*
X35522000Y-38339000D01*
X37700000Y-36200000D02*
X37700000Y-37900000D01*
X38800000Y-35100000D02*
X37700000Y-36200000D01*
X37700000Y-37900000D02*
X37261000Y-38339000D01*
X47270000Y-35100000D02*
X38800000Y-35100000D01*
X34633000Y-39228000D02*
X34633000Y-41895000D01*
X47333000Y-35037000D02*
X47270000Y-35100000D01*
X35522000Y-38339000D02*
X34633000Y-39228000D01*
X34633000Y-41895000D02*
X33998000Y-42530000D01*
X33998000Y-42530000D02*
X11773000Y-42530000D01*
%TO.N,/CAN/CANH*%
X13500000Y-39880000D02*
X15642000Y-42022000D01*
X15642000Y-42022000D02*
X22658000Y-42022000D01*
X22658000Y-42022000D02*
X24800000Y-39880000D01*
%TO.N,/MCU/SCL*%
X39200000Y-39900000D02*
X41111000Y-41811000D01*
X41111000Y-41811000D02*
X51869000Y-41811000D01*
X51869000Y-41811000D02*
X53700000Y-39980000D01*
X38748000Y-40187224D02*
X38748000Y-39900000D01*
D64*
%TO.N,/MCU/SDA*%
X42200000Y-39900000D02*
X43195000Y-38905000D01*
X43195000Y-38905000D02*
X55625000Y-38905000D01*
X55625000Y-38905000D02*
X56700000Y-39980000D01*
D62*
%TO.N,/CAN/CAN_5V*%
X16500000Y-36880000D02*
X17780000Y-35600000D01*
X17780000Y-35600000D02*
X26520000Y-35600000D01*
X26520000Y-35600000D02*
X27800000Y-36880000D01*
D58*
%TO.N,VCC*%
X7150000Y-3900000D02*
X7450000Y-3600000D01*
X7450000Y-3600000D02*
X15600000Y-3600000D01*
D63*
%TO.N,/MCU/NRST*%
X8675000Y1725000D02*
X8675000Y525000D01*
X8675000Y525000D02*
X8650000Y500000D01*
X8675000Y5875000D02*
X8675000Y1725000D01*
X8650000Y5850000D02*
X8675000Y5875000D01*
%TO.N,GND*%
X6525000Y5875000D02*
X6500000Y5850000D01*
X6500000Y5850000D02*
X6500000Y1750000D01*
X6500000Y1750000D02*
X6525000Y1725000D01*
D62*
X69450000Y-36150000D02*
X69450000Y-36800000D01*
D63*
X78200000Y-30550000D02*
X78375000Y-30725000D01*
X78375000Y-29365000D02*
X78210000Y-29200000D01*
D61*
X69187500Y-21700000D02*
X69187500Y-22800000D01*
D62*
X78300000Y-4300000D02*
X78300000Y-7000000D01*
X78287500Y-3100000D02*
X78287500Y-4287500D01*
D63*
X74225000Y-29310000D02*
X74235000Y-29300000D01*
X78375000Y-30725000D02*
X78375000Y-29365000D01*
X69212500Y-16700000D02*
X69312500Y-16600000D01*
D61*
X69187500Y-16600000D02*
X69187500Y-21700000D01*
D62*
X63050000Y-35850000D02*
X62700000Y-35500000D01*
D63*
X74225000Y-30725000D02*
X74225000Y-29310000D01*
X78375000Y-30725000D02*
X74225000Y-30725000D01*
D62*
X78287500Y-4287500D02*
X78300000Y-4300000D01*
D61*
X69087500Y-22900000D02*
X68100000Y-22900000D01*
D62*
X63050000Y-36800000D02*
X63050000Y-35850000D01*
X70000000Y-35600000D02*
X69450000Y-36150000D01*
D59*
%TO.N,+5V*%
X61200000Y-25600000D02*
X60900000Y-25300000D01*
D62*
X57200000Y-14100000D02*
X56800000Y-13700000D01*
X64400000Y-14100000D02*
X62208500Y-14100000D01*
X65500000Y-15200000D02*
X64400000Y-14100000D01*
D61*
X65700000Y-15200000D02*
X65900000Y-15000000D01*
D62*
X62208500Y-14100000D02*
X61964500Y-14100000D01*
D61*
X66973000Y-29100000D02*
X67900000Y-29100000D01*
D60*
X57760000Y6200000D02*
X55460000Y3900000D01*
D61*
X65900000Y-15000000D02*
X65900000Y-13483501D01*
D60*
X66700000Y-14200000D02*
X65700000Y-15200000D01*
D59*
X63300000Y-25600000D02*
X61200000Y-25600000D01*
D62*
X61964500Y-14100000D02*
X61200000Y-13335500D01*
D60*
X30500000Y4880000D02*
X32704000Y7084000D01*
D61*
X66973000Y-29100000D02*
X63473000Y-25600000D01*
D62*
X23668750Y-28237500D02*
X23600000Y-28237500D01*
X23810000Y-28096250D02*
X23668750Y-28237500D01*
D60*
X49674679Y7084000D02*
X52858679Y3900000D01*
D62*
X65700000Y-15200000D02*
X65500000Y-15200000D01*
D60*
X55460000Y3900000D02*
X52858679Y3900000D01*
D59*
X65700000Y-15200000D02*
X64300000Y-16600000D01*
D61*
X66686500Y-28813500D02*
X66973000Y-29100000D01*
D59*
X64300000Y-24600000D02*
X63300000Y-25600000D01*
D62*
X62208500Y-14100000D02*
X57200000Y-14100000D01*
X56800000Y-13700000D02*
X56800000Y-13335500D01*
D60*
X71000000Y-14200000D02*
X66700000Y-14200000D01*
X52858679Y3900000D02*
X54700000Y3900000D01*
D61*
X69000000Y-14200000D02*
X66700000Y-14200000D01*
D60*
X57760000Y6200000D02*
X60300000Y6200000D01*
D59*
X64300000Y-16600000D02*
X64300000Y-24600000D01*
D60*
X32704000Y7084000D02*
X49674679Y7084000D01*
D61*
X63473000Y-25600000D02*
X63300000Y-25600000D01*
D65*
%TO.N,/SteperMotor/STEPER_A2*%
X42220000Y1880000D02*
X48400000Y-4300000D01*
X48400000Y-4300000D02*
X60640000Y-4300000D01*
X42200000Y1880000D02*
X42220000Y1880000D01*
X60640000Y-4300000D02*
X62840000Y-6500000D01*
%TO.N,/SteperMotor/STEPER_B2*%
X45200000Y1800000D02*
X45200000Y1880000D01*
X49500000Y-2500000D02*
X45200000Y1800000D01*
X61380000Y-2500000D02*
X49500000Y-2500000D01*
X65380000Y-6500000D02*
X61380000Y-2500000D01*
D63*
%TO.N,/SteperMotor/STEPER_DIRECTION*%
X35800000Y100000D02*
X35800000Y1700000D01*
X33500000Y4000000D02*
X33500000Y4880000D01*
X35800000Y1700000D02*
X33500000Y4000000D01*
%TO.N,+3V3*%
X74225000Y-25725000D02*
X74110000Y-25610000D01*
X78375000Y-25725000D02*
X77350000Y-24700000D01*
X74110000Y-25610000D02*
X74110000Y-24700000D01*
X75250000Y-24700000D02*
X74225000Y-25725000D01*
X77350000Y-24700000D02*
X75250000Y-24700000D01*
D62*
%TO.N,/USB/V_BUS*%
X63850000Y-36800000D02*
X63850000Y-35550000D01*
X68650000Y-35650000D02*
X68600000Y-35600000D01*
X63850000Y-35550000D02*
X63900000Y-35500000D01*
X68650000Y-36800000D02*
X68650000Y-35650000D01*
D63*
%TO.N,Net-(D3-A)*%
X66600000Y-20000000D02*
X67612500Y-20000000D01*
%TO.N,Net-(D4-A)*%
X66600000Y-21700000D02*
X67612500Y-21700000D01*
%TO.N,Net-(D5-A)*%
X66600000Y-18300000D02*
X67612500Y-18300000D01*
%TO.N,Net-(D6-A)*%
X66500000Y-17300000D02*
X67100000Y-16700000D01*
X67100000Y-16700000D02*
X67512500Y-16700000D01*
%TO.N,Net-(D8-A)*%
X77500000Y-1700000D02*
X77500000Y-2312500D01*
X77500000Y-2312500D02*
X76712500Y-3100000D01*
D62*
%TO.N,Net-(IC1-BOOT)*%
X39175000Y-22275000D02*
X40600000Y-22275000D01*
X38405000Y-21505000D02*
X39175000Y-22275000D01*
X37712000Y-21505000D02*
X38405000Y-21505000D01*
%TO.N,Net-(IC1-SS_OR_PGOOD)*%
X30500000Y-18375000D02*
X31090000Y-18965000D01*
X31090000Y-18965000D02*
X32288000Y-18965000D01*
D63*
%TO.N,/USB/USB_CONN_D+*%
X66176000Y-35700000D02*
X66824000Y-35700000D01*
X66824000Y-35700000D02*
X67000000Y-35876000D01*
X66000000Y-35876000D02*
X66176000Y-35700000D01*
X67150000Y-34750000D02*
X67000000Y-34900000D01*
X67000000Y-34900000D02*
X67000000Y-35876000D01*
X67000000Y-35876000D02*
X67000000Y-36800000D01*
X66000000Y-36800000D02*
X66000000Y-35876000D01*
%TO.N,/USB/USB_CONN_D-*%
X66324000Y-37900000D02*
X65676000Y-37900000D01*
X66500000Y-37724000D02*
X66324000Y-37900000D01*
X66500000Y-36800000D02*
X66500000Y-37724000D01*
X65500000Y-34900000D02*
X65500000Y-36800000D01*
X65676000Y-37900000D02*
X65500000Y-37724000D01*
X65300000Y-34700000D02*
X65500000Y-34900000D01*
X65500000Y-37724000D02*
X65500000Y-36800000D01*
D62*
%TO.N,Net-(C36-Pad1)*%
X26455000Y-18220000D02*
X26300000Y-18375000D01*
X28000000Y-18220000D02*
X26455000Y-18220000D01*
D60*
%TO.N,Net-(J9-SHIELD)*%
X70432500Y-41737500D02*
X70570000Y-41600000D01*
X61930000Y-41600000D02*
X62067500Y-41737500D01*
X61930000Y-37400000D02*
X61930000Y-41600000D01*
X62067500Y-41737500D02*
X70432500Y-41737500D01*
X70570000Y-41600000D02*
X70570000Y-37400000D01*
D62*
%TO.N,Net-(D9-A)*%
X76600000Y-4800000D02*
X76725000Y-4800000D01*
D63*
X75400000Y-3475000D02*
X76725000Y-4800000D01*
X75400000Y-2500000D02*
X75400000Y-3475000D01*
D62*
%TO.N,Net-(IC1-EN)*%
X43000000Y-17325000D02*
X42925000Y-17400000D01*
X41175000Y-17400000D02*
X39975000Y-18600000D01*
X38077000Y-18600000D02*
X37712000Y-18965000D01*
X39975000Y-18600000D02*
X38077000Y-18600000D01*
X42925000Y-17400000D02*
X41175000Y-17400000D01*
%TO.N,Net-(IC1-RT{slash}SYNC)*%
X37712000Y-17695000D02*
X39310000Y-17695000D01*
X39310000Y-17695000D02*
X39500000Y-17505000D01*
%TO.N,Net-(IC1-FB)*%
X32288000Y-17678000D02*
X32288000Y-17695000D01*
X29000000Y-17916000D02*
X29600000Y-17316000D01*
X29600000Y-17316000D02*
X31926000Y-17316000D01*
X31926000Y-17316000D02*
X32288000Y-17678000D01*
X29000000Y-18375000D02*
X29000000Y-17916000D01*
D63*
%TO.N,/MCU/USR_BTN*%
X72900000Y-32200000D02*
X72900000Y-30100000D01*
X74250000Y-32900000D02*
X74225000Y-32875000D01*
X78375000Y-32875000D02*
X78350000Y-32900000D01*
X73575000Y-32875000D02*
X72900000Y-32200000D01*
X78350000Y-32900000D02*
X74250000Y-32900000D01*
X74225000Y-32875000D02*
X73575000Y-32875000D01*
%TO.N,Net-(J9-CC2)*%
X68000000Y-36800000D02*
X68000000Y-38100000D01*
%TO.N,Net-(J9-CC1)*%
X65000000Y-36800000D02*
X65000000Y-38100000D01*
%TO.N,Net-(R1-Pad1)*%
X78375000Y-27875000D02*
X74225000Y-27875000D01*
X74225000Y-27875000D02*
X76210000Y-25890000D01*
X76210000Y-25890000D02*
X76210000Y-25600000D01*
%TO.N,/MCU/C_A2*%
X49198000Y-11700000D02*
X73200000Y-11700000D01*
X73200000Y-11700000D02*
X75700000Y-14200000D01*
X48798000Y-11300000D02*
X49198000Y-11700000D01*
%TO.N,/MCU/C_A1*%
X50500000Y-11000000D02*
X75000000Y-11000000D01*
X50200000Y-10700000D02*
X50500000Y-11000000D01*
X75000000Y-11000000D02*
X75700000Y-11700000D01*
D58*
%TO.N,VCC*%
X28700000Y-3600000D02*
X16100000Y-3600000D01*
D66*
X30225000Y-5125000D02*
X29200000Y-4100000D01*
X36600000Y-5125000D02*
X43953428Y-5125000D01*
X70460000Y-8680000D02*
X70460000Y-6500000D01*
D58*
X15600000Y-3600000D02*
X15700000Y-3700000D01*
X16100000Y-3600000D02*
X15700000Y-4000000D01*
D66*
X45614214Y-6785786D02*
X47728428Y-8900000D01*
X36600000Y-5125000D02*
X30225000Y-5125000D01*
D63*
X73800000Y-400000D02*
X73675000Y-400000D01*
D66*
X47728428Y-8900000D02*
X70240000Y-8900000D01*
X70240000Y-8900000D02*
X70460000Y-8680000D01*
D58*
X29200000Y-4100000D02*
X28700000Y-3600000D01*
D63*
X73675000Y-400000D02*
X71600000Y-2475000D01*
D62*
X71825000Y-2475000D02*
X71600000Y-2475000D01*
D66*
X43953428Y-5125000D02*
X45614214Y-6785786D01*
D63*
%TO.N,/MCU/C_RX*%
X47900000Y-11600000D02*
X49000000Y-12700000D01*
X49000000Y-12700000D02*
X71700000Y-12700000D01*
X71700000Y-12700000D02*
X75700000Y-16700000D01*
%TD*%
%TA.AperFunction,Conductor*%
%TO.N,GND*%
G36*
X9895817Y-6819685D02*
G01*
X9935886Y-6861519D01*
X10600000Y-8000000D01*
X17444316Y-8000000D01*
X17511355Y-8019685D01*
X17536995Y-8041619D01*
X18207590Y-8796039D01*
X18237416Y-8859223D01*
X18238131Y-8864533D01*
X18239159Y-8873654D01*
X18239160Y-8873662D01*
X18293041Y-9027642D01*
X18300000Y-9068597D01*
X18300000Y-9431402D01*
X18293042Y-9472357D01*
X18239157Y-9626349D01*
X18239157Y-9626351D01*
X18219593Y-9799996D01*
X18219593Y-9800003D01*
X18239157Y-9973648D01*
X18239159Y-9973659D01*
X18293041Y-10127642D01*
X18300000Y-10168597D01*
X18300000Y-13342010D01*
X18280315Y-13409049D01*
X18255495Y-13437176D01*
X14947999Y-16200000D01*
X14900830Y-19049842D01*
X14880039Y-19116547D01*
X14864528Y-19135471D01*
X13635181Y-20364818D01*
X13573858Y-20398303D01*
X13550259Y-20401106D01*
X9106000Y-20499999D01*
X5423000Y-23225999D01*
X5423000Y-32191638D01*
X5403315Y-32258677D01*
X5386681Y-32279319D01*
X4443319Y-33222681D01*
X4381996Y-33256166D01*
X4355638Y-33259000D01*
X648362Y-33259000D01*
X581323Y-33239315D01*
X560681Y-33222681D01*
X-255681Y-32406319D01*
X-289166Y-32344996D01*
X-292000Y-32318638D01*
X-292000Y-26300000D01*
X994357Y-26300000D01*
X1014884Y-26521535D01*
X1014885Y-26521537D01*
X1075769Y-26735523D01*
X1075775Y-26735538D01*
X1174938Y-26934683D01*
X1174943Y-26934691D01*
X1309020Y-27112238D01*
X1473437Y-27262123D01*
X1473439Y-27262125D01*
X1662595Y-27379245D01*
X1662596Y-27379245D01*
X1662599Y-27379247D01*
X1870060Y-27459618D01*
X2088757Y-27500500D01*
X2088759Y-27500500D01*
X2311241Y-27500500D01*
X2311243Y-27500500D01*
X2529940Y-27459618D01*
X2737401Y-27379247D01*
X2926562Y-27262124D01*
X3090981Y-27112236D01*
X3225058Y-26934689D01*
X3324229Y-26735528D01*
X3385115Y-26521536D01*
X3405643Y-26300000D01*
X3385115Y-26078464D01*
X3324229Y-25864472D01*
X3324224Y-25864461D01*
X3225061Y-25665316D01*
X3225056Y-25665308D01*
X3090979Y-25487761D01*
X2926562Y-25337876D01*
X2926560Y-25337874D01*
X2737404Y-25220754D01*
X2737398Y-25220752D01*
X2529940Y-25140382D01*
X2311243Y-25099500D01*
X2088757Y-25099500D01*
X1870060Y-25140382D01*
X1738864Y-25191207D01*
X1662601Y-25220752D01*
X1662595Y-25220754D01*
X1473439Y-25337874D01*
X1473437Y-25337876D01*
X1309020Y-25487761D01*
X1174943Y-25665308D01*
X1174938Y-25665316D01*
X1075775Y-25864461D01*
X1075769Y-25864476D01*
X1014885Y-26078462D01*
X1014884Y-26078464D01*
X994357Y-26299999D01*
X994357Y-26300000D01*
X-292000Y-26300000D01*
X-292000Y-19225813D01*
X-272315Y-19158774D01*
X-240074Y-19124910D01*
X564664Y-18550097D01*
X630658Y-18527149D01*
X636738Y-18527000D01*
X3772000Y-18527000D01*
X4534000Y-17511000D01*
X4500135Y-7539967D01*
X4519591Y-7472864D01*
X4523211Y-7467504D01*
X4962910Y-6851926D01*
X5017894Y-6808816D01*
X5063813Y-6800000D01*
X9828778Y-6800000D01*
X9895817Y-6819685D01*
G37*
%TD.AperFunction*%
%TD*%
%TA.AperFunction,Conductor*%
%TO.N,GND*%
G36*
X52457917Y-13347185D02*
G01*
X52468340Y-13354672D01*
X52853462Y-13662770D01*
X52893514Y-13720019D01*
X52900000Y-13759597D01*
X52900000Y-16388072D01*
X52889758Y-16434278D01*
X52890269Y-16434448D01*
X52888612Y-16439446D01*
X52888386Y-16440469D01*
X52887998Y-16441300D01*
X52834651Y-16602290D01*
X52824500Y-16701647D01*
X52824500Y-17298337D01*
X52824501Y-17298355D01*
X52834650Y-17397707D01*
X52834651Y-17397710D01*
X52887997Y-17558697D01*
X52888380Y-17559518D01*
X52888604Y-17560528D01*
X52890269Y-17565553D01*
X52889755Y-17565723D01*
X52900000Y-17611927D01*
X52900000Y-25400000D01*
X52900001Y-25400001D01*
X53299999Y-25600000D01*
X53300000Y-25600000D01*
X55000000Y-25600000D01*
X55200000Y-25400000D01*
X55200000Y-24266362D01*
X55219685Y-24199323D01*
X55255215Y-24163189D01*
X55468761Y-24020826D01*
X55535461Y-24000018D01*
X55537544Y-24000000D01*
X56862456Y-24000000D01*
X56929495Y-24019685D01*
X56931239Y-24020826D01*
X57144784Y-24163189D01*
X57189644Y-24216753D01*
X57200000Y-24266362D01*
X57200000Y-26516048D01*
X57180315Y-26583087D01*
X57127511Y-26628842D01*
X57122052Y-26631179D01*
X56722172Y-26791131D01*
X56676120Y-26800000D01*
X49313611Y-26800000D01*
X49286712Y-26797047D01*
X48497865Y-26621747D01*
X48436692Y-26587988D01*
X48435295Y-26585403D01*
X48400241Y-26568552D01*
X48499464Y-13669574D01*
X48519663Y-13602691D01*
X48559659Y-13564204D01*
X48916800Y-13349919D01*
X48972600Y-13335384D01*
X48972366Y-13332909D01*
X48980132Y-13332174D01*
X48980133Y-13332175D01*
X49007700Y-13329568D01*
X49023770Y-13328050D01*
X49035439Y-13327500D01*
X52390878Y-13327500D01*
X52457917Y-13347185D01*
G37*
%TD.AperFunction*%
%TD*%
%TA.AperFunction,Conductor*%
%TO.N,+3V3*%
G36*
X61815677Y-16419685D02*
G01*
X61836319Y-16436319D01*
X62363681Y-16963681D01*
X62397166Y-17025004D01*
X62400000Y-17051362D01*
X62400000Y-22464436D01*
X62381152Y-22530156D01*
X61936425Y-23241720D01*
X61884202Y-23288136D01*
X61831273Y-23300000D01*
X60100000Y-23300000D01*
X59600000Y-23599999D01*
X59600000Y-24816512D01*
X59590530Y-24862832D01*
X59590563Y-24862843D01*
X59590472Y-24863116D01*
X59590052Y-24865175D01*
X59588918Y-24867832D01*
X59588912Y-24867848D01*
X59580251Y-24904262D01*
X59576535Y-24916872D01*
X59564071Y-24952150D01*
X59564070Y-24952153D01*
X59552356Y-25020470D01*
X59550775Y-25028204D01*
X59534738Y-25095630D01*
X59532356Y-25132977D01*
X59530825Y-25146036D01*
X59524500Y-25182924D01*
X59524500Y-25252238D01*
X59524249Y-25260129D01*
X59519838Y-25329302D01*
X59523802Y-25366509D01*
X59524500Y-25379645D01*
X59524500Y-26278887D01*
X59504815Y-26345926D01*
X59488181Y-26366568D01*
X59291068Y-26563681D01*
X59229745Y-26597166D01*
X59203387Y-26600000D01*
X58900000Y-26600000D01*
X58059598Y-26600000D01*
X57992559Y-26580315D01*
X57962770Y-26553462D01*
X57732672Y-26265840D01*
X57706164Y-26201194D01*
X57705500Y-26188378D01*
X57705500Y-24266360D01*
X57694833Y-24163068D01*
X57694833Y-24163064D01*
X57684477Y-24113455D01*
X57652927Y-24014517D01*
X57652926Y-24014515D01*
X57618573Y-23959032D01*
X57605675Y-23913702D01*
X57600000Y-23900001D01*
X57600000Y-23900000D01*
X57200000Y-23500000D01*
X56909579Y-23500000D01*
X56891933Y-23498738D01*
X56862457Y-23494500D01*
X56862456Y-23494500D01*
X55537544Y-23494500D01*
X55535955Y-23494506D01*
X55533127Y-23494519D01*
X55531073Y-23494537D01*
X55526971Y-23494588D01*
X55526968Y-23494588D01*
X55503146Y-23498424D01*
X55483438Y-23500000D01*
X54999999Y-23500000D01*
X54700000Y-23799999D01*
X54700000Y-24219239D01*
X54698738Y-24236885D01*
X54694500Y-24266360D01*
X54694500Y-24781728D01*
X54681409Y-24837182D01*
X54667413Y-24865175D01*
X54634273Y-24931454D01*
X54586686Y-24982613D01*
X54523364Y-25000000D01*
X53651362Y-25000000D01*
X53584323Y-24980315D01*
X53563681Y-24963681D01*
X53441819Y-24841819D01*
X53408334Y-24780496D01*
X53405500Y-24754138D01*
X53405500Y-17611929D01*
X53400737Y-17568441D01*
X53400000Y-17554941D01*
X53400000Y-16963813D01*
X53419685Y-16896774D01*
X53451926Y-16862910D01*
X54067664Y-16423097D01*
X54133658Y-16400149D01*
X54139738Y-16400000D01*
X61748638Y-16400000D01*
X61815677Y-16419685D01*
G37*
%TD.AperFunction*%
%TD*%
%TA.AperFunction,Conductor*%
%TO.N,GND*%
G36*
X71800676Y3180315D02*
G01*
X71836811Y3144783D01*
X72995718Y1406423D01*
X73003453Y1393094D01*
X73032080Y1335841D01*
X73050237Y1299527D01*
X73186909Y1026182D01*
X73200000Y970728D01*
X73200000Y138449D01*
X73180994Y72477D01*
X73096878Y-61392D01*
X73090447Y-79770D01*
X73061088Y-126491D01*
X72923897Y-263682D01*
X72862577Y-297166D01*
X72836218Y-300000D01*
X67166363Y-300000D01*
X67099324Y-280315D01*
X67063189Y-244783D01*
X66920826Y-31239D01*
X66900018Y35460D01*
X66900000Y37544D01*
X66900000Y1000000D01*
X66899999Y1000001D01*
X66200000Y1200001D01*
X55550681Y1299527D01*
X55483829Y1319838D01*
X55464159Y1335841D01*
X55236319Y1563681D01*
X55202834Y1625004D01*
X55200000Y1651362D01*
X55200000Y2758667D01*
X55219685Y2825706D01*
X55224801Y2833068D01*
X55237426Y2849901D01*
X55293397Y2891721D01*
X55336625Y2899500D01*
X55445721Y2899500D01*
X55448863Y2899460D01*
X55536358Y2897243D01*
X55536358Y2897244D01*
X55536363Y2897243D01*
X55594425Y2907651D01*
X55603754Y2908959D01*
X55662438Y2914926D01*
X55691471Y2924036D01*
X55706700Y2927774D01*
X55736653Y2933142D01*
X55736657Y2933144D01*
X55736659Y2933144D01*
X55791423Y2955020D01*
X55800292Y2958179D01*
X55856588Y2975841D01*
X55883200Y2990613D01*
X55897362Y2997338D01*
X55925617Y3008623D01*
X55974879Y3041091D01*
X55982910Y3045957D01*
X56034502Y3074591D01*
X56034509Y3074598D01*
X56034512Y3074599D01*
X56057583Y3094406D01*
X56070125Y3103863D01*
X56095519Y3120598D01*
X56137237Y3162318D01*
X56144165Y3168736D01*
X56145782Y3170123D01*
X56209484Y3198826D01*
X56226509Y3200000D01*
X71733637Y3200000D01*
X71800676Y3180315D01*
G37*
%TD.AperFunction*%
%TD*%
%TA.AperFunction,Conductor*%
%TO.N,Net-(D7-K)*%
G36*
X26300676Y-19519685D02*
G01*
X26336811Y-19555217D01*
X26479174Y-19768761D01*
X26499982Y-19835460D01*
X26500000Y-19837544D01*
X26500000Y-20800000D01*
X26800000Y-21100000D01*
X27610470Y-21100000D01*
X27629371Y-21102315D01*
X27629456Y-21101693D01*
X27636105Y-21102598D01*
X27636110Y-21102600D01*
X27636283Y-21102604D01*
X27659602Y-21105460D01*
X27659784Y-21105500D01*
X27741462Y-21105500D01*
X27744820Y-21105545D01*
X27826473Y-21107757D01*
X27826655Y-21107721D01*
X27850023Y-21105500D01*
X32754138Y-21105500D01*
X32821177Y-21125185D01*
X32841819Y-21141819D01*
X33063681Y-21363681D01*
X33097166Y-21425004D01*
X33100000Y-21451362D01*
X33100000Y-22300000D01*
X33300000Y-22500000D01*
X37748638Y-22500000D01*
X37815677Y-22519685D01*
X37836319Y-22536319D01*
X37963681Y-22663681D01*
X37997166Y-22725004D01*
X38000000Y-22751362D01*
X38000000Y-23870728D01*
X37986909Y-23926182D01*
X37934273Y-24031454D01*
X37886686Y-24082613D01*
X37823364Y-24100000D01*
X30700000Y-24100000D01*
X30699999Y-24100000D01*
X30699998Y-24100001D01*
X30446000Y-24300000D01*
X30446000Y-24564920D01*
X30427624Y-24629879D01*
X30236310Y-24940959D01*
X30184423Y-24987751D01*
X30130686Y-25000000D01*
X26700000Y-25000000D01*
X26437200Y-25350400D01*
X26381229Y-25392221D01*
X26338000Y-25400000D01*
X22462000Y-25400000D01*
X22394961Y-25380315D01*
X22362800Y-25350400D01*
X22124800Y-25033066D01*
X22100324Y-24967624D01*
X22100000Y-24958666D01*
X22100000Y-23151362D01*
X22119685Y-23084323D01*
X22136319Y-23063681D01*
X24063681Y-21136319D01*
X24125004Y-21102834D01*
X24151362Y-21100000D01*
X25200000Y-21100000D01*
X25500000Y-20800000D01*
X25500000Y-19837544D01*
X25519685Y-19770505D01*
X25520826Y-19768761D01*
X25663189Y-19555217D01*
X25716754Y-19510356D01*
X25766363Y-19500000D01*
X26233637Y-19500000D01*
X26300676Y-19519685D01*
G37*
%TD.AperFunction*%
%TD*%
%TA.AperFunction,Conductor*%
%TO.N,VCC*%
G36*
X65815677Y80315D02*
G01*
X65836319Y63681D01*
X66163681Y-263681D01*
X66197166Y-325004D01*
X66200000Y-351362D01*
X66200000Y-1100000D01*
X66499999Y-1599999D01*
X66499999Y-1600000D01*
X66500000Y-1600000D01*
X72640402Y-1600000D01*
X72707441Y-1619685D01*
X72737230Y-1646538D01*
X73072828Y-2066035D01*
X73099336Y-2130681D01*
X73100000Y-2143497D01*
X73100000Y-9656503D01*
X73080315Y-9723542D01*
X73072828Y-9733965D01*
X72737230Y-10153462D01*
X72679979Y-10193514D01*
X72640402Y-10200000D01*
X69551362Y-10200000D01*
X69484323Y-10180315D01*
X69463681Y-10163681D01*
X69236319Y-9936319D01*
X69202834Y-9874996D01*
X69200000Y-9848638D01*
X69200000Y-6764047D01*
X69204225Y-6731954D01*
X69205635Y-6726692D01*
X69225468Y-6500000D01*
X69205635Y-6273308D01*
X69204223Y-6268041D01*
X69200000Y-6235953D01*
X69200000Y-4900000D01*
X68800000Y-4400000D01*
X65355225Y-4400000D01*
X65288186Y-4380315D01*
X65263057Y-4358952D01*
X64400616Y-3400685D01*
X64399464Y-3399388D01*
X63700658Y-2600752D01*
X63699318Y-2599194D01*
X62600000Y-1300000D01*
X55551362Y-1300000D01*
X55484323Y-1280315D01*
X55463681Y-1263681D01*
X55336319Y-1136319D01*
X55302834Y-1074996D01*
X55300000Y-1048638D01*
X55300000Y-151362D01*
X55319685Y-84323D01*
X55336319Y-63681D01*
X55463681Y63681D01*
X55525004Y97166D01*
X55551362Y100000D01*
X65748638Y100000D01*
X65815677Y80315D01*
G37*
%TD.AperFunction*%
%TD*%
%TA.AperFunction,Conductor*%
%TO.N,GND*%
G36*
X37622145Y-7319685D02*
G01*
X37634489Y-7328741D01*
X38155383Y-7762819D01*
X38194282Y-7820858D01*
X38200000Y-7858078D01*
X38200000Y-14000000D01*
X38800000Y-14600000D01*
X43448638Y-14600000D01*
X43515677Y-14619685D01*
X43536319Y-14636319D01*
X43863681Y-14963681D01*
X43897166Y-15025004D01*
X43900000Y-15051362D01*
X43900000Y-16133637D01*
X43880315Y-16200676D01*
X43844783Y-16236811D01*
X43631239Y-16379174D01*
X43564540Y-16399982D01*
X43562456Y-16400000D01*
X41782319Y-16400000D01*
X41745431Y-16394386D01*
X41702196Y-16380914D01*
X41631616Y-16374500D01*
X40968384Y-16374500D01*
X40916951Y-16379174D01*
X40897803Y-16380914D01*
X40854569Y-16394386D01*
X40817681Y-16400000D01*
X40599999Y-16400000D01*
X40336319Y-16663681D01*
X40274996Y-16697166D01*
X40248638Y-16700000D01*
X36599999Y-16700000D01*
X36400000Y-17199999D01*
X36400000Y-21538000D01*
X36380315Y-21605039D01*
X36350400Y-21637200D01*
X36033067Y-21875200D01*
X35967625Y-21899676D01*
X35958667Y-21900000D01*
X33945706Y-21900000D01*
X33878667Y-21880315D01*
X33865229Y-21870337D01*
X33649023Y-21685894D01*
X33610796Y-21627409D01*
X33605500Y-21591557D01*
X33605500Y-21451359D01*
X33602602Y-21397311D01*
X33602602Y-21397310D01*
X33599770Y-21370977D01*
X33599767Y-21370950D01*
X33591115Y-21317557D01*
X33591113Y-21317550D01*
X33560550Y-21235609D01*
X33552738Y-21190943D01*
X33600000Y-16800000D01*
X33599998Y-16799999D01*
X33599999Y-16799999D01*
X33000000Y-16400000D01*
X27066363Y-16400000D01*
X26999324Y-16380315D01*
X26963189Y-16344783D01*
X26620826Y-15831239D01*
X26600018Y-15764540D01*
X26600000Y-15762456D01*
X26600000Y-7766362D01*
X26619685Y-7699323D01*
X26655215Y-7663189D01*
X27168761Y-7320826D01*
X27235461Y-7300018D01*
X27237544Y-7300000D01*
X37555106Y-7300000D01*
X37622145Y-7319685D01*
G37*
%TD.AperFunction*%
%TD*%
%TA.AperFunction,Conductor*%
%TO.N,VDC*%
G36*
X41818163Y-7619685D02*
G01*
X41835731Y-7633349D01*
X47199782Y-12639797D01*
X47760607Y-13163233D01*
X47796186Y-13223366D01*
X47800000Y-13253884D01*
X47800000Y-22148638D01*
X47780315Y-22215677D01*
X47763681Y-22236319D01*
X47436319Y-22563681D01*
X47374996Y-22597166D01*
X47348638Y-22600000D01*
X42151362Y-22600000D01*
X42084323Y-22580315D01*
X42063681Y-22563681D01*
X41836319Y-22336319D01*
X41802834Y-22274996D01*
X41800000Y-22248638D01*
X41800000Y-21600000D01*
X41799998Y-21599998D01*
X41400001Y-21400000D01*
X41400000Y-21400000D01*
X39541333Y-21400000D01*
X39474294Y-21380315D01*
X39466933Y-21375200D01*
X38700000Y-20800000D01*
X38699999Y-20800000D01*
X37166363Y-20800000D01*
X37099324Y-20780315D01*
X37063189Y-20744783D01*
X36920826Y-20531239D01*
X36900018Y-20464540D01*
X36900000Y-20462456D01*
X36900000Y-19951362D01*
X36919685Y-19884323D01*
X36936319Y-19863681D01*
X37063681Y-19736319D01*
X37125004Y-19702834D01*
X37151362Y-19700000D01*
X39000000Y-19700000D01*
X39880911Y-19406363D01*
X39920123Y-19400000D01*
X40699999Y-19400000D01*
X40700000Y-19400000D01*
X40900000Y-19000000D01*
X40900000Y-18689374D01*
X40919685Y-18622335D01*
X40972489Y-18576580D01*
X40984782Y-18571739D01*
X41780911Y-18306363D01*
X41820123Y-18300000D01*
X43800000Y-18300000D01*
X44700000Y-17700000D01*
X44700000Y-14300000D01*
X42900000Y-12700000D01*
X40900000Y-12700000D01*
X39670207Y-12700000D01*
X39603168Y-12680315D01*
X39563878Y-12639797D01*
X39317671Y-12229451D01*
X39300000Y-12165654D01*
X39300000Y-8051362D01*
X39319685Y-7984323D01*
X39336319Y-7963681D01*
X39663681Y-7636319D01*
X39725004Y-7602834D01*
X39751362Y-7600000D01*
X41751124Y-7600000D01*
X41818163Y-7619685D01*
G37*
%TD.AperFunction*%
%TD*%
%TA.AperFunction,Conductor*%
%TO.N,+5V*%
G36*
X25864220Y-27719685D02*
G01*
X25909975Y-27772489D01*
X25915787Y-27787825D01*
X26005606Y-28082314D01*
X26011000Y-28118489D01*
X26011000Y-29400001D01*
X26396998Y-30183998D01*
X26397000Y-30184000D01*
X27590864Y-30180207D01*
X27594471Y-30180406D01*
X27599996Y-30180406D01*
X27600000Y-30180407D01*
X27600003Y-30180406D01*
X27604407Y-30180407D01*
X27608846Y-30180150D01*
X35011000Y-30156638D01*
X35235528Y-29531107D01*
X35276703Y-29474661D01*
X35341860Y-29449435D01*
X35352237Y-29449000D01*
X44898499Y-29449000D01*
X44965538Y-29468685D01*
X44971691Y-29472905D01*
X45368193Y-29762847D01*
X45410689Y-29818308D01*
X45419000Y-29862941D01*
X45419000Y-31951414D01*
X45399315Y-32018453D01*
X45398132Y-32020261D01*
X44955891Y-32682736D01*
X44902298Y-32727564D01*
X44852553Y-32737889D01*
X22071821Y-32700119D01*
X22004815Y-32680323D01*
X21964366Y-32637641D01*
X21616338Y-32028591D01*
X21600000Y-31967070D01*
X21600000Y-28456268D01*
X21619685Y-28389229D01*
X21642345Y-28362948D01*
X22299629Y-27787825D01*
X22364937Y-27730679D01*
X22428352Y-27701349D01*
X22446592Y-27700000D01*
X25797181Y-27700000D01*
X25864220Y-27719685D01*
G37*
%TD.AperFunction*%
%TD*%
%TA.AperFunction,Conductor*%
%TO.N,GND*%
G36*
X48400241Y-26568551D02*
G01*
X48400241Y-26568552D01*
X48400240Y-26568552D01*
X48108269Y-26805778D01*
X48043826Y-26832775D01*
X48040594Y-26833093D01*
X47966704Y-26839383D01*
X47966700Y-26839383D01*
X47966699Y-26839384D01*
X47961394Y-26840765D01*
X47943312Y-26844063D01*
X47937877Y-26844642D01*
X47937867Y-26844644D01*
X47840575Y-26872193D01*
X47838039Y-26872882D01*
X47740114Y-26898381D01*
X47740113Y-26898381D01*
X47735118Y-26900639D01*
X47717852Y-26906946D01*
X47712593Y-26908435D01*
X47712582Y-26908439D01*
X47621308Y-26952054D01*
X47618922Y-26953163D01*
X47526749Y-26994827D01*
X47522212Y-26997894D01*
X47506261Y-27007028D01*
X47501322Y-27009388D01*
X47501321Y-27009388D01*
X47418747Y-27067789D01*
X47416586Y-27069284D01*
X47332756Y-27125945D01*
X47328809Y-27129728D01*
X47314622Y-27141434D01*
X47310163Y-27144587D01*
X47310154Y-27144595D01*
X47238631Y-27216116D01*
X47236753Y-27217955D01*
X47163718Y-27287954D01*
X47163713Y-27287959D01*
X47160458Y-27292361D01*
X47148452Y-27306296D01*
X45891067Y-28563681D01*
X45829744Y-28597166D01*
X45803386Y-28600000D01*
X35599975Y-28600000D01*
X35050935Y-28606862D01*
X34983654Y-28588017D01*
X34838606Y-28496878D01*
X34838605Y-28496877D01*
X34838604Y-28496877D01*
X34673658Y-28439159D01*
X34673648Y-28439157D01*
X34500004Y-28419593D01*
X34499996Y-28419593D01*
X34326351Y-28439157D01*
X34326341Y-28439159D01*
X34161395Y-28496877D01*
X34013425Y-28589852D01*
X34008475Y-28593800D01*
X33943787Y-28620206D01*
X33932715Y-28620840D01*
X27662967Y-28699212D01*
X27595687Y-28680367D01*
X27562217Y-28649622D01*
X27324800Y-28333066D01*
X27300324Y-28267624D01*
X27300000Y-28258666D01*
X27300000Y-26451362D01*
X27319685Y-26384323D01*
X27336319Y-26363681D01*
X27463681Y-26236319D01*
X27525004Y-26202834D01*
X27551362Y-26200000D01*
X30800000Y-26200000D01*
X31564298Y-24862479D01*
X31614650Y-24814038D01*
X31671960Y-24800000D01*
X40117681Y-24800000D01*
X40154569Y-24805614D01*
X40167810Y-24809739D01*
X40197804Y-24819086D01*
X40268384Y-24825500D01*
X40268387Y-24825500D01*
X40931613Y-24825500D01*
X40931616Y-24825500D01*
X41002196Y-24819086D01*
X41035353Y-24808753D01*
X41045431Y-24805614D01*
X41082319Y-24800000D01*
X41500000Y-24800000D01*
X41900000Y-24400000D01*
X41900000Y-23651362D01*
X41919685Y-23584323D01*
X41936319Y-23563681D01*
X42163681Y-23336319D01*
X42225004Y-23302834D01*
X42251362Y-23300000D01*
X47500001Y-23300000D01*
X47775730Y-23099468D01*
X48430590Y-22623206D01*
X48400241Y-26568551D01*
G37*
%TD.AperFunction*%
%TD*%
M02*
