%TF.GenerationSoftware,KiCad,Pcbnew,7.0.11-7.0.11~ubuntu22.04.1*%
%TF.CreationDate,2024-04-17T17:53:53+02:00*%
%TF.ProjectId,sdrac_board,73647261-635f-4626-9f61-72642e6b6963,2.0*%
%TF.SameCoordinates,Original*%
%TF.FileFunction,Soldermask,Top*%
%TF.FilePolarity,Negative*%
%FSLAX46Y46*%
G04 Gerber Fmt 4.6, Leading zero omitted, Abs format (unit mm)*
G04 Created by KiCad (PCBNEW 7.0.11-7.0.11~ubuntu22.04.1) date 2024-04-17 17:53:53*
%MOMM*%
%LPD*%
G01*
G04 APERTURE LIST*
G04 Aperture macros list*
%AMRoundRect*
0 Rectangle with rounded corners*
0 $1 Rounding radius*
0 $2 $3 $4 $5 $6 $7 $8 $9 X,Y pos of 4 corners*
0 Add a 4 corners polygon primitive as box body*
4,1,4,$2,$3,$4,$5,$6,$7,$8,$9,$2,$3,0*
0 Add four circle primitives for the rounded corners*
1,1,$1+$1,$2,$3*
1,1,$1+$1,$4,$5*
1,1,$1+$1,$6,$7*
1,1,$1+$1,$8,$9*
0 Add four rect primitives between the rounded corners*
20,1,$1+$1,$2,$3,$4,$5,0*
20,1,$1+$1,$4,$5,$6,$7,0*
20,1,$1+$1,$6,$7,$8,$9,0*
20,1,$1+$1,$8,$9,$2,$3,0*%
%AMRotRect*
0 Rectangle, with rotation*
0 The origin of the aperture is its center*
0 $1 length*
0 $2 width*
0 $3 Rotation angle, in degrees counterclockwise*
0 Add horizontal line*
21,1,$1,$2,0,0,$3*%
G04 Aperture macros list end*
%ADD10R,1.525000X0.650000*%
%ADD11R,2.400000X3.100000*%
%ADD12RoundRect,0.225000X-0.225000X-0.250000X0.225000X-0.250000X0.225000X0.250000X-0.225000X0.250000X0*%
%ADD13RoundRect,0.250000X-1.100000X0.325000X-1.100000X-0.325000X1.100000X-0.325000X1.100000X0.325000X0*%
%ADD14RoundRect,0.250000X-0.325000X-1.100000X0.325000X-1.100000X0.325000X1.100000X-0.325000X1.100000X0*%
%ADD15RoundRect,0.200000X-0.275000X0.200000X-0.275000X-0.200000X0.275000X-0.200000X0.275000X0.200000X0*%
%ADD16RoundRect,0.250000X0.650000X-0.325000X0.650000X0.325000X-0.650000X0.325000X-0.650000X-0.325000X0*%
%ADD17RoundRect,0.225000X0.250000X-0.225000X0.250000X0.225000X-0.250000X0.225000X-0.250000X-0.225000X0*%
%ADD18RoundRect,0.225000X-0.250000X0.225000X-0.250000X-0.225000X0.250000X-0.225000X0.250000X0.225000X0*%
%ADD19RoundRect,0.225000X0.225000X0.250000X-0.225000X0.250000X-0.225000X-0.250000X0.225000X-0.250000X0*%
%ADD20RoundRect,0.250000X0.475000X-0.250000X0.475000X0.250000X-0.475000X0.250000X-0.475000X-0.250000X0*%
%ADD21RoundRect,0.250000X0.250000X0.475000X-0.250000X0.475000X-0.250000X-0.475000X0.250000X-0.475000X0*%
%ADD22RoundRect,0.250000X-1.000000X1.950000X-1.000000X-1.950000X1.000000X-1.950000X1.000000X1.950000X0*%
%ADD23RoundRect,0.250000X1.100000X-0.325000X1.100000X0.325000X-1.100000X0.325000X-1.100000X-0.325000X0*%
%ADD24RoundRect,0.218750X0.218750X0.256250X-0.218750X0.256250X-0.218750X-0.256250X0.218750X-0.256250X0*%
%ADD25RoundRect,0.250000X0.725000X-0.600000X0.725000X0.600000X-0.725000X0.600000X-0.725000X-0.600000X0*%
%ADD26O,1.950000X1.700000*%
%ADD27C,3.500000*%
%ADD28R,3.500000X3.500000*%
%ADD29C,1.400000*%
%ADD30C,1.500000*%
%ADD31RoundRect,0.250001X0.499999X0.499999X-0.499999X0.499999X-0.499999X-0.499999X0.499999X-0.499999X0*%
%ADD32C,1.020000*%
%ADD33O,1.000000X1.800000*%
%ADD34O,1.000000X2.100000*%
%ADD35R,0.600000X1.240000*%
%ADD36R,0.300000X1.240000*%
%ADD37C,0.650000*%
%ADD38RoundRect,0.250001X-0.499999X-0.499999X0.499999X-0.499999X0.499999X0.499999X-0.499999X0.499999X0*%
%ADD39O,1.700000X2.000000*%
%ADD40RoundRect,0.250000X0.600000X0.750000X-0.600000X0.750000X-0.600000X-0.750000X0.600000X-0.750000X0*%
%ADD41R,1.700000X1.700000*%
%ADD42O,1.700000X1.700000*%
%ADD43RoundRect,0.250000X-1.625000X0.312500X-1.625000X-0.312500X1.625000X-0.312500X1.625000X0.312500X0*%
%ADD44RoundRect,0.242778X-1.632222X0.303472X-1.632222X-0.303472X1.632222X-0.303472X1.632222X0.303472X0*%
%ADD45RotRect,1.500000X4.700000X225.000000*%
%ADD46RoundRect,0.250000X1.000000X-1.400000X1.000000X1.400000X-1.000000X1.400000X-1.000000X-1.400000X0*%
%ADD47RoundRect,0.200000X0.275000X-0.200000X0.275000X0.200000X-0.275000X0.200000X-0.275000X-0.200000X0*%
%ADD48R,1.500000X2.000000*%
%ADD49R,3.800000X2.000000*%
%ADD50R,2.440000X1.120000*%
%ADD51R,0.650000X1.050000*%
%ADD52R,1.050000X0.650000*%
%ADD53C,2.000000*%
%ADD54C,3.200000*%
%ADD55RoundRect,0.200000X0.200000X0.275000X-0.200000X0.275000X-0.200000X-0.275000X0.200000X-0.275000X0*%
%ADD56R,1.600000X1.600000*%
%ADD57O,1.600000X1.600000*%
G04 APERTURE END LIST*
D10*
%TO.C,IC1*%
X37712000Y-21505000D03*
X37712000Y-20235000D03*
X37712000Y-18965000D03*
X37712000Y-17695000D03*
X32288000Y-17695000D03*
X32288000Y-18965000D03*
X32288000Y-20235000D03*
X32288000Y-21505000D03*
D11*
X35000000Y-19600000D03*
%TD*%
D12*
%TO.C,C26*%
X47300000Y-17200000D03*
X48850000Y-17200000D03*
%TD*%
D13*
%TO.C,C28*%
X43500000Y-21225000D03*
X43500000Y-24175000D03*
%TD*%
D14*
%TO.C,C29*%
X46625000Y-21300000D03*
X49575000Y-21300000D03*
%TD*%
D15*
%TO.C,C25*%
X40600000Y-22275000D03*
X40600000Y-23925000D03*
%TD*%
%TO.C,C34*%
X30500000Y-18375000D03*
X30500000Y-20025000D03*
%TD*%
D16*
%TO.C,C17*%
X49400000Y-27975000D03*
X49400000Y-25025000D03*
%TD*%
D17*
%TO.C,C18*%
X51400000Y-27775000D03*
X51400000Y-26225000D03*
%TD*%
D18*
%TO.C,C35*%
X27500000Y-18425000D03*
X27500000Y-19975000D03*
%TD*%
D19*
%TO.C,C19*%
X53775000Y-17000000D03*
X52225000Y-17000000D03*
%TD*%
D20*
%TO.C,C31*%
X38100000Y-29975000D03*
X38100000Y-28075000D03*
%TD*%
D21*
%TO.C,C20*%
X54050000Y-21000000D03*
X52150000Y-21000000D03*
%TD*%
%TO.C,C21*%
X54050000Y-23100000D03*
X52150000Y-23100000D03*
%TD*%
D17*
%TO.C,C33*%
X44012000Y-29845000D03*
X44012000Y-28295000D03*
%TD*%
D21*
%TO.C,C22*%
X54050000Y-18900000D03*
X52150000Y-18900000D03*
%TD*%
D16*
%TO.C,C41*%
X56500000Y-675000D03*
X56500000Y2275000D03*
%TD*%
D22*
%TO.C,C15*%
X15700000Y-4000000D03*
X15700000Y-12400000D03*
%TD*%
D23*
%TO.C,C44*%
X64800000Y-675000D03*
X64800000Y2275000D03*
%TD*%
D16*
%TO.C,C42*%
X59100000Y-675000D03*
X59100000Y2275000D03*
%TD*%
%TO.C,C43*%
X61700000Y-675000D03*
X61700000Y2275000D03*
%TD*%
D22*
%TO.C,C16*%
X29200000Y-4100000D03*
X29200000Y-12500000D03*
%TD*%
D13*
%TO.C,C23*%
X36600000Y-5125000D03*
X36600000Y-8075000D03*
%TD*%
D14*
%TO.C,C24*%
X46425000Y-14600000D03*
X49375000Y-14600000D03*
%TD*%
D24*
%TO.C,D8*%
X78287500Y-3100000D03*
X76712500Y-3100000D03*
%TD*%
D25*
%TO.C,J3*%
X75700000Y-21700000D03*
D26*
X75700000Y-19200000D03*
X75700000Y-16700000D03*
X75700000Y-14200000D03*
X75700000Y-11700000D03*
X75700000Y-9200000D03*
%TD*%
D27*
%TO.C,J4*%
X11875000Y-26200000D03*
D28*
X11875000Y-21200000D03*
D29*
X1875000Y-18200000D03*
X1875000Y-29200000D03*
%TD*%
D27*
%TO.C,J5*%
X6850000Y-6700000D03*
D28*
X6850000Y-11700000D03*
D29*
X1850000Y-3700000D03*
X1850000Y-14700000D03*
%TD*%
D30*
%TO.C,J6*%
X30500000Y4880000D03*
X33500000Y4880000D03*
X30500000Y1880000D03*
D31*
X33500000Y1880000D03*
D32*
X27500000Y5820000D03*
X36500000Y5820000D03*
%TD*%
D30*
%TO.C,J7*%
X42200000Y4880000D03*
X45200000Y4880000D03*
X42200000Y1880000D03*
D31*
X45200000Y1880000D03*
D32*
X39200000Y5820000D03*
X48200000Y5820000D03*
%TD*%
D33*
%TO.C,J8*%
X70570000Y-41600000D03*
D34*
X70570000Y-37400000D03*
D33*
X61930000Y-41600000D03*
D34*
X61930000Y-37400000D03*
D35*
X63050000Y-36800000D03*
X63850000Y-36800000D03*
D36*
X64500000Y-36800000D03*
X65500000Y-36800000D03*
X67000000Y-36800000D03*
X68000000Y-36800000D03*
D35*
X68650000Y-36800000D03*
X69450000Y-36800000D03*
X69450000Y-36800000D03*
X68650000Y-36800000D03*
D36*
X67500000Y-36800000D03*
X66500000Y-36800000D03*
X66000000Y-36800000D03*
X65000000Y-36800000D03*
D35*
X63850000Y-36800000D03*
X63050000Y-36800000D03*
D37*
X69140000Y-37920000D03*
X63360000Y-37920000D03*
%TD*%
D30*
%TO.C,J9*%
X22100000Y4880000D03*
D31*
X22100000Y1880000D03*
D32*
X19100000Y5820000D03*
X25100000Y5820000D03*
%TD*%
D30*
%TO.C,J12*%
X13700000Y4880000D03*
D31*
X13700000Y1880000D03*
D32*
X10700000Y5820000D03*
X16700000Y5820000D03*
%TD*%
D30*
%TO.C,J10*%
X53600000Y-40000000D03*
X50600000Y-40000000D03*
X47600000Y-40000000D03*
X53600000Y-37000000D03*
X50600000Y-37000000D03*
D38*
X47600000Y-37000000D03*
D32*
X56600000Y-40940000D03*
X44600000Y-40940000D03*
%TD*%
D39*
%TO.C,J2*%
X66550000Y-26425000D03*
D40*
X69050000Y-26425000D03*
%TD*%
D41*
%TO.C,J1*%
X51300000Y-31800000D03*
D42*
X53840000Y-31800000D03*
X56380000Y-31800000D03*
X58920000Y-31800000D03*
%TD*%
D43*
%TO.C,L2*%
X23820000Y-25080000D03*
D44*
X23810000Y-28096250D03*
%TD*%
D45*
%TO.C,L1*%
X45614214Y-6785786D03*
X42785786Y-9614214D03*
%TD*%
D46*
%TO.C,D7*%
X28500000Y-26400000D03*
X35300000Y-26400000D03*
%TD*%
D47*
%TO.C,R22*%
X43000000Y-17325000D03*
X43000000Y-15675000D03*
%TD*%
D30*
%TO.C,U4*%
X12900000Y-40050000D03*
X9900000Y-40050000D03*
X12900000Y-37050000D03*
D38*
X9900000Y-37050000D03*
D32*
X15900000Y-40990000D03*
X6900000Y-40990000D03*
%TD*%
D47*
%TO.C,R23*%
X39500000Y-17625000D03*
X39500000Y-15975000D03*
%TD*%
D48*
%TO.C,U6*%
X56300000Y-25300000D03*
X58600000Y-25300000D03*
D49*
X58600000Y-19000000D03*
D48*
X60900000Y-25300000D03*
%TD*%
D50*
%TO.C,SW4*%
X18305000Y-31500000D03*
X9695000Y-31500000D03*
%TD*%
D24*
%TO.C,D6*%
X69187500Y-16600000D03*
X67612500Y-16600000D03*
%TD*%
D47*
%TO.C,R24*%
X24500000Y-20025000D03*
X24500000Y-18375000D03*
%TD*%
D23*
%TO.C,C46*%
X71600000Y275000D03*
X71600000Y-2675000D03*
%TD*%
D30*
%TO.C,J11*%
X39200000Y-40000000D03*
X36200000Y-40000000D03*
X33200000Y-40000000D03*
X39200000Y-37000000D03*
X36200000Y-37000000D03*
D38*
X33200000Y-37000000D03*
D32*
X42200000Y-40940000D03*
X30200000Y-40940000D03*
%TD*%
D24*
%TO.C,D3*%
X69187500Y-20000000D03*
X67612500Y-20000000D03*
%TD*%
D51*
%TO.C,SW2*%
X6500000Y-275000D03*
X6500000Y3875000D03*
X8650000Y-275000D03*
X8650000Y3875000D03*
%TD*%
D52*
%TO.C,SW1*%
X78375000Y-27875000D03*
X74225000Y-27875000D03*
X78375000Y-25725000D03*
X74225000Y-25725000D03*
%TD*%
D53*
%TO.C,FID2*%
X78200000Y300000D03*
%TD*%
D20*
%TO.C,C30*%
X40500000Y-29975000D03*
X40500000Y-28075000D03*
%TD*%
D12*
%TO.C,C27*%
X47300000Y-18900000D03*
X48850000Y-18900000D03*
%TD*%
D23*
%TO.C,C45*%
X68200000Y275000D03*
X68200000Y-2675000D03*
%TD*%
D47*
%TO.C,R20*%
X41300000Y-18925000D03*
X41300000Y-17275000D03*
%TD*%
D15*
%TO.C,R25*%
X29000000Y-18375000D03*
X29000000Y-20025000D03*
%TD*%
D52*
%TO.C,SW3*%
X74225000Y-30725000D03*
X78375000Y-30725000D03*
X74225000Y-32875000D03*
X78375000Y-32875000D03*
%TD*%
D54*
%TO.C,H1*%
X2500000Y3900000D03*
%TD*%
D47*
%TO.C,R21*%
X26000000Y-20025000D03*
X26000000Y-18375000D03*
%TD*%
D17*
%TO.C,C32*%
X42412000Y-29845000D03*
X42412000Y-28295000D03*
%TD*%
D30*
%TO.C,U5*%
X24700000Y-40040000D03*
X21700000Y-40040000D03*
X24700000Y-37040000D03*
D38*
X21700000Y-37040000D03*
D32*
X27700000Y-40980000D03*
X18700000Y-40980000D03*
%TD*%
D53*
%TO.C,FID1*%
X0Y0D03*
%TD*%
D54*
%TO.C,H2*%
X75500000Y3900000D03*
%TD*%
D55*
%TO.C,R19*%
X39125000Y-23600000D03*
X37475000Y-23600000D03*
%TD*%
D24*
%TO.C,D9*%
X78300000Y-4800000D03*
X76725000Y-4800000D03*
%TD*%
%TO.C,D4*%
X69187500Y-21700000D03*
X67612500Y-21700000D03*
%TD*%
D54*
%TO.C,H3*%
X75500000Y-39100000D03*
%TD*%
%TO.C,H4*%
X2500000Y-39100000D03*
%TD*%
D53*
%TO.C,FID3*%
X78100000Y-35300000D03*
%TD*%
D56*
%TO.C,A1*%
X52680000Y-6500000D03*
D57*
X55220000Y-6500000D03*
X57760000Y-6500000D03*
X60300000Y-6500000D03*
X62840000Y-6500000D03*
X65380000Y-6500000D03*
X67920000Y-6500000D03*
X70460000Y-6500000D03*
X70460000Y6200000D03*
X67920000Y6200000D03*
X65380000Y6200000D03*
X62840000Y6200000D03*
X60300000Y6200000D03*
X57760000Y6200000D03*
X55220000Y6200000D03*
X52680000Y6200000D03*
%TD*%
D24*
%TO.C,D5*%
X69187500Y-18300000D03*
X67612500Y-18300000D03*
%TD*%
M02*
