%TF.GenerationSoftware,KiCad,Pcbnew,7.0.10-7.0.10~ubuntu22.04.1*%
%TF.CreationDate,2024-03-18T23:14:28+01:00*%
%TF.ProjectId,sdrac_board,73647261-635f-4626-9f61-72642e6b6963,2.0*%
%TF.SameCoordinates,Original*%
%TF.FileFunction,Legend,Top*%
%TF.FilePolarity,Positive*%
%FSLAX46Y46*%
G04 Gerber Fmt 4.6, Leading zero omitted, Abs format (unit mm)*
G04 Created by KiCad (PCBNEW 7.0.10-7.0.10~ubuntu22.04.1) date 2024-03-18 23:14:28*
%MOMM*%
%LPD*%
G01*
G04 APERTURE LIST*
G04 Aperture macros list*
%AMRoundRect*
0 Rectangle with rounded corners*
0 $1 Rounding radius*
0 $2 $3 $4 $5 $6 $7 $8 $9 X,Y pos of 4 corners*
0 Add a 4 corners polygon primitive as box body*
4,1,4,$2,$3,$4,$5,$6,$7,$8,$9,$2,$3,0*
0 Add four circle primitives for the rounded corners*
1,1,$1+$1,$2,$3*
1,1,$1+$1,$4,$5*
1,1,$1+$1,$6,$7*
1,1,$1+$1,$8,$9*
0 Add four rect primitives between the rounded corners*
20,1,$1+$1,$2,$3,$4,$5,0*
20,1,$1+$1,$4,$5,$6,$7,0*
20,1,$1+$1,$6,$7,$8,$9,0*
20,1,$1+$1,$8,$9,$2,$3,0*%
%AMRotRect*
0 Rectangle, with rotation*
0 The origin of the aperture is its center*
0 $1 length*
0 $2 width*
0 $3 Rotation angle, in degrees counterclockwise*
0 Add horizontal line*
21,1,$1,$2,0,0,$3*%
G04 Aperture macros list end*
%ADD10C,0.150000*%
%ADD11C,0.254000*%
%ADD12C,0.120000*%
%ADD13C,0.200000*%
%ADD14RoundRect,0.200000X0.275000X-0.200000X0.275000X0.200000X-0.275000X0.200000X-0.275000X-0.200000X0*%
%ADD15C,1.020000*%
%ADD16RoundRect,0.250001X-0.499999X-0.499999X0.499999X-0.499999X0.499999X0.499999X-0.499999X0.499999X0*%
%ADD17C,1.500000*%
%ADD18R,1.500000X2.000000*%
%ADD19R,3.800000X2.000000*%
%ADD20C,1.400000*%
%ADD21R,3.500000X3.500000*%
%ADD22C,3.500000*%
%ADD23RoundRect,0.250001X0.499999X0.499999X-0.499999X0.499999X-0.499999X-0.499999X0.499999X-0.499999X0*%
%ADD24R,2.440000X1.120000*%
%ADD25RoundRect,0.218750X0.218750X0.256250X-0.218750X0.256250X-0.218750X-0.256250X0.218750X-0.256250X0*%
%ADD26RoundRect,0.250000X-1.000000X1.950000X-1.000000X-1.950000X1.000000X-1.950000X1.000000X1.950000X0*%
%ADD27RoundRect,0.200000X-0.275000X0.200000X-0.275000X-0.200000X0.275000X-0.200000X0.275000X0.200000X0*%
%ADD28RoundRect,0.225000X0.250000X-0.225000X0.250000X0.225000X-0.250000X0.225000X-0.250000X-0.225000X0*%
%ADD29RoundRect,0.250000X0.650000X-0.325000X0.650000X0.325000X-0.650000X0.325000X-0.650000X-0.325000X0*%
%ADD30RoundRect,0.250000X1.100000X-0.325000X1.100000X0.325000X-1.100000X0.325000X-1.100000X-0.325000X0*%
%ADD31RoundRect,0.250000X-1.100000X0.325000X-1.100000X-0.325000X1.100000X-0.325000X1.100000X0.325000X0*%
%ADD32RoundRect,0.250000X-0.325000X-1.100000X0.325000X-1.100000X0.325000X1.100000X-0.325000X1.100000X0*%
%ADD33R,0.650000X1.050000*%
%ADD34R,1.050000X0.650000*%
%ADD35C,2.000000*%
%ADD36RoundRect,0.250000X0.475000X-0.250000X0.475000X0.250000X-0.475000X0.250000X-0.475000X-0.250000X0*%
%ADD37RoundRect,0.225000X-0.225000X-0.250000X0.225000X-0.250000X0.225000X0.250000X-0.225000X0.250000X0*%
%ADD38RoundRect,0.250000X1.000000X-1.400000X1.000000X1.400000X-1.000000X1.400000X-1.000000X-1.400000X0*%
%ADD39C,3.200000*%
%ADD40R,1.525000X0.650000*%
%ADD41R,2.400000X3.100000*%
%ADD42RoundRect,0.250000X0.250000X0.475000X-0.250000X0.475000X-0.250000X-0.475000X0.250000X-0.475000X0*%
%ADD43R,1.700000X1.700000*%
%ADD44O,1.700000X1.700000*%
%ADD45C,0.650000*%
%ADD46R,0.600000X1.240000*%
%ADD47R,0.300000X1.240000*%
%ADD48O,1.000000X2.100000*%
%ADD49O,1.000000X1.800000*%
%ADD50RotRect,1.500000X4.700000X225.000000*%
%ADD51RoundRect,0.200000X0.200000X0.275000X-0.200000X0.275000X-0.200000X-0.275000X0.200000X-0.275000X0*%
%ADD52RoundRect,0.250000X-1.625000X0.312500X-1.625000X-0.312500X1.625000X-0.312500X1.625000X0.312500X0*%
%ADD53RoundRect,0.242778X-1.632222X0.303472X-1.632222X-0.303472X1.632222X-0.303472X1.632222X0.303472X0*%
%ADD54RoundRect,0.225000X0.225000X0.250000X-0.225000X0.250000X-0.225000X-0.250000X0.225000X-0.250000X0*%
%ADD55R,1.600000X1.600000*%
%ADD56O,1.600000X1.600000*%
%ADD57RoundRect,0.225000X-0.250000X0.225000X-0.250000X-0.225000X0.250000X-0.225000X0.250000X0.225000X0*%
G04 APERTURE END LIST*
D10*
X47917731Y-34422200D02*
X47822493Y-34469819D01*
X47822493Y-34469819D02*
X47632017Y-34469819D01*
X47632017Y-34469819D02*
X47536779Y-34422200D01*
X47536779Y-34422200D02*
X47489160Y-34326961D01*
X47489160Y-34326961D02*
X47489160Y-33946009D01*
X47489160Y-33946009D02*
X47536779Y-33850771D01*
X47536779Y-33850771D02*
X47632017Y-33803152D01*
X47632017Y-33803152D02*
X47822493Y-33803152D01*
X47822493Y-33803152D02*
X47917731Y-33850771D01*
X47917731Y-33850771D02*
X47965350Y-33946009D01*
X47965350Y-33946009D02*
X47965350Y-34041247D01*
X47965350Y-34041247D02*
X47489160Y-34136485D01*
X48393922Y-33803152D02*
X48393922Y-34469819D01*
X48393922Y-33898390D02*
X48441541Y-33850771D01*
X48441541Y-33850771D02*
X48536779Y-33803152D01*
X48536779Y-33803152D02*
X48679636Y-33803152D01*
X48679636Y-33803152D02*
X48774874Y-33850771D01*
X48774874Y-33850771D02*
X48822493Y-33946009D01*
X48822493Y-33946009D02*
X48822493Y-34469819D01*
X49727255Y-34422200D02*
X49632017Y-34469819D01*
X49632017Y-34469819D02*
X49441541Y-34469819D01*
X49441541Y-34469819D02*
X49346303Y-34422200D01*
X49346303Y-34422200D02*
X49298684Y-34374580D01*
X49298684Y-34374580D02*
X49251065Y-34279342D01*
X49251065Y-34279342D02*
X49251065Y-33993628D01*
X49251065Y-33993628D02*
X49298684Y-33898390D01*
X49298684Y-33898390D02*
X49346303Y-33850771D01*
X49346303Y-33850771D02*
X49441541Y-33803152D01*
X49441541Y-33803152D02*
X49632017Y-33803152D01*
X49632017Y-33803152D02*
X49727255Y-33850771D01*
X50298684Y-34469819D02*
X50203446Y-34422200D01*
X50203446Y-34422200D02*
X50155827Y-34374580D01*
X50155827Y-34374580D02*
X50108208Y-34279342D01*
X50108208Y-34279342D02*
X50108208Y-33993628D01*
X50108208Y-33993628D02*
X50155827Y-33898390D01*
X50155827Y-33898390D02*
X50203446Y-33850771D01*
X50203446Y-33850771D02*
X50298684Y-33803152D01*
X50298684Y-33803152D02*
X50441541Y-33803152D01*
X50441541Y-33803152D02*
X50536779Y-33850771D01*
X50536779Y-33850771D02*
X50584398Y-33898390D01*
X50584398Y-33898390D02*
X50632017Y-33993628D01*
X50632017Y-33993628D02*
X50632017Y-34279342D01*
X50632017Y-34279342D02*
X50584398Y-34374580D01*
X50584398Y-34374580D02*
X50536779Y-34422200D01*
X50536779Y-34422200D02*
X50441541Y-34469819D01*
X50441541Y-34469819D02*
X50298684Y-34469819D01*
X51489160Y-34469819D02*
X51489160Y-33469819D01*
X51489160Y-34422200D02*
X51393922Y-34469819D01*
X51393922Y-34469819D02*
X51203446Y-34469819D01*
X51203446Y-34469819D02*
X51108208Y-34422200D01*
X51108208Y-34422200D02*
X51060589Y-34374580D01*
X51060589Y-34374580D02*
X51012970Y-34279342D01*
X51012970Y-34279342D02*
X51012970Y-33993628D01*
X51012970Y-33993628D02*
X51060589Y-33898390D01*
X51060589Y-33898390D02*
X51108208Y-33850771D01*
X51108208Y-33850771D02*
X51203446Y-33803152D01*
X51203446Y-33803152D02*
X51393922Y-33803152D01*
X51393922Y-33803152D02*
X51489160Y-33850771D01*
X52346303Y-34422200D02*
X52251065Y-34469819D01*
X52251065Y-34469819D02*
X52060589Y-34469819D01*
X52060589Y-34469819D02*
X51965351Y-34422200D01*
X51965351Y-34422200D02*
X51917732Y-34326961D01*
X51917732Y-34326961D02*
X51917732Y-33946009D01*
X51917732Y-33946009D02*
X51965351Y-33850771D01*
X51965351Y-33850771D02*
X52060589Y-33803152D01*
X52060589Y-33803152D02*
X52251065Y-33803152D01*
X52251065Y-33803152D02*
X52346303Y-33850771D01*
X52346303Y-33850771D02*
X52393922Y-33946009D01*
X52393922Y-33946009D02*
X52393922Y-34041247D01*
X52393922Y-34041247D02*
X51917732Y-34136485D01*
X52822494Y-34469819D02*
X52822494Y-33803152D01*
X52822494Y-33993628D02*
X52870113Y-33898390D01*
X52870113Y-33898390D02*
X52917732Y-33850771D01*
X52917732Y-33850771D02*
X53012970Y-33803152D01*
X53012970Y-33803152D02*
X53108208Y-33803152D01*
X73341541Y-4369819D02*
X73960588Y-4369819D01*
X73960588Y-4369819D02*
X73627255Y-4750771D01*
X73627255Y-4750771D02*
X73770112Y-4750771D01*
X73770112Y-4750771D02*
X73865350Y-4798390D01*
X73865350Y-4798390D02*
X73912969Y-4846009D01*
X73912969Y-4846009D02*
X73960588Y-4941247D01*
X73960588Y-4941247D02*
X73960588Y-5179342D01*
X73960588Y-5179342D02*
X73912969Y-5274580D01*
X73912969Y-5274580D02*
X73865350Y-5322200D01*
X73865350Y-5322200D02*
X73770112Y-5369819D01*
X73770112Y-5369819D02*
X73484398Y-5369819D01*
X73484398Y-5369819D02*
X73389160Y-5322200D01*
X73389160Y-5322200D02*
X73341541Y-5274580D01*
X74246303Y-4369819D02*
X74579636Y-5369819D01*
X74579636Y-5369819D02*
X74912969Y-4369819D01*
X75151065Y-4369819D02*
X75770112Y-4369819D01*
X75770112Y-4369819D02*
X75436779Y-4750771D01*
X75436779Y-4750771D02*
X75579636Y-4750771D01*
X75579636Y-4750771D02*
X75674874Y-4798390D01*
X75674874Y-4798390D02*
X75722493Y-4846009D01*
X75722493Y-4846009D02*
X75770112Y-4941247D01*
X75770112Y-4941247D02*
X75770112Y-5179342D01*
X75770112Y-5179342D02*
X75722493Y-5274580D01*
X75722493Y-5274580D02*
X75674874Y-5322200D01*
X75674874Y-5322200D02*
X75579636Y-5369819D01*
X75579636Y-5369819D02*
X75293922Y-5369819D01*
X75293922Y-5369819D02*
X75198684Y-5322200D01*
X75198684Y-5322200D02*
X75151065Y-5274580D01*
X22508207Y-34574580D02*
X22460588Y-34622200D01*
X22460588Y-34622200D02*
X22317731Y-34669819D01*
X22317731Y-34669819D02*
X22222493Y-34669819D01*
X22222493Y-34669819D02*
X22079636Y-34622200D01*
X22079636Y-34622200D02*
X21984398Y-34526961D01*
X21984398Y-34526961D02*
X21936779Y-34431723D01*
X21936779Y-34431723D02*
X21889160Y-34241247D01*
X21889160Y-34241247D02*
X21889160Y-34098390D01*
X21889160Y-34098390D02*
X21936779Y-33907914D01*
X21936779Y-33907914D02*
X21984398Y-33812676D01*
X21984398Y-33812676D02*
X22079636Y-33717438D01*
X22079636Y-33717438D02*
X22222493Y-33669819D01*
X22222493Y-33669819D02*
X22317731Y-33669819D01*
X22317731Y-33669819D02*
X22460588Y-33717438D01*
X22460588Y-33717438D02*
X22508207Y-33765057D01*
X22889160Y-34384104D02*
X23365350Y-34384104D01*
X22793922Y-34669819D02*
X23127255Y-33669819D01*
X23127255Y-33669819D02*
X23460588Y-34669819D01*
X23793922Y-34669819D02*
X23793922Y-33669819D01*
X23793922Y-33669819D02*
X24365350Y-34669819D01*
X24365350Y-34669819D02*
X24365350Y-33669819D01*
X10708207Y-34674580D02*
X10660588Y-34722200D01*
X10660588Y-34722200D02*
X10517731Y-34769819D01*
X10517731Y-34769819D02*
X10422493Y-34769819D01*
X10422493Y-34769819D02*
X10279636Y-34722200D01*
X10279636Y-34722200D02*
X10184398Y-34626961D01*
X10184398Y-34626961D02*
X10136779Y-34531723D01*
X10136779Y-34531723D02*
X10089160Y-34341247D01*
X10089160Y-34341247D02*
X10089160Y-34198390D01*
X10089160Y-34198390D02*
X10136779Y-34007914D01*
X10136779Y-34007914D02*
X10184398Y-33912676D01*
X10184398Y-33912676D02*
X10279636Y-33817438D01*
X10279636Y-33817438D02*
X10422493Y-33769819D01*
X10422493Y-33769819D02*
X10517731Y-33769819D01*
X10517731Y-33769819D02*
X10660588Y-33817438D01*
X10660588Y-33817438D02*
X10708207Y-33865057D01*
X11089160Y-34484104D02*
X11565350Y-34484104D01*
X10993922Y-34769819D02*
X11327255Y-33769819D01*
X11327255Y-33769819D02*
X11660588Y-34769819D01*
X11993922Y-34769819D02*
X11993922Y-33769819D01*
X11993922Y-33769819D02*
X12565350Y-34769819D01*
X12565350Y-34769819D02*
X12565350Y-33769819D01*
X52989160Y-29722200D02*
X53132017Y-29769819D01*
X53132017Y-29769819D02*
X53370112Y-29769819D01*
X53370112Y-29769819D02*
X53465350Y-29722200D01*
X53465350Y-29722200D02*
X53512969Y-29674580D01*
X53512969Y-29674580D02*
X53560588Y-29579342D01*
X53560588Y-29579342D02*
X53560588Y-29484104D01*
X53560588Y-29484104D02*
X53512969Y-29388866D01*
X53512969Y-29388866D02*
X53465350Y-29341247D01*
X53465350Y-29341247D02*
X53370112Y-29293628D01*
X53370112Y-29293628D02*
X53179636Y-29246009D01*
X53179636Y-29246009D02*
X53084398Y-29198390D01*
X53084398Y-29198390D02*
X53036779Y-29150771D01*
X53036779Y-29150771D02*
X52989160Y-29055533D01*
X52989160Y-29055533D02*
X52989160Y-28960295D01*
X52989160Y-28960295D02*
X53036779Y-28865057D01*
X53036779Y-28865057D02*
X53084398Y-28817438D01*
X53084398Y-28817438D02*
X53179636Y-28769819D01*
X53179636Y-28769819D02*
X53417731Y-28769819D01*
X53417731Y-28769819D02*
X53560588Y-28817438D01*
X54560588Y-29674580D02*
X54512969Y-29722200D01*
X54512969Y-29722200D02*
X54370112Y-29769819D01*
X54370112Y-29769819D02*
X54274874Y-29769819D01*
X54274874Y-29769819D02*
X54132017Y-29722200D01*
X54132017Y-29722200D02*
X54036779Y-29626961D01*
X54036779Y-29626961D02*
X53989160Y-29531723D01*
X53989160Y-29531723D02*
X53941541Y-29341247D01*
X53941541Y-29341247D02*
X53941541Y-29198390D01*
X53941541Y-29198390D02*
X53989160Y-29007914D01*
X53989160Y-29007914D02*
X54036779Y-28912676D01*
X54036779Y-28912676D02*
X54132017Y-28817438D01*
X54132017Y-28817438D02*
X54274874Y-28769819D01*
X54274874Y-28769819D02*
X54370112Y-28769819D01*
X54370112Y-28769819D02*
X54512969Y-28817438D01*
X54512969Y-28817438D02*
X54560588Y-28865057D01*
X72808207Y-19974580D02*
X72760588Y-20022200D01*
X72760588Y-20022200D02*
X72617731Y-20069819D01*
X72617731Y-20069819D02*
X72522493Y-20069819D01*
X72522493Y-20069819D02*
X72379636Y-20022200D01*
X72379636Y-20022200D02*
X72284398Y-19926961D01*
X72284398Y-19926961D02*
X72236779Y-19831723D01*
X72236779Y-19831723D02*
X72189160Y-19641247D01*
X72189160Y-19641247D02*
X72189160Y-19498390D01*
X72189160Y-19498390D02*
X72236779Y-19307914D01*
X72236779Y-19307914D02*
X72284398Y-19212676D01*
X72284398Y-19212676D02*
X72379636Y-19117438D01*
X72379636Y-19117438D02*
X72522493Y-19069819D01*
X72522493Y-19069819D02*
X72617731Y-19069819D01*
X72617731Y-19069819D02*
X72760588Y-19117438D01*
X72760588Y-19117438D02*
X72808207Y-19165057D01*
X73236779Y-20069819D02*
X73236779Y-19069819D01*
X73236779Y-19069819D02*
X73474874Y-19069819D01*
X73474874Y-19069819D02*
X73617731Y-19117438D01*
X73617731Y-19117438D02*
X73712969Y-19212676D01*
X73712969Y-19212676D02*
X73760588Y-19307914D01*
X73760588Y-19307914D02*
X73808207Y-19498390D01*
X73808207Y-19498390D02*
X73808207Y-19641247D01*
X73808207Y-19641247D02*
X73760588Y-19831723D01*
X73760588Y-19831723D02*
X73712969Y-19926961D01*
X73712969Y-19926961D02*
X73617731Y-20022200D01*
X73617731Y-20022200D02*
X73474874Y-20069819D01*
X73474874Y-20069819D02*
X73236779Y-20069819D01*
X74189160Y-19165057D02*
X74236779Y-19117438D01*
X74236779Y-19117438D02*
X74332017Y-19069819D01*
X74332017Y-19069819D02*
X74570112Y-19069819D01*
X74570112Y-19069819D02*
X74665350Y-19117438D01*
X74665350Y-19117438D02*
X74712969Y-19165057D01*
X74712969Y-19165057D02*
X74760588Y-19260295D01*
X74760588Y-19260295D02*
X74760588Y-19355533D01*
X74760588Y-19355533D02*
X74712969Y-19498390D01*
X74712969Y-19498390D02*
X74141541Y-20069819D01*
X74141541Y-20069819D02*
X74760588Y-20069819D01*
X65112969Y-20369819D02*
X64636779Y-20369819D01*
X64636779Y-20369819D02*
X64636779Y-19369819D01*
X65827255Y-20322200D02*
X65732017Y-20369819D01*
X65732017Y-20369819D02*
X65541541Y-20369819D01*
X65541541Y-20369819D02*
X65446303Y-20322200D01*
X65446303Y-20322200D02*
X65398684Y-20226961D01*
X65398684Y-20226961D02*
X65398684Y-19846009D01*
X65398684Y-19846009D02*
X65446303Y-19750771D01*
X65446303Y-19750771D02*
X65541541Y-19703152D01*
X65541541Y-19703152D02*
X65732017Y-19703152D01*
X65732017Y-19703152D02*
X65827255Y-19750771D01*
X65827255Y-19750771D02*
X65874874Y-19846009D01*
X65874874Y-19846009D02*
X65874874Y-19941247D01*
X65874874Y-19941247D02*
X65398684Y-20036485D01*
X66732017Y-20369819D02*
X66732017Y-19369819D01*
X66732017Y-20322200D02*
X66636779Y-20369819D01*
X66636779Y-20369819D02*
X66446303Y-20369819D01*
X66446303Y-20369819D02*
X66351065Y-20322200D01*
X66351065Y-20322200D02*
X66303446Y-20274580D01*
X66303446Y-20274580D02*
X66255827Y-20179342D01*
X66255827Y-20179342D02*
X66255827Y-19893628D01*
X66255827Y-19893628D02*
X66303446Y-19798390D01*
X66303446Y-19798390D02*
X66351065Y-19750771D01*
X66351065Y-19750771D02*
X66446303Y-19703152D01*
X66446303Y-19703152D02*
X66636779Y-19703152D01*
X66636779Y-19703152D02*
X66732017Y-19750771D01*
X67732017Y-20369819D02*
X67160589Y-20369819D01*
X67446303Y-20369819D02*
X67446303Y-19369819D01*
X67446303Y-19369819D02*
X67351065Y-19512676D01*
X67351065Y-19512676D02*
X67255827Y-19607914D01*
X67255827Y-19607914D02*
X67160589Y-19655533D01*
X66608207Y-18769819D02*
X66274874Y-18293628D01*
X66036779Y-18769819D02*
X66036779Y-17769819D01*
X66036779Y-17769819D02*
X66417731Y-17769819D01*
X66417731Y-17769819D02*
X66512969Y-17817438D01*
X66512969Y-17817438D02*
X66560588Y-17865057D01*
X66560588Y-17865057D02*
X66608207Y-17960295D01*
X66608207Y-17960295D02*
X66608207Y-18103152D01*
X66608207Y-18103152D02*
X66560588Y-18198390D01*
X66560588Y-18198390D02*
X66512969Y-18246009D01*
X66512969Y-18246009D02*
X66417731Y-18293628D01*
X66417731Y-18293628D02*
X66036779Y-18293628D01*
X66941541Y-18769819D02*
X67465350Y-18103152D01*
X66941541Y-18103152D02*
X67465350Y-18769819D01*
X55589160Y-29722200D02*
X55732017Y-29769819D01*
X55732017Y-29769819D02*
X55970112Y-29769819D01*
X55970112Y-29769819D02*
X56065350Y-29722200D01*
X56065350Y-29722200D02*
X56112969Y-29674580D01*
X56112969Y-29674580D02*
X56160588Y-29579342D01*
X56160588Y-29579342D02*
X56160588Y-29484104D01*
X56160588Y-29484104D02*
X56112969Y-29388866D01*
X56112969Y-29388866D02*
X56065350Y-29341247D01*
X56065350Y-29341247D02*
X55970112Y-29293628D01*
X55970112Y-29293628D02*
X55779636Y-29246009D01*
X55779636Y-29246009D02*
X55684398Y-29198390D01*
X55684398Y-29198390D02*
X55636779Y-29150771D01*
X55636779Y-29150771D02*
X55589160Y-29055533D01*
X55589160Y-29055533D02*
X55589160Y-28960295D01*
X55589160Y-28960295D02*
X55636779Y-28865057D01*
X55636779Y-28865057D02*
X55684398Y-28817438D01*
X55684398Y-28817438D02*
X55779636Y-28769819D01*
X55779636Y-28769819D02*
X56017731Y-28769819D01*
X56017731Y-28769819D02*
X56160588Y-28817438D01*
X56589160Y-29769819D02*
X56589160Y-28769819D01*
X56589160Y-28769819D02*
X56827255Y-28769819D01*
X56827255Y-28769819D02*
X56970112Y-28817438D01*
X56970112Y-28817438D02*
X57065350Y-28912676D01*
X57065350Y-28912676D02*
X57112969Y-29007914D01*
X57112969Y-29007914D02*
X57160588Y-29198390D01*
X57160588Y-29198390D02*
X57160588Y-29341247D01*
X57160588Y-29341247D02*
X57112969Y-29531723D01*
X57112969Y-29531723D02*
X57065350Y-29626961D01*
X57065350Y-29626961D02*
X56970112Y-29722200D01*
X56970112Y-29722200D02*
X56827255Y-29769819D01*
X56827255Y-29769819D02*
X56589160Y-29769819D01*
X68030190Y-23846087D02*
X68737297Y-23138980D01*
X68737297Y-23138980D02*
X69006671Y-23408354D01*
X69006671Y-23408354D02*
X69040343Y-23509369D01*
X69040343Y-23509369D02*
X69040343Y-23576713D01*
X69040343Y-23576713D02*
X69006671Y-23677728D01*
X69006671Y-23677728D02*
X68905656Y-23778743D01*
X68905656Y-23778743D02*
X68804641Y-23812415D01*
X68804641Y-23812415D02*
X68737297Y-23812415D01*
X68737297Y-23812415D02*
X68636282Y-23778743D01*
X68636282Y-23778743D02*
X68366908Y-23509369D01*
X68737297Y-24485850D02*
X68804641Y-24620537D01*
X68804641Y-24620537D02*
X68972999Y-24788896D01*
X68972999Y-24788896D02*
X69074015Y-24822567D01*
X69074015Y-24822567D02*
X69141358Y-24822567D01*
X69141358Y-24822567D02*
X69242373Y-24788896D01*
X69242373Y-24788896D02*
X69309717Y-24721552D01*
X69309717Y-24721552D02*
X69343389Y-24620537D01*
X69343389Y-24620537D02*
X69343389Y-24553193D01*
X69343389Y-24553193D02*
X69309717Y-24452178D01*
X69309717Y-24452178D02*
X69208702Y-24283819D01*
X69208702Y-24283819D02*
X69175030Y-24182804D01*
X69175030Y-24182804D02*
X69175030Y-24115461D01*
X69175030Y-24115461D02*
X69208702Y-24014445D01*
X69208702Y-24014445D02*
X69276045Y-23947102D01*
X69276045Y-23947102D02*
X69377060Y-23913430D01*
X69377060Y-23913430D02*
X69444404Y-23913430D01*
X69444404Y-23913430D02*
X69545419Y-23947102D01*
X69545419Y-23947102D02*
X69713778Y-24115461D01*
X69713778Y-24115461D02*
X69781121Y-24250148D01*
X72508207Y-12374580D02*
X72460588Y-12422200D01*
X72460588Y-12422200D02*
X72317731Y-12469819D01*
X72317731Y-12469819D02*
X72222493Y-12469819D01*
X72222493Y-12469819D02*
X72079636Y-12422200D01*
X72079636Y-12422200D02*
X71984398Y-12326961D01*
X71984398Y-12326961D02*
X71936779Y-12231723D01*
X71936779Y-12231723D02*
X71889160Y-12041247D01*
X71889160Y-12041247D02*
X71889160Y-11898390D01*
X71889160Y-11898390D02*
X71936779Y-11707914D01*
X71936779Y-11707914D02*
X71984398Y-11612676D01*
X71984398Y-11612676D02*
X72079636Y-11517438D01*
X72079636Y-11517438D02*
X72222493Y-11469819D01*
X72222493Y-11469819D02*
X72317731Y-11469819D01*
X72317731Y-11469819D02*
X72460588Y-11517438D01*
X72460588Y-11517438D02*
X72508207Y-11565057D01*
X72889160Y-12184104D02*
X73365350Y-12184104D01*
X72793922Y-12469819D02*
X73127255Y-11469819D01*
X73127255Y-11469819D02*
X73460588Y-12469819D01*
X74317731Y-12469819D02*
X73746303Y-12469819D01*
X74032017Y-12469819D02*
X74032017Y-11469819D01*
X74032017Y-11469819D02*
X73936779Y-11612676D01*
X73936779Y-11612676D02*
X73841541Y-11707914D01*
X73841541Y-11707914D02*
X73746303Y-11755533D01*
X69236779Y4253991D02*
X69570112Y4253991D01*
X69712969Y3730181D02*
X69236779Y3730181D01*
X69236779Y3730181D02*
X69236779Y4730181D01*
X69236779Y4730181D02*
X69712969Y4730181D01*
X70141541Y3730181D02*
X70141541Y4730181D01*
X70141541Y4730181D02*
X70712969Y3730181D01*
X70712969Y3730181D02*
X70712969Y4730181D01*
X71141541Y4015896D02*
X71617731Y4015896D01*
X71046303Y3730181D02*
X71379636Y4730181D01*
X71379636Y4730181D02*
X71712969Y3730181D01*
X72608207Y-14874580D02*
X72560588Y-14922200D01*
X72560588Y-14922200D02*
X72417731Y-14969819D01*
X72417731Y-14969819D02*
X72322493Y-14969819D01*
X72322493Y-14969819D02*
X72179636Y-14922200D01*
X72179636Y-14922200D02*
X72084398Y-14826961D01*
X72084398Y-14826961D02*
X72036779Y-14731723D01*
X72036779Y-14731723D02*
X71989160Y-14541247D01*
X71989160Y-14541247D02*
X71989160Y-14398390D01*
X71989160Y-14398390D02*
X72036779Y-14207914D01*
X72036779Y-14207914D02*
X72084398Y-14112676D01*
X72084398Y-14112676D02*
X72179636Y-14017438D01*
X72179636Y-14017438D02*
X72322493Y-13969819D01*
X72322493Y-13969819D02*
X72417731Y-13969819D01*
X72417731Y-13969819D02*
X72560588Y-14017438D01*
X72560588Y-14017438D02*
X72608207Y-14065057D01*
X72989160Y-14684104D02*
X73465350Y-14684104D01*
X72893922Y-14969819D02*
X73227255Y-13969819D01*
X73227255Y-13969819D02*
X73560588Y-14969819D01*
X73846303Y-14065057D02*
X73893922Y-14017438D01*
X73893922Y-14017438D02*
X73989160Y-13969819D01*
X73989160Y-13969819D02*
X74227255Y-13969819D01*
X74227255Y-13969819D02*
X74322493Y-14017438D01*
X74322493Y-14017438D02*
X74370112Y-14065057D01*
X74370112Y-14065057D02*
X74417731Y-14160295D01*
X74417731Y-14160295D02*
X74417731Y-14255533D01*
X74417731Y-14255533D02*
X74370112Y-14398390D01*
X74370112Y-14398390D02*
X73798684Y-14969819D01*
X73798684Y-14969819D02*
X74417731Y-14969819D01*
X72512969Y-8869819D02*
X72036779Y-8869819D01*
X72036779Y-8869819D02*
X71989160Y-9346009D01*
X71989160Y-9346009D02*
X72036779Y-9298390D01*
X72036779Y-9298390D02*
X72132017Y-9250771D01*
X72132017Y-9250771D02*
X72370112Y-9250771D01*
X72370112Y-9250771D02*
X72465350Y-9298390D01*
X72465350Y-9298390D02*
X72512969Y-9346009D01*
X72512969Y-9346009D02*
X72560588Y-9441247D01*
X72560588Y-9441247D02*
X72560588Y-9679342D01*
X72560588Y-9679342D02*
X72512969Y-9774580D01*
X72512969Y-9774580D02*
X72465350Y-9822200D01*
X72465350Y-9822200D02*
X72370112Y-9869819D01*
X72370112Y-9869819D02*
X72132017Y-9869819D01*
X72132017Y-9869819D02*
X72036779Y-9822200D01*
X72036779Y-9822200D02*
X71989160Y-9774580D01*
X72846303Y-8869819D02*
X73179636Y-9869819D01*
X73179636Y-9869819D02*
X73512969Y-8869819D01*
X68893922Y-3569819D02*
X69227255Y-4569819D01*
X69227255Y-4569819D02*
X69560588Y-3569819D01*
X69893922Y-4569819D02*
X69893922Y-3569819D01*
X69893922Y-3569819D02*
X70132017Y-3569819D01*
X70132017Y-3569819D02*
X70274874Y-3617438D01*
X70274874Y-3617438D02*
X70370112Y-3712676D01*
X70370112Y-3712676D02*
X70417731Y-3807914D01*
X70417731Y-3807914D02*
X70465350Y-3998390D01*
X70465350Y-3998390D02*
X70465350Y-4141247D01*
X70465350Y-4141247D02*
X70417731Y-4331723D01*
X70417731Y-4331723D02*
X70370112Y-4426961D01*
X70370112Y-4426961D02*
X70274874Y-4522200D01*
X70274874Y-4522200D02*
X70132017Y-4569819D01*
X70132017Y-4569819D02*
X69893922Y-4569819D01*
X71465350Y-4474580D02*
X71417731Y-4522200D01*
X71417731Y-4522200D02*
X71274874Y-4569819D01*
X71274874Y-4569819D02*
X71179636Y-4569819D01*
X71179636Y-4569819D02*
X71036779Y-4522200D01*
X71036779Y-4522200D02*
X70941541Y-4426961D01*
X70941541Y-4426961D02*
X70893922Y-4331723D01*
X70893922Y-4331723D02*
X70846303Y-4141247D01*
X70846303Y-4141247D02*
X70846303Y-3998390D01*
X70846303Y-3998390D02*
X70893922Y-3807914D01*
X70893922Y-3807914D02*
X70941541Y-3712676D01*
X70941541Y-3712676D02*
X71036779Y-3617438D01*
X71036779Y-3617438D02*
X71179636Y-3569819D01*
X71179636Y-3569819D02*
X71274874Y-3569819D01*
X71274874Y-3569819D02*
X71417731Y-3617438D01*
X71417731Y-3617438D02*
X71465350Y-3665057D01*
X65130190Y-23846087D02*
X65837297Y-23138980D01*
X65837297Y-23138980D02*
X66005656Y-23307339D01*
X66005656Y-23307339D02*
X66072999Y-23442026D01*
X66072999Y-23442026D02*
X66072999Y-23576713D01*
X66072999Y-23576713D02*
X66039328Y-23677728D01*
X66039328Y-23677728D02*
X65938312Y-23846087D01*
X65938312Y-23846087D02*
X65837297Y-23947102D01*
X65837297Y-23947102D02*
X65668938Y-24048117D01*
X65668938Y-24048117D02*
X65567923Y-24081789D01*
X65567923Y-24081789D02*
X65433236Y-24081789D01*
X65433236Y-24081789D02*
X65298549Y-24014445D01*
X65298549Y-24014445D02*
X65130190Y-23846087D01*
X65837297Y-24485850D02*
X65904641Y-24620537D01*
X65904641Y-24620537D02*
X66072999Y-24788896D01*
X66072999Y-24788896D02*
X66174015Y-24822567D01*
X66174015Y-24822567D02*
X66241358Y-24822567D01*
X66241358Y-24822567D02*
X66342373Y-24788896D01*
X66342373Y-24788896D02*
X66409717Y-24721552D01*
X66409717Y-24721552D02*
X66443389Y-24620537D01*
X66443389Y-24620537D02*
X66443389Y-24553193D01*
X66443389Y-24553193D02*
X66409717Y-24452178D01*
X66409717Y-24452178D02*
X66308702Y-24283819D01*
X66308702Y-24283819D02*
X66275030Y-24182804D01*
X66275030Y-24182804D02*
X66275030Y-24115461D01*
X66275030Y-24115461D02*
X66308702Y-24014445D01*
X66308702Y-24014445D02*
X66376045Y-23947102D01*
X66376045Y-23947102D02*
X66477060Y-23913430D01*
X66477060Y-23913430D02*
X66544404Y-23913430D01*
X66544404Y-23913430D02*
X66645419Y-23947102D01*
X66645419Y-23947102D02*
X66813778Y-24115461D01*
X66813778Y-24115461D02*
X66881121Y-24250148D01*
X6408207Y-2369819D02*
X6074874Y-1893628D01*
X5836779Y-2369819D02*
X5836779Y-1369819D01*
X5836779Y-1369819D02*
X6217731Y-1369819D01*
X6217731Y-1369819D02*
X6312969Y-1417438D01*
X6312969Y-1417438D02*
X6360588Y-1465057D01*
X6360588Y-1465057D02*
X6408207Y-1560295D01*
X6408207Y-1560295D02*
X6408207Y-1703152D01*
X6408207Y-1703152D02*
X6360588Y-1798390D01*
X6360588Y-1798390D02*
X6312969Y-1846009D01*
X6312969Y-1846009D02*
X6217731Y-1893628D01*
X6217731Y-1893628D02*
X5836779Y-1893628D01*
X7217731Y-2322200D02*
X7122493Y-2369819D01*
X7122493Y-2369819D02*
X6932017Y-2369819D01*
X6932017Y-2369819D02*
X6836779Y-2322200D01*
X6836779Y-2322200D02*
X6789160Y-2226961D01*
X6789160Y-2226961D02*
X6789160Y-1846009D01*
X6789160Y-1846009D02*
X6836779Y-1750771D01*
X6836779Y-1750771D02*
X6932017Y-1703152D01*
X6932017Y-1703152D02*
X7122493Y-1703152D01*
X7122493Y-1703152D02*
X7217731Y-1750771D01*
X7217731Y-1750771D02*
X7265350Y-1846009D01*
X7265350Y-1846009D02*
X7265350Y-1941247D01*
X7265350Y-1941247D02*
X6789160Y-2036485D01*
X7646303Y-2322200D02*
X7741541Y-2369819D01*
X7741541Y-2369819D02*
X7932017Y-2369819D01*
X7932017Y-2369819D02*
X8027255Y-2322200D01*
X8027255Y-2322200D02*
X8074874Y-2226961D01*
X8074874Y-2226961D02*
X8074874Y-2179342D01*
X8074874Y-2179342D02*
X8027255Y-2084104D01*
X8027255Y-2084104D02*
X7932017Y-2036485D01*
X7932017Y-2036485D02*
X7789160Y-2036485D01*
X7789160Y-2036485D02*
X7693922Y-1988866D01*
X7693922Y-1988866D02*
X7646303Y-1893628D01*
X7646303Y-1893628D02*
X7646303Y-1846009D01*
X7646303Y-1846009D02*
X7693922Y-1750771D01*
X7693922Y-1750771D02*
X7789160Y-1703152D01*
X7789160Y-1703152D02*
X7932017Y-1703152D01*
X7932017Y-1703152D02*
X8027255Y-1750771D01*
X8884398Y-2322200D02*
X8789160Y-2369819D01*
X8789160Y-2369819D02*
X8598684Y-2369819D01*
X8598684Y-2369819D02*
X8503446Y-2322200D01*
X8503446Y-2322200D02*
X8455827Y-2226961D01*
X8455827Y-2226961D02*
X8455827Y-1846009D01*
X8455827Y-1846009D02*
X8503446Y-1750771D01*
X8503446Y-1750771D02*
X8598684Y-1703152D01*
X8598684Y-1703152D02*
X8789160Y-1703152D01*
X8789160Y-1703152D02*
X8884398Y-1750771D01*
X8884398Y-1750771D02*
X8932017Y-1846009D01*
X8932017Y-1846009D02*
X8932017Y-1941247D01*
X8932017Y-1941247D02*
X8455827Y-2036485D01*
X9217732Y-1703152D02*
X9598684Y-1703152D01*
X9360589Y-1369819D02*
X9360589Y-2226961D01*
X9360589Y-2226961D02*
X9408208Y-2322200D01*
X9408208Y-2322200D02*
X9503446Y-2369819D01*
X9503446Y-2369819D02*
X9598684Y-2369819D01*
X72646009Y-33129887D02*
X72693628Y-32987030D01*
X72693628Y-32987030D02*
X72741247Y-32939411D01*
X72741247Y-32939411D02*
X72836485Y-32891792D01*
X72836485Y-32891792D02*
X72979342Y-32891792D01*
X72979342Y-32891792D02*
X73074580Y-32939411D01*
X73074580Y-32939411D02*
X73122200Y-32987030D01*
X73122200Y-32987030D02*
X73169819Y-33082268D01*
X73169819Y-33082268D02*
X73169819Y-33463220D01*
X73169819Y-33463220D02*
X72169819Y-33463220D01*
X72169819Y-33463220D02*
X72169819Y-33129887D01*
X72169819Y-33129887D02*
X72217438Y-33034649D01*
X72217438Y-33034649D02*
X72265057Y-32987030D01*
X72265057Y-32987030D02*
X72360295Y-32939411D01*
X72360295Y-32939411D02*
X72455533Y-32939411D01*
X72455533Y-32939411D02*
X72550771Y-32987030D01*
X72550771Y-32987030D02*
X72598390Y-33034649D01*
X72598390Y-33034649D02*
X72646009Y-33129887D01*
X72646009Y-33129887D02*
X72646009Y-33463220D01*
X72503152Y-32606077D02*
X72503152Y-32225125D01*
X72169819Y-32463220D02*
X73026961Y-32463220D01*
X73026961Y-32463220D02*
X73122200Y-32415601D01*
X73122200Y-32415601D02*
X73169819Y-32320363D01*
X73169819Y-32320363D02*
X73169819Y-32225125D01*
X72503152Y-31891791D02*
X73169819Y-31891791D01*
X72598390Y-31891791D02*
X72550771Y-31844172D01*
X72550771Y-31844172D02*
X72503152Y-31748934D01*
X72503152Y-31748934D02*
X72503152Y-31606077D01*
X72503152Y-31606077D02*
X72550771Y-31510839D01*
X72550771Y-31510839D02*
X72646009Y-31463220D01*
X72646009Y-31463220D02*
X73169819Y-31463220D01*
X73169819Y-30463220D02*
X73169819Y-31034648D01*
X73169819Y-30748934D02*
X72169819Y-30748934D01*
X72169819Y-30748934D02*
X72312676Y-30844172D01*
X72312676Y-30844172D02*
X72407914Y-30939410D01*
X72407914Y-30939410D02*
X72455533Y-31034648D01*
X72646009Y-28229887D02*
X72693628Y-28087030D01*
X72693628Y-28087030D02*
X72741247Y-28039411D01*
X72741247Y-28039411D02*
X72836485Y-27991792D01*
X72836485Y-27991792D02*
X72979342Y-27991792D01*
X72979342Y-27991792D02*
X73074580Y-28039411D01*
X73074580Y-28039411D02*
X73122200Y-28087030D01*
X73122200Y-28087030D02*
X73169819Y-28182268D01*
X73169819Y-28182268D02*
X73169819Y-28563220D01*
X73169819Y-28563220D02*
X72169819Y-28563220D01*
X72169819Y-28563220D02*
X72169819Y-28229887D01*
X72169819Y-28229887D02*
X72217438Y-28134649D01*
X72217438Y-28134649D02*
X72265057Y-28087030D01*
X72265057Y-28087030D02*
X72360295Y-28039411D01*
X72360295Y-28039411D02*
X72455533Y-28039411D01*
X72455533Y-28039411D02*
X72550771Y-28087030D01*
X72550771Y-28087030D02*
X72598390Y-28134649D01*
X72598390Y-28134649D02*
X72646009Y-28229887D01*
X72646009Y-28229887D02*
X72646009Y-28563220D01*
X73169819Y-27420363D02*
X73122200Y-27515601D01*
X73122200Y-27515601D02*
X73074580Y-27563220D01*
X73074580Y-27563220D02*
X72979342Y-27610839D01*
X72979342Y-27610839D02*
X72693628Y-27610839D01*
X72693628Y-27610839D02*
X72598390Y-27563220D01*
X72598390Y-27563220D02*
X72550771Y-27515601D01*
X72550771Y-27515601D02*
X72503152Y-27420363D01*
X72503152Y-27420363D02*
X72503152Y-27277506D01*
X72503152Y-27277506D02*
X72550771Y-27182268D01*
X72550771Y-27182268D02*
X72598390Y-27134649D01*
X72598390Y-27134649D02*
X72693628Y-27087030D01*
X72693628Y-27087030D02*
X72979342Y-27087030D01*
X72979342Y-27087030D02*
X73074580Y-27134649D01*
X73074580Y-27134649D02*
X73122200Y-27182268D01*
X73122200Y-27182268D02*
X73169819Y-27277506D01*
X73169819Y-27277506D02*
X73169819Y-27420363D01*
X73169819Y-26515601D02*
X73122200Y-26610839D01*
X73122200Y-26610839D02*
X73074580Y-26658458D01*
X73074580Y-26658458D02*
X72979342Y-26706077D01*
X72979342Y-26706077D02*
X72693628Y-26706077D01*
X72693628Y-26706077D02*
X72598390Y-26658458D01*
X72598390Y-26658458D02*
X72550771Y-26610839D01*
X72550771Y-26610839D02*
X72503152Y-26515601D01*
X72503152Y-26515601D02*
X72503152Y-26372744D01*
X72503152Y-26372744D02*
X72550771Y-26277506D01*
X72550771Y-26277506D02*
X72598390Y-26229887D01*
X72598390Y-26229887D02*
X72693628Y-26182268D01*
X72693628Y-26182268D02*
X72979342Y-26182268D01*
X72979342Y-26182268D02*
X73074580Y-26229887D01*
X73074580Y-26229887D02*
X73122200Y-26277506D01*
X73122200Y-26277506D02*
X73169819Y-26372744D01*
X73169819Y-26372744D02*
X73169819Y-26515601D01*
X72503152Y-25896553D02*
X72503152Y-25515601D01*
X72169819Y-25753696D02*
X73026961Y-25753696D01*
X73026961Y-25753696D02*
X73122200Y-25706077D01*
X73122200Y-25706077D02*
X73169819Y-25610839D01*
X73169819Y-25610839D02*
X73169819Y-25515601D01*
X33636779Y-33703152D02*
X33636779Y-34703152D01*
X33636779Y-33750771D02*
X33732017Y-33703152D01*
X33732017Y-33703152D02*
X33922493Y-33703152D01*
X33922493Y-33703152D02*
X34017731Y-33750771D01*
X34017731Y-33750771D02*
X34065350Y-33798390D01*
X34065350Y-33798390D02*
X34112969Y-33893628D01*
X34112969Y-33893628D02*
X34112969Y-34179342D01*
X34112969Y-34179342D02*
X34065350Y-34274580D01*
X34065350Y-34274580D02*
X34017731Y-34322200D01*
X34017731Y-34322200D02*
X33922493Y-34369819D01*
X33922493Y-34369819D02*
X33732017Y-34369819D01*
X33732017Y-34369819D02*
X33636779Y-34322200D01*
X34684398Y-34369819D02*
X34589160Y-34322200D01*
X34589160Y-34322200D02*
X34541541Y-34274580D01*
X34541541Y-34274580D02*
X34493922Y-34179342D01*
X34493922Y-34179342D02*
X34493922Y-33893628D01*
X34493922Y-33893628D02*
X34541541Y-33798390D01*
X34541541Y-33798390D02*
X34589160Y-33750771D01*
X34589160Y-33750771D02*
X34684398Y-33703152D01*
X34684398Y-33703152D02*
X34827255Y-33703152D01*
X34827255Y-33703152D02*
X34922493Y-33750771D01*
X34922493Y-33750771D02*
X34970112Y-33798390D01*
X34970112Y-33798390D02*
X35017731Y-33893628D01*
X35017731Y-33893628D02*
X35017731Y-34179342D01*
X35017731Y-34179342D02*
X34970112Y-34274580D01*
X34970112Y-34274580D02*
X34922493Y-34322200D01*
X34922493Y-34322200D02*
X34827255Y-34369819D01*
X34827255Y-34369819D02*
X34684398Y-34369819D01*
X35398684Y-34322200D02*
X35493922Y-34369819D01*
X35493922Y-34369819D02*
X35684398Y-34369819D01*
X35684398Y-34369819D02*
X35779636Y-34322200D01*
X35779636Y-34322200D02*
X35827255Y-34226961D01*
X35827255Y-34226961D02*
X35827255Y-34179342D01*
X35827255Y-34179342D02*
X35779636Y-34084104D01*
X35779636Y-34084104D02*
X35684398Y-34036485D01*
X35684398Y-34036485D02*
X35541541Y-34036485D01*
X35541541Y-34036485D02*
X35446303Y-33988866D01*
X35446303Y-33988866D02*
X35398684Y-33893628D01*
X35398684Y-33893628D02*
X35398684Y-33846009D01*
X35398684Y-33846009D02*
X35446303Y-33750771D01*
X35446303Y-33750771D02*
X35541541Y-33703152D01*
X35541541Y-33703152D02*
X35684398Y-33703152D01*
X35684398Y-33703152D02*
X35779636Y-33750771D01*
X36017732Y-34465057D02*
X36779636Y-34465057D01*
X36922494Y-33703152D02*
X37446303Y-33703152D01*
X37446303Y-33703152D02*
X36922494Y-34369819D01*
X36922494Y-34369819D02*
X37446303Y-34369819D01*
X38208208Y-34322200D02*
X38112970Y-34369819D01*
X38112970Y-34369819D02*
X37922494Y-34369819D01*
X37922494Y-34369819D02*
X37827256Y-34322200D01*
X37827256Y-34322200D02*
X37779637Y-34226961D01*
X37779637Y-34226961D02*
X37779637Y-33846009D01*
X37779637Y-33846009D02*
X37827256Y-33750771D01*
X37827256Y-33750771D02*
X37922494Y-33703152D01*
X37922494Y-33703152D02*
X38112970Y-33703152D01*
X38112970Y-33703152D02*
X38208208Y-33750771D01*
X38208208Y-33750771D02*
X38255827Y-33846009D01*
X38255827Y-33846009D02*
X38255827Y-33941247D01*
X38255827Y-33941247D02*
X37779637Y-34036485D01*
X38684399Y-34369819D02*
X38684399Y-33703152D01*
X38684399Y-33893628D02*
X38732018Y-33798390D01*
X38732018Y-33798390D02*
X38779637Y-33750771D01*
X38779637Y-33750771D02*
X38874875Y-33703152D01*
X38874875Y-33703152D02*
X38970113Y-33703152D01*
X39446304Y-34369819D02*
X39351066Y-34322200D01*
X39351066Y-34322200D02*
X39303447Y-34274580D01*
X39303447Y-34274580D02*
X39255828Y-34179342D01*
X39255828Y-34179342D02*
X39255828Y-33893628D01*
X39255828Y-33893628D02*
X39303447Y-33798390D01*
X39303447Y-33798390D02*
X39351066Y-33750771D01*
X39351066Y-33750771D02*
X39446304Y-33703152D01*
X39446304Y-33703152D02*
X39589161Y-33703152D01*
X39589161Y-33703152D02*
X39684399Y-33750771D01*
X39684399Y-33750771D02*
X39732018Y-33798390D01*
X39732018Y-33798390D02*
X39779637Y-33893628D01*
X39779637Y-33893628D02*
X39779637Y-34179342D01*
X39779637Y-34179342D02*
X39732018Y-34274580D01*
X39732018Y-34274580D02*
X39684399Y-34322200D01*
X39684399Y-34322200D02*
X39589161Y-34369819D01*
X39589161Y-34369819D02*
X39446304Y-34369819D01*
X58036779Y-29669819D02*
X58036779Y-28669819D01*
X58036779Y-28669819D02*
X58608207Y-29669819D01*
X58608207Y-29669819D02*
X58608207Y-28669819D01*
X59655826Y-29669819D02*
X59322493Y-29193628D01*
X59084398Y-29669819D02*
X59084398Y-28669819D01*
X59084398Y-28669819D02*
X59465350Y-28669819D01*
X59465350Y-28669819D02*
X59560588Y-28717438D01*
X59560588Y-28717438D02*
X59608207Y-28765057D01*
X59608207Y-28765057D02*
X59655826Y-28860295D01*
X59655826Y-28860295D02*
X59655826Y-29003152D01*
X59655826Y-29003152D02*
X59608207Y-29098390D01*
X59608207Y-29098390D02*
X59560588Y-29146009D01*
X59560588Y-29146009D02*
X59465350Y-29193628D01*
X59465350Y-29193628D02*
X59084398Y-29193628D01*
X60036779Y-29622200D02*
X60179636Y-29669819D01*
X60179636Y-29669819D02*
X60417731Y-29669819D01*
X60417731Y-29669819D02*
X60512969Y-29622200D01*
X60512969Y-29622200D02*
X60560588Y-29574580D01*
X60560588Y-29574580D02*
X60608207Y-29479342D01*
X60608207Y-29479342D02*
X60608207Y-29384104D01*
X60608207Y-29384104D02*
X60560588Y-29288866D01*
X60560588Y-29288866D02*
X60512969Y-29241247D01*
X60512969Y-29241247D02*
X60417731Y-29193628D01*
X60417731Y-29193628D02*
X60227255Y-29146009D01*
X60227255Y-29146009D02*
X60132017Y-29098390D01*
X60132017Y-29098390D02*
X60084398Y-29050771D01*
X60084398Y-29050771D02*
X60036779Y-28955533D01*
X60036779Y-28955533D02*
X60036779Y-28860295D01*
X60036779Y-28860295D02*
X60084398Y-28765057D01*
X60084398Y-28765057D02*
X60132017Y-28717438D01*
X60132017Y-28717438D02*
X60227255Y-28669819D01*
X60227255Y-28669819D02*
X60465350Y-28669819D01*
X60465350Y-28669819D02*
X60608207Y-28717438D01*
X60893922Y-28669819D02*
X61465350Y-28669819D01*
X61179636Y-29669819D02*
X61179636Y-28669819D01*
X28589160Y-1322200D02*
X28684398Y-1369819D01*
X28684398Y-1369819D02*
X28874874Y-1369819D01*
X28874874Y-1369819D02*
X28970112Y-1322200D01*
X28970112Y-1322200D02*
X29017731Y-1226961D01*
X29017731Y-1226961D02*
X29017731Y-1179342D01*
X29017731Y-1179342D02*
X28970112Y-1084104D01*
X28970112Y-1084104D02*
X28874874Y-1036485D01*
X28874874Y-1036485D02*
X28732017Y-1036485D01*
X28732017Y-1036485D02*
X28636779Y-988866D01*
X28636779Y-988866D02*
X28589160Y-893628D01*
X28589160Y-893628D02*
X28589160Y-846009D01*
X28589160Y-846009D02*
X28636779Y-750771D01*
X28636779Y-750771D02*
X28732017Y-703152D01*
X28732017Y-703152D02*
X28874874Y-703152D01*
X28874874Y-703152D02*
X28970112Y-750771D01*
X29303446Y-703152D02*
X29684398Y-703152D01*
X29446303Y-369819D02*
X29446303Y-1226961D01*
X29446303Y-1226961D02*
X29493922Y-1322200D01*
X29493922Y-1322200D02*
X29589160Y-1369819D01*
X29589160Y-1369819D02*
X29684398Y-1369819D01*
X30398684Y-1322200D02*
X30303446Y-1369819D01*
X30303446Y-1369819D02*
X30112970Y-1369819D01*
X30112970Y-1369819D02*
X30017732Y-1322200D01*
X30017732Y-1322200D02*
X29970113Y-1226961D01*
X29970113Y-1226961D02*
X29970113Y-846009D01*
X29970113Y-846009D02*
X30017732Y-750771D01*
X30017732Y-750771D02*
X30112970Y-703152D01*
X30112970Y-703152D02*
X30303446Y-703152D01*
X30303446Y-703152D02*
X30398684Y-750771D01*
X30398684Y-750771D02*
X30446303Y-846009D01*
X30446303Y-846009D02*
X30446303Y-941247D01*
X30446303Y-941247D02*
X29970113Y-1036485D01*
X30636780Y-1465057D02*
X31398684Y-1465057D01*
X32065351Y-1369819D02*
X32065351Y-369819D01*
X32065351Y-1322200D02*
X31970113Y-1369819D01*
X31970113Y-1369819D02*
X31779637Y-1369819D01*
X31779637Y-1369819D02*
X31684399Y-1322200D01*
X31684399Y-1322200D02*
X31636780Y-1274580D01*
X31636780Y-1274580D02*
X31589161Y-1179342D01*
X31589161Y-1179342D02*
X31589161Y-893628D01*
X31589161Y-893628D02*
X31636780Y-798390D01*
X31636780Y-798390D02*
X31684399Y-750771D01*
X31684399Y-750771D02*
X31779637Y-703152D01*
X31779637Y-703152D02*
X31970113Y-703152D01*
X31970113Y-703152D02*
X32065351Y-750771D01*
X32541542Y-1369819D02*
X32541542Y-703152D01*
X32541542Y-893628D02*
X32589161Y-798390D01*
X32589161Y-798390D02*
X32636780Y-750771D01*
X32636780Y-750771D02*
X32732018Y-703152D01*
X32732018Y-703152D02*
X32827256Y-703152D01*
X33160590Y-1369819D02*
X33160590Y-703152D01*
X33160590Y-369819D02*
X33112971Y-417438D01*
X33112971Y-417438D02*
X33160590Y-465057D01*
X33160590Y-465057D02*
X33208209Y-417438D01*
X33208209Y-417438D02*
X33160590Y-369819D01*
X33160590Y-369819D02*
X33160590Y-465057D01*
X33541542Y-703152D02*
X33779637Y-1369819D01*
X33779637Y-1369819D02*
X34017732Y-703152D01*
X34779637Y-1322200D02*
X34684399Y-1369819D01*
X34684399Y-1369819D02*
X34493923Y-1369819D01*
X34493923Y-1369819D02*
X34398685Y-1322200D01*
X34398685Y-1322200D02*
X34351066Y-1226961D01*
X34351066Y-1226961D02*
X34351066Y-846009D01*
X34351066Y-846009D02*
X34398685Y-750771D01*
X34398685Y-750771D02*
X34493923Y-703152D01*
X34493923Y-703152D02*
X34684399Y-703152D01*
X34684399Y-703152D02*
X34779637Y-750771D01*
X34779637Y-750771D02*
X34827256Y-846009D01*
X34827256Y-846009D02*
X34827256Y-941247D01*
X34827256Y-941247D02*
X34351066Y-1036485D01*
X35255828Y-1369819D02*
X35255828Y-703152D01*
X35255828Y-893628D02*
X35303447Y-798390D01*
X35303447Y-798390D02*
X35351066Y-750771D01*
X35351066Y-750771D02*
X35446304Y-703152D01*
X35446304Y-703152D02*
X35541542Y-703152D01*
X50160588Y-28717438D02*
X50065350Y-28669819D01*
X50065350Y-28669819D02*
X49922493Y-28669819D01*
X49922493Y-28669819D02*
X49779636Y-28717438D01*
X49779636Y-28717438D02*
X49684398Y-28812676D01*
X49684398Y-28812676D02*
X49636779Y-28907914D01*
X49636779Y-28907914D02*
X49589160Y-29098390D01*
X49589160Y-29098390D02*
X49589160Y-29241247D01*
X49589160Y-29241247D02*
X49636779Y-29431723D01*
X49636779Y-29431723D02*
X49684398Y-29526961D01*
X49684398Y-29526961D02*
X49779636Y-29622200D01*
X49779636Y-29622200D02*
X49922493Y-29669819D01*
X49922493Y-29669819D02*
X50017731Y-29669819D01*
X50017731Y-29669819D02*
X50160588Y-29622200D01*
X50160588Y-29622200D02*
X50208207Y-29574580D01*
X50208207Y-29574580D02*
X50208207Y-29241247D01*
X50208207Y-29241247D02*
X50017731Y-29241247D01*
X50636779Y-29669819D02*
X50636779Y-28669819D01*
X50636779Y-28669819D02*
X51208207Y-29669819D01*
X51208207Y-29669819D02*
X51208207Y-28669819D01*
X51684398Y-29669819D02*
X51684398Y-28669819D01*
X51684398Y-28669819D02*
X51922493Y-28669819D01*
X51922493Y-28669819D02*
X52065350Y-28717438D01*
X52065350Y-28717438D02*
X52160588Y-28812676D01*
X52160588Y-28812676D02*
X52208207Y-28907914D01*
X52208207Y-28907914D02*
X52255826Y-29098390D01*
X52255826Y-29098390D02*
X52255826Y-29241247D01*
X52255826Y-29241247D02*
X52208207Y-29431723D01*
X52208207Y-29431723D02*
X52160588Y-29526961D01*
X52160588Y-29526961D02*
X52065350Y-29622200D01*
X52065350Y-29622200D02*
X51922493Y-29669819D01*
X51922493Y-29669819D02*
X51684398Y-29669819D01*
X40189160Y-1322200D02*
X40284398Y-1369819D01*
X40284398Y-1369819D02*
X40474874Y-1369819D01*
X40474874Y-1369819D02*
X40570112Y-1322200D01*
X40570112Y-1322200D02*
X40617731Y-1226961D01*
X40617731Y-1226961D02*
X40617731Y-1179342D01*
X40617731Y-1179342D02*
X40570112Y-1084104D01*
X40570112Y-1084104D02*
X40474874Y-1036485D01*
X40474874Y-1036485D02*
X40332017Y-1036485D01*
X40332017Y-1036485D02*
X40236779Y-988866D01*
X40236779Y-988866D02*
X40189160Y-893628D01*
X40189160Y-893628D02*
X40189160Y-846009D01*
X40189160Y-846009D02*
X40236779Y-750771D01*
X40236779Y-750771D02*
X40332017Y-703152D01*
X40332017Y-703152D02*
X40474874Y-703152D01*
X40474874Y-703152D02*
X40570112Y-750771D01*
X40903446Y-703152D02*
X41284398Y-703152D01*
X41046303Y-369819D02*
X41046303Y-1226961D01*
X41046303Y-1226961D02*
X41093922Y-1322200D01*
X41093922Y-1322200D02*
X41189160Y-1369819D01*
X41189160Y-1369819D02*
X41284398Y-1369819D01*
X41998684Y-1322200D02*
X41903446Y-1369819D01*
X41903446Y-1369819D02*
X41712970Y-1369819D01*
X41712970Y-1369819D02*
X41617732Y-1322200D01*
X41617732Y-1322200D02*
X41570113Y-1226961D01*
X41570113Y-1226961D02*
X41570113Y-846009D01*
X41570113Y-846009D02*
X41617732Y-750771D01*
X41617732Y-750771D02*
X41712970Y-703152D01*
X41712970Y-703152D02*
X41903446Y-703152D01*
X41903446Y-703152D02*
X41998684Y-750771D01*
X41998684Y-750771D02*
X42046303Y-846009D01*
X42046303Y-846009D02*
X42046303Y-941247D01*
X42046303Y-941247D02*
X41570113Y-1036485D01*
X42236780Y-1465057D02*
X42998684Y-1465057D01*
X43236780Y-1369819D02*
X43236780Y-703152D01*
X43236780Y-798390D02*
X43284399Y-750771D01*
X43284399Y-750771D02*
X43379637Y-703152D01*
X43379637Y-703152D02*
X43522494Y-703152D01*
X43522494Y-703152D02*
X43617732Y-750771D01*
X43617732Y-750771D02*
X43665351Y-846009D01*
X43665351Y-846009D02*
X43665351Y-1369819D01*
X43665351Y-846009D02*
X43712970Y-750771D01*
X43712970Y-750771D02*
X43808208Y-703152D01*
X43808208Y-703152D02*
X43951065Y-703152D01*
X43951065Y-703152D02*
X44046304Y-750771D01*
X44046304Y-750771D02*
X44093923Y-846009D01*
X44093923Y-846009D02*
X44093923Y-1369819D01*
X44712970Y-1369819D02*
X44617732Y-1322200D01*
X44617732Y-1322200D02*
X44570113Y-1274580D01*
X44570113Y-1274580D02*
X44522494Y-1179342D01*
X44522494Y-1179342D02*
X44522494Y-893628D01*
X44522494Y-893628D02*
X44570113Y-798390D01*
X44570113Y-798390D02*
X44617732Y-750771D01*
X44617732Y-750771D02*
X44712970Y-703152D01*
X44712970Y-703152D02*
X44855827Y-703152D01*
X44855827Y-703152D02*
X44951065Y-750771D01*
X44951065Y-750771D02*
X44998684Y-798390D01*
X44998684Y-798390D02*
X45046303Y-893628D01*
X45046303Y-893628D02*
X45046303Y-1179342D01*
X45046303Y-1179342D02*
X44998684Y-1274580D01*
X44998684Y-1274580D02*
X44951065Y-1322200D01*
X44951065Y-1322200D02*
X44855827Y-1369819D01*
X44855827Y-1369819D02*
X44712970Y-1369819D01*
X45332018Y-703152D02*
X45712970Y-703152D01*
X45474875Y-369819D02*
X45474875Y-1226961D01*
X45474875Y-1226961D02*
X45522494Y-1322200D01*
X45522494Y-1322200D02*
X45617732Y-1369819D01*
X45617732Y-1369819D02*
X45712970Y-1369819D01*
X46189161Y-1369819D02*
X46093923Y-1322200D01*
X46093923Y-1322200D02*
X46046304Y-1274580D01*
X46046304Y-1274580D02*
X45998685Y-1179342D01*
X45998685Y-1179342D02*
X45998685Y-893628D01*
X45998685Y-893628D02*
X46046304Y-798390D01*
X46046304Y-798390D02*
X46093923Y-750771D01*
X46093923Y-750771D02*
X46189161Y-703152D01*
X46189161Y-703152D02*
X46332018Y-703152D01*
X46332018Y-703152D02*
X46427256Y-750771D01*
X46427256Y-750771D02*
X46474875Y-798390D01*
X46474875Y-798390D02*
X46522494Y-893628D01*
X46522494Y-893628D02*
X46522494Y-1179342D01*
X46522494Y-1179342D02*
X46474875Y-1274580D01*
X46474875Y-1274580D02*
X46427256Y-1322200D01*
X46427256Y-1322200D02*
X46332018Y-1369819D01*
X46332018Y-1369819D02*
X46189161Y-1369819D01*
X46951066Y-1369819D02*
X46951066Y-703152D01*
X46951066Y-893628D02*
X46998685Y-798390D01*
X46998685Y-798390D02*
X47046304Y-750771D01*
X47046304Y-750771D02*
X47141542Y-703152D01*
X47141542Y-703152D02*
X47236780Y-703152D01*
X73293922Y-2669819D02*
X73627255Y-3669819D01*
X73627255Y-3669819D02*
X73960588Y-2669819D01*
X74293922Y-3669819D02*
X74293922Y-3003152D01*
X74293922Y-2669819D02*
X74246303Y-2717438D01*
X74246303Y-2717438D02*
X74293922Y-2765057D01*
X74293922Y-2765057D02*
X74341541Y-2717438D01*
X74341541Y-2717438D02*
X74293922Y-2669819D01*
X74293922Y-2669819D02*
X74293922Y-2765057D01*
X74770112Y-3003152D02*
X74770112Y-3669819D01*
X74770112Y-3098390D02*
X74817731Y-3050771D01*
X74817731Y-3050771D02*
X74912969Y-3003152D01*
X74912969Y-3003152D02*
X75055826Y-3003152D01*
X75055826Y-3003152D02*
X75151064Y-3050771D01*
X75151064Y-3050771D02*
X75198683Y-3146009D01*
X75198683Y-3146009D02*
X75198683Y-3669819D01*
X72660588Y-21517438D02*
X72565350Y-21469819D01*
X72565350Y-21469819D02*
X72422493Y-21469819D01*
X72422493Y-21469819D02*
X72279636Y-21517438D01*
X72279636Y-21517438D02*
X72184398Y-21612676D01*
X72184398Y-21612676D02*
X72136779Y-21707914D01*
X72136779Y-21707914D02*
X72089160Y-21898390D01*
X72089160Y-21898390D02*
X72089160Y-22041247D01*
X72089160Y-22041247D02*
X72136779Y-22231723D01*
X72136779Y-22231723D02*
X72184398Y-22326961D01*
X72184398Y-22326961D02*
X72279636Y-22422200D01*
X72279636Y-22422200D02*
X72422493Y-22469819D01*
X72422493Y-22469819D02*
X72517731Y-22469819D01*
X72517731Y-22469819D02*
X72660588Y-22422200D01*
X72660588Y-22422200D02*
X72708207Y-22374580D01*
X72708207Y-22374580D02*
X72708207Y-22041247D01*
X72708207Y-22041247D02*
X72517731Y-22041247D01*
X73136779Y-22469819D02*
X73136779Y-21469819D01*
X73136779Y-21469819D02*
X73708207Y-22469819D01*
X73708207Y-22469819D02*
X73708207Y-21469819D01*
X74184398Y-22469819D02*
X74184398Y-21469819D01*
X74184398Y-21469819D02*
X74422493Y-21469819D01*
X74422493Y-21469819D02*
X74565350Y-21517438D01*
X74565350Y-21517438D02*
X74660588Y-21612676D01*
X74660588Y-21612676D02*
X74708207Y-21707914D01*
X74708207Y-21707914D02*
X74755826Y-21898390D01*
X74755826Y-21898390D02*
X74755826Y-22041247D01*
X74755826Y-22041247D02*
X74708207Y-22231723D01*
X74708207Y-22231723D02*
X74660588Y-22326961D01*
X74660588Y-22326961D02*
X74565350Y-22422200D01*
X74565350Y-22422200D02*
X74422493Y-22469819D01*
X74422493Y-22469819D02*
X74184398Y-22469819D01*
X65112969Y-21969819D02*
X64636779Y-21969819D01*
X64636779Y-21969819D02*
X64636779Y-20969819D01*
X65827255Y-21922200D02*
X65732017Y-21969819D01*
X65732017Y-21969819D02*
X65541541Y-21969819D01*
X65541541Y-21969819D02*
X65446303Y-21922200D01*
X65446303Y-21922200D02*
X65398684Y-21826961D01*
X65398684Y-21826961D02*
X65398684Y-21446009D01*
X65398684Y-21446009D02*
X65446303Y-21350771D01*
X65446303Y-21350771D02*
X65541541Y-21303152D01*
X65541541Y-21303152D02*
X65732017Y-21303152D01*
X65732017Y-21303152D02*
X65827255Y-21350771D01*
X65827255Y-21350771D02*
X65874874Y-21446009D01*
X65874874Y-21446009D02*
X65874874Y-21541247D01*
X65874874Y-21541247D02*
X65398684Y-21636485D01*
X66732017Y-21969819D02*
X66732017Y-20969819D01*
X66732017Y-21922200D02*
X66636779Y-21969819D01*
X66636779Y-21969819D02*
X66446303Y-21969819D01*
X66446303Y-21969819D02*
X66351065Y-21922200D01*
X66351065Y-21922200D02*
X66303446Y-21874580D01*
X66303446Y-21874580D02*
X66255827Y-21779342D01*
X66255827Y-21779342D02*
X66255827Y-21493628D01*
X66255827Y-21493628D02*
X66303446Y-21398390D01*
X66303446Y-21398390D02*
X66351065Y-21350771D01*
X66351065Y-21350771D02*
X66446303Y-21303152D01*
X66446303Y-21303152D02*
X66636779Y-21303152D01*
X66636779Y-21303152D02*
X66732017Y-21350771D01*
X67160589Y-21065057D02*
X67208208Y-21017438D01*
X67208208Y-21017438D02*
X67303446Y-20969819D01*
X67303446Y-20969819D02*
X67541541Y-20969819D01*
X67541541Y-20969819D02*
X67636779Y-21017438D01*
X67636779Y-21017438D02*
X67684398Y-21065057D01*
X67684398Y-21065057D02*
X67732017Y-21160295D01*
X67732017Y-21160295D02*
X67732017Y-21255533D01*
X67732017Y-21255533D02*
X67684398Y-21398390D01*
X67684398Y-21398390D02*
X67112970Y-21969819D01*
X67112970Y-21969819D02*
X67732017Y-21969819D01*
X20393922Y-703152D02*
X20774874Y-703152D01*
X20536779Y-369819D02*
X20536779Y-1226961D01*
X20536779Y-1226961D02*
X20584398Y-1322200D01*
X20584398Y-1322200D02*
X20679636Y-1369819D01*
X20679636Y-1369819D02*
X20774874Y-1369819D01*
X21060589Y-1322200D02*
X21155827Y-1369819D01*
X21155827Y-1369819D02*
X21346303Y-1369819D01*
X21346303Y-1369819D02*
X21441541Y-1322200D01*
X21441541Y-1322200D02*
X21489160Y-1226961D01*
X21489160Y-1226961D02*
X21489160Y-1179342D01*
X21489160Y-1179342D02*
X21441541Y-1084104D01*
X21441541Y-1084104D02*
X21346303Y-1036485D01*
X21346303Y-1036485D02*
X21203446Y-1036485D01*
X21203446Y-1036485D02*
X21108208Y-988866D01*
X21108208Y-988866D02*
X21060589Y-893628D01*
X21060589Y-893628D02*
X21060589Y-846009D01*
X21060589Y-846009D02*
X21108208Y-750771D01*
X21108208Y-750771D02*
X21203446Y-703152D01*
X21203446Y-703152D02*
X21346303Y-703152D01*
X21346303Y-703152D02*
X21441541Y-750771D01*
X21774875Y-703152D02*
X22155827Y-703152D01*
X21917732Y-369819D02*
X21917732Y-1226961D01*
X21917732Y-1226961D02*
X21965351Y-1322200D01*
X21965351Y-1322200D02*
X22060589Y-1369819D01*
X22060589Y-1369819D02*
X22155827Y-1369819D01*
X22870113Y-1322200D02*
X22774875Y-1369819D01*
X22774875Y-1369819D02*
X22584399Y-1369819D01*
X22584399Y-1369819D02*
X22489161Y-1322200D01*
X22489161Y-1322200D02*
X22441542Y-1226961D01*
X22441542Y-1226961D02*
X22441542Y-846009D01*
X22441542Y-846009D02*
X22489161Y-750771D01*
X22489161Y-750771D02*
X22584399Y-703152D01*
X22584399Y-703152D02*
X22774875Y-703152D01*
X22774875Y-703152D02*
X22870113Y-750771D01*
X22870113Y-750771D02*
X22917732Y-846009D01*
X22917732Y-846009D02*
X22917732Y-941247D01*
X22917732Y-941247D02*
X22441542Y-1036485D01*
X23346304Y-703152D02*
X23346304Y-1703152D01*
X23346304Y-750771D02*
X23441542Y-703152D01*
X23441542Y-703152D02*
X23632018Y-703152D01*
X23632018Y-703152D02*
X23727256Y-750771D01*
X23727256Y-750771D02*
X23774875Y-798390D01*
X23774875Y-798390D02*
X23822494Y-893628D01*
X23822494Y-893628D02*
X23822494Y-1179342D01*
X23822494Y-1179342D02*
X23774875Y-1274580D01*
X23774875Y-1274580D02*
X23727256Y-1322200D01*
X23727256Y-1322200D02*
X23632018Y-1369819D01*
X23632018Y-1369819D02*
X23441542Y-1369819D01*
X23441542Y-1369819D02*
X23346304Y-1322200D01*
X65993922Y-16069819D02*
X66565350Y-16069819D01*
X66279636Y-17069819D02*
X66279636Y-16069819D01*
X66803446Y-17069819D02*
X67327255Y-16403152D01*
X66803446Y-16403152D02*
X67327255Y-17069819D01*
X11593922Y-1003152D02*
X11974874Y-1003152D01*
X11736779Y-669819D02*
X11736779Y-1526961D01*
X11736779Y-1526961D02*
X11784398Y-1622200D01*
X11784398Y-1622200D02*
X11879636Y-1669819D01*
X11879636Y-1669819D02*
X11974874Y-1669819D01*
X12736779Y-1669819D02*
X12736779Y-669819D01*
X12736779Y-1622200D02*
X12641541Y-1669819D01*
X12641541Y-1669819D02*
X12451065Y-1669819D01*
X12451065Y-1669819D02*
X12355827Y-1622200D01*
X12355827Y-1622200D02*
X12308208Y-1574580D01*
X12308208Y-1574580D02*
X12260589Y-1479342D01*
X12260589Y-1479342D02*
X12260589Y-1193628D01*
X12260589Y-1193628D02*
X12308208Y-1098390D01*
X12308208Y-1098390D02*
X12355827Y-1050771D01*
X12355827Y-1050771D02*
X12451065Y-1003152D01*
X12451065Y-1003152D02*
X12641541Y-1003152D01*
X12641541Y-1003152D02*
X12736779Y-1050771D01*
X13212970Y-1669819D02*
X13212970Y-1003152D01*
X13212970Y-1193628D02*
X13260589Y-1098390D01*
X13260589Y-1098390D02*
X13308208Y-1050771D01*
X13308208Y-1050771D02*
X13403446Y-1003152D01*
X13403446Y-1003152D02*
X13498684Y-1003152D01*
X13832018Y-1669819D02*
X13832018Y-1003152D01*
X13832018Y-669819D02*
X13784399Y-717438D01*
X13784399Y-717438D02*
X13832018Y-765057D01*
X13832018Y-765057D02*
X13879637Y-717438D01*
X13879637Y-717438D02*
X13832018Y-669819D01*
X13832018Y-669819D02*
X13832018Y-765057D01*
X14212970Y-1003152D02*
X14451065Y-1669819D01*
X14451065Y-1669819D02*
X14689160Y-1003152D01*
X15451065Y-1622200D02*
X15355827Y-1669819D01*
X15355827Y-1669819D02*
X15165351Y-1669819D01*
X15165351Y-1669819D02*
X15070113Y-1622200D01*
X15070113Y-1622200D02*
X15022494Y-1526961D01*
X15022494Y-1526961D02*
X15022494Y-1146009D01*
X15022494Y-1146009D02*
X15070113Y-1050771D01*
X15070113Y-1050771D02*
X15165351Y-1003152D01*
X15165351Y-1003152D02*
X15355827Y-1003152D01*
X15355827Y-1003152D02*
X15451065Y-1050771D01*
X15451065Y-1050771D02*
X15498684Y-1146009D01*
X15498684Y-1146009D02*
X15498684Y-1241247D01*
X15498684Y-1241247D02*
X15022494Y-1336485D01*
X15927256Y-1669819D02*
X15927256Y-1003152D01*
X15927256Y-1193628D02*
X15974875Y-1098390D01*
X15974875Y-1098390D02*
X16022494Y-1050771D01*
X16022494Y-1050771D02*
X16117732Y-1003152D01*
X16117732Y-1003152D02*
X16212970Y-1003152D01*
X72808207Y-17174580D02*
X72760588Y-17222200D01*
X72760588Y-17222200D02*
X72617731Y-17269819D01*
X72617731Y-17269819D02*
X72522493Y-17269819D01*
X72522493Y-17269819D02*
X72379636Y-17222200D01*
X72379636Y-17222200D02*
X72284398Y-17126961D01*
X72284398Y-17126961D02*
X72236779Y-17031723D01*
X72236779Y-17031723D02*
X72189160Y-16841247D01*
X72189160Y-16841247D02*
X72189160Y-16698390D01*
X72189160Y-16698390D02*
X72236779Y-16507914D01*
X72236779Y-16507914D02*
X72284398Y-16412676D01*
X72284398Y-16412676D02*
X72379636Y-16317438D01*
X72379636Y-16317438D02*
X72522493Y-16269819D01*
X72522493Y-16269819D02*
X72617731Y-16269819D01*
X72617731Y-16269819D02*
X72760588Y-16317438D01*
X72760588Y-16317438D02*
X72808207Y-16365057D01*
X73236779Y-17269819D02*
X73236779Y-16269819D01*
X73236779Y-16269819D02*
X73474874Y-16269819D01*
X73474874Y-16269819D02*
X73617731Y-16317438D01*
X73617731Y-16317438D02*
X73712969Y-16412676D01*
X73712969Y-16412676D02*
X73760588Y-16507914D01*
X73760588Y-16507914D02*
X73808207Y-16698390D01*
X73808207Y-16698390D02*
X73808207Y-16841247D01*
X73808207Y-16841247D02*
X73760588Y-17031723D01*
X73760588Y-17031723D02*
X73712969Y-17126961D01*
X73712969Y-17126961D02*
X73617731Y-17222200D01*
X73617731Y-17222200D02*
X73474874Y-17269819D01*
X73474874Y-17269819D02*
X73236779Y-17269819D01*
X74760588Y-17269819D02*
X74189160Y-17269819D01*
X74474874Y-17269819D02*
X74474874Y-16269819D01*
X74474874Y-16269819D02*
X74379636Y-16412676D01*
X74379636Y-16412676D02*
X74284398Y-16507914D01*
X74284398Y-16507914D02*
X74189160Y-16555533D01*
X52889160Y-9412200D02*
X53032017Y-9459819D01*
X53032017Y-9459819D02*
X53270112Y-9459819D01*
X53270112Y-9459819D02*
X53365350Y-9412200D01*
X53365350Y-9412200D02*
X53412969Y-9364580D01*
X53412969Y-9364580D02*
X53460588Y-9269342D01*
X53460588Y-9269342D02*
X53460588Y-9174104D01*
X53460588Y-9174104D02*
X53412969Y-9078866D01*
X53412969Y-9078866D02*
X53365350Y-9031247D01*
X53365350Y-9031247D02*
X53270112Y-8983628D01*
X53270112Y-8983628D02*
X53079636Y-8936009D01*
X53079636Y-8936009D02*
X52984398Y-8888390D01*
X52984398Y-8888390D02*
X52936779Y-8840771D01*
X52936779Y-8840771D02*
X52889160Y-8745533D01*
X52889160Y-8745533D02*
X52889160Y-8650295D01*
X52889160Y-8650295D02*
X52936779Y-8555057D01*
X52936779Y-8555057D02*
X52984398Y-8507438D01*
X52984398Y-8507438D02*
X53079636Y-8459819D01*
X53079636Y-8459819D02*
X53317731Y-8459819D01*
X53317731Y-8459819D02*
X53460588Y-8507438D01*
X53889160Y-9459819D02*
X53889160Y-8459819D01*
X53889160Y-8459819D02*
X54127255Y-8459819D01*
X54127255Y-8459819D02*
X54270112Y-8507438D01*
X54270112Y-8507438D02*
X54365350Y-8602676D01*
X54365350Y-8602676D02*
X54412969Y-8697914D01*
X54412969Y-8697914D02*
X54460588Y-8888390D01*
X54460588Y-8888390D02*
X54460588Y-9031247D01*
X54460588Y-9031247D02*
X54412969Y-9221723D01*
X54412969Y-9221723D02*
X54365350Y-9316961D01*
X54365350Y-9316961D02*
X54270112Y-9412200D01*
X54270112Y-9412200D02*
X54127255Y-9459819D01*
X54127255Y-9459819D02*
X53889160Y-9459819D01*
X55460588Y-9459819D02*
X55127255Y-8983628D01*
X54889160Y-9459819D02*
X54889160Y-8459819D01*
X54889160Y-8459819D02*
X55270112Y-8459819D01*
X55270112Y-8459819D02*
X55365350Y-8507438D01*
X55365350Y-8507438D02*
X55412969Y-8555057D01*
X55412969Y-8555057D02*
X55460588Y-8650295D01*
X55460588Y-8650295D02*
X55460588Y-8793152D01*
X55460588Y-8793152D02*
X55412969Y-8888390D01*
X55412969Y-8888390D02*
X55365350Y-8936009D01*
X55365350Y-8936009D02*
X55270112Y-8983628D01*
X55270112Y-8983628D02*
X54889160Y-8983628D01*
X55841541Y-9174104D02*
X56317731Y-9174104D01*
X55746303Y-9459819D02*
X56079636Y-8459819D01*
X56079636Y-8459819D02*
X56412969Y-9459819D01*
X57317731Y-9364580D02*
X57270112Y-9412200D01*
X57270112Y-9412200D02*
X57127255Y-9459819D01*
X57127255Y-9459819D02*
X57032017Y-9459819D01*
X57032017Y-9459819D02*
X56889160Y-9412200D01*
X56889160Y-9412200D02*
X56793922Y-9316961D01*
X56793922Y-9316961D02*
X56746303Y-9221723D01*
X56746303Y-9221723D02*
X56698684Y-9031247D01*
X56698684Y-9031247D02*
X56698684Y-8888390D01*
X56698684Y-8888390D02*
X56746303Y-8697914D01*
X56746303Y-8697914D02*
X56793922Y-8602676D01*
X56793922Y-8602676D02*
X56889160Y-8507438D01*
X56889160Y-8507438D02*
X57032017Y-8459819D01*
X57032017Y-8459819D02*
X57127255Y-8459819D01*
X57127255Y-8459819D02*
X57270112Y-8507438D01*
X57270112Y-8507438D02*
X57317731Y-8555057D01*
X58508208Y-9459819D02*
X58508208Y-8459819D01*
X58508208Y-8840771D02*
X58603446Y-8793152D01*
X58603446Y-8793152D02*
X58793922Y-8793152D01*
X58793922Y-8793152D02*
X58889160Y-8840771D01*
X58889160Y-8840771D02*
X58936779Y-8888390D01*
X58936779Y-8888390D02*
X58984398Y-8983628D01*
X58984398Y-8983628D02*
X58984398Y-9269342D01*
X58984398Y-9269342D02*
X58936779Y-9364580D01*
X58936779Y-9364580D02*
X58889160Y-9412200D01*
X58889160Y-9412200D02*
X58793922Y-9459819D01*
X58793922Y-9459819D02*
X58603446Y-9459819D01*
X58603446Y-9459819D02*
X58508208Y-9412200D01*
X59555827Y-9459819D02*
X59460589Y-9412200D01*
X59460589Y-9412200D02*
X59412970Y-9364580D01*
X59412970Y-9364580D02*
X59365351Y-9269342D01*
X59365351Y-9269342D02*
X59365351Y-8983628D01*
X59365351Y-8983628D02*
X59412970Y-8888390D01*
X59412970Y-8888390D02*
X59460589Y-8840771D01*
X59460589Y-8840771D02*
X59555827Y-8793152D01*
X59555827Y-8793152D02*
X59698684Y-8793152D01*
X59698684Y-8793152D02*
X59793922Y-8840771D01*
X59793922Y-8840771D02*
X59841541Y-8888390D01*
X59841541Y-8888390D02*
X59889160Y-8983628D01*
X59889160Y-8983628D02*
X59889160Y-9269342D01*
X59889160Y-9269342D02*
X59841541Y-9364580D01*
X59841541Y-9364580D02*
X59793922Y-9412200D01*
X59793922Y-9412200D02*
X59698684Y-9459819D01*
X59698684Y-9459819D02*
X59555827Y-9459819D01*
X60746303Y-9459819D02*
X60746303Y-8936009D01*
X60746303Y-8936009D02*
X60698684Y-8840771D01*
X60698684Y-8840771D02*
X60603446Y-8793152D01*
X60603446Y-8793152D02*
X60412970Y-8793152D01*
X60412970Y-8793152D02*
X60317732Y-8840771D01*
X60746303Y-9412200D02*
X60651065Y-9459819D01*
X60651065Y-9459819D02*
X60412970Y-9459819D01*
X60412970Y-9459819D02*
X60317732Y-9412200D01*
X60317732Y-9412200D02*
X60270113Y-9316961D01*
X60270113Y-9316961D02*
X60270113Y-9221723D01*
X60270113Y-9221723D02*
X60317732Y-9126485D01*
X60317732Y-9126485D02*
X60412970Y-9078866D01*
X60412970Y-9078866D02*
X60651065Y-9078866D01*
X60651065Y-9078866D02*
X60746303Y-9031247D01*
X61222494Y-9459819D02*
X61222494Y-8793152D01*
X61222494Y-8983628D02*
X61270113Y-8888390D01*
X61270113Y-8888390D02*
X61317732Y-8840771D01*
X61317732Y-8840771D02*
X61412970Y-8793152D01*
X61412970Y-8793152D02*
X61508208Y-8793152D01*
X62270113Y-9459819D02*
X62270113Y-8459819D01*
X62270113Y-9412200D02*
X62174875Y-9459819D01*
X62174875Y-9459819D02*
X61984399Y-9459819D01*
X61984399Y-9459819D02*
X61889161Y-9412200D01*
X61889161Y-9412200D02*
X61841542Y-9364580D01*
X61841542Y-9364580D02*
X61793923Y-9269342D01*
X61793923Y-9269342D02*
X61793923Y-8983628D01*
X61793923Y-8983628D02*
X61841542Y-8888390D01*
X61841542Y-8888390D02*
X61889161Y-8840771D01*
X61889161Y-8840771D02*
X61984399Y-8793152D01*
X61984399Y-8793152D02*
X62174875Y-8793152D01*
X62174875Y-8793152D02*
X62270113Y-8840771D01*
X52936779Y-11069819D02*
X52936779Y-10069819D01*
X52936779Y-10450771D02*
X53032017Y-10403152D01*
X53032017Y-10403152D02*
X53222493Y-10403152D01*
X53222493Y-10403152D02*
X53317731Y-10450771D01*
X53317731Y-10450771D02*
X53365350Y-10498390D01*
X53365350Y-10498390D02*
X53412969Y-10593628D01*
X53412969Y-10593628D02*
X53412969Y-10879342D01*
X53412969Y-10879342D02*
X53365350Y-10974580D01*
X53365350Y-10974580D02*
X53317731Y-11022200D01*
X53317731Y-11022200D02*
X53222493Y-11069819D01*
X53222493Y-11069819D02*
X53032017Y-11069819D01*
X53032017Y-11069819D02*
X52936779Y-11022200D01*
X53746303Y-10403152D02*
X53984398Y-11069819D01*
X54222493Y-10403152D02*
X53984398Y-11069819D01*
X53984398Y-11069819D02*
X53889160Y-11307914D01*
X53889160Y-11307914D02*
X53841541Y-11355533D01*
X53841541Y-11355533D02*
X53746303Y-11403152D01*
X55365351Y-11069819D02*
X55365351Y-10069819D01*
X55365351Y-10069819D02*
X55746303Y-10069819D01*
X55746303Y-10069819D02*
X55841541Y-10117438D01*
X55841541Y-10117438D02*
X55889160Y-10165057D01*
X55889160Y-10165057D02*
X55936779Y-10260295D01*
X55936779Y-10260295D02*
X55936779Y-10403152D01*
X55936779Y-10403152D02*
X55889160Y-10498390D01*
X55889160Y-10498390D02*
X55841541Y-10546009D01*
X55841541Y-10546009D02*
X55746303Y-10593628D01*
X55746303Y-10593628D02*
X55365351Y-10593628D01*
X56793922Y-11069819D02*
X56793922Y-10546009D01*
X56793922Y-10546009D02*
X56746303Y-10450771D01*
X56746303Y-10450771D02*
X56651065Y-10403152D01*
X56651065Y-10403152D02*
X56460589Y-10403152D01*
X56460589Y-10403152D02*
X56365351Y-10450771D01*
X56793922Y-11022200D02*
X56698684Y-11069819D01*
X56698684Y-11069819D02*
X56460589Y-11069819D01*
X56460589Y-11069819D02*
X56365351Y-11022200D01*
X56365351Y-11022200D02*
X56317732Y-10926961D01*
X56317732Y-10926961D02*
X56317732Y-10831723D01*
X56317732Y-10831723D02*
X56365351Y-10736485D01*
X56365351Y-10736485D02*
X56460589Y-10688866D01*
X56460589Y-10688866D02*
X56698684Y-10688866D01*
X56698684Y-10688866D02*
X56793922Y-10641247D01*
X57127256Y-10403152D02*
X57508208Y-10403152D01*
X57270113Y-10069819D02*
X57270113Y-10926961D01*
X57270113Y-10926961D02*
X57317732Y-11022200D01*
X57317732Y-11022200D02*
X57412970Y-11069819D01*
X57412970Y-11069819D02*
X57508208Y-11069819D01*
X57841542Y-11069819D02*
X57841542Y-10403152D01*
X57841542Y-10593628D02*
X57889161Y-10498390D01*
X57889161Y-10498390D02*
X57936780Y-10450771D01*
X57936780Y-10450771D02*
X58032018Y-10403152D01*
X58032018Y-10403152D02*
X58127256Y-10403152D01*
X58365352Y-10403152D02*
X58603447Y-11069819D01*
X58841542Y-10403152D02*
X58603447Y-11069819D01*
X58603447Y-11069819D02*
X58508209Y-11307914D01*
X58508209Y-11307914D02*
X58460590Y-11355533D01*
X58460590Y-11355533D02*
X58365352Y-11403152D01*
X59222495Y-11069819D02*
X59222495Y-10069819D01*
X59317733Y-10688866D02*
X59603447Y-11069819D01*
X59603447Y-10403152D02*
X59222495Y-10784104D01*
X60793924Y-11069819D02*
X60793924Y-10069819D01*
X60793924Y-10069819D02*
X61032019Y-10069819D01*
X61032019Y-10069819D02*
X61174876Y-10117438D01*
X61174876Y-10117438D02*
X61270114Y-10212676D01*
X61270114Y-10212676D02*
X61317733Y-10307914D01*
X61317733Y-10307914D02*
X61365352Y-10498390D01*
X61365352Y-10498390D02*
X61365352Y-10641247D01*
X61365352Y-10641247D02*
X61317733Y-10831723D01*
X61317733Y-10831723D02*
X61270114Y-10926961D01*
X61270114Y-10926961D02*
X61174876Y-11022200D01*
X61174876Y-11022200D02*
X61032019Y-11069819D01*
X61032019Y-11069819D02*
X60793924Y-11069819D01*
X62222495Y-10403152D02*
X62222495Y-11069819D01*
X61793924Y-10403152D02*
X61793924Y-10926961D01*
X61793924Y-10926961D02*
X61841543Y-11022200D01*
X61841543Y-11022200D02*
X61936781Y-11069819D01*
X61936781Y-11069819D02*
X62079638Y-11069819D01*
X62079638Y-11069819D02*
X62174876Y-11022200D01*
X62174876Y-11022200D02*
X62222495Y-10974580D01*
X63127257Y-11069819D02*
X63127257Y-10069819D01*
X63127257Y-11022200D02*
X63032019Y-11069819D01*
X63032019Y-11069819D02*
X62841543Y-11069819D01*
X62841543Y-11069819D02*
X62746305Y-11022200D01*
X62746305Y-11022200D02*
X62698686Y-10974580D01*
X62698686Y-10974580D02*
X62651067Y-10879342D01*
X62651067Y-10879342D02*
X62651067Y-10593628D01*
X62651067Y-10593628D02*
X62698686Y-10498390D01*
X62698686Y-10498390D02*
X62746305Y-10450771D01*
X62746305Y-10450771D02*
X62841543Y-10403152D01*
X62841543Y-10403152D02*
X63032019Y-10403152D01*
X63032019Y-10403152D02*
X63127257Y-10450771D01*
X63508210Y-10403152D02*
X64032019Y-10403152D01*
X64032019Y-10403152D02*
X63508210Y-11069819D01*
X63508210Y-11069819D02*
X64032019Y-11069819D01*
X64412972Y-11069819D02*
X64412972Y-10403152D01*
X64412972Y-10069819D02*
X64365353Y-10117438D01*
X64365353Y-10117438D02*
X64412972Y-10165057D01*
X64412972Y-10165057D02*
X64460591Y-10117438D01*
X64460591Y-10117438D02*
X64412972Y-10069819D01*
X64412972Y-10069819D02*
X64412972Y-10165057D01*
X64889162Y-10403152D02*
X64889162Y-11069819D01*
X64889162Y-10498390D02*
X64936781Y-10450771D01*
X64936781Y-10450771D02*
X65032019Y-10403152D01*
X65032019Y-10403152D02*
X65174876Y-10403152D01*
X65174876Y-10403152D02*
X65270114Y-10450771D01*
X65270114Y-10450771D02*
X65317733Y-10546009D01*
X65317733Y-10546009D02*
X65317733Y-11069819D01*
X65174876Y-10022200D02*
X65032019Y-10165057D01*
X65746305Y-11022200D02*
X65841543Y-11069819D01*
X65841543Y-11069819D02*
X66032019Y-11069819D01*
X66032019Y-11069819D02*
X66127257Y-11022200D01*
X66127257Y-11022200D02*
X66174876Y-10926961D01*
X66174876Y-10926961D02*
X66174876Y-10879342D01*
X66174876Y-10879342D02*
X66127257Y-10784104D01*
X66127257Y-10784104D02*
X66032019Y-10736485D01*
X66032019Y-10736485D02*
X65889162Y-10736485D01*
X65889162Y-10736485D02*
X65793924Y-10688866D01*
X65793924Y-10688866D02*
X65746305Y-10593628D01*
X65746305Y-10593628D02*
X65746305Y-10546009D01*
X65746305Y-10546009D02*
X65793924Y-10450771D01*
X65793924Y-10450771D02*
X65889162Y-10403152D01*
X65889162Y-10403152D02*
X66032019Y-10403152D01*
X66032019Y-10403152D02*
X66127257Y-10450771D01*
X66603448Y-11069819D02*
X66603448Y-10069819D01*
X66698686Y-10688866D02*
X66984400Y-11069819D01*
X66984400Y-10403152D02*
X66603448Y-10784104D01*
X67412972Y-11069819D02*
X67412972Y-10403152D01*
X67412972Y-10069819D02*
X67365353Y-10117438D01*
X67365353Y-10117438D02*
X67412972Y-10165057D01*
X67412972Y-10165057D02*
X67460591Y-10117438D01*
X67460591Y-10117438D02*
X67412972Y-10069819D01*
X67412972Y-10069819D02*
X67412972Y-10165057D01*
X52860588Y-3417438D02*
X52765350Y-3369819D01*
X52765350Y-3369819D02*
X52622493Y-3369819D01*
X52622493Y-3369819D02*
X52479636Y-3417438D01*
X52479636Y-3417438D02*
X52384398Y-3512676D01*
X52384398Y-3512676D02*
X52336779Y-3607914D01*
X52336779Y-3607914D02*
X52289160Y-3798390D01*
X52289160Y-3798390D02*
X52289160Y-3941247D01*
X52289160Y-3941247D02*
X52336779Y-4131723D01*
X52336779Y-4131723D02*
X52384398Y-4226961D01*
X52384398Y-4226961D02*
X52479636Y-4322200D01*
X52479636Y-4322200D02*
X52622493Y-4369819D01*
X52622493Y-4369819D02*
X52717731Y-4369819D01*
X52717731Y-4369819D02*
X52860588Y-4322200D01*
X52860588Y-4322200D02*
X52908207Y-4274580D01*
X52908207Y-4274580D02*
X52908207Y-3941247D01*
X52908207Y-3941247D02*
X52717731Y-3941247D01*
X53336779Y-4369819D02*
X53336779Y-3369819D01*
X53336779Y-3369819D02*
X53908207Y-4369819D01*
X53908207Y-4369819D02*
X53908207Y-3369819D01*
X54384398Y-4369819D02*
X54384398Y-3369819D01*
X54384398Y-3369819D02*
X54622493Y-3369819D01*
X54622493Y-3369819D02*
X54765350Y-3417438D01*
X54765350Y-3417438D02*
X54860588Y-3512676D01*
X54860588Y-3512676D02*
X54908207Y-3607914D01*
X54908207Y-3607914D02*
X54955826Y-3798390D01*
X54955826Y-3798390D02*
X54955826Y-3941247D01*
X54955826Y-3941247D02*
X54908207Y-4131723D01*
X54908207Y-4131723D02*
X54860588Y-4226961D01*
X54860588Y-4226961D02*
X54765350Y-4322200D01*
X54765350Y-4322200D02*
X54622493Y-4369819D01*
X54622493Y-4369819D02*
X54384398Y-4369819D01*
X43157142Y-14654819D02*
X42823809Y-14178628D01*
X42585714Y-14654819D02*
X42585714Y-13654819D01*
X42585714Y-13654819D02*
X42966666Y-13654819D01*
X42966666Y-13654819D02*
X43061904Y-13702438D01*
X43061904Y-13702438D02*
X43109523Y-13750057D01*
X43109523Y-13750057D02*
X43157142Y-13845295D01*
X43157142Y-13845295D02*
X43157142Y-13988152D01*
X43157142Y-13988152D02*
X43109523Y-14083390D01*
X43109523Y-14083390D02*
X43061904Y-14131009D01*
X43061904Y-14131009D02*
X42966666Y-14178628D01*
X42966666Y-14178628D02*
X42585714Y-14178628D01*
X43538095Y-13750057D02*
X43585714Y-13702438D01*
X43585714Y-13702438D02*
X43680952Y-13654819D01*
X43680952Y-13654819D02*
X43919047Y-13654819D01*
X43919047Y-13654819D02*
X44014285Y-13702438D01*
X44014285Y-13702438D02*
X44061904Y-13750057D01*
X44061904Y-13750057D02*
X44109523Y-13845295D01*
X44109523Y-13845295D02*
X44109523Y-13940533D01*
X44109523Y-13940533D02*
X44061904Y-14083390D01*
X44061904Y-14083390D02*
X43490476Y-14654819D01*
X43490476Y-14654819D02*
X44109523Y-14654819D01*
X44728571Y-13654819D02*
X44823809Y-13654819D01*
X44823809Y-13654819D02*
X44919047Y-13702438D01*
X44919047Y-13702438D02*
X44966666Y-13750057D01*
X44966666Y-13750057D02*
X45014285Y-13845295D01*
X45014285Y-13845295D02*
X45061904Y-14035771D01*
X45061904Y-14035771D02*
X45061904Y-14273866D01*
X45061904Y-14273866D02*
X45014285Y-14464342D01*
X45014285Y-14464342D02*
X44966666Y-14559580D01*
X44966666Y-14559580D02*
X44919047Y-14607200D01*
X44919047Y-14607200D02*
X44823809Y-14654819D01*
X44823809Y-14654819D02*
X44728571Y-14654819D01*
X44728571Y-14654819D02*
X44633333Y-14607200D01*
X44633333Y-14607200D02*
X44585714Y-14559580D01*
X44585714Y-14559580D02*
X44538095Y-14464342D01*
X44538095Y-14464342D02*
X44490476Y-14273866D01*
X44490476Y-14273866D02*
X44490476Y-14035771D01*
X44490476Y-14035771D02*
X44538095Y-13845295D01*
X44538095Y-13845295D02*
X44585714Y-13750057D01*
X44585714Y-13750057D02*
X44633333Y-13702438D01*
X44633333Y-13702438D02*
X44728571Y-13654819D01*
X36357142Y-14359819D02*
X36023809Y-13883628D01*
X35785714Y-14359819D02*
X35785714Y-13359819D01*
X35785714Y-13359819D02*
X36166666Y-13359819D01*
X36166666Y-13359819D02*
X36261904Y-13407438D01*
X36261904Y-13407438D02*
X36309523Y-13455057D01*
X36309523Y-13455057D02*
X36357142Y-13550295D01*
X36357142Y-13550295D02*
X36357142Y-13693152D01*
X36357142Y-13693152D02*
X36309523Y-13788390D01*
X36309523Y-13788390D02*
X36261904Y-13836009D01*
X36261904Y-13836009D02*
X36166666Y-13883628D01*
X36166666Y-13883628D02*
X35785714Y-13883628D01*
X36738095Y-13455057D02*
X36785714Y-13407438D01*
X36785714Y-13407438D02*
X36880952Y-13359819D01*
X36880952Y-13359819D02*
X37119047Y-13359819D01*
X37119047Y-13359819D02*
X37214285Y-13407438D01*
X37214285Y-13407438D02*
X37261904Y-13455057D01*
X37261904Y-13455057D02*
X37309523Y-13550295D01*
X37309523Y-13550295D02*
X37309523Y-13645533D01*
X37309523Y-13645533D02*
X37261904Y-13788390D01*
X37261904Y-13788390D02*
X36690476Y-14359819D01*
X36690476Y-14359819D02*
X37309523Y-14359819D01*
X38261904Y-14359819D02*
X37690476Y-14359819D01*
X37976190Y-14359819D02*
X37976190Y-13359819D01*
X37976190Y-13359819D02*
X37880952Y-13502676D01*
X37880952Y-13502676D02*
X37785714Y-13597914D01*
X37785714Y-13597914D02*
X37690476Y-13645533D01*
X57838095Y-21054819D02*
X57838095Y-21864342D01*
X57838095Y-21864342D02*
X57885714Y-21959580D01*
X57885714Y-21959580D02*
X57933333Y-22007200D01*
X57933333Y-22007200D02*
X58028571Y-22054819D01*
X58028571Y-22054819D02*
X58219047Y-22054819D01*
X58219047Y-22054819D02*
X58314285Y-22007200D01*
X58314285Y-22007200D02*
X58361904Y-21959580D01*
X58361904Y-21959580D02*
X58409523Y-21864342D01*
X58409523Y-21864342D02*
X58409523Y-21054819D01*
X59314285Y-21054819D02*
X59123809Y-21054819D01*
X59123809Y-21054819D02*
X59028571Y-21102438D01*
X59028571Y-21102438D02*
X58980952Y-21150057D01*
X58980952Y-21150057D02*
X58885714Y-21292914D01*
X58885714Y-21292914D02*
X58838095Y-21483390D01*
X58838095Y-21483390D02*
X58838095Y-21864342D01*
X58838095Y-21864342D02*
X58885714Y-21959580D01*
X58885714Y-21959580D02*
X58933333Y-22007200D01*
X58933333Y-22007200D02*
X59028571Y-22054819D01*
X59028571Y-22054819D02*
X59219047Y-22054819D01*
X59219047Y-22054819D02*
X59314285Y-22007200D01*
X59314285Y-22007200D02*
X59361904Y-21959580D01*
X59361904Y-21959580D02*
X59409523Y-21864342D01*
X59409523Y-21864342D02*
X59409523Y-21626247D01*
X59409523Y-21626247D02*
X59361904Y-21531009D01*
X59361904Y-21531009D02*
X59314285Y-21483390D01*
X59314285Y-21483390D02*
X59219047Y-21435771D01*
X59219047Y-21435771D02*
X59028571Y-21435771D01*
X59028571Y-21435771D02*
X58933333Y-21483390D01*
X58933333Y-21483390D02*
X58885714Y-21531009D01*
X58885714Y-21531009D02*
X58838095Y-21626247D01*
X6964700Y-15271428D02*
X6964700Y-14128571D01*
X6964700Y-4271428D02*
X6964700Y-3128571D01*
X7536128Y-3699999D02*
X6393271Y-3699999D01*
X33359580Y-8942857D02*
X33407200Y-8990476D01*
X33407200Y-8990476D02*
X33454819Y-9133333D01*
X33454819Y-9133333D02*
X33454819Y-9228571D01*
X33454819Y-9228571D02*
X33407200Y-9371428D01*
X33407200Y-9371428D02*
X33311961Y-9466666D01*
X33311961Y-9466666D02*
X33216723Y-9514285D01*
X33216723Y-9514285D02*
X33026247Y-9561904D01*
X33026247Y-9561904D02*
X32883390Y-9561904D01*
X32883390Y-9561904D02*
X32692914Y-9514285D01*
X32692914Y-9514285D02*
X32597676Y-9466666D01*
X32597676Y-9466666D02*
X32502438Y-9371428D01*
X32502438Y-9371428D02*
X32454819Y-9228571D01*
X32454819Y-9228571D02*
X32454819Y-9133333D01*
X32454819Y-9133333D02*
X32502438Y-8990476D01*
X32502438Y-8990476D02*
X32550057Y-8942857D01*
X32788152Y-8085714D02*
X33454819Y-8085714D01*
X32407200Y-8323809D02*
X33121485Y-8561904D01*
X33121485Y-8561904D02*
X33121485Y-7942857D01*
X32788152Y-7133333D02*
X33454819Y-7133333D01*
X32407200Y-7371428D02*
X33121485Y-7609523D01*
X33121485Y-7609523D02*
X33121485Y-6990476D01*
X11989700Y-18771428D02*
X11989700Y-17628571D01*
X11989700Y-29771428D02*
X11989700Y-28628571D01*
X12561128Y-29199999D02*
X11418271Y-29199999D01*
X23554819Y-18847857D02*
X23078628Y-19181190D01*
X23554819Y-19419285D02*
X22554819Y-19419285D01*
X22554819Y-19419285D02*
X22554819Y-19038333D01*
X22554819Y-19038333D02*
X22602438Y-18943095D01*
X22602438Y-18943095D02*
X22650057Y-18895476D01*
X22650057Y-18895476D02*
X22745295Y-18847857D01*
X22745295Y-18847857D02*
X22888152Y-18847857D01*
X22888152Y-18847857D02*
X22983390Y-18895476D01*
X22983390Y-18895476D02*
X23031009Y-18943095D01*
X23031009Y-18943095D02*
X23078628Y-19038333D01*
X23078628Y-19038333D02*
X23078628Y-19419285D01*
X22650057Y-18466904D02*
X22602438Y-18419285D01*
X22602438Y-18419285D02*
X22554819Y-18324047D01*
X22554819Y-18324047D02*
X22554819Y-18085952D01*
X22554819Y-18085952D02*
X22602438Y-17990714D01*
X22602438Y-17990714D02*
X22650057Y-17943095D01*
X22650057Y-17943095D02*
X22745295Y-17895476D01*
X22745295Y-17895476D02*
X22840533Y-17895476D01*
X22840533Y-17895476D02*
X22983390Y-17943095D01*
X22983390Y-17943095D02*
X23554819Y-18514523D01*
X23554819Y-18514523D02*
X23554819Y-17895476D01*
X22888152Y-17038333D02*
X23554819Y-17038333D01*
X22507200Y-17276428D02*
X23221485Y-17514523D01*
X23221485Y-17514523D02*
X23221485Y-16895476D01*
X30499693Y-17408830D02*
X30499693Y-17476174D01*
X30499693Y-17476174D02*
X30432349Y-17610861D01*
X30432349Y-17610861D02*
X30365006Y-17678204D01*
X30365006Y-17678204D02*
X30230319Y-17745548D01*
X30230319Y-17745548D02*
X30095632Y-17745548D01*
X30095632Y-17745548D02*
X29994617Y-17711876D01*
X29994617Y-17711876D02*
X29826258Y-17610861D01*
X29826258Y-17610861D02*
X29725243Y-17509846D01*
X29725243Y-17509846D02*
X29624227Y-17341487D01*
X29624227Y-17341487D02*
X29590556Y-17240472D01*
X29590556Y-17240472D02*
X29590556Y-17105785D01*
X29590556Y-17105785D02*
X29657899Y-16971098D01*
X29657899Y-16971098D02*
X29725243Y-16903754D01*
X29725243Y-16903754D02*
X29859930Y-16836411D01*
X29859930Y-16836411D02*
X29927273Y-16836411D01*
X31240471Y-16802739D02*
X30836410Y-17206800D01*
X31038441Y-17004769D02*
X30331334Y-16297663D01*
X30331334Y-16297663D02*
X30365006Y-16466021D01*
X30365006Y-16466021D02*
X30365006Y-16600708D01*
X30365006Y-16600708D02*
X30331334Y-16701724D01*
X31240472Y-15994617D02*
X31139456Y-16028288D01*
X31139456Y-16028288D02*
X31072113Y-16028288D01*
X31072113Y-16028288D02*
X30971098Y-15994617D01*
X30971098Y-15994617D02*
X30937426Y-15960945D01*
X30937426Y-15960945D02*
X30903754Y-15859930D01*
X30903754Y-15859930D02*
X30903754Y-15792586D01*
X30903754Y-15792586D02*
X30937426Y-15691571D01*
X30937426Y-15691571D02*
X31072113Y-15556884D01*
X31072113Y-15556884D02*
X31173128Y-15523212D01*
X31173128Y-15523212D02*
X31240472Y-15523212D01*
X31240472Y-15523212D02*
X31341487Y-15556884D01*
X31341487Y-15556884D02*
X31375159Y-15590556D01*
X31375159Y-15590556D02*
X31408830Y-15691571D01*
X31408830Y-15691571D02*
X31408830Y-15758914D01*
X31408830Y-15758914D02*
X31375159Y-15859930D01*
X31375159Y-15859930D02*
X31240472Y-15994617D01*
X31240472Y-15994617D02*
X31206800Y-16095632D01*
X31206800Y-16095632D02*
X31206800Y-16162975D01*
X31206800Y-16162975D02*
X31240472Y-16263991D01*
X31240472Y-16263991D02*
X31375159Y-16398678D01*
X31375159Y-16398678D02*
X31476174Y-16432349D01*
X31476174Y-16432349D02*
X31543517Y-16432349D01*
X31543517Y-16432349D02*
X31644533Y-16398678D01*
X31644533Y-16398678D02*
X31779220Y-16263991D01*
X31779220Y-16263991D02*
X31812891Y-16162975D01*
X31812891Y-16162975D02*
X31812891Y-16095632D01*
X31812891Y-16095632D02*
X31779220Y-15994617D01*
X31779220Y-15994617D02*
X31644533Y-15859930D01*
X31644533Y-15859930D02*
X31543517Y-15826258D01*
X31543517Y-15826258D02*
X31476174Y-15826258D01*
X31476174Y-15826258D02*
X31375159Y-15859930D01*
X58357142Y-2559580D02*
X58309523Y-2607200D01*
X58309523Y-2607200D02*
X58166666Y-2654819D01*
X58166666Y-2654819D02*
X58071428Y-2654819D01*
X58071428Y-2654819D02*
X57928571Y-2607200D01*
X57928571Y-2607200D02*
X57833333Y-2511961D01*
X57833333Y-2511961D02*
X57785714Y-2416723D01*
X57785714Y-2416723D02*
X57738095Y-2226247D01*
X57738095Y-2226247D02*
X57738095Y-2083390D01*
X57738095Y-2083390D02*
X57785714Y-1892914D01*
X57785714Y-1892914D02*
X57833333Y-1797676D01*
X57833333Y-1797676D02*
X57928571Y-1702438D01*
X57928571Y-1702438D02*
X58071428Y-1654819D01*
X58071428Y-1654819D02*
X58166666Y-1654819D01*
X58166666Y-1654819D02*
X58309523Y-1702438D01*
X58309523Y-1702438D02*
X58357142Y-1750057D01*
X58690476Y-1654819D02*
X59309523Y-1654819D01*
X59309523Y-1654819D02*
X58976190Y-2035771D01*
X58976190Y-2035771D02*
X59119047Y-2035771D01*
X59119047Y-2035771D02*
X59214285Y-2083390D01*
X59214285Y-2083390D02*
X59261904Y-2131009D01*
X59261904Y-2131009D02*
X59309523Y-2226247D01*
X59309523Y-2226247D02*
X59309523Y-2464342D01*
X59309523Y-2464342D02*
X59261904Y-2559580D01*
X59261904Y-2559580D02*
X59214285Y-2607200D01*
X59214285Y-2607200D02*
X59119047Y-2654819D01*
X59119047Y-2654819D02*
X58833333Y-2654819D01*
X58833333Y-2654819D02*
X58738095Y-2607200D01*
X58738095Y-2607200D02*
X58690476Y-2559580D01*
X59642857Y-1654819D02*
X60309523Y-1654819D01*
X60309523Y-1654819D02*
X59880952Y-2654819D01*
X71057142Y-1259580D02*
X71009523Y-1307200D01*
X71009523Y-1307200D02*
X70866666Y-1354819D01*
X70866666Y-1354819D02*
X70771428Y-1354819D01*
X70771428Y-1354819D02*
X70628571Y-1307200D01*
X70628571Y-1307200D02*
X70533333Y-1211961D01*
X70533333Y-1211961D02*
X70485714Y-1116723D01*
X70485714Y-1116723D02*
X70438095Y-926247D01*
X70438095Y-926247D02*
X70438095Y-783390D01*
X70438095Y-783390D02*
X70485714Y-592914D01*
X70485714Y-592914D02*
X70533333Y-497676D01*
X70533333Y-497676D02*
X70628571Y-402438D01*
X70628571Y-402438D02*
X70771428Y-354819D01*
X70771428Y-354819D02*
X70866666Y-354819D01*
X70866666Y-354819D02*
X71009523Y-402438D01*
X71009523Y-402438D02*
X71057142Y-450057D01*
X71914285Y-688152D02*
X71914285Y-1354819D01*
X71676190Y-307200D02*
X71438095Y-1021485D01*
X71438095Y-1021485D02*
X72057142Y-1021485D01*
X72866666Y-354819D02*
X72676190Y-354819D01*
X72676190Y-354819D02*
X72580952Y-402438D01*
X72580952Y-402438D02*
X72533333Y-450057D01*
X72533333Y-450057D02*
X72438095Y-592914D01*
X72438095Y-592914D02*
X72390476Y-783390D01*
X72390476Y-783390D02*
X72390476Y-1164342D01*
X72390476Y-1164342D02*
X72438095Y-1259580D01*
X72438095Y-1259580D02*
X72485714Y-1307200D01*
X72485714Y-1307200D02*
X72580952Y-1354819D01*
X72580952Y-1354819D02*
X72771428Y-1354819D01*
X72771428Y-1354819D02*
X72866666Y-1307200D01*
X72866666Y-1307200D02*
X72914285Y-1259580D01*
X72914285Y-1259580D02*
X72961904Y-1164342D01*
X72961904Y-1164342D02*
X72961904Y-926247D01*
X72961904Y-926247D02*
X72914285Y-831009D01*
X72914285Y-831009D02*
X72866666Y-783390D01*
X72866666Y-783390D02*
X72771428Y-735771D01*
X72771428Y-735771D02*
X72580952Y-735771D01*
X72580952Y-735771D02*
X72485714Y-783390D01*
X72485714Y-783390D02*
X72438095Y-831009D01*
X72438095Y-831009D02*
X72390476Y-926247D01*
X39857142Y-21359580D02*
X39809523Y-21407200D01*
X39809523Y-21407200D02*
X39666666Y-21454819D01*
X39666666Y-21454819D02*
X39571428Y-21454819D01*
X39571428Y-21454819D02*
X39428571Y-21407200D01*
X39428571Y-21407200D02*
X39333333Y-21311961D01*
X39333333Y-21311961D02*
X39285714Y-21216723D01*
X39285714Y-21216723D02*
X39238095Y-21026247D01*
X39238095Y-21026247D02*
X39238095Y-20883390D01*
X39238095Y-20883390D02*
X39285714Y-20692914D01*
X39285714Y-20692914D02*
X39333333Y-20597676D01*
X39333333Y-20597676D02*
X39428571Y-20502438D01*
X39428571Y-20502438D02*
X39571428Y-20454819D01*
X39571428Y-20454819D02*
X39666666Y-20454819D01*
X39666666Y-20454819D02*
X39809523Y-20502438D01*
X39809523Y-20502438D02*
X39857142Y-20550057D01*
X40809523Y-21454819D02*
X40238095Y-21454819D01*
X40523809Y-21454819D02*
X40523809Y-20454819D01*
X40523809Y-20454819D02*
X40428571Y-20597676D01*
X40428571Y-20597676D02*
X40333333Y-20692914D01*
X40333333Y-20692914D02*
X40238095Y-20740533D01*
X41142857Y-20454819D02*
X41809523Y-20454819D01*
X41809523Y-20454819D02*
X41380952Y-21454819D01*
X39259580Y-7242857D02*
X39307200Y-7290476D01*
X39307200Y-7290476D02*
X39354819Y-7433333D01*
X39354819Y-7433333D02*
X39354819Y-7528571D01*
X39354819Y-7528571D02*
X39307200Y-7671428D01*
X39307200Y-7671428D02*
X39211961Y-7766666D01*
X39211961Y-7766666D02*
X39116723Y-7814285D01*
X39116723Y-7814285D02*
X38926247Y-7861904D01*
X38926247Y-7861904D02*
X38783390Y-7861904D01*
X38783390Y-7861904D02*
X38592914Y-7814285D01*
X38592914Y-7814285D02*
X38497676Y-7766666D01*
X38497676Y-7766666D02*
X38402438Y-7671428D01*
X38402438Y-7671428D02*
X38354819Y-7528571D01*
X38354819Y-7528571D02*
X38354819Y-7433333D01*
X38354819Y-7433333D02*
X38402438Y-7290476D01*
X38402438Y-7290476D02*
X38450057Y-7242857D01*
X38688152Y-6385714D02*
X39354819Y-6385714D01*
X38307200Y-6623809D02*
X39021485Y-6861904D01*
X39021485Y-6861904D02*
X39021485Y-6242857D01*
X38783390Y-5719047D02*
X38735771Y-5814285D01*
X38735771Y-5814285D02*
X38688152Y-5861904D01*
X38688152Y-5861904D02*
X38592914Y-5909523D01*
X38592914Y-5909523D02*
X38545295Y-5909523D01*
X38545295Y-5909523D02*
X38450057Y-5861904D01*
X38450057Y-5861904D02*
X38402438Y-5814285D01*
X38402438Y-5814285D02*
X38354819Y-5719047D01*
X38354819Y-5719047D02*
X38354819Y-5528571D01*
X38354819Y-5528571D02*
X38402438Y-5433333D01*
X38402438Y-5433333D02*
X38450057Y-5385714D01*
X38450057Y-5385714D02*
X38545295Y-5338095D01*
X38545295Y-5338095D02*
X38592914Y-5338095D01*
X38592914Y-5338095D02*
X38688152Y-5385714D01*
X38688152Y-5385714D02*
X38735771Y-5433333D01*
X38735771Y-5433333D02*
X38783390Y-5528571D01*
X38783390Y-5528571D02*
X38783390Y-5719047D01*
X38783390Y-5719047D02*
X38831009Y-5814285D01*
X38831009Y-5814285D02*
X38878628Y-5861904D01*
X38878628Y-5861904D02*
X38973866Y-5909523D01*
X38973866Y-5909523D02*
X39164342Y-5909523D01*
X39164342Y-5909523D02*
X39259580Y-5861904D01*
X39259580Y-5861904D02*
X39307200Y-5814285D01*
X39307200Y-5814285D02*
X39354819Y-5719047D01*
X39354819Y-5719047D02*
X39354819Y-5528571D01*
X39354819Y-5528571D02*
X39307200Y-5433333D01*
X39307200Y-5433333D02*
X39259580Y-5385714D01*
X39259580Y-5385714D02*
X39164342Y-5338095D01*
X39164342Y-5338095D02*
X38973866Y-5338095D01*
X38973866Y-5338095D02*
X38878628Y-5385714D01*
X38878628Y-5385714D02*
X38831009Y-5433333D01*
X38831009Y-5433333D02*
X38783390Y-5528571D01*
X46357142Y-26759580D02*
X46309523Y-26807200D01*
X46309523Y-26807200D02*
X46166666Y-26854819D01*
X46166666Y-26854819D02*
X46071428Y-26854819D01*
X46071428Y-26854819D02*
X45928571Y-26807200D01*
X45928571Y-26807200D02*
X45833333Y-26711961D01*
X45833333Y-26711961D02*
X45785714Y-26616723D01*
X45785714Y-26616723D02*
X45738095Y-26426247D01*
X45738095Y-26426247D02*
X45738095Y-26283390D01*
X45738095Y-26283390D02*
X45785714Y-26092914D01*
X45785714Y-26092914D02*
X45833333Y-25997676D01*
X45833333Y-25997676D02*
X45928571Y-25902438D01*
X45928571Y-25902438D02*
X46071428Y-25854819D01*
X46071428Y-25854819D02*
X46166666Y-25854819D01*
X46166666Y-25854819D02*
X46309523Y-25902438D01*
X46309523Y-25902438D02*
X46357142Y-25950057D01*
X47309523Y-26854819D02*
X46738095Y-26854819D01*
X47023809Y-26854819D02*
X47023809Y-25854819D01*
X47023809Y-25854819D02*
X46928571Y-25997676D01*
X46928571Y-25997676D02*
X46833333Y-26092914D01*
X46833333Y-26092914D02*
X46738095Y-26140533D01*
X47785714Y-26854819D02*
X47976190Y-26854819D01*
X47976190Y-26854819D02*
X48071428Y-26807200D01*
X48071428Y-26807200D02*
X48119047Y-26759580D01*
X48119047Y-26759580D02*
X48214285Y-26616723D01*
X48214285Y-26616723D02*
X48261904Y-26426247D01*
X48261904Y-26426247D02*
X48261904Y-26045295D01*
X48261904Y-26045295D02*
X48214285Y-25950057D01*
X48214285Y-25950057D02*
X48166666Y-25902438D01*
X48166666Y-25902438D02*
X48071428Y-25854819D01*
X48071428Y-25854819D02*
X47880952Y-25854819D01*
X47880952Y-25854819D02*
X47785714Y-25902438D01*
X47785714Y-25902438D02*
X47738095Y-25950057D01*
X47738095Y-25950057D02*
X47690476Y-26045295D01*
X47690476Y-26045295D02*
X47690476Y-26283390D01*
X47690476Y-26283390D02*
X47738095Y-26378628D01*
X47738095Y-26378628D02*
X47785714Y-26426247D01*
X47785714Y-26426247D02*
X47880952Y-26473866D01*
X47880952Y-26473866D02*
X48071428Y-26473866D01*
X48071428Y-26473866D02*
X48166666Y-26426247D01*
X48166666Y-26426247D02*
X48214285Y-26378628D01*
X48214285Y-26378628D02*
X48261904Y-26283390D01*
X48559580Y-21942857D02*
X48607200Y-21990476D01*
X48607200Y-21990476D02*
X48654819Y-22133333D01*
X48654819Y-22133333D02*
X48654819Y-22228571D01*
X48654819Y-22228571D02*
X48607200Y-22371428D01*
X48607200Y-22371428D02*
X48511961Y-22466666D01*
X48511961Y-22466666D02*
X48416723Y-22514285D01*
X48416723Y-22514285D02*
X48226247Y-22561904D01*
X48226247Y-22561904D02*
X48083390Y-22561904D01*
X48083390Y-22561904D02*
X47892914Y-22514285D01*
X47892914Y-22514285D02*
X47797676Y-22466666D01*
X47797676Y-22466666D02*
X47702438Y-22371428D01*
X47702438Y-22371428D02*
X47654819Y-22228571D01*
X47654819Y-22228571D02*
X47654819Y-22133333D01*
X47654819Y-22133333D02*
X47702438Y-21990476D01*
X47702438Y-21990476D02*
X47750057Y-21942857D01*
X48654819Y-20990476D02*
X48654819Y-21561904D01*
X48654819Y-21276190D02*
X47654819Y-21276190D01*
X47654819Y-21276190D02*
X47797676Y-21371428D01*
X47797676Y-21371428D02*
X47892914Y-21466666D01*
X47892914Y-21466666D02*
X47940533Y-21561904D01*
X47654819Y-20133333D02*
X47654819Y-20323809D01*
X47654819Y-20323809D02*
X47702438Y-20419047D01*
X47702438Y-20419047D02*
X47750057Y-20466666D01*
X47750057Y-20466666D02*
X47892914Y-20561904D01*
X47892914Y-20561904D02*
X48083390Y-20609523D01*
X48083390Y-20609523D02*
X48464342Y-20609523D01*
X48464342Y-20609523D02*
X48559580Y-20561904D01*
X48559580Y-20561904D02*
X48607200Y-20514285D01*
X48607200Y-20514285D02*
X48654819Y-20419047D01*
X48654819Y-20419047D02*
X48654819Y-20228571D01*
X48654819Y-20228571D02*
X48607200Y-20133333D01*
X48607200Y-20133333D02*
X48559580Y-20085714D01*
X48559580Y-20085714D02*
X48464342Y-20038095D01*
X48464342Y-20038095D02*
X48226247Y-20038095D01*
X48226247Y-20038095D02*
X48131009Y-20085714D01*
X48131009Y-20085714D02*
X48083390Y-20133333D01*
X48083390Y-20133333D02*
X48035771Y-20228571D01*
X48035771Y-20228571D02*
X48035771Y-20419047D01*
X48035771Y-20419047D02*
X48083390Y-20514285D01*
X48083390Y-20514285D02*
X48131009Y-20561904D01*
X48131009Y-20561904D02*
X48226247Y-20609523D01*
X61157142Y-2559580D02*
X61109523Y-2607200D01*
X61109523Y-2607200D02*
X60966666Y-2654819D01*
X60966666Y-2654819D02*
X60871428Y-2654819D01*
X60871428Y-2654819D02*
X60728571Y-2607200D01*
X60728571Y-2607200D02*
X60633333Y-2511961D01*
X60633333Y-2511961D02*
X60585714Y-2416723D01*
X60585714Y-2416723D02*
X60538095Y-2226247D01*
X60538095Y-2226247D02*
X60538095Y-2083390D01*
X60538095Y-2083390D02*
X60585714Y-1892914D01*
X60585714Y-1892914D02*
X60633333Y-1797676D01*
X60633333Y-1797676D02*
X60728571Y-1702438D01*
X60728571Y-1702438D02*
X60871428Y-1654819D01*
X60871428Y-1654819D02*
X60966666Y-1654819D01*
X60966666Y-1654819D02*
X61109523Y-1702438D01*
X61109523Y-1702438D02*
X61157142Y-1750057D01*
X61490476Y-1654819D02*
X62109523Y-1654819D01*
X62109523Y-1654819D02*
X61776190Y-2035771D01*
X61776190Y-2035771D02*
X61919047Y-2035771D01*
X61919047Y-2035771D02*
X62014285Y-2083390D01*
X62014285Y-2083390D02*
X62061904Y-2131009D01*
X62061904Y-2131009D02*
X62109523Y-2226247D01*
X62109523Y-2226247D02*
X62109523Y-2464342D01*
X62109523Y-2464342D02*
X62061904Y-2559580D01*
X62061904Y-2559580D02*
X62014285Y-2607200D01*
X62014285Y-2607200D02*
X61919047Y-2654819D01*
X61919047Y-2654819D02*
X61633333Y-2654819D01*
X61633333Y-2654819D02*
X61538095Y-2607200D01*
X61538095Y-2607200D02*
X61490476Y-2559580D01*
X62680952Y-2083390D02*
X62585714Y-2035771D01*
X62585714Y-2035771D02*
X62538095Y-1988152D01*
X62538095Y-1988152D02*
X62490476Y-1892914D01*
X62490476Y-1892914D02*
X62490476Y-1845295D01*
X62490476Y-1845295D02*
X62538095Y-1750057D01*
X62538095Y-1750057D02*
X62585714Y-1702438D01*
X62585714Y-1702438D02*
X62680952Y-1654819D01*
X62680952Y-1654819D02*
X62871428Y-1654819D01*
X62871428Y-1654819D02*
X62966666Y-1702438D01*
X62966666Y-1702438D02*
X63014285Y-1750057D01*
X63014285Y-1750057D02*
X63061904Y-1845295D01*
X63061904Y-1845295D02*
X63061904Y-1892914D01*
X63061904Y-1892914D02*
X63014285Y-1988152D01*
X63014285Y-1988152D02*
X62966666Y-2035771D01*
X62966666Y-2035771D02*
X62871428Y-2083390D01*
X62871428Y-2083390D02*
X62680952Y-2083390D01*
X62680952Y-2083390D02*
X62585714Y-2131009D01*
X62585714Y-2131009D02*
X62538095Y-2178628D01*
X62538095Y-2178628D02*
X62490476Y-2273866D01*
X62490476Y-2273866D02*
X62490476Y-2464342D01*
X62490476Y-2464342D02*
X62538095Y-2559580D01*
X62538095Y-2559580D02*
X62585714Y-2607200D01*
X62585714Y-2607200D02*
X62680952Y-2654819D01*
X62680952Y-2654819D02*
X62871428Y-2654819D01*
X62871428Y-2654819D02*
X62966666Y-2607200D01*
X62966666Y-2607200D02*
X63014285Y-2559580D01*
X63014285Y-2559580D02*
X63061904Y-2464342D01*
X63061904Y-2464342D02*
X63061904Y-2273866D01*
X63061904Y-2273866D02*
X63014285Y-2178628D01*
X63014285Y-2178628D02*
X62966666Y-2131009D01*
X62966666Y-2131009D02*
X62871428Y-2083390D01*
X39857142Y-31759580D02*
X39809523Y-31807200D01*
X39809523Y-31807200D02*
X39666666Y-31854819D01*
X39666666Y-31854819D02*
X39571428Y-31854819D01*
X39571428Y-31854819D02*
X39428571Y-31807200D01*
X39428571Y-31807200D02*
X39333333Y-31711961D01*
X39333333Y-31711961D02*
X39285714Y-31616723D01*
X39285714Y-31616723D02*
X39238095Y-31426247D01*
X39238095Y-31426247D02*
X39238095Y-31283390D01*
X39238095Y-31283390D02*
X39285714Y-31092914D01*
X39285714Y-31092914D02*
X39333333Y-30997676D01*
X39333333Y-30997676D02*
X39428571Y-30902438D01*
X39428571Y-30902438D02*
X39571428Y-30854819D01*
X39571428Y-30854819D02*
X39666666Y-30854819D01*
X39666666Y-30854819D02*
X39809523Y-30902438D01*
X39809523Y-30902438D02*
X39857142Y-30950057D01*
X40238095Y-30950057D02*
X40285714Y-30902438D01*
X40285714Y-30902438D02*
X40380952Y-30854819D01*
X40380952Y-30854819D02*
X40619047Y-30854819D01*
X40619047Y-30854819D02*
X40714285Y-30902438D01*
X40714285Y-30902438D02*
X40761904Y-30950057D01*
X40761904Y-30950057D02*
X40809523Y-31045295D01*
X40809523Y-31045295D02*
X40809523Y-31140533D01*
X40809523Y-31140533D02*
X40761904Y-31283390D01*
X40761904Y-31283390D02*
X40190476Y-31854819D01*
X40190476Y-31854819D02*
X40809523Y-31854819D01*
X41190476Y-30950057D02*
X41238095Y-30902438D01*
X41238095Y-30902438D02*
X41333333Y-30854819D01*
X41333333Y-30854819D02*
X41571428Y-30854819D01*
X41571428Y-30854819D02*
X41666666Y-30902438D01*
X41666666Y-30902438D02*
X41714285Y-30950057D01*
X41714285Y-30950057D02*
X41761904Y-31045295D01*
X41761904Y-31045295D02*
X41761904Y-31140533D01*
X41761904Y-31140533D02*
X41714285Y-31283390D01*
X41714285Y-31283390D02*
X41142857Y-31854819D01*
X41142857Y-31854819D02*
X41761904Y-31854819D01*
X51357142Y-25159580D02*
X51309523Y-25207200D01*
X51309523Y-25207200D02*
X51166666Y-25254819D01*
X51166666Y-25254819D02*
X51071428Y-25254819D01*
X51071428Y-25254819D02*
X50928571Y-25207200D01*
X50928571Y-25207200D02*
X50833333Y-25111961D01*
X50833333Y-25111961D02*
X50785714Y-25016723D01*
X50785714Y-25016723D02*
X50738095Y-24826247D01*
X50738095Y-24826247D02*
X50738095Y-24683390D01*
X50738095Y-24683390D02*
X50785714Y-24492914D01*
X50785714Y-24492914D02*
X50833333Y-24397676D01*
X50833333Y-24397676D02*
X50928571Y-24302438D01*
X50928571Y-24302438D02*
X51071428Y-24254819D01*
X51071428Y-24254819D02*
X51166666Y-24254819D01*
X51166666Y-24254819D02*
X51309523Y-24302438D01*
X51309523Y-24302438D02*
X51357142Y-24350057D01*
X51738095Y-24350057D02*
X51785714Y-24302438D01*
X51785714Y-24302438D02*
X51880952Y-24254819D01*
X51880952Y-24254819D02*
X52119047Y-24254819D01*
X52119047Y-24254819D02*
X52214285Y-24302438D01*
X52214285Y-24302438D02*
X52261904Y-24350057D01*
X52261904Y-24350057D02*
X52309523Y-24445295D01*
X52309523Y-24445295D02*
X52309523Y-24540533D01*
X52309523Y-24540533D02*
X52261904Y-24683390D01*
X52261904Y-24683390D02*
X51690476Y-25254819D01*
X51690476Y-25254819D02*
X52309523Y-25254819D01*
X52928571Y-24254819D02*
X53023809Y-24254819D01*
X53023809Y-24254819D02*
X53119047Y-24302438D01*
X53119047Y-24302438D02*
X53166666Y-24350057D01*
X53166666Y-24350057D02*
X53214285Y-24445295D01*
X53214285Y-24445295D02*
X53261904Y-24635771D01*
X53261904Y-24635771D02*
X53261904Y-24873866D01*
X53261904Y-24873866D02*
X53214285Y-25064342D01*
X53214285Y-25064342D02*
X53166666Y-25159580D01*
X53166666Y-25159580D02*
X53119047Y-25207200D01*
X53119047Y-25207200D02*
X53023809Y-25254819D01*
X53023809Y-25254819D02*
X52928571Y-25254819D01*
X52928571Y-25254819D02*
X52833333Y-25207200D01*
X52833333Y-25207200D02*
X52785714Y-25159580D01*
X52785714Y-25159580D02*
X52738095Y-25064342D01*
X52738095Y-25064342D02*
X52690476Y-24873866D01*
X52690476Y-24873866D02*
X52690476Y-24635771D01*
X52690476Y-24635771D02*
X52738095Y-24445295D01*
X52738095Y-24445295D02*
X52785714Y-24350057D01*
X52785714Y-24350057D02*
X52833333Y-24302438D01*
X52833333Y-24302438D02*
X52928571Y-24254819D01*
X42857142Y-23059580D02*
X42809523Y-23107200D01*
X42809523Y-23107200D02*
X42666666Y-23154819D01*
X42666666Y-23154819D02*
X42571428Y-23154819D01*
X42571428Y-23154819D02*
X42428571Y-23107200D01*
X42428571Y-23107200D02*
X42333333Y-23011961D01*
X42333333Y-23011961D02*
X42285714Y-22916723D01*
X42285714Y-22916723D02*
X42238095Y-22726247D01*
X42238095Y-22726247D02*
X42238095Y-22583390D01*
X42238095Y-22583390D02*
X42285714Y-22392914D01*
X42285714Y-22392914D02*
X42333333Y-22297676D01*
X42333333Y-22297676D02*
X42428571Y-22202438D01*
X42428571Y-22202438D02*
X42571428Y-22154819D01*
X42571428Y-22154819D02*
X42666666Y-22154819D01*
X42666666Y-22154819D02*
X42809523Y-22202438D01*
X42809523Y-22202438D02*
X42857142Y-22250057D01*
X43809523Y-23154819D02*
X43238095Y-23154819D01*
X43523809Y-23154819D02*
X43523809Y-22154819D01*
X43523809Y-22154819D02*
X43428571Y-22297676D01*
X43428571Y-22297676D02*
X43333333Y-22392914D01*
X43333333Y-22392914D02*
X43238095Y-22440533D01*
X44714285Y-22154819D02*
X44238095Y-22154819D01*
X44238095Y-22154819D02*
X44190476Y-22631009D01*
X44190476Y-22631009D02*
X44238095Y-22583390D01*
X44238095Y-22583390D02*
X44333333Y-22535771D01*
X44333333Y-22535771D02*
X44571428Y-22535771D01*
X44571428Y-22535771D02*
X44666666Y-22583390D01*
X44666666Y-22583390D02*
X44714285Y-22631009D01*
X44714285Y-22631009D02*
X44761904Y-22726247D01*
X44761904Y-22726247D02*
X44761904Y-22964342D01*
X44761904Y-22964342D02*
X44714285Y-23059580D01*
X44714285Y-23059580D02*
X44666666Y-23107200D01*
X44666666Y-23107200D02*
X44571428Y-23154819D01*
X44571428Y-23154819D02*
X44333333Y-23154819D01*
X44333333Y-23154819D02*
X44238095Y-23107200D01*
X44238095Y-23107200D02*
X44190476Y-23059580D01*
X50212142Y-17759580D02*
X50164523Y-17807200D01*
X50164523Y-17807200D02*
X50021666Y-17854819D01*
X50021666Y-17854819D02*
X49926428Y-17854819D01*
X49926428Y-17854819D02*
X49783571Y-17807200D01*
X49783571Y-17807200D02*
X49688333Y-17711961D01*
X49688333Y-17711961D02*
X49640714Y-17616723D01*
X49640714Y-17616723D02*
X49593095Y-17426247D01*
X49593095Y-17426247D02*
X49593095Y-17283390D01*
X49593095Y-17283390D02*
X49640714Y-17092914D01*
X49640714Y-17092914D02*
X49688333Y-16997676D01*
X49688333Y-16997676D02*
X49783571Y-16902438D01*
X49783571Y-16902438D02*
X49926428Y-16854819D01*
X49926428Y-16854819D02*
X50021666Y-16854819D01*
X50021666Y-16854819D02*
X50164523Y-16902438D01*
X50164523Y-16902438D02*
X50212142Y-16950057D01*
X51164523Y-17854819D02*
X50593095Y-17854819D01*
X50878809Y-17854819D02*
X50878809Y-16854819D01*
X50878809Y-16854819D02*
X50783571Y-16997676D01*
X50783571Y-16997676D02*
X50688333Y-17092914D01*
X50688333Y-17092914D02*
X50593095Y-17140533D01*
X51497857Y-16854819D02*
X52116904Y-16854819D01*
X52116904Y-16854819D02*
X51783571Y-17235771D01*
X51783571Y-17235771D02*
X51926428Y-17235771D01*
X51926428Y-17235771D02*
X52021666Y-17283390D01*
X52021666Y-17283390D02*
X52069285Y-17331009D01*
X52069285Y-17331009D02*
X52116904Y-17426247D01*
X52116904Y-17426247D02*
X52116904Y-17664342D01*
X52116904Y-17664342D02*
X52069285Y-17759580D01*
X52069285Y-17759580D02*
X52021666Y-17807200D01*
X52021666Y-17807200D02*
X51926428Y-17854819D01*
X51926428Y-17854819D02*
X51640714Y-17854819D01*
X51640714Y-17854819D02*
X51545476Y-17807200D01*
X51545476Y-17807200D02*
X51497857Y-17759580D01*
X22359580Y-8842857D02*
X22407200Y-8890476D01*
X22407200Y-8890476D02*
X22454819Y-9033333D01*
X22454819Y-9033333D02*
X22454819Y-9128571D01*
X22454819Y-9128571D02*
X22407200Y-9271428D01*
X22407200Y-9271428D02*
X22311961Y-9366666D01*
X22311961Y-9366666D02*
X22216723Y-9414285D01*
X22216723Y-9414285D02*
X22026247Y-9461904D01*
X22026247Y-9461904D02*
X21883390Y-9461904D01*
X21883390Y-9461904D02*
X21692914Y-9414285D01*
X21692914Y-9414285D02*
X21597676Y-9366666D01*
X21597676Y-9366666D02*
X21502438Y-9271428D01*
X21502438Y-9271428D02*
X21454819Y-9128571D01*
X21454819Y-9128571D02*
X21454819Y-9033333D01*
X21454819Y-9033333D02*
X21502438Y-8890476D01*
X21502438Y-8890476D02*
X21550057Y-8842857D01*
X21454819Y-8509523D02*
X21454819Y-7890476D01*
X21454819Y-7890476D02*
X21835771Y-8223809D01*
X21835771Y-8223809D02*
X21835771Y-8080952D01*
X21835771Y-8080952D02*
X21883390Y-7985714D01*
X21883390Y-7985714D02*
X21931009Y-7938095D01*
X21931009Y-7938095D02*
X22026247Y-7890476D01*
X22026247Y-7890476D02*
X22264342Y-7890476D01*
X22264342Y-7890476D02*
X22359580Y-7938095D01*
X22359580Y-7938095D02*
X22407200Y-7985714D01*
X22407200Y-7985714D02*
X22454819Y-8080952D01*
X22454819Y-8080952D02*
X22454819Y-8366666D01*
X22454819Y-8366666D02*
X22407200Y-8461904D01*
X22407200Y-8461904D02*
X22359580Y-8509523D01*
X21788152Y-7033333D02*
X22454819Y-7033333D01*
X21407200Y-7271428D02*
X22121485Y-7509523D01*
X22121485Y-7509523D02*
X22121485Y-6890476D01*
X67657142Y-1259580D02*
X67609523Y-1307200D01*
X67609523Y-1307200D02*
X67466666Y-1354819D01*
X67466666Y-1354819D02*
X67371428Y-1354819D01*
X67371428Y-1354819D02*
X67228571Y-1307200D01*
X67228571Y-1307200D02*
X67133333Y-1211961D01*
X67133333Y-1211961D02*
X67085714Y-1116723D01*
X67085714Y-1116723D02*
X67038095Y-926247D01*
X67038095Y-926247D02*
X67038095Y-783390D01*
X67038095Y-783390D02*
X67085714Y-592914D01*
X67085714Y-592914D02*
X67133333Y-497676D01*
X67133333Y-497676D02*
X67228571Y-402438D01*
X67228571Y-402438D02*
X67371428Y-354819D01*
X67371428Y-354819D02*
X67466666Y-354819D01*
X67466666Y-354819D02*
X67609523Y-402438D01*
X67609523Y-402438D02*
X67657142Y-450057D01*
X68514285Y-688152D02*
X68514285Y-1354819D01*
X68276190Y-307200D02*
X68038095Y-1021485D01*
X68038095Y-1021485D02*
X68657142Y-1021485D01*
X69514285Y-354819D02*
X69038095Y-354819D01*
X69038095Y-354819D02*
X68990476Y-831009D01*
X68990476Y-831009D02*
X69038095Y-783390D01*
X69038095Y-783390D02*
X69133333Y-735771D01*
X69133333Y-735771D02*
X69371428Y-735771D01*
X69371428Y-735771D02*
X69466666Y-783390D01*
X69466666Y-783390D02*
X69514285Y-831009D01*
X69514285Y-831009D02*
X69561904Y-926247D01*
X69561904Y-926247D02*
X69561904Y-1164342D01*
X69561904Y-1164342D02*
X69514285Y-1259580D01*
X69514285Y-1259580D02*
X69466666Y-1307200D01*
X69466666Y-1307200D02*
X69371428Y-1354819D01*
X69371428Y-1354819D02*
X69133333Y-1354819D01*
X69133333Y-1354819D02*
X69038095Y-1307200D01*
X69038095Y-1307200D02*
X68990476Y-1259580D01*
X42757142Y-19254819D02*
X42423809Y-18778628D01*
X42185714Y-19254819D02*
X42185714Y-18254819D01*
X42185714Y-18254819D02*
X42566666Y-18254819D01*
X42566666Y-18254819D02*
X42661904Y-18302438D01*
X42661904Y-18302438D02*
X42709523Y-18350057D01*
X42709523Y-18350057D02*
X42757142Y-18445295D01*
X42757142Y-18445295D02*
X42757142Y-18588152D01*
X42757142Y-18588152D02*
X42709523Y-18683390D01*
X42709523Y-18683390D02*
X42661904Y-18731009D01*
X42661904Y-18731009D02*
X42566666Y-18778628D01*
X42566666Y-18778628D02*
X42185714Y-18778628D01*
X43709523Y-19254819D02*
X43138095Y-19254819D01*
X43423809Y-19254819D02*
X43423809Y-18254819D01*
X43423809Y-18254819D02*
X43328571Y-18397676D01*
X43328571Y-18397676D02*
X43233333Y-18492914D01*
X43233333Y-18492914D02*
X43138095Y-18540533D01*
X44185714Y-19254819D02*
X44376190Y-19254819D01*
X44376190Y-19254819D02*
X44471428Y-19207200D01*
X44471428Y-19207200D02*
X44519047Y-19159580D01*
X44519047Y-19159580D02*
X44614285Y-19016723D01*
X44614285Y-19016723D02*
X44661904Y-18826247D01*
X44661904Y-18826247D02*
X44661904Y-18445295D01*
X44661904Y-18445295D02*
X44614285Y-18350057D01*
X44614285Y-18350057D02*
X44566666Y-18302438D01*
X44566666Y-18302438D02*
X44471428Y-18254819D01*
X44471428Y-18254819D02*
X44280952Y-18254819D01*
X44280952Y-18254819D02*
X44185714Y-18302438D01*
X44185714Y-18302438D02*
X44138095Y-18350057D01*
X44138095Y-18350057D02*
X44090476Y-18445295D01*
X44090476Y-18445295D02*
X44090476Y-18683390D01*
X44090476Y-18683390D02*
X44138095Y-18778628D01*
X44138095Y-18778628D02*
X44185714Y-18826247D01*
X44185714Y-18826247D02*
X44280952Y-18873866D01*
X44280952Y-18873866D02*
X44471428Y-18873866D01*
X44471428Y-18873866D02*
X44566666Y-18826247D01*
X44566666Y-18826247D02*
X44614285Y-18778628D01*
X44614285Y-18778628D02*
X44661904Y-18683390D01*
X29067036Y-16976174D02*
X28494617Y-16875159D01*
X28662975Y-17380235D02*
X27955869Y-16673128D01*
X27955869Y-16673128D02*
X28225243Y-16403754D01*
X28225243Y-16403754D02*
X28326258Y-16370082D01*
X28326258Y-16370082D02*
X28393601Y-16370082D01*
X28393601Y-16370082D02*
X28494617Y-16403754D01*
X28494617Y-16403754D02*
X28595632Y-16504769D01*
X28595632Y-16504769D02*
X28629304Y-16605785D01*
X28629304Y-16605785D02*
X28629304Y-16673128D01*
X28629304Y-16673128D02*
X28595632Y-16774143D01*
X28595632Y-16774143D02*
X28326258Y-17043517D01*
X28696647Y-16067037D02*
X28696647Y-15999693D01*
X28696647Y-15999693D02*
X28730319Y-15898678D01*
X28730319Y-15898678D02*
X28898678Y-15730319D01*
X28898678Y-15730319D02*
X28999693Y-15696647D01*
X28999693Y-15696647D02*
X29067036Y-15696647D01*
X29067036Y-15696647D02*
X29168052Y-15730319D01*
X29168052Y-15730319D02*
X29235395Y-15797663D01*
X29235395Y-15797663D02*
X29302739Y-15932350D01*
X29302739Y-15932350D02*
X29302739Y-16740472D01*
X29302739Y-16740472D02*
X29740471Y-16302739D01*
X29673128Y-14955869D02*
X29336410Y-15292586D01*
X29336410Y-15292586D02*
X29639456Y-15662975D01*
X29639456Y-15662975D02*
X29639456Y-15595632D01*
X29639456Y-15595632D02*
X29673128Y-15494617D01*
X29673128Y-15494617D02*
X29841487Y-15326258D01*
X29841487Y-15326258D02*
X29942502Y-15292586D01*
X29942502Y-15292586D02*
X30009846Y-15292586D01*
X30009846Y-15292586D02*
X30110861Y-15326258D01*
X30110861Y-15326258D02*
X30279220Y-15494617D01*
X30279220Y-15494617D02*
X30312891Y-15595632D01*
X30312891Y-15595632D02*
X30312891Y-15662975D01*
X30312891Y-15662975D02*
X30279220Y-15763991D01*
X30279220Y-15763991D02*
X30110861Y-15932349D01*
X30110861Y-15932349D02*
X30009846Y-15966021D01*
X30009846Y-15966021D02*
X29942502Y-15966021D01*
X30385714Y-26954819D02*
X30385714Y-25954819D01*
X30385714Y-25954819D02*
X30623809Y-25954819D01*
X30623809Y-25954819D02*
X30766666Y-26002438D01*
X30766666Y-26002438D02*
X30861904Y-26097676D01*
X30861904Y-26097676D02*
X30909523Y-26192914D01*
X30909523Y-26192914D02*
X30957142Y-26383390D01*
X30957142Y-26383390D02*
X30957142Y-26526247D01*
X30957142Y-26526247D02*
X30909523Y-26716723D01*
X30909523Y-26716723D02*
X30861904Y-26811961D01*
X30861904Y-26811961D02*
X30766666Y-26907200D01*
X30766666Y-26907200D02*
X30623809Y-26954819D01*
X30623809Y-26954819D02*
X30385714Y-26954819D01*
X31909523Y-26954819D02*
X31338095Y-26954819D01*
X31623809Y-26954819D02*
X31623809Y-25954819D01*
X31623809Y-25954819D02*
X31528571Y-26097676D01*
X31528571Y-26097676D02*
X31433333Y-26192914D01*
X31433333Y-26192914D02*
X31338095Y-26240533D01*
X32528571Y-25954819D02*
X32623809Y-25954819D01*
X32623809Y-25954819D02*
X32719047Y-26002438D01*
X32719047Y-26002438D02*
X32766666Y-26050057D01*
X32766666Y-26050057D02*
X32814285Y-26145295D01*
X32814285Y-26145295D02*
X32861904Y-26335771D01*
X32861904Y-26335771D02*
X32861904Y-26573866D01*
X32861904Y-26573866D02*
X32814285Y-26764342D01*
X32814285Y-26764342D02*
X32766666Y-26859580D01*
X32766666Y-26859580D02*
X32719047Y-26907200D01*
X32719047Y-26907200D02*
X32623809Y-26954819D01*
X32623809Y-26954819D02*
X32528571Y-26954819D01*
X32528571Y-26954819D02*
X32433333Y-26907200D01*
X32433333Y-26907200D02*
X32385714Y-26859580D01*
X32385714Y-26859580D02*
X32338095Y-26764342D01*
X32338095Y-26764342D02*
X32290476Y-26573866D01*
X32290476Y-26573866D02*
X32290476Y-26335771D01*
X32290476Y-26335771D02*
X32338095Y-26145295D01*
X32338095Y-26145295D02*
X32385714Y-26050057D01*
X32385714Y-26050057D02*
X32433333Y-26002438D01*
X32433333Y-26002438D02*
X32528571Y-25954819D01*
X25267036Y-16876174D02*
X24694617Y-16775159D01*
X24862975Y-17280235D02*
X24155869Y-16573128D01*
X24155869Y-16573128D02*
X24425243Y-16303754D01*
X24425243Y-16303754D02*
X24526258Y-16270082D01*
X24526258Y-16270082D02*
X24593601Y-16270082D01*
X24593601Y-16270082D02*
X24694617Y-16303754D01*
X24694617Y-16303754D02*
X24795632Y-16404769D01*
X24795632Y-16404769D02*
X24829304Y-16505785D01*
X24829304Y-16505785D02*
X24829304Y-16573128D01*
X24829304Y-16573128D02*
X24795632Y-16674143D01*
X24795632Y-16674143D02*
X24526258Y-16943517D01*
X24896647Y-15967037D02*
X24896647Y-15899693D01*
X24896647Y-15899693D02*
X24930319Y-15798678D01*
X24930319Y-15798678D02*
X25098678Y-15630319D01*
X25098678Y-15630319D02*
X25199693Y-15596647D01*
X25199693Y-15596647D02*
X25267036Y-15596647D01*
X25267036Y-15596647D02*
X25368052Y-15630319D01*
X25368052Y-15630319D02*
X25435395Y-15697663D01*
X25435395Y-15697663D02*
X25502739Y-15832350D01*
X25502739Y-15832350D02*
X25502739Y-16640472D01*
X25502739Y-16640472D02*
X25940471Y-16202739D01*
X25469067Y-15259930D02*
X25906800Y-14822197D01*
X25906800Y-14822197D02*
X25940472Y-15327273D01*
X25940472Y-15327273D02*
X26041487Y-15226258D01*
X26041487Y-15226258D02*
X26142502Y-15192586D01*
X26142502Y-15192586D02*
X26209846Y-15192586D01*
X26209846Y-15192586D02*
X26310861Y-15226258D01*
X26310861Y-15226258D02*
X26479220Y-15394617D01*
X26479220Y-15394617D02*
X26512891Y-15495632D01*
X26512891Y-15495632D02*
X26512891Y-15562975D01*
X26512891Y-15562975D02*
X26479220Y-15663991D01*
X26479220Y-15663991D02*
X26277189Y-15866021D01*
X26277189Y-15866021D02*
X26176174Y-15899693D01*
X26176174Y-15899693D02*
X26108830Y-15899693D01*
D11*
X33760237Y-20174318D02*
X33760237Y-18904318D01*
X35090714Y-20053365D02*
X35030238Y-20113842D01*
X35030238Y-20113842D02*
X34848809Y-20174318D01*
X34848809Y-20174318D02*
X34727857Y-20174318D01*
X34727857Y-20174318D02*
X34546428Y-20113842D01*
X34546428Y-20113842D02*
X34425476Y-19992889D01*
X34425476Y-19992889D02*
X34364999Y-19871937D01*
X34364999Y-19871937D02*
X34304523Y-19630032D01*
X34304523Y-19630032D02*
X34304523Y-19448603D01*
X34304523Y-19448603D02*
X34364999Y-19206699D01*
X34364999Y-19206699D02*
X34425476Y-19085746D01*
X34425476Y-19085746D02*
X34546428Y-18964794D01*
X34546428Y-18964794D02*
X34727857Y-18904318D01*
X34727857Y-18904318D02*
X34848809Y-18904318D01*
X34848809Y-18904318D02*
X35030238Y-18964794D01*
X35030238Y-18964794D02*
X35090714Y-19025270D01*
X35574523Y-19025270D02*
X35634999Y-18964794D01*
X35634999Y-18964794D02*
X35755952Y-18904318D01*
X35755952Y-18904318D02*
X36058333Y-18904318D01*
X36058333Y-18904318D02*
X36179285Y-18964794D01*
X36179285Y-18964794D02*
X36239761Y-19025270D01*
X36239761Y-19025270D02*
X36300238Y-19146222D01*
X36300238Y-19146222D02*
X36300238Y-19267175D01*
X36300238Y-19267175D02*
X36239761Y-19448603D01*
X36239761Y-19448603D02*
X35514047Y-20174318D01*
X35514047Y-20174318D02*
X36300238Y-20174318D01*
D10*
X44757142Y-17459580D02*
X44709523Y-17507200D01*
X44709523Y-17507200D02*
X44566666Y-17554819D01*
X44566666Y-17554819D02*
X44471428Y-17554819D01*
X44471428Y-17554819D02*
X44328571Y-17507200D01*
X44328571Y-17507200D02*
X44233333Y-17411961D01*
X44233333Y-17411961D02*
X44185714Y-17316723D01*
X44185714Y-17316723D02*
X44138095Y-17126247D01*
X44138095Y-17126247D02*
X44138095Y-16983390D01*
X44138095Y-16983390D02*
X44185714Y-16792914D01*
X44185714Y-16792914D02*
X44233333Y-16697676D01*
X44233333Y-16697676D02*
X44328571Y-16602438D01*
X44328571Y-16602438D02*
X44471428Y-16554819D01*
X44471428Y-16554819D02*
X44566666Y-16554819D01*
X44566666Y-16554819D02*
X44709523Y-16602438D01*
X44709523Y-16602438D02*
X44757142Y-16650057D01*
X45709523Y-17554819D02*
X45138095Y-17554819D01*
X45423809Y-17554819D02*
X45423809Y-16554819D01*
X45423809Y-16554819D02*
X45328571Y-16697676D01*
X45328571Y-16697676D02*
X45233333Y-16792914D01*
X45233333Y-16792914D02*
X45138095Y-16840533D01*
X46090476Y-16650057D02*
X46138095Y-16602438D01*
X46138095Y-16602438D02*
X46233333Y-16554819D01*
X46233333Y-16554819D02*
X46471428Y-16554819D01*
X46471428Y-16554819D02*
X46566666Y-16602438D01*
X46566666Y-16602438D02*
X46614285Y-16650057D01*
X46614285Y-16650057D02*
X46661904Y-16745295D01*
X46661904Y-16745295D02*
X46661904Y-16840533D01*
X46661904Y-16840533D02*
X46614285Y-16983390D01*
X46614285Y-16983390D02*
X46042857Y-17554819D01*
X46042857Y-17554819D02*
X46661904Y-17554819D01*
X48254819Y-32509523D02*
X48969104Y-32509523D01*
X48969104Y-32509523D02*
X49111961Y-32557142D01*
X49111961Y-32557142D02*
X49207200Y-32652380D01*
X49207200Y-32652380D02*
X49254819Y-32795237D01*
X49254819Y-32795237D02*
X49254819Y-32890475D01*
X49254819Y-31509523D02*
X49254819Y-32080951D01*
X49254819Y-31795237D02*
X48254819Y-31795237D01*
X48254819Y-31795237D02*
X48397676Y-31890475D01*
X48397676Y-31890475D02*
X48492914Y-31985713D01*
X48492914Y-31985713D02*
X48540533Y-32080951D01*
X48350057Y-31128570D02*
X48302438Y-31080951D01*
X48302438Y-31080951D02*
X48254819Y-30985713D01*
X48254819Y-30985713D02*
X48254819Y-30747618D01*
X48254819Y-30747618D02*
X48302438Y-30652380D01*
X48302438Y-30652380D02*
X48350057Y-30604761D01*
X48350057Y-30604761D02*
X48445295Y-30557142D01*
X48445295Y-30557142D02*
X48540533Y-30557142D01*
X48540533Y-30557142D02*
X48683390Y-30604761D01*
X48683390Y-30604761D02*
X49254819Y-31176189D01*
X49254819Y-31176189D02*
X49254819Y-30557142D01*
X65916666Y-40044819D02*
X65916666Y-40759104D01*
X65916666Y-40759104D02*
X65869047Y-40901961D01*
X65869047Y-40901961D02*
X65773809Y-40997200D01*
X65773809Y-40997200D02*
X65630952Y-41044819D01*
X65630952Y-41044819D02*
X65535714Y-41044819D01*
X66821428Y-40044819D02*
X66630952Y-40044819D01*
X66630952Y-40044819D02*
X66535714Y-40092438D01*
X66535714Y-40092438D02*
X66488095Y-40140057D01*
X66488095Y-40140057D02*
X66392857Y-40282914D01*
X66392857Y-40282914D02*
X66345238Y-40473390D01*
X66345238Y-40473390D02*
X66345238Y-40854342D01*
X66345238Y-40854342D02*
X66392857Y-40949580D01*
X66392857Y-40949580D02*
X66440476Y-40997200D01*
X66440476Y-40997200D02*
X66535714Y-41044819D01*
X66535714Y-41044819D02*
X66726190Y-41044819D01*
X66726190Y-41044819D02*
X66821428Y-40997200D01*
X66821428Y-40997200D02*
X66869047Y-40949580D01*
X66869047Y-40949580D02*
X66916666Y-40854342D01*
X66916666Y-40854342D02*
X66916666Y-40616247D01*
X66916666Y-40616247D02*
X66869047Y-40521009D01*
X66869047Y-40521009D02*
X66821428Y-40473390D01*
X66821428Y-40473390D02*
X66726190Y-40425771D01*
X66726190Y-40425771D02*
X66535714Y-40425771D01*
X66535714Y-40425771D02*
X66440476Y-40473390D01*
X66440476Y-40473390D02*
X66392857Y-40521009D01*
X66392857Y-40521009D02*
X66345238Y-40616247D01*
X37057142Y-31859580D02*
X37009523Y-31907200D01*
X37009523Y-31907200D02*
X36866666Y-31954819D01*
X36866666Y-31954819D02*
X36771428Y-31954819D01*
X36771428Y-31954819D02*
X36628571Y-31907200D01*
X36628571Y-31907200D02*
X36533333Y-31811961D01*
X36533333Y-31811961D02*
X36485714Y-31716723D01*
X36485714Y-31716723D02*
X36438095Y-31526247D01*
X36438095Y-31526247D02*
X36438095Y-31383390D01*
X36438095Y-31383390D02*
X36485714Y-31192914D01*
X36485714Y-31192914D02*
X36533333Y-31097676D01*
X36533333Y-31097676D02*
X36628571Y-31002438D01*
X36628571Y-31002438D02*
X36771428Y-30954819D01*
X36771428Y-30954819D02*
X36866666Y-30954819D01*
X36866666Y-30954819D02*
X37009523Y-31002438D01*
X37009523Y-31002438D02*
X37057142Y-31050057D01*
X37438095Y-31050057D02*
X37485714Y-31002438D01*
X37485714Y-31002438D02*
X37580952Y-30954819D01*
X37580952Y-30954819D02*
X37819047Y-30954819D01*
X37819047Y-30954819D02*
X37914285Y-31002438D01*
X37914285Y-31002438D02*
X37961904Y-31050057D01*
X37961904Y-31050057D02*
X38009523Y-31145295D01*
X38009523Y-31145295D02*
X38009523Y-31240533D01*
X38009523Y-31240533D02*
X37961904Y-31383390D01*
X37961904Y-31383390D02*
X37390476Y-31954819D01*
X37390476Y-31954819D02*
X38009523Y-31954819D01*
X38866666Y-31288152D02*
X38866666Y-31954819D01*
X38628571Y-30907200D02*
X38390476Y-31621485D01*
X38390476Y-31621485D02*
X39009523Y-31621485D01*
X44803754Y-8739456D02*
X44467037Y-9076174D01*
X44467037Y-9076174D02*
X43759930Y-8369067D01*
X44366022Y-7897662D02*
X44366022Y-7830319D01*
X44366022Y-7830319D02*
X44399693Y-7729303D01*
X44399693Y-7729303D02*
X44568052Y-7560945D01*
X44568052Y-7560945D02*
X44669067Y-7527273D01*
X44669067Y-7527273D02*
X44736411Y-7527273D01*
X44736411Y-7527273D02*
X44837426Y-7560945D01*
X44837426Y-7560945D02*
X44904770Y-7628288D01*
X44904770Y-7628288D02*
X44972113Y-7762975D01*
X44972113Y-7762975D02*
X44972113Y-8571097D01*
X44972113Y-8571097D02*
X45409846Y-8133364D01*
X37557142Y-25454819D02*
X37223809Y-24978628D01*
X36985714Y-25454819D02*
X36985714Y-24454819D01*
X36985714Y-24454819D02*
X37366666Y-24454819D01*
X37366666Y-24454819D02*
X37461904Y-24502438D01*
X37461904Y-24502438D02*
X37509523Y-24550057D01*
X37509523Y-24550057D02*
X37557142Y-24645295D01*
X37557142Y-24645295D02*
X37557142Y-24788152D01*
X37557142Y-24788152D02*
X37509523Y-24883390D01*
X37509523Y-24883390D02*
X37461904Y-24931009D01*
X37461904Y-24931009D02*
X37366666Y-24978628D01*
X37366666Y-24978628D02*
X36985714Y-24978628D01*
X37938095Y-24550057D02*
X37985714Y-24502438D01*
X37985714Y-24502438D02*
X38080952Y-24454819D01*
X38080952Y-24454819D02*
X38319047Y-24454819D01*
X38319047Y-24454819D02*
X38414285Y-24502438D01*
X38414285Y-24502438D02*
X38461904Y-24550057D01*
X38461904Y-24550057D02*
X38509523Y-24645295D01*
X38509523Y-24645295D02*
X38509523Y-24740533D01*
X38509523Y-24740533D02*
X38461904Y-24883390D01*
X38461904Y-24883390D02*
X37890476Y-25454819D01*
X37890476Y-25454819D02*
X38509523Y-25454819D01*
X38890476Y-24550057D02*
X38938095Y-24502438D01*
X38938095Y-24502438D02*
X39033333Y-24454819D01*
X39033333Y-24454819D02*
X39271428Y-24454819D01*
X39271428Y-24454819D02*
X39366666Y-24502438D01*
X39366666Y-24502438D02*
X39414285Y-24550057D01*
X39414285Y-24550057D02*
X39461904Y-24645295D01*
X39461904Y-24645295D02*
X39461904Y-24740533D01*
X39461904Y-24740533D02*
X39414285Y-24883390D01*
X39414285Y-24883390D02*
X38842857Y-25454819D01*
X38842857Y-25454819D02*
X39461904Y-25454819D01*
X23633333Y-27054819D02*
X23157143Y-27054819D01*
X23157143Y-27054819D02*
X23157143Y-26054819D01*
X24490476Y-27054819D02*
X23919048Y-27054819D01*
X24204762Y-27054819D02*
X24204762Y-26054819D01*
X24204762Y-26054819D02*
X24109524Y-26197676D01*
X24109524Y-26197676D02*
X24014286Y-26292914D01*
X24014286Y-26292914D02*
X23919048Y-26340533D01*
X48259580Y-15342857D02*
X48307200Y-15390476D01*
X48307200Y-15390476D02*
X48354819Y-15533333D01*
X48354819Y-15533333D02*
X48354819Y-15628571D01*
X48354819Y-15628571D02*
X48307200Y-15771428D01*
X48307200Y-15771428D02*
X48211961Y-15866666D01*
X48211961Y-15866666D02*
X48116723Y-15914285D01*
X48116723Y-15914285D02*
X47926247Y-15961904D01*
X47926247Y-15961904D02*
X47783390Y-15961904D01*
X47783390Y-15961904D02*
X47592914Y-15914285D01*
X47592914Y-15914285D02*
X47497676Y-15866666D01*
X47497676Y-15866666D02*
X47402438Y-15771428D01*
X47402438Y-15771428D02*
X47354819Y-15628571D01*
X47354819Y-15628571D02*
X47354819Y-15533333D01*
X47354819Y-15533333D02*
X47402438Y-15390476D01*
X47402438Y-15390476D02*
X47450057Y-15342857D01*
X47688152Y-14485714D02*
X48354819Y-14485714D01*
X47307200Y-14723809D02*
X48021485Y-14961904D01*
X48021485Y-14961904D02*
X48021485Y-14342857D01*
X48354819Y-13914285D02*
X48354819Y-13723809D01*
X48354819Y-13723809D02*
X48307200Y-13628571D01*
X48307200Y-13628571D02*
X48259580Y-13580952D01*
X48259580Y-13580952D02*
X48116723Y-13485714D01*
X48116723Y-13485714D02*
X47926247Y-13438095D01*
X47926247Y-13438095D02*
X47545295Y-13438095D01*
X47545295Y-13438095D02*
X47450057Y-13485714D01*
X47450057Y-13485714D02*
X47402438Y-13533333D01*
X47402438Y-13533333D02*
X47354819Y-13628571D01*
X47354819Y-13628571D02*
X47354819Y-13819047D01*
X47354819Y-13819047D02*
X47402438Y-13914285D01*
X47402438Y-13914285D02*
X47450057Y-13961904D01*
X47450057Y-13961904D02*
X47545295Y-14009523D01*
X47545295Y-14009523D02*
X47783390Y-14009523D01*
X47783390Y-14009523D02*
X47878628Y-13961904D01*
X47878628Y-13961904D02*
X47926247Y-13914285D01*
X47926247Y-13914285D02*
X47973866Y-13819047D01*
X47973866Y-13819047D02*
X47973866Y-13628571D01*
X47973866Y-13628571D02*
X47926247Y-13533333D01*
X47926247Y-13533333D02*
X47878628Y-13485714D01*
X47878628Y-13485714D02*
X47783390Y-13438095D01*
X55357142Y-16859580D02*
X55309523Y-16907200D01*
X55309523Y-16907200D02*
X55166666Y-16954819D01*
X55166666Y-16954819D02*
X55071428Y-16954819D01*
X55071428Y-16954819D02*
X54928571Y-16907200D01*
X54928571Y-16907200D02*
X54833333Y-16811961D01*
X54833333Y-16811961D02*
X54785714Y-16716723D01*
X54785714Y-16716723D02*
X54738095Y-16526247D01*
X54738095Y-16526247D02*
X54738095Y-16383390D01*
X54738095Y-16383390D02*
X54785714Y-16192914D01*
X54785714Y-16192914D02*
X54833333Y-16097676D01*
X54833333Y-16097676D02*
X54928571Y-16002438D01*
X54928571Y-16002438D02*
X55071428Y-15954819D01*
X55071428Y-15954819D02*
X55166666Y-15954819D01*
X55166666Y-15954819D02*
X55309523Y-16002438D01*
X55309523Y-16002438D02*
X55357142Y-16050057D01*
X55738095Y-16050057D02*
X55785714Y-16002438D01*
X55785714Y-16002438D02*
X55880952Y-15954819D01*
X55880952Y-15954819D02*
X56119047Y-15954819D01*
X56119047Y-15954819D02*
X56214285Y-16002438D01*
X56214285Y-16002438D02*
X56261904Y-16050057D01*
X56261904Y-16050057D02*
X56309523Y-16145295D01*
X56309523Y-16145295D02*
X56309523Y-16240533D01*
X56309523Y-16240533D02*
X56261904Y-16383390D01*
X56261904Y-16383390D02*
X55690476Y-16954819D01*
X55690476Y-16954819D02*
X56309523Y-16954819D01*
X56642857Y-15954819D02*
X57261904Y-15954819D01*
X57261904Y-15954819D02*
X56928571Y-16335771D01*
X56928571Y-16335771D02*
X57071428Y-16335771D01*
X57071428Y-16335771D02*
X57166666Y-16383390D01*
X57166666Y-16383390D02*
X57214285Y-16431009D01*
X57214285Y-16431009D02*
X57261904Y-16526247D01*
X57261904Y-16526247D02*
X57261904Y-16764342D01*
X57261904Y-16764342D02*
X57214285Y-16859580D01*
X57214285Y-16859580D02*
X57166666Y-16907200D01*
X57166666Y-16907200D02*
X57071428Y-16954819D01*
X57071428Y-16954819D02*
X56785714Y-16954819D01*
X56785714Y-16954819D02*
X56690476Y-16907200D01*
X56690476Y-16907200D02*
X56642857Y-16859580D01*
X50309104Y-864285D02*
X50309104Y-388095D01*
X50594819Y-959523D02*
X49594819Y-626190D01*
X49594819Y-626190D02*
X50594819Y-292857D01*
X50594819Y564286D02*
X50594819Y-7142D01*
X50594819Y278572D02*
X49594819Y278572D01*
X49594819Y278572D02*
X49737676Y183334D01*
X49737676Y183334D02*
X49832914Y88096D01*
X49832914Y88096D02*
X49880533Y-7142D01*
X26999693Y-17008830D02*
X26999693Y-17076174D01*
X26999693Y-17076174D02*
X26932349Y-17210861D01*
X26932349Y-17210861D02*
X26865006Y-17278204D01*
X26865006Y-17278204D02*
X26730319Y-17345548D01*
X26730319Y-17345548D02*
X26595632Y-17345548D01*
X26595632Y-17345548D02*
X26494617Y-17311876D01*
X26494617Y-17311876D02*
X26326258Y-17210861D01*
X26326258Y-17210861D02*
X26225243Y-17109846D01*
X26225243Y-17109846D02*
X26124227Y-16941487D01*
X26124227Y-16941487D02*
X26090556Y-16840472D01*
X26090556Y-16840472D02*
X26090556Y-16705785D01*
X26090556Y-16705785D02*
X26157899Y-16571098D01*
X26157899Y-16571098D02*
X26225243Y-16503754D01*
X26225243Y-16503754D02*
X26359930Y-16436411D01*
X26359930Y-16436411D02*
X26427273Y-16436411D01*
X26696647Y-16167037D02*
X26696647Y-16099693D01*
X26696647Y-16099693D02*
X26730319Y-15998678D01*
X26730319Y-15998678D02*
X26898678Y-15830319D01*
X26898678Y-15830319D02*
X26999693Y-15796647D01*
X26999693Y-15796647D02*
X27067036Y-15796647D01*
X27067036Y-15796647D02*
X27168052Y-15830319D01*
X27168052Y-15830319D02*
X27235395Y-15897663D01*
X27235395Y-15897663D02*
X27302739Y-16032350D01*
X27302739Y-16032350D02*
X27302739Y-16840472D01*
X27302739Y-16840472D02*
X27740471Y-16402739D01*
X28413907Y-15729304D02*
X28009846Y-16133365D01*
X28211876Y-15931334D02*
X27504769Y-15224227D01*
X27504769Y-15224227D02*
X27538441Y-15392586D01*
X27538441Y-15392586D02*
X27538441Y-15527273D01*
X27538441Y-15527273D02*
X27504769Y-15628288D01*
X55657142Y-2559580D02*
X55609523Y-2607200D01*
X55609523Y-2607200D02*
X55466666Y-2654819D01*
X55466666Y-2654819D02*
X55371428Y-2654819D01*
X55371428Y-2654819D02*
X55228571Y-2607200D01*
X55228571Y-2607200D02*
X55133333Y-2511961D01*
X55133333Y-2511961D02*
X55085714Y-2416723D01*
X55085714Y-2416723D02*
X55038095Y-2226247D01*
X55038095Y-2226247D02*
X55038095Y-2083390D01*
X55038095Y-2083390D02*
X55085714Y-1892914D01*
X55085714Y-1892914D02*
X55133333Y-1797676D01*
X55133333Y-1797676D02*
X55228571Y-1702438D01*
X55228571Y-1702438D02*
X55371428Y-1654819D01*
X55371428Y-1654819D02*
X55466666Y-1654819D01*
X55466666Y-1654819D02*
X55609523Y-1702438D01*
X55609523Y-1702438D02*
X55657142Y-1750057D01*
X55990476Y-1654819D02*
X56609523Y-1654819D01*
X56609523Y-1654819D02*
X56276190Y-2035771D01*
X56276190Y-2035771D02*
X56419047Y-2035771D01*
X56419047Y-2035771D02*
X56514285Y-2083390D01*
X56514285Y-2083390D02*
X56561904Y-2131009D01*
X56561904Y-2131009D02*
X56609523Y-2226247D01*
X56609523Y-2226247D02*
X56609523Y-2464342D01*
X56609523Y-2464342D02*
X56561904Y-2559580D01*
X56561904Y-2559580D02*
X56514285Y-2607200D01*
X56514285Y-2607200D02*
X56419047Y-2654819D01*
X56419047Y-2654819D02*
X56133333Y-2654819D01*
X56133333Y-2654819D02*
X56038095Y-2607200D01*
X56038095Y-2607200D02*
X55990476Y-2559580D01*
X56942857Y-1654819D02*
X57561904Y-1654819D01*
X57561904Y-1654819D02*
X57228571Y-2035771D01*
X57228571Y-2035771D02*
X57371428Y-2035771D01*
X57371428Y-2035771D02*
X57466666Y-2083390D01*
X57466666Y-2083390D02*
X57514285Y-2131009D01*
X57514285Y-2131009D02*
X57561904Y-2226247D01*
X57561904Y-2226247D02*
X57561904Y-2464342D01*
X57561904Y-2464342D02*
X57514285Y-2559580D01*
X57514285Y-2559580D02*
X57466666Y-2607200D01*
X57466666Y-2607200D02*
X57371428Y-2654819D01*
X57371428Y-2654819D02*
X57085714Y-2654819D01*
X57085714Y-2654819D02*
X56990476Y-2607200D01*
X56990476Y-2607200D02*
X56942857Y-2559580D01*
X64057142Y-2559580D02*
X64009523Y-2607200D01*
X64009523Y-2607200D02*
X63866666Y-2654819D01*
X63866666Y-2654819D02*
X63771428Y-2654819D01*
X63771428Y-2654819D02*
X63628571Y-2607200D01*
X63628571Y-2607200D02*
X63533333Y-2511961D01*
X63533333Y-2511961D02*
X63485714Y-2416723D01*
X63485714Y-2416723D02*
X63438095Y-2226247D01*
X63438095Y-2226247D02*
X63438095Y-2083390D01*
X63438095Y-2083390D02*
X63485714Y-1892914D01*
X63485714Y-1892914D02*
X63533333Y-1797676D01*
X63533333Y-1797676D02*
X63628571Y-1702438D01*
X63628571Y-1702438D02*
X63771428Y-1654819D01*
X63771428Y-1654819D02*
X63866666Y-1654819D01*
X63866666Y-1654819D02*
X64009523Y-1702438D01*
X64009523Y-1702438D02*
X64057142Y-1750057D01*
X64390476Y-1654819D02*
X65009523Y-1654819D01*
X65009523Y-1654819D02*
X64676190Y-2035771D01*
X64676190Y-2035771D02*
X64819047Y-2035771D01*
X64819047Y-2035771D02*
X64914285Y-2083390D01*
X64914285Y-2083390D02*
X64961904Y-2131009D01*
X64961904Y-2131009D02*
X65009523Y-2226247D01*
X65009523Y-2226247D02*
X65009523Y-2464342D01*
X65009523Y-2464342D02*
X64961904Y-2559580D01*
X64961904Y-2559580D02*
X64914285Y-2607200D01*
X64914285Y-2607200D02*
X64819047Y-2654819D01*
X64819047Y-2654819D02*
X64533333Y-2654819D01*
X64533333Y-2654819D02*
X64438095Y-2607200D01*
X64438095Y-2607200D02*
X64390476Y-2559580D01*
X65914285Y-1654819D02*
X65438095Y-1654819D01*
X65438095Y-1654819D02*
X65390476Y-2131009D01*
X65390476Y-2131009D02*
X65438095Y-2083390D01*
X65438095Y-2083390D02*
X65533333Y-2035771D01*
X65533333Y-2035771D02*
X65771428Y-2035771D01*
X65771428Y-2035771D02*
X65866666Y-2083390D01*
X65866666Y-2083390D02*
X65914285Y-2131009D01*
X65914285Y-2131009D02*
X65961904Y-2226247D01*
X65961904Y-2226247D02*
X65961904Y-2464342D01*
X65961904Y-2464342D02*
X65914285Y-2559580D01*
X65914285Y-2559580D02*
X65866666Y-2607200D01*
X65866666Y-2607200D02*
X65771428Y-2654819D01*
X65771428Y-2654819D02*
X65533333Y-2654819D01*
X65533333Y-2654819D02*
X65438095Y-2607200D01*
X65438095Y-2607200D02*
X65390476Y-2559580D01*
D12*
%TO.C,R20*%
X42477500Y-16737258D02*
X42477500Y-16262742D01*
X43522500Y-16737258D02*
X43522500Y-16262742D01*
%TO.C,U4*%
X6215000Y-34470000D02*
X7635000Y-34470000D01*
X6215000Y-40220000D02*
X6215000Y-34470000D01*
X6215000Y-41760000D02*
X6215000Y-42060000D01*
X6215000Y-42060000D02*
X16585000Y-42060000D01*
X7635000Y-34470000D02*
X7635000Y-34970000D01*
X7635000Y-34970000D02*
X15165000Y-34970000D01*
X15165000Y-34470000D02*
X16585000Y-34470000D01*
X15165000Y-34970000D02*
X15165000Y-34470000D01*
X16585000Y-34470000D02*
X16585000Y-40220000D01*
X16585000Y-42060000D02*
X16585000Y-41760000D01*
%TO.C,R21*%
X38977500Y-17037258D02*
X38977500Y-16562742D01*
X40022500Y-17037258D02*
X40022500Y-16562742D01*
%TO.C,U6*%
X55190000Y-26250000D02*
X55190000Y-20240000D01*
X62010000Y-24000000D02*
X62010000Y-20240000D01*
X55190000Y-20240000D02*
X56450000Y-20240000D01*
X62010000Y-20240000D02*
X60750000Y-20240000D01*
%TO.C,J3*%
X740000Y-14960000D02*
X740000Y-14260000D01*
X2960000Y-14960000D02*
X2960000Y-3440000D01*
X-1310000Y-14260000D02*
X740000Y-14260000D01*
X-1310000Y-14260000D02*
X-1310000Y-13730000D01*
X-1310000Y-4670000D02*
X-1310000Y-4140000D01*
X-1310000Y-4140000D02*
X740000Y-4140000D01*
X740000Y-4140000D02*
X740000Y-3440000D01*
X740001Y-14850000D02*
G75*
G03*
X2946634Y-15021729I1109999J1D01*
G01*
X2960000Y-3550000D02*
G75*
G03*
X740000Y-3550000I-1110000J0D01*
G01*
%TO.C,J5*%
X48885000Y-700000D02*
X47465000Y-700000D01*
X48885000Y5050000D02*
X48885000Y-700000D01*
X48885000Y6590000D02*
X48885000Y6890000D01*
X48885000Y6890000D02*
X38515000Y6890000D01*
X47465000Y-700000D02*
X47465000Y-200000D01*
X47465000Y-200000D02*
X39935000Y-200000D01*
X39935000Y-700000D02*
X38515000Y-700000D01*
X39935000Y-200000D02*
X39935000Y-700000D01*
X38515000Y-700000D02*
X38515000Y5050000D01*
X38515000Y6890000D02*
X38515000Y6590000D01*
%TO.C,SW4*%
X17650000Y-33850000D02*
X17650000Y-32467000D01*
X17650000Y-33850000D02*
X16267000Y-33850000D01*
X17410000Y-33610000D02*
X17410000Y-32300000D01*
X17410000Y-33610000D02*
X10590000Y-33610000D01*
X17410000Y-30700000D02*
X17410000Y-29390000D01*
X17410000Y-29390000D02*
X10590000Y-29390000D01*
X15810000Y-32135000D02*
X15810000Y-30865000D01*
X15810000Y-32015000D02*
X14603333Y-32015000D01*
X15810000Y-31895000D02*
X14603333Y-31895000D01*
X15810000Y-31775000D02*
X14603333Y-31775000D01*
X15810000Y-31655000D02*
X14603333Y-31655000D01*
X15810000Y-31535000D02*
X14603333Y-31535000D01*
X15810000Y-31415000D02*
X14603333Y-31415000D01*
X15810000Y-31295000D02*
X14603333Y-31295000D01*
X15810000Y-31175000D02*
X14603333Y-31175000D01*
X15810000Y-31055000D02*
X14603333Y-31055000D01*
X15810000Y-30935000D02*
X14603333Y-30935000D01*
X15810000Y-30865000D02*
X12190000Y-30865000D01*
X14603333Y-32135000D02*
X14603333Y-30865000D01*
X12190000Y-32135000D02*
X15810000Y-32135000D01*
X12190000Y-30865000D02*
X12190000Y-32135000D01*
X10590000Y-33610000D02*
X10590000Y-32300000D01*
X10590000Y-30700000D02*
X10590000Y-29390000D01*
%TO.C,D6*%
X71585000Y-17335000D02*
X71585000Y-15865000D01*
X71585000Y-15865000D02*
X69300000Y-15865000D01*
X69300000Y-17335000D02*
X71585000Y-17335000D01*
%TO.C,C44*%
X31960000Y-1450000D02*
X31960000Y-2700000D01*
X32585000Y-2075000D02*
X31335000Y-2075000D01*
X33495563Y-2940000D02*
X30710000Y-2940000D01*
X33495563Y-2940000D02*
X34560000Y-4004437D01*
X24904437Y-2940000D02*
X27690000Y-2940000D01*
X24904437Y-2940000D02*
X23840000Y-4004437D01*
X34560000Y-4004437D02*
X34560000Y-13660000D01*
X23840000Y-4004437D02*
X23840000Y-13660000D01*
X34560000Y-13660000D02*
X30710000Y-13660000D01*
X23840000Y-13660000D02*
X27690000Y-13660000D01*
%TO.C,J2*%
X765000Y-29350000D02*
X765000Y-28760000D01*
X2985000Y-29350000D02*
X2985000Y-28760000D01*
X-1335000Y-28760000D02*
X765000Y-28760000D01*
X-1335000Y-28760000D02*
X-1335000Y-18640000D01*
X2985000Y-28760000D02*
X7885000Y-28760000D01*
X7885000Y-28760000D02*
X7885000Y-18640000D01*
X-1335000Y-18640000D02*
X765000Y-18640000D01*
X765000Y-18640000D02*
X765000Y-18050000D01*
X2985000Y-18640000D02*
X7885000Y-18640000D01*
X2985000Y-18640000D02*
X2985000Y-18050000D01*
X765000Y-29350000D02*
G75*
G03*
X2985000Y-29350000I1110000J0D01*
G01*
X2985000Y-18050000D02*
G75*
G03*
X765000Y-18050000I-1110000J0D01*
G01*
%TO.C,R24*%
X23977500Y-19437258D02*
X23977500Y-18962742D01*
X25022500Y-19437258D02*
X25022500Y-18962742D01*
%TO.C,C18*%
X31022500Y-18962742D02*
X31022500Y-19437258D01*
X29977500Y-18962742D02*
X29977500Y-19437258D01*
%TO.C,C28*%
X43502000Y-29210580D02*
X43502000Y-28929420D01*
X44522000Y-29210580D02*
X44522000Y-28929420D01*
%TO.C,C37*%
X58190000Y88748D02*
X58190000Y1511252D01*
X60010000Y88748D02*
X60010000Y1511252D01*
%TO.C,C46*%
X70240000Y-1711252D02*
X70240000Y-288748D01*
X72960000Y-1711252D02*
X72960000Y-288748D01*
%TO.C,J10*%
X29515000Y-34420000D02*
X30935000Y-34420000D01*
X29515000Y-40170000D02*
X29515000Y-34420000D01*
X29515000Y-41710000D02*
X29515000Y-42010000D01*
X29515000Y-42010000D02*
X42885000Y-42010000D01*
X30935000Y-34420000D02*
X30935000Y-34920000D01*
X30935000Y-34920000D02*
X41465000Y-34920000D01*
X41465000Y-34420000D02*
X42885000Y-34420000D01*
X41465000Y-34920000D02*
X41465000Y-34420000D01*
X42885000Y-34420000D02*
X42885000Y-40170000D01*
X42885000Y-42010000D02*
X42885000Y-41710000D01*
%TO.C,D3*%
X71585000Y-20735000D02*
X71585000Y-19265000D01*
X71585000Y-19265000D02*
X69300000Y-19265000D01*
X69300000Y-20735000D02*
X71585000Y-20735000D01*
%TO.C,C17*%
X41122500Y-22862742D02*
X41122500Y-23337258D01*
X40077500Y-22862742D02*
X40077500Y-23337258D01*
%TO.C,C48*%
X37960000Y-5888748D02*
X37960000Y-7311252D01*
X35240000Y-5888748D02*
X35240000Y-7311252D01*
%TO.C,C19*%
X48490000Y-27211252D02*
X48490000Y-25788748D01*
X50310000Y-27211252D02*
X50310000Y-25788748D01*
%TO.C,C16*%
X47388748Y-19940000D02*
X48811252Y-19940000D01*
X47388748Y-22660000D02*
X48811252Y-22660000D01*
%TO.C,SW2*%
X5875000Y-400000D02*
X5995000Y-400000D01*
X7005000Y-400000D02*
X8145000Y-400000D01*
X9155000Y-400000D02*
X9275000Y-400000D01*
X9275000Y-400000D02*
X9275000Y4000000D01*
X5875000Y4000000D02*
X5875000Y-400000D01*
X5995000Y4000000D02*
X5875000Y4000000D01*
X8145000Y4000000D02*
X7005000Y4000000D01*
X9275000Y4000000D02*
X9155000Y4000000D01*
%TO.C,C38*%
X60790000Y88748D02*
X60790000Y1511252D01*
X62610000Y88748D02*
X62610000Y1511252D01*
%TO.C,SW1*%
X78500000Y-28500000D02*
X78500000Y-28380000D01*
X78500000Y-27370000D02*
X78500000Y-26230000D01*
X78500000Y-25220000D02*
X78500000Y-25100000D01*
X78500000Y-25100000D02*
X74100000Y-25100000D01*
X74100000Y-28500000D02*
X78500000Y-28500000D01*
X74100000Y-28380000D02*
X74100000Y-28500000D01*
X74100000Y-26230000D02*
X74100000Y-27370000D01*
X74100000Y-25100000D02*
X74100000Y-25220000D01*
%TO.C,C22*%
X39765000Y-29286252D02*
X39765000Y-28763748D01*
X41235000Y-29286252D02*
X41235000Y-28763748D01*
%TO.C,C20*%
X50890000Y-27140580D02*
X50890000Y-26859420D01*
X51910000Y-27140580D02*
X51910000Y-26859420D01*
%TO.C,C15*%
X44860000Y-21988748D02*
X44860000Y-23411252D01*
X42140000Y-21988748D02*
X42140000Y-23411252D01*
%TO.C,C13*%
X47934420Y-18390000D02*
X48215580Y-18390000D01*
X47934420Y-19410000D02*
X48215580Y-19410000D01*
%TO.C,C34*%
X18460000Y-1350000D02*
X18460000Y-2600000D01*
X19085000Y-1975000D02*
X17835000Y-1975000D01*
X19995563Y-2840000D02*
X17210000Y-2840000D01*
X19995563Y-2840000D02*
X21060000Y-3904437D01*
X11404437Y-2840000D02*
X14190000Y-2840000D01*
X11404437Y-2840000D02*
X10340000Y-3904437D01*
X21060000Y-3904437D02*
X21060000Y-13560000D01*
X10340000Y-3904437D02*
X10340000Y-13560000D01*
X21060000Y-13560000D02*
X17210000Y-13560000D01*
X10340000Y-13560000D02*
X14190000Y-13560000D01*
%TO.C,C45*%
X66840000Y-1711252D02*
X66840000Y-288748D01*
X69560000Y-1711252D02*
X69560000Y-288748D01*
%TO.C,R19*%
X40777500Y-18337258D02*
X40777500Y-17862742D01*
X41822500Y-18337258D02*
X41822500Y-17862742D01*
%TO.C,R25*%
X29522500Y-18962742D02*
X29522500Y-19437258D01*
X28477500Y-18962742D02*
X28477500Y-19437258D01*
%TO.C,D10*%
X26990000Y-23150000D02*
X35500000Y-23150000D01*
X26990000Y-29650000D02*
X26990000Y-23150000D01*
X26990000Y-29650000D02*
X35500000Y-29650000D01*
%TO.C,SW3*%
X74100000Y-30100000D02*
X74100000Y-30220000D01*
X74100000Y-31230000D02*
X74100000Y-32370000D01*
X74100000Y-33380000D02*
X74100000Y-33500000D01*
X74100000Y-33500000D02*
X78500000Y-33500000D01*
X78500000Y-30100000D02*
X74100000Y-30100000D01*
X78500000Y-30220000D02*
X78500000Y-30100000D01*
X78500000Y-32370000D02*
X78500000Y-31230000D01*
X78500000Y-33500000D02*
X78500000Y-33380000D01*
%TO.C,R23*%
X25477500Y-19437258D02*
X25477500Y-18962742D01*
X26522500Y-19437258D02*
X26522500Y-18962742D01*
%TO.C,J9*%
X43915000Y-34420000D02*
X45335000Y-34420000D01*
X43915000Y-40170000D02*
X43915000Y-34420000D01*
X43915000Y-41710000D02*
X43915000Y-42010000D01*
X43915000Y-42010000D02*
X57285000Y-42010000D01*
X45335000Y-34420000D02*
X45335000Y-34920000D01*
X45335000Y-34920000D02*
X55865000Y-34920000D01*
X55865000Y-34420000D02*
X57285000Y-34420000D01*
X55865000Y-34920000D02*
X55865000Y-34420000D01*
X57285000Y-34420000D02*
X57285000Y-40170000D01*
X57285000Y-42010000D02*
X57285000Y-41710000D01*
D13*
%TO.C,IC2*%
X38475000Y-22180000D02*
X36950000Y-22180000D01*
D12*
%TO.C,C12*%
X47934420Y-16690000D02*
X48215580Y-16690000D01*
X47934420Y-17710000D02*
X48215580Y-17710000D01*
%TO.C,C26*%
X41902000Y-29210580D02*
X41902000Y-28929420D01*
X42922000Y-29210580D02*
X42922000Y-28929420D01*
%TO.C,U5*%
X18015000Y-34460000D02*
X19435000Y-34460000D01*
X18015000Y-40210000D02*
X18015000Y-34460000D01*
X18015000Y-41750000D02*
X18015000Y-42050000D01*
X18015000Y-42050000D02*
X28385000Y-42050000D01*
X19435000Y-34460000D02*
X19435000Y-34960000D01*
X19435000Y-34960000D02*
X26965000Y-34960000D01*
X26965000Y-34460000D02*
X28385000Y-34460000D01*
X26965000Y-34960000D02*
X26965000Y-34460000D01*
X28385000Y-34460000D02*
X28385000Y-40210000D01*
X28385000Y-42050000D02*
X28385000Y-41750000D01*
%TO.C,C27*%
X53361252Y-23835000D02*
X52838748Y-23835000D01*
X53361252Y-22365000D02*
X52838748Y-22365000D01*
%TO.C,J12*%
X49970000Y-33130000D02*
X49970000Y-31800000D01*
X51300000Y-33130000D02*
X49970000Y-33130000D01*
X52570000Y-33130000D02*
X60250000Y-33130000D01*
X52570000Y-33130000D02*
X52570000Y-30470000D01*
X60250000Y-33130000D02*
X60250000Y-30470000D01*
X52570000Y-30470000D02*
X60250000Y-30470000D01*
%TO.C,J6*%
X61670000Y-38675000D02*
X61670000Y-40595000D01*
X70830000Y-40595000D02*
X70830000Y-38675000D01*
%TO.C,J4*%
X37185000Y-700000D02*
X35765000Y-700000D01*
X37185000Y5050000D02*
X37185000Y-700000D01*
X37185000Y6590000D02*
X37185000Y6890000D01*
X37185000Y6890000D02*
X26815000Y6890000D01*
X35765000Y-700000D02*
X35765000Y-200000D01*
X35765000Y-200000D02*
X28235000Y-200000D01*
X28235000Y-700000D02*
X26815000Y-700000D01*
X28235000Y-200000D02*
X28235000Y-700000D01*
X26815000Y-700000D02*
X26815000Y5050000D01*
X26815000Y6890000D02*
X26815000Y6590000D01*
%TO.C,C24*%
X37365000Y-29286252D02*
X37365000Y-28763748D01*
X38835000Y-29286252D02*
X38835000Y-28763748D01*
%TO.C,L2*%
X44412132Y-3886649D02*
X45472792Y-4947309D01*
X48548707Y-8093934D02*
X44023223Y-12619417D01*
X47806245Y-7351472D02*
X48548707Y-8093934D01*
X44023223Y-12619417D02*
X43316117Y-11912311D01*
X40558400Y-9154594D02*
X39851293Y-8447487D01*
X39745227Y-8553553D02*
X44412132Y-3886649D01*
%TO.C,R22*%
X38537258Y-24122500D02*
X38062742Y-24122500D01*
X38537258Y-23077500D02*
X38062742Y-23077500D01*
%TO.C,J1*%
X78530000Y-23580000D02*
X77200000Y-23580000D01*
X78530000Y-22250000D02*
X78530000Y-23580000D01*
X78530000Y-20980000D02*
X78530000Y-8220000D01*
X78530000Y-20980000D02*
X75870000Y-20980000D01*
X78530000Y-8220000D02*
X75870000Y-8220000D01*
X75870000Y-20980000D02*
X75870000Y-8220000D01*
%TO.C,D8*%
X78997500Y-5535000D02*
X78997500Y-4065000D01*
X78997500Y-4065000D02*
X76712500Y-4065000D01*
X76712500Y-5535000D02*
X78997500Y-5535000D01*
%TO.C,D7*%
X78985000Y-3835000D02*
X78985000Y-2365000D01*
X78985000Y-2365000D02*
X76700000Y-2365000D01*
X76700000Y-3835000D02*
X78985000Y-3835000D01*
%TO.C,D4*%
X71585000Y-22435000D02*
X71585000Y-20965000D01*
X71585000Y-20965000D02*
X69300000Y-20965000D01*
X69300000Y-22435000D02*
X71585000Y-22435000D01*
%TO.C,L1*%
X21790000Y-25213748D02*
X21790000Y-27986252D01*
X25810000Y-25273748D02*
X25810000Y-28046252D01*
%TO.C,C49*%
X47188748Y-13240000D02*
X48611252Y-13240000D01*
X47188748Y-15960000D02*
X48611252Y-15960000D01*
%TO.C,C23*%
X53140580Y-17510000D02*
X52859420Y-17510000D01*
X53140580Y-16490000D02*
X52859420Y-16490000D01*
%TO.C,C29*%
X53361252Y-19635000D02*
X52838748Y-19635000D01*
X53361252Y-18165000D02*
X52838748Y-18165000D01*
%TO.C,A1*%
X51280000Y-7900000D02*
X52680000Y-7900000D01*
X53950000Y-7900000D02*
X71860000Y-7900000D01*
X71860000Y-7900000D02*
X71860000Y7600000D01*
X51280000Y-6500000D02*
X51280000Y-7900000D01*
X51280000Y-5230000D02*
X53950000Y-5230000D01*
X53950000Y-5230000D02*
X53950000Y-7900000D01*
X53950000Y-5230000D02*
X71860000Y-5230000D01*
X51280000Y4930000D02*
X71860000Y4930000D01*
X51280000Y7600000D02*
X51280000Y-5230000D01*
X71860000Y7600000D02*
X51280000Y7600000D01*
%TO.C,J7*%
X25785000Y-700000D02*
X24365000Y-700000D01*
X25785000Y5050000D02*
X25785000Y-700000D01*
X25785000Y6590000D02*
X25785000Y6890000D01*
X25785000Y6890000D02*
X18415000Y6890000D01*
X24365000Y-700000D02*
X24365000Y-200000D01*
X24365000Y-200000D02*
X19835000Y-200000D01*
X19835000Y-700000D02*
X18415000Y-700000D01*
X19835000Y-200000D02*
X19835000Y-700000D01*
X18415000Y-700000D02*
X18415000Y5050000D01*
X18415000Y6890000D02*
X18415000Y6590000D01*
%TO.C,C21*%
X28010000Y-19059420D02*
X28010000Y-19340580D01*
X26990000Y-19059420D02*
X26990000Y-19340580D01*
%TO.C,J8*%
X17385000Y-700000D02*
X15965000Y-700000D01*
X17385000Y5050000D02*
X17385000Y-700000D01*
X17385000Y6590000D02*
X17385000Y6890000D01*
X17385000Y6890000D02*
X10015000Y6890000D01*
X15965000Y-700000D02*
X15965000Y-200000D01*
X15965000Y-200000D02*
X11435000Y-200000D01*
X11435000Y-700000D02*
X10015000Y-700000D01*
X11435000Y-200000D02*
X11435000Y-700000D01*
X10015000Y-700000D02*
X10015000Y5050000D01*
X10015000Y6890000D02*
X10015000Y6590000D01*
%TO.C,C25*%
X53361252Y-21735000D02*
X52838748Y-21735000D01*
X53361252Y-20265000D02*
X52838748Y-20265000D01*
%TO.C,D5*%
X71585000Y-19035000D02*
X71585000Y-17565000D01*
X71585000Y-17565000D02*
X69300000Y-17565000D01*
X69300000Y-19035000D02*
X71585000Y-19035000D01*
%TO.C,C33*%
X55590000Y88748D02*
X55590000Y1511252D01*
X57410000Y88748D02*
X57410000Y1511252D01*
%TO.C,J11*%
X70670000Y-25370000D02*
X70670000Y-26700000D01*
X69340000Y-25370000D02*
X70670000Y-25370000D01*
X68070000Y-25370000D02*
X65470000Y-25370000D01*
X68070000Y-25370000D02*
X68070000Y-28030000D01*
X65470000Y-25370000D02*
X65470000Y-28030000D01*
X68070000Y-28030000D02*
X65470000Y-28030000D01*
%TO.C,C35*%
X63440000Y88748D02*
X63440000Y1511252D01*
X66160000Y88748D02*
X66160000Y1511252D01*
%TD*%
%LPC*%
D14*
%TO.C,R20*%
X43000000Y-17325000D03*
X43000000Y-15675000D03*
%TD*%
D15*
%TO.C,U4*%
X6900000Y-40990000D03*
X15900000Y-40990000D03*
D16*
X9900000Y-37050000D03*
D17*
X12900000Y-37050000D03*
X9900000Y-40050000D03*
X12900000Y-40050000D03*
%TD*%
D14*
%TO.C,R21*%
X39500000Y-17625000D03*
X39500000Y-15975000D03*
%TD*%
D18*
%TO.C,U6*%
X56300000Y-25300000D03*
X58600000Y-25300000D03*
D19*
X58600000Y-19000000D03*
D18*
X60900000Y-25300000D03*
%TD*%
D20*
%TO.C,J3*%
X1850000Y-14700000D03*
X1850000Y-3700000D03*
D21*
X6850000Y-11700000D03*
D22*
X6850000Y-6700000D03*
%TD*%
D15*
%TO.C,J5*%
X48200000Y5820000D03*
X39200000Y5820000D03*
D23*
X45200000Y1880000D03*
D17*
X42200000Y1880000D03*
X45200000Y4880000D03*
X42200000Y4880000D03*
%TD*%
D24*
%TO.C,SW4*%
X18305000Y-31500000D03*
X9695000Y-31500000D03*
%TD*%
D25*
%TO.C,D6*%
X70887500Y-16600000D03*
X69312500Y-16600000D03*
%TD*%
D26*
%TO.C,C44*%
X29200000Y-4100000D03*
X29200000Y-12500000D03*
%TD*%
D20*
%TO.C,J2*%
X1875000Y-29200000D03*
X1875000Y-18200000D03*
D21*
X11875000Y-21200000D03*
D22*
X11875000Y-26200000D03*
%TD*%
D14*
%TO.C,R24*%
X24500000Y-20025000D03*
X24500000Y-18375000D03*
%TD*%
D27*
%TO.C,C18*%
X30500000Y-18375000D03*
X30500000Y-20025000D03*
%TD*%
D28*
%TO.C,C28*%
X44012000Y-29845000D03*
X44012000Y-28295000D03*
%TD*%
D29*
%TO.C,C37*%
X59100000Y-675000D03*
X59100000Y2275000D03*
%TD*%
D30*
%TO.C,C46*%
X71600000Y-2475000D03*
X71600000Y475000D03*
%TD*%
D15*
%TO.C,J10*%
X30200000Y-40940000D03*
X42200000Y-40940000D03*
D16*
X33200000Y-37000000D03*
D17*
X36200000Y-37000000D03*
X39200000Y-37000000D03*
X33200000Y-40000000D03*
X36200000Y-40000000D03*
X39200000Y-40000000D03*
%TD*%
D25*
%TO.C,D3*%
X70887500Y-20000000D03*
X69312500Y-20000000D03*
%TD*%
D27*
%TO.C,C17*%
X40600000Y-22275000D03*
X40600000Y-23925000D03*
%TD*%
D31*
%TO.C,C48*%
X36600000Y-5125000D03*
X36600000Y-8075000D03*
%TD*%
D29*
%TO.C,C19*%
X49400000Y-27975000D03*
X49400000Y-25025000D03*
%TD*%
D32*
%TO.C,C16*%
X46625000Y-21300000D03*
X49575000Y-21300000D03*
%TD*%
D33*
%TO.C,SW2*%
X6500000Y-275000D03*
X6500000Y3875000D03*
X8650000Y-275000D03*
X8650000Y3875000D03*
%TD*%
D29*
%TO.C,C38*%
X61700000Y-675000D03*
X61700000Y2275000D03*
%TD*%
D34*
%TO.C,SW1*%
X78375000Y-27875000D03*
X74225000Y-27875000D03*
X78375000Y-25725000D03*
X74225000Y-25725000D03*
%TD*%
D35*
%TO.C,FID2*%
X78200000Y300000D03*
%TD*%
D36*
%TO.C,C22*%
X40500000Y-29975000D03*
X40500000Y-28075000D03*
%TD*%
D28*
%TO.C,C20*%
X51400000Y-27775000D03*
X51400000Y-26225000D03*
%TD*%
D31*
%TO.C,C15*%
X43500000Y-21225000D03*
X43500000Y-24175000D03*
%TD*%
D37*
%TO.C,C13*%
X47300000Y-18900000D03*
X48850000Y-18900000D03*
%TD*%
D26*
%TO.C,C34*%
X15700000Y-4000000D03*
X15700000Y-12400000D03*
%TD*%
D30*
%TO.C,C45*%
X68200000Y-2475000D03*
X68200000Y475000D03*
%TD*%
D14*
%TO.C,R19*%
X41300000Y-18925000D03*
X41300000Y-17275000D03*
%TD*%
D27*
%TO.C,R25*%
X29000000Y-18375000D03*
X29000000Y-20025000D03*
%TD*%
D38*
%TO.C,D10*%
X28500000Y-26400000D03*
X35300000Y-26400000D03*
%TD*%
D34*
%TO.C,SW3*%
X74225000Y-30725000D03*
X78375000Y-30725000D03*
X74225000Y-32875000D03*
X78375000Y-32875000D03*
%TD*%
D39*
%TO.C,H1*%
X2500000Y3900000D03*
%TD*%
D14*
%TO.C,R23*%
X26000000Y-20025000D03*
X26000000Y-18375000D03*
%TD*%
D15*
%TO.C,J9*%
X44600000Y-40940000D03*
X56600000Y-40940000D03*
D16*
X47600000Y-37000000D03*
D17*
X50600000Y-37000000D03*
X53600000Y-37000000D03*
X47600000Y-40000000D03*
X50600000Y-40000000D03*
X53600000Y-40000000D03*
%TD*%
D40*
%TO.C,IC2*%
X37712000Y-21505000D03*
X37712000Y-20235000D03*
X37712000Y-18965000D03*
X37712000Y-17695000D03*
X32288000Y-17695000D03*
X32288000Y-18965000D03*
X32288000Y-20235000D03*
X32288000Y-21505000D03*
D41*
X35000000Y-19600000D03*
%TD*%
D37*
%TO.C,C12*%
X47300000Y-17200000D03*
X48850000Y-17200000D03*
%TD*%
D28*
%TO.C,C26*%
X42412000Y-29845000D03*
X42412000Y-28295000D03*
%TD*%
D15*
%TO.C,U5*%
X18700000Y-40980000D03*
X27700000Y-40980000D03*
D16*
X21700000Y-37040000D03*
D17*
X24700000Y-37040000D03*
X21700000Y-40040000D03*
X24700000Y-40040000D03*
%TD*%
D42*
%TO.C,C27*%
X54050000Y-23100000D03*
X52150000Y-23100000D03*
%TD*%
D43*
%TO.C,J12*%
X51300000Y-31800000D03*
D44*
X53840000Y-31800000D03*
X56380000Y-31800000D03*
X58920000Y-31800000D03*
%TD*%
D45*
%TO.C,J6*%
X63360000Y-37920000D03*
X69140000Y-37920000D03*
D46*
X63050000Y-36800000D03*
X63850000Y-36800000D03*
D47*
X65000000Y-36800000D03*
X66000000Y-36800000D03*
X66500000Y-36800000D03*
X67500000Y-36800000D03*
D46*
X68650000Y-36800000D03*
X69450000Y-36800000D03*
X69450000Y-36800000D03*
X68650000Y-36800000D03*
D47*
X68000000Y-36800000D03*
X67000000Y-36800000D03*
X65500000Y-36800000D03*
X64500000Y-36800000D03*
D46*
X63850000Y-36800000D03*
X63050000Y-36800000D03*
D48*
X61930000Y-37400000D03*
D49*
X61930000Y-41600000D03*
D48*
X70570000Y-37400000D03*
D49*
X70570000Y-41600000D03*
%TD*%
D15*
%TO.C,J4*%
X36500000Y5820000D03*
X27500000Y5820000D03*
D23*
X33500000Y1880000D03*
D17*
X30500000Y1880000D03*
X33500000Y4880000D03*
X30500000Y4880000D03*
%TD*%
D35*
%TO.C,FID1*%
X0Y0D03*
%TD*%
D36*
%TO.C,C24*%
X38100000Y-29975000D03*
X38100000Y-28075000D03*
%TD*%
D50*
%TO.C,L2*%
X45614214Y-6785786D03*
X42785786Y-9614214D03*
%TD*%
D39*
%TO.C,H2*%
X75500000Y3900000D03*
%TD*%
D51*
%TO.C,R22*%
X39125000Y-23600000D03*
X37475000Y-23600000D03*
%TD*%
D43*
%TO.C,J1*%
X77200000Y-22250000D03*
D44*
X77200000Y-19710000D03*
X77200000Y-17170000D03*
X77200000Y-14630000D03*
X77200000Y-12090000D03*
X77200000Y-9550000D03*
%TD*%
D25*
%TO.C,D8*%
X78300000Y-4800000D03*
X76725000Y-4800000D03*
%TD*%
%TO.C,D7*%
X78287500Y-3100000D03*
X76712500Y-3100000D03*
%TD*%
%TO.C,D4*%
X70887500Y-21700000D03*
X69312500Y-21700000D03*
%TD*%
D39*
%TO.C,H3*%
X75500000Y-39100000D03*
%TD*%
D52*
%TO.C,L1*%
X23820000Y-25080000D03*
D53*
X23810000Y-28096250D03*
%TD*%
D39*
%TO.C,H4*%
X2500000Y-39100000D03*
%TD*%
D35*
%TO.C,FID3*%
X78100000Y-35300000D03*
%TD*%
D32*
%TO.C,C49*%
X46425000Y-14600000D03*
X49375000Y-14600000D03*
%TD*%
D54*
%TO.C,C23*%
X53775000Y-17000000D03*
X52225000Y-17000000D03*
%TD*%
D42*
%TO.C,C29*%
X54050000Y-18900000D03*
X52150000Y-18900000D03*
%TD*%
D55*
%TO.C,A1*%
X52680000Y-6500000D03*
D56*
X55220000Y-6500000D03*
X57760000Y-6500000D03*
X60300000Y-6500000D03*
X62840000Y-6500000D03*
X65380000Y-6500000D03*
X67920000Y-6500000D03*
X70460000Y-6500000D03*
X70460000Y6200000D03*
X67920000Y6200000D03*
X65380000Y6200000D03*
X62840000Y6200000D03*
X60300000Y6200000D03*
X57760000Y6200000D03*
X55220000Y6200000D03*
X52680000Y6200000D03*
%TD*%
D15*
%TO.C,J7*%
X25100000Y5820000D03*
X19100000Y5820000D03*
D23*
X22100000Y1880000D03*
D17*
X22100000Y4880000D03*
%TD*%
D57*
%TO.C,C21*%
X27500000Y-18425000D03*
X27500000Y-19975000D03*
%TD*%
D15*
%TO.C,J8*%
X16700000Y5820000D03*
X10700000Y5820000D03*
D23*
X13700000Y1880000D03*
D17*
X13700000Y4880000D03*
%TD*%
D42*
%TO.C,C25*%
X54050000Y-21000000D03*
X52150000Y-21000000D03*
%TD*%
D25*
%TO.C,D5*%
X70887500Y-18300000D03*
X69312500Y-18300000D03*
%TD*%
D29*
%TO.C,C33*%
X56500000Y-675000D03*
X56500000Y2275000D03*
%TD*%
D43*
%TO.C,J11*%
X69340000Y-26700000D03*
D44*
X66800000Y-26700000D03*
%TD*%
D30*
%TO.C,C35*%
X64800000Y-675000D03*
X64800000Y2275000D03*
%TD*%
%LPD*%
M02*
